<svg width="73" height="89" viewBox="0 0 73 89" fill="none" xmlns="http://www.w3.org/2000/svg">
<path d="M67.6183 21.5515C67.6183 21.5515 67.6012 21.5515 67.5943 21.5515C67.5943 20.6105 67.6063 19.6713 67.5824 18.7303C67.579 18.58 67.4492 18.3529 67.3194 18.2982C66.5799 17.9857 65.8234 17.7091 65.0686 17.429C63.0347 16.6707 60.9939 15.9262 58.9634 15.1594C56.8543 14.3619 54.7538 13.5421 52.6482 12.7361C51.0531 12.1264 49.4547 11.5236 47.8579 10.9191C46.3756 10.3572 44.8916 9.79706 43.4092 9.23692C41.1926 8.39842 38.9725 7.57358 36.7678 6.70433C36.4365 6.57454 36.2008 6.60699 35.9003 6.72141C34.0132 7.4472 32.1176 8.14909 30.2271 8.86805C28.6441 9.47088 27.0678 10.0942 25.483 10.6953C23.5516 11.4263 21.6099 12.1367 19.6784 12.8693C18.1312 13.4568 16.5959 14.0716 15.0487 14.659C13.4912 15.2499 11.9235 15.8169 10.3643 16.4043C8.72661 17.0208 7.09742 17.6561 5.45628 18.2589C5.2411 18.3375 5.18133 18.4246 5.17621 18.6329C5.14547 19.8608 5.08741 21.0887 5.06691 22.3166C5.01397 25.522 4.93542 28.7291 4.94908 31.9346C4.95933 34.3493 5.08741 36.7641 5.18475 39.1788C5.22744 40.2667 5.29746 41.3545 5.39992 42.4372C5.49897 43.4875 5.64584 44.5326 5.791 45.5778C5.95494 46.7698 6.09839 47.9686 6.32894 49.1487C6.56119 50.339 6.83785 51.5276 7.1811 52.6888C7.70197 54.4529 8.24503 56.2136 8.8786 57.9401C9.6061 59.9228 10.5624 61.8048 11.652 63.6201C12.9892 65.8504 14.492 67.9561 16.3073 69.8192C17.4788 71.0215 18.6708 72.2152 19.9482 73.3013C21.118 74.2969 22.4022 75.1645 23.6609 76.0508C25.483 77.3333 27.4162 78.4433 29.4433 79.357C31.5865 80.3236 33.7946 81.145 35.9498 82.0877C36.3084 82.2448 36.5202 82.1936 36.8276 82.0672C37.7122 81.7051 38.6344 81.4285 39.5036 81.034C41.5512 80.1067 43.6039 79.1862 45.602 78.1582C47.53 77.1642 49.3659 75.9979 51.0617 74.6334C52.2417 73.6839 53.4286 72.7412 54.5455 71.7234C55.4403 70.9071 56.2464 69.99 57.0729 69.1003C58.4835 67.5821 59.6721 65.8965 60.7634 64.141C62.0254 62.1088 63.1132 59.9826 63.9278 57.7335C64.5853 55.9148 65.1984 54.0755 65.7124 52.2124C66.1394 50.6617 66.4262 49.0701 66.7132 47.487C66.9352 46.2609 67.0923 45.021 67.2221 43.7829C67.3792 42.2767 67.5175 40.767 67.5875 39.254C67.69 37.0459 67.7822 34.8343 67.7771 32.6245C67.7685 28.9341 67.6797 25.2436 67.6251 21.5549L67.6183 21.5515ZM63.0654 38.9329C63.0278 40.0976 62.8468 41.2572 62.7341 42.4201C62.6795 42.9837 62.6521 43.5507 62.5804 44.1108C62.4865 44.84 62.3601 45.5658 62.2457 46.2933C62.1535 46.8757 62.0766 47.4614 61.9605 48.0403C61.759 49.0428 61.578 50.0538 61.3098 51.0391C60.9478 52.3678 60.5277 53.681 60.1042 54.9909C59.5423 56.7294 58.7943 58.3944 57.9029 59.9843C57.1703 61.289 56.3864 62.5716 55.5274 63.796C54.2329 65.6404 52.7096 67.2986 51.048 68.8236C49.523 70.2223 47.8972 71.5065 46.1416 72.5926C44.4868 73.6155 42.7671 74.5394 41.0269 75.4121C39.6624 76.0969 38.2194 76.628 36.819 77.2445C36.4946 77.3863 36.1991 77.3811 35.8866 77.2445C34.4419 76.6161 32.9749 76.0337 31.5558 75.3489C30.1759 74.6829 28.8029 73.9827 27.5033 73.1732C26.1064 72.3023 24.7555 71.3408 23.4645 70.3196C22.2895 69.3906 21.1658 68.3796 20.119 67.3071C19.149 66.3132 18.2797 65.2151 17.4242 64.1171C15.9145 62.1788 14.702 60.0492 13.7184 57.8069C13.0336 56.2461 12.4905 54.6203 11.9457 53.0013C11.611 52.0074 11.3565 50.9828 11.1362 49.9581C10.8596 48.6739 10.6376 47.376 10.4275 46.0798C10.2516 44.9988 10.1133 43.911 9.99035 42.8232C9.90154 42.0427 9.90154 41.252 9.80079 40.475C9.50876 38.2088 9.54975 35.929 9.53609 33.6543C9.5173 30.2798 9.55146 26.9053 9.57366 23.5325C9.57707 22.9552 9.64538 22.378 9.66587 21.8008C9.67441 21.5737 9.75468 21.4866 9.97839 21.4029C12.4888 20.4619 14.9889 19.4954 17.4959 18.5458C19.9021 17.6339 22.3134 16.7391 24.7197 15.8288C26.5743 15.1269 28.4221 14.4097 30.2733 13.7044C32.1893 12.9752 34.1003 12.2306 36.0301 11.5441C36.3221 11.4399 36.732 11.5543 37.0513 11.667C38.3526 12.1298 39.6402 12.6302 40.9296 13.122C42.0157 13.537 43.0967 13.9691 44.1846 14.3824C46.8196 15.3831 49.4581 16.3753 52.0948 17.3743C54.2927 18.206 56.4889 19.0411 58.6867 19.8728C60.0683 20.3953 61.4533 20.906 62.8263 21.449C62.9493 21.4968 63.0637 21.7376 63.0671 21.8913C63.1149 24.2412 63.144 26.5927 63.1764 28.9426C63.1832 29.4396 63.1764 29.9382 63.1764 30.4352C63.1952 30.4352 63.2157 30.4352 63.2345 30.4352C63.1798 33.2683 63.1525 36.1032 63.0586 38.9363L63.0654 38.9329Z" fill="#40355D"/>
<path d="M63.2413 30.4113C63.1867 33.2444 63.1594 36.0793 63.0654 38.9124C63.0279 40.0771 62.8469 41.2367 62.7341 42.3997C62.6795 42.9632 62.6522 43.5302 62.5804 44.0903C62.4865 44.8195 62.3601 45.5453 62.2457 46.2728C62.1535 46.8552 62.0767 47.4409 61.9605 48.0198C61.759 49.0223 61.578 50.0333 61.3099 51.0187C60.9478 52.3473 60.5277 53.6605 60.1042 54.9704C59.5424 56.7089 58.7944 58.3739 57.9029 59.9638C57.1703 61.2685 56.3865 62.5511 55.5275 63.7755C54.233 65.6199 52.7097 67.2781 51.048 68.8031C49.523 70.2018 47.8972 71.486 46.1417 72.5721C44.4869 73.5951 42.7672 74.519 41.027 75.3916C39.6625 76.0764 38.2194 76.6075 36.8191 77.224C36.4946 77.3658 36.1992 77.3606 35.8867 77.224C34.4419 76.5956 32.975 76.0132 31.5558 75.3284C30.176 74.6624 28.8029 73.9622 27.5033 73.1528C26.1064 72.2818 24.7556 71.3203 23.4645 70.2991C22.2896 69.3701 21.1659 68.3591 20.119 67.2866C19.149 66.2927 18.2798 65.1947 17.4242 64.0966C15.9146 62.1583 14.7021 60.0287 13.7184 57.7864C13.0336 56.2256 12.4905 54.5998 11.9458 52.9809C11.6111 51.9869 11.3566 50.9623 11.1363 49.9376C10.8596 48.6534 10.6376 47.3555 10.4276 46.0594C10.2517 44.9784 10.1134 43.8905 9.9904 42.8027C9.9016 42.0222 9.9016 41.2316 9.80084 40.4545C9.50881 38.1884 9.5498 35.9085 9.53614 33.6338C9.51735 30.2593 9.55151 26.8848 9.57371 23.512C9.57713 22.9348 9.64543 22.3575 9.66593 21.7786C9.67447 21.5515 9.75473 21.4644 9.97845 21.3807C12.4888 20.4397 14.989 19.4732 17.4959 18.5237C19.9022 17.6117 22.3135 16.7169 24.7197 15.8066C26.5743 15.1047 28.4221 14.3875 30.2733 13.6822C32.1894 12.953 34.1004 12.2084 36.0301 11.5219C36.3221 11.4177 36.732 11.5321 37.0513 11.6448C38.3527 12.1076 39.6403 12.608 40.9296 13.0998C42.0158 13.5148 43.0968 13.9469 44.1846 14.3602C46.8197 15.3609 49.4581 16.3531 52.0949 17.3521C54.2928 18.1838 56.4889 19.0189 58.6868 19.8506C60.0684 20.3731 61.4533 20.8838 62.8264 21.4268C62.9493 21.4746 63.0637 21.7154 63.0672 21.8691C63.115 24.219 63.144 26.5706 63.1765 28.9204C63.1833 29.4174 63.1765 29.916 63.1765 30.413C63.1952 30.413 63.2157 30.413 63.2345 30.413L63.2413 30.4113Z" fill="#FCFDFF"/>
<path d="M30.1879 55.2522C30.0939 55.3 30 55.3478 29.9044 55.3922C29.8309 55.4281 29.7473 55.4588 29.6636 55.481C29.848 55.4008 30.0222 55.3239 30.1879 55.2522Z" fill="#804B9D"/>
<path d="M54.0344 62.4536H54.0002C54.0105 62.4399 54.0207 62.4245 54.031 62.4092C54.031 62.4245 54.0327 62.4382 54.0344 62.4536Z" fill="#804B9D"/>
<path d="M56.5994 58.0222L56.017 59.151C56.0068 59.151 55.9982 59.151 55.988 59.151C55.585 59.151 55.2571 58.8232 55.2571 58.4201C55.2571 58.0171 55.585 57.6892 55.988 57.6892C56.2442 57.6892 56.4696 57.8207 56.5994 58.0205V58.0222Z" fill="#A93F97"/>
<path d="M55.7463 59.6769L56.0179 59.1527L56.6002 58.0221L56.8325 57.5713" fill="#A93F97"/>
<path d="M46.6555 55.7064C46.343 55.826 46.0356 55.9421 45.6975 56.0719C45.2859 55.896 44.8846 55.7235 44.5089 55.5613C44.6182 55.5374 44.7241 55.5032 44.8283 55.4639C45.3252 55.2812 45.8051 55.0524 46.285 54.8303C46.5292 54.7176 46.6555 54.7586 46.6555 55.0438C46.6555 55.2624 46.6555 55.4827 46.6555 55.7064Z" fill="#A93F97"/>
<path d="M49.2858 57.5594C49.2858 57.5594 49.2824 57.5577 49.2807 57.5577C48.4439 57.2281 47.4808 56.8285 46.5364 56.4271C46.5569 56.422 46.5774 56.4169 46.5996 56.4101C47.4978 56.1351 48.5959 56.6457 49.2876 57.5594H49.2858Z" fill="#A93F97"/>
<path d="M55.8552 54.6989L55.8415 57.0299C55.8262 57.0897 55.7988 57.1427 55.751 57.1905C55.1704 57.2998 54.7315 57.8104 54.7315 58.4235C54.7315 59.0365 55.1277 59.4959 55.6656 59.6377C55.7186 59.7367 55.6656 59.8631 55.599 59.9724C55.0918 60.7733 54.6017 61.5862 54.0621 62.3649C54.0518 62.3803 54.0399 62.3957 54.0296 62.4111C53.8828 60.4267 52.6583 59.3047 52.6583 59.3047C52.6583 59.3047 52.2245 58.7872 49.9566 57.8343C49.6715 56.825 48.7168 56.0377 47.2618 55.7304C47.2618 55.3324 47.226 54.9209 47.2721 54.5179C47.3165 54.1285 48.1003 53.8979 48.4077 54.1456C49.3692 54.9158 50.4246 55.5083 51.6917 55.4913C52.7744 55.4776 53.7239 55.0336 54.5522 54.3471C55.0748 53.9133 55.1243 53.8826 55.6434 54.2668C55.7544 54.3488 55.8501 54.5298 55.8552 54.6681C55.8552 54.6784 55.8552 54.6886 55.8552 54.6989Z" fill="#A93F97"/>
<path d="M57.84 44.1792C57.8127 45.542 57.1774 46.7169 56.8341 47.9806C56.6924 48.4998 56.5318 49.0138 56.291 49.5159C56.291 48.4827 56.3833 47.4393 56.2654 46.4198C56.1459 45.3832 55.8197 44.3705 55.5687 43.2809C54.6789 43.7352 53.837 44.1587 53.0036 44.5959C52.1685 45.0331 51.3044 45.3729 50.3822 45.5283C50.3669 45.4856 50.3498 45.4446 50.3344 45.4019C51.1097 44.9255 51.8868 44.449 52.6621 43.9726C52.6365 43.9196 52.6109 43.8667 52.5869 43.8137C51.2908 44.4559 50.0646 45.2841 48.5908 45.4498C48.5686 45.4173 48.5464 45.3866 48.5225 45.3541C48.8965 45.0484 49.2722 44.7445 49.6462 44.4388C49.636 44.4097 49.6257 44.379 49.6172 44.35C49.5062 44.35 49.3832 44.3192 49.2825 44.3551C48.2202 44.724 47.3766 45.8972 47.2878 47.026C47.2332 47.733 47.0965 48.4332 46.9804 49.2597C46.8848 49.0599 46.8079 48.9558 46.784 48.8431C46.5518 47.7723 46.2888 46.705 46.1129 45.624C45.9626 44.7018 45.937 43.7745 46.1966 42.8472C46.5979 41.4092 47.5388 40.4102 48.7616 39.6742C49.2688 39.3685 49.8904 39.2336 50.4762 39.0884C51.0056 38.9569 51.5606 38.834 52.0985 38.8527C53.1608 38.8903 54.2025 39.0406 55.1913 39.5256C56.1322 39.9867 56.8597 40.639 57.3294 41.5459C57.7512 42.3622 57.8605 43.2502 57.8417 44.1826L57.84 44.1792Z" fill="#A93F97"/>
<path d="M55.4128 46.5514C54.5555 46.5514 53.6982 46.5616 52.841 46.5479C52.4857 46.5428 52.1783 46.5479 52.2296 47.0056C51.8983 47.103 51.6968 47.0551 51.5619 46.746C51.5175 46.6436 51.3006 46.565 51.1622 46.5616C50.2366 46.5445 49.3093 46.5496 48.3837 46.5496C48.0046 46.5496 47.8595 46.7085 47.9004 47.0893C47.9312 47.3762 47.9602 47.6665 48.0336 47.9432C48.1788 48.4914 48.3462 49.0737 49.0002 49.1949C49.463 49.2803 49.9634 49.3179 50.4228 49.2376C50.8941 49.154 51.2954 48.8653 51.3928 48.312C51.4304 48.0986 51.5192 47.8953 51.5926 47.6614C52.332 47.6648 52.3098 47.6716 52.5079 48.3377C52.5814 48.587 52.7282 48.8807 52.9332 49.0122C53.548 49.4084 54.2362 49.3862 54.9261 49.1949C55.2711 49.0993 55.5221 48.8944 55.6178 48.5562C55.7492 48.0969 55.8603 47.6272 55.9388 47.1559C56.0139 46.6999 55.8637 46.5479 55.4128 46.5479V46.5514ZM49.8404 48.6433C49.0173 48.6741 48.5904 48.2198 48.5733 47.2652H50.9676C51.0137 48.0969 50.5799 48.616 49.8404 48.6433ZM54.9364 48.4469C54.4855 48.7697 53.8485 48.7475 53.3328 48.4913C52.8649 48.2591 53.0373 47.7263 52.8837 47.2737H55.2011C55.3479 47.699 55.2455 48.2266 54.9364 48.4469Z" fill="#A93F97"/>
<path d="M57.763 55.4059C57.4761 56.1095 57.1704 56.8046 56.8613 57.5201C56.7673 57.4279 56.6581 57.3511 56.5385 57.293C56.4856 57.2213 56.46 57.141 56.4514 57.0488V56.849C56.4514 56.849 56.4548 56.8387 56.4548 56.8336C56.4941 56.4135 56.4805 55.99 56.4702 55.5648L56.4804 54.7177C56.4822 54.6921 56.4839 54.6665 56.4856 54.6375C56.9125 54.8287 57.2728 54.979 57.6212 55.1532C57.6964 55.1908 57.7869 55.3462 57.763 55.4042V55.4059Z" fill="#A93F97"/>
<path d="M54.0312 62.4094C54.021 62.4248 54.0107 62.4401 54.0005 62.4538C52.4498 64.6739 50.6174 66.6463 48.5186 68.3523C47.3386 69.3121 46.0902 70.1984 44.806 71.0147C43.532 71.8225 42.2017 72.5551 40.8457 73.2194C39.4693 73.894 38.0416 74.4729 36.6139 75.0313C36.3441 75.1355 35.9359 75.0143 35.6371 74.8879C34.3102 74.3277 32.9901 73.7488 31.6853 73.1392C29.4619 72.0991 27.3716 70.8235 25.4145 69.3463C23.3208 67.7666 21.415 65.9769 19.7943 63.9002C19.5757 63.6202 19.3537 63.3401 19.1215 63.0515C19.2581 60.9356 20.5782 59.6941 20.5782 59.6941C20.5782 59.6941 21.1144 59.0451 24.0842 57.8582C25.8158 57.1649 28.0701 56.1812 29.6634 55.4845C29.7471 55.464 29.8307 55.4315 29.9042 55.3957C29.9998 55.3496 30.0937 55.3035 30.1877 55.2556C30.5941 55.049 30.9937 54.827 31.4104 54.6391C31.5265 54.5862 31.7571 54.6323 31.8561 54.7211C32.6314 55.4127 33.4785 55.99 34.4468 56.3742C35.4988 56.7909 36.5763 56.9685 37.7154 56.7909C39.2831 56.5467 40.5742 55.7867 41.7218 54.745C41.8106 54.6648 41.884 54.6152 41.9574 54.593L42.0087 54.5042C42.0428 54.4974 43.1016 54.9585 44.5088 55.5647C44.8845 55.727 45.2841 55.8977 45.6974 56.0754C45.9724 56.1932 46.2541 56.3127 46.5359 56.4323C47.482 56.8319 48.4452 57.2315 49.2803 57.5628C49.282 57.5628 49.2837 57.5628 49.2854 57.5645C49.5245 57.6584 49.7482 57.7507 49.9565 57.8377C52.2244 58.7907 52.6582 59.3081 52.6582 59.3081C52.6582 59.3081 53.8826 60.4301 54.0295 62.4145L54.0312 62.4094Z" fill="#814B99"/>
<path d="M45.4925 43.4004C45.262 44.3106 44.9307 45.1952 44.6455 46.0935C44.6216 46.1703 44.6216 46.254 44.6062 46.3343C44.5772 46.4965 44.5994 46.7032 44.5072 46.8142C43.9043 47.5434 43.8138 48.4946 43.404 49.3075C42.6338 50.8359 41.7167 52.2465 40.4017 53.3617C39.278 54.3146 38.0553 55.0643 36.4961 54.9208C35.5466 54.8337 34.6876 54.458 33.9226 53.903C31.7845 52.3507 30.42 50.2467 29.5832 47.7671C29.4705 47.4324 29.1938 47.1523 29.0828 46.8159C28.7344 45.7673 28.4219 44.7085 28.1162 43.648C28.0616 43.455 28.0752 43.233 28.1008 43.0298C28.1675 42.526 28.4663 42.2989 29.0213 42.3382C28.6678 41.6551 29.0913 41.3477 29.578 40.989C30.7035 40.1591 31.9518 39.6519 33.2958 39.3137C34.6808 38.9654 36.0863 38.7741 37.5054 38.8544C38.735 38.9244 39.9543 39.0917 41.1361 39.517C42.2307 39.9115 43.2554 40.4135 44.1929 41.0949C44.5328 41.3425 44.9341 41.5697 44.7667 42.1025C45.3576 42.2613 45.7043 42.5653 45.4925 43.4038V43.4004Z" fill="#814B99"/>
<path d="M44.8816 32.5681C44.885 32.148 44.7347 31.9038 44.4103 31.6903C42.4942 30.43 40.4534 29.4856 38.1514 29.2038C36.3241 28.9801 34.5224 29.0775 32.772 29.6957C31.4536 30.1619 30.2753 30.8928 29.1447 31.7006C28.8732 31.8952 28.7144 32.1514 28.7161 32.5391C28.7332 34.9299 28.7195 37.3208 28.7161 39.7116C28.7161 39.9131 28.7161 40.1163 28.7161 40.4784C31.2026 38.6545 33.9196 38.0192 36.8142 37.9868C39.7225 37.9526 42.4156 38.6511 44.8765 40.4579C44.8765 40.1351 44.8765 39.9575 44.8765 39.7816C44.8748 37.3771 44.8594 34.9726 44.8816 32.5681ZM39.0223 34.3561C38.6603 34.3561 38.3068 34.3561 37.9533 34.3561C37.5764 34.3561 37.388 34.5497 37.388 34.9367C37.388 35.2271 37.3897 35.5174 37.3966 35.8077C37.4017 36.0297 37.318 36.1356 37.0789 36.1236C35.9757 36.0639 36.1397 36.3217 36.1243 35.1895C36.1106 34.211 36.2387 34.3783 35.3285 34.3664C34.5002 34.3561 34.3875 34.2451 34.531 33.4203C34.5497 33.3161 34.7086 33.1709 34.8144 33.159C35.1287 33.1214 35.4531 33.1112 35.7657 33.1504C36.0628 33.1863 36.1345 33.0719 36.1294 32.8123C36.1209 32.3598 36.1277 31.9055 36.1277 31.4017C36.4812 31.4017 36.8006 31.3693 37.1062 31.4188C37.2189 31.4376 37.3658 31.6442 37.3829 31.7774C37.4205 32.1036 37.4119 32.4417 37.3829 32.7696C37.359 33.0446 37.4444 33.1453 37.721 33.1351C38.1463 33.1197 38.5715 33.1317 39.0275 33.1317V34.3561H39.0223Z" fill="#814B99"/>
<path d="M29.3971 55.505C28.3469 55.3974 27.6501 54.7757 27.2693 53.8433C27.066 53.3481 27.0029 52.7845 26.9465 52.2432C26.856 51.379 26.7484 50.5047 26.7826 49.6406C26.856 47.7364 26.8953 45.8476 26.5144 43.9623C26.2993 42.9018 25.9253 41.9164 25.2832 41.0745C23.6676 38.9501 21.5039 38.5487 19.1216 39.1721C17.6478 39.558 16.6095 40.5536 15.8803 41.8737C15.315 42.8984 15.1528 44.0238 15.146 45.1714C15.1426 45.8579 15.2092 46.5461 15.2484 47.2343C15.3048 48.2265 15.4021 49.2187 15.4107 50.2109C15.4175 51.1451 15.3236 52.0809 15.286 53.0151C15.2638 53.5581 15.0418 54.0175 14.7549 54.4615C14.702 54.5418 14.6986 54.6938 14.7361 54.7877C15.064 55.6142 15.397 56.4408 15.7556 57.2554C15.8069 57.3715 16.0477 57.5765 16.1416 57.5457C16.2611 57.5081 16.3858 57.2451 16.3943 57.1085C16.4251 56.5706 16.4165 56.0309 16.4029 55.4913C16.3961 55.2385 16.4746 55.1002 16.7888 55.0883C16.7888 55.7253 16.8093 56.3571 16.7803 56.9856C16.7649 57.3117 16.9169 57.4501 17.1867 57.4996C18.4812 57.7319 19.0926 58.8556 19.1216 60.0168C19.1353 60.5565 19.1045 61.0961 19.1302 61.6341C19.1472 61.9978 19.0499 62.254 18.5939 62.3889C18.7766 62.6177 18.9508 62.8363 19.1199 63.0481C19.2565 60.9322 20.5766 59.6906 20.5766 59.6906C20.5766 59.6906 21.1128 59.0417 24.0826 57.8548C24.4993 57.6875 24.945 57.5047 25.4061 57.3117V54.9465L25.8057 55.1053L25.8399 57.1307C27.1702 56.5689 28.5723 55.9575 29.6635 55.481C29.573 55.5032 29.4825 55.5152 29.3971 55.5067V55.505ZM17.7144 45.0945C17.764 45.0091 17.9484 44.9664 18.0731 44.963C18.6674 44.9494 19.2634 44.9255 19.8542 44.963C21.4322 45.0638 22.8343 44.6198 24.0894 43.6754C24.1321 43.6429 24.1783 43.6122 24.3166 43.5149C24.7316 44.3465 25.1346 45.1543 25.5564 46.0013C24.7469 45.9689 24.0672 45.9364 23.3859 45.9177C22.7745 45.9006 22.1887 45.986 21.632 46.2814C21.4578 46.3736 21.159 46.3856 20.9882 46.2968C20.3563 45.9655 19.6783 45.9774 19.0089 45.9723C18.4505 45.9689 17.892 46.0679 17.2158 46.1346C17.3865 45.7657 17.5283 45.4156 17.7127 45.0911L17.7144 45.0945ZM24.6103 47.7518C24.4481 48.2436 23.9255 48.2043 23.5652 48.2573C22.9111 48.3529 22.0863 47.9584 22.0043 47.0379C21.9736 46.6844 22.117 46.5222 22.4227 46.4607C22.795 46.3873 23.1809 46.3805 23.5549 46.319C23.6232 46.319 23.6933 46.3258 23.7616 46.319C24.7965 46.2012 24.9058 46.8535 24.6103 47.7535V47.7518ZM20.5544 47.4051C20.2624 48.0336 19.815 48.3751 19.1541 48.2897C18.138 48.3768 17.7964 47.6988 17.9194 46.9355C17.9467 46.7647 18.1397 46.4966 18.2677 46.4898C18.9081 46.4556 19.5588 46.4419 20.1924 46.5205C20.6296 46.5734 20.7457 46.9953 20.5544 47.4051ZM23.7872 51.999C23.4234 52.3678 23.4012 52.7145 23.5447 53.1483C23.6608 53.4984 23.7735 53.8501 23.8606 54.2088C23.8896 54.3249 23.8674 54.4769 23.8145 54.5862C23.2151 55.8192 21.6525 56.2751 20.5168 56.0463C19.5844 55.8585 18.8569 55.4127 18.3395 54.6255C18.2712 54.5213 18.2524 54.3454 18.2848 54.2207C18.4214 53.7067 18.6076 53.2063 18.7271 52.6889C18.763 52.5335 18.6896 52.2978 18.582 52.1714C17.8186 51.2697 17.3438 50.2212 17.0774 49.0924C16.9152 48.4041 16.8384 47.6766 17.1031 46.903C17.2072 46.9901 17.3234 47.0414 17.3626 47.1268C17.4309 47.2736 17.4634 47.4393 17.4907 47.6015C17.5761 48.119 17.8254 48.5186 18.3617 48.6244C19.1302 48.7764 19.9208 48.8499 20.5305 48.2214C20.7576 47.9875 20.8499 47.6288 21.0223 47.3368C21.1026 47.2002 21.2238 47.0875 21.328 46.9645C21.4219 47.0687 21.5705 47.1575 21.6013 47.277C21.9155 48.4742 22.5576 48.6449 23.7735 48.6159C23.9904 48.6108 24.2175 48.5732 24.419 48.4964C24.8699 48.3256 25.1073 47.996 25.1329 47.4939C25.1465 47.2104 25.1568 46.8808 25.5854 46.7288C25.6281 46.9457 25.6981 47.137 25.6999 47.33C25.7221 49.1556 25.0509 50.7113 23.7838 51.999H23.7872Z" fill="#33346A"/>
<path d="M18.6572 59.9417C18.6265 60.4916 18.6572 61.0449 18.647 61.5965C18.6453 61.6904 18.577 61.8577 18.5343 61.8595C18.4301 61.8646 18.2713 61.8202 18.2252 61.7433C17.5335 60.5752 16.8538 59.402 16.181 58.2237C16.1332 58.14 16.0597 58.0085 16.0478 57.9094C17.5199 57.5389 18.729 58.7053 18.6589 59.94L18.6572 59.9417Z" fill="#33346A"/>
</svg>
