<svg width="18" height="14" viewBox="0 0 18 14" fill="none" xmlns="http://www.w3.org/2000/svg">
<path d="M15.8906 0H2.10938C0.946266 0 0 0.905827 0 2.01923V3.68493L7.74109 9.19679C8.11758 9.46484 8.55879 9.59889 9 9.59889C9.44121 9.59889 9.88242 9.46488 10.2589 9.19679L18 3.68493V2.01923C18 0.905827 17.0537 0 15.8906 0ZM16.5938 3.00852L9.41966 8.11663C9.16864 8.29537 8.83136 8.29537 8.58037 8.11663L1.40625 3.00852V2.01923C1.40625 1.6481 1.72167 1.34615 2.10938 1.34615H15.8906C16.2783 1.34615 16.5938 1.6481 16.5938 2.01923V3.00852ZM16.5938 6.36391L18 5.36264V11.9808C18 13.0942 17.0537 14 15.8906 14H2.10938C0.946266 14 0 13.0942 0 11.9808V5.36264L1.40625 6.36391V11.9808C1.40625 12.3519 1.72167 12.6538 2.10938 12.6538H15.8906C16.2783 12.6538 16.5938 12.3519 16.5938 11.9808V6.36391Z" fill="#002A3A"/>
</svg>
