<svg width="73" height="89" viewBox="0 0 73 89" fill="none" xmlns="http://www.w3.org/2000/svg">
<path d="M67.62 21.5515C67.62 21.5515 67.6029 21.5515 67.5961 21.5515C67.5961 20.6105 67.608 19.6713 67.5841 18.7303C67.5807 18.58 67.4509 18.3529 67.3211 18.2982C66.5817 17.9857 65.8251 17.7091 65.0703 17.429C63.0364 16.6707 60.9956 15.9262 58.9651 15.1594C56.856 14.3619 54.7555 13.5421 52.6499 12.7361C51.0548 12.1264 49.4564 11.5236 47.8596 10.9191C46.3773 10.3572 44.8933 9.79706 43.4109 9.23692C41.1943 8.39842 38.9742 7.57358 36.7695 6.70433C36.4382 6.57454 36.2026 6.60699 35.902 6.72141C34.0149 7.4472 32.1193 8.14909 30.2289 8.86805C28.6458 9.47088 27.0695 10.0942 25.4847 10.6953C23.5533 11.4263 21.6116 12.1367 19.6801 12.8693C18.1329 13.4568 16.5976 14.0716 15.0504 14.659C13.4929 15.2499 11.9252 15.8169 10.3661 16.4043C8.72832 17.0208 7.09913 17.6561 5.45799 18.2589C5.24281 18.3375 5.18304 18.4246 5.17792 18.6329C5.14718 19.8608 5.08912 21.0887 5.06862 22.3166C5.01568 25.522 4.93713 28.7291 4.95079 31.9346C4.96103 34.3493 5.08912 36.7641 5.18646 39.1788C5.22915 40.2667 5.29917 41.3545 5.40163 42.4372C5.50068 43.4875 5.64755 44.5326 5.79271 45.5778C5.95665 46.7698 6.1001 47.9686 6.33065 49.1487C6.5629 50.339 6.83956 51.5276 7.18281 52.6888C7.70368 54.4529 8.24674 56.2136 8.88031 57.9401C9.60781 59.9228 10.5642 61.8048 11.6537 63.6201C12.9909 65.8504 14.4937 67.9561 16.309 69.8192C17.4805 71.0215 18.6725 72.2152 19.9499 73.3013C21.1197 74.2969 22.404 75.1645 23.6626 76.0508C25.4847 77.3333 27.4179 78.4433 29.445 79.357C31.5882 80.3236 33.7963 81.145 35.9515 82.0877C36.3101 82.2448 36.5219 82.1936 36.8293 82.0672C37.7139 81.7051 38.6361 81.4285 39.5053 81.034C41.5529 80.1067 43.6056 79.1862 45.6037 78.1582C47.5317 77.1642 49.3676 75.9979 51.0634 74.6334C52.2434 73.6839 53.4303 72.7412 54.5472 71.7234C55.442 70.9071 56.2481 69.99 57.0746 69.1003C58.4852 67.5821 59.6738 65.8965 60.7651 64.141C62.0271 62.1088 63.1149 59.9826 63.9295 57.7335C64.587 55.9148 65.2001 54.0755 65.7141 52.2124C66.1411 50.6617 66.428 49.0701 66.7149 47.487C66.9369 46.2609 67.094 45.021 67.2238 43.7829C67.3809 42.2767 67.5192 40.767 67.5892 39.254C67.6917 37.0459 67.7839 34.8343 67.7788 32.6245C67.7702 28.9341 67.6814 25.2436 67.6268 21.5549L67.62 21.5515ZM63.0671 38.9329C63.0295 40.0976 62.8485 41.2572 62.7358 42.4201C62.6812 42.9837 62.6538 43.5507 62.5821 44.1108C62.4882 44.84 62.3618 45.5658 62.2474 46.2933C62.1552 46.8757 62.0783 47.4614 61.9622 48.0403C61.7607 49.0428 61.5797 50.0538 61.3116 51.0391C60.9495 52.3678 60.5294 53.681 60.1059 54.9909C59.544 56.7294 58.796 58.3944 57.9046 59.9843C57.172 61.289 56.3881 62.5716 55.5291 63.796C54.2346 65.6404 52.7113 67.2986 51.0497 68.8236C49.5247 70.2223 47.8989 71.5065 46.1433 72.5926C44.4885 73.6155 42.7688 74.5394 41.0286 75.4121C39.6642 76.0969 38.2211 76.628 36.8208 77.2445C36.4963 77.3863 36.2008 77.3811 35.8883 77.2445C34.4436 76.6161 32.9766 76.0337 31.5575 75.3489C30.1776 74.6829 28.8046 73.9827 27.505 73.1732C26.1081 72.3023 24.7572 71.3408 23.4662 70.3196C22.2912 69.3906 21.1675 68.3796 20.1207 67.3071C19.1507 66.3132 18.2815 65.2151 17.4259 64.1171C15.9162 62.1788 14.7037 60.0492 13.7201 57.8069C13.0353 56.2461 12.4922 54.6203 11.9474 53.0013C11.6127 52.0074 11.3583 50.9828 11.138 49.9581C10.8613 48.6739 10.6393 47.376 10.4292 46.0798C10.2533 44.9988 10.115 43.911 9.99206 42.8232C9.90325 42.0427 9.90325 41.252 9.8025 40.475C9.51047 38.2088 9.55146 35.929 9.5378 33.6543C9.51901 30.2798 9.55317 26.9053 9.57537 23.5325C9.57878 22.9552 9.64709 22.378 9.66758 21.8008C9.67612 21.5737 9.75639 21.4866 9.9801 21.4029C12.4905 20.4619 14.9906 19.4954 17.4976 18.5458C19.9038 17.6339 22.3152 16.7391 24.7214 15.8288C26.576 15.1269 28.4238 14.4097 30.275 13.7044C32.1911 12.9752 34.102 12.2306 36.0318 11.5441C36.3238 11.4399 36.7337 11.5543 37.053 11.667C38.3543 12.1298 39.642 12.6302 40.9313 13.122C42.0174 13.537 43.0984 13.9691 44.1863 14.3824C46.8213 15.3831 49.4598 16.3753 52.0965 17.3743C54.2944 18.206 56.4906 19.0411 58.6884 19.8728C60.07 20.3953 61.455 20.906 62.828 21.449C62.951 21.4968 63.0654 21.7376 63.0688 21.8913C63.1166 24.2412 63.1457 26.5927 63.1781 28.9426C63.1849 29.4396 63.1781 29.9382 63.1781 30.4352C63.1969 30.4352 63.2174 30.4352 63.2362 30.4352C63.1815 33.2683 63.1542 36.1032 63.0603 38.9363L63.0671 38.9329Z" fill="#40355D"/>
<path d="M63.2419 30.4113C63.1872 33.2444 63.1599 36.0793 63.066 38.9124C63.0284 40.0771 62.8474 41.2367 62.7347 42.3997C62.68 42.9632 62.6527 43.5302 62.581 44.0903C62.4871 44.8195 62.3607 45.5453 62.2463 46.2728C62.1541 46.8552 62.0772 47.4409 61.9611 48.0198C61.7596 49.0223 61.5786 50.0333 61.3104 51.0187C60.9484 52.3473 60.5283 53.6605 60.1048 54.9704C59.5429 56.7089 58.7949 58.3739 57.9035 59.9638C57.1709 61.2685 56.387 62.5511 55.528 63.7755C54.2335 65.6199 52.7102 67.2781 51.0486 68.8031C49.5236 70.2018 47.8978 71.486 46.1422 72.5721C44.4874 73.5951 42.7677 74.519 41.0275 75.3916C39.663 76.0764 38.22 76.6075 36.8196 77.224C36.4952 77.3658 36.1997 77.3606 35.8872 77.224C34.4425 76.5956 32.9755 76.0132 31.5564 75.3284C30.1765 74.6624 28.8035 73.9622 27.5039 73.1528C26.107 72.2818 24.7561 71.3203 23.4651 70.2991C22.2901 69.3701 21.1664 68.3591 20.1196 67.2866C19.1496 66.2927 18.2803 65.1947 17.4248 64.0966C15.9151 62.1583 14.7026 60.0287 13.719 57.7864C13.0342 56.2256 12.4911 54.5998 11.9463 52.9809C11.6116 51.9869 11.3571 50.9623 11.1368 49.9376C10.8602 48.6534 10.6382 47.3555 10.4281 46.0594C10.2522 44.9784 10.1139 43.8905 9.99095 42.8027C9.90215 42.0222 9.90215 41.2316 9.80139 40.4545C9.50936 38.1884 9.55035 35.9085 9.53669 33.6338C9.5179 30.2593 9.55206 26.8848 9.57426 23.512C9.57767 22.9348 9.64598 22.3575 9.66648 21.7786C9.67502 21.5515 9.75528 21.4644 9.97899 21.3807C12.4894 20.4397 14.9895 19.4732 17.4965 18.5237C19.9027 17.6117 22.314 16.7169 24.7203 15.8066C26.5749 15.1047 28.4227 14.3875 30.2739 13.6822C32.1899 12.953 34.1009 12.2084 36.0307 11.5219C36.3227 11.4177 36.7326 11.5321 37.0519 11.6448C38.3532 12.1076 39.6408 12.608 40.9302 13.0998C42.0163 13.5148 43.0973 13.9469 44.1852 14.3602C46.8202 15.3609 49.4587 16.3531 52.0954 17.3521C54.2933 18.1838 56.4895 19.0189 58.6873 19.8506C60.0689 20.3731 61.4539 20.8838 62.8269 21.4268C62.9499 21.4746 63.0643 21.7154 63.0677 21.8691C63.1155 24.219 63.1446 26.5706 63.177 28.9204C63.1838 29.4174 63.177 29.916 63.177 30.413C63.1958 30.413 63.2163 30.413 63.2351 30.413L63.2419 30.4113Z" fill="#FCFDFF"/>
<path d="M30.1883 55.2522C30.0944 55.3 30.0005 55.3478 29.9049 55.3922C29.8314 55.4281 29.7477 55.4588 29.6641 55.481C29.8485 55.4008 30.0227 55.3239 30.1883 55.2522Z" fill="#804B9D"/>
<path d="M54.0381 62.4536H54.0039C54.0142 62.4399 54.0244 62.4245 54.0346 62.4092C54.0346 62.4245 54.0364 62.4382 54.0381 62.4536Z" fill="#804B9D"/>
<path d="M56.604 58.0222L56.0217 59.151C56.0114 59.151 56.0029 59.151 55.9926 59.151C55.5896 59.151 55.2617 58.8232 55.2617 58.4201C55.2617 58.0171 55.5896 57.6892 55.9926 57.6892C56.2488 57.6892 56.4742 57.8207 56.604 58.0205V58.0222Z" fill="#A93F97"/>
<path d="M55.75 59.6769L56.0215 59.1527L56.6039 58.0221L56.8361 57.5713" fill="#A93F97"/>
<path d="M46.6584 55.7064C46.3458 55.826 46.0384 55.9421 45.7003 56.0719C45.2887 55.896 44.8874 55.7235 44.5117 55.5613C44.621 55.5374 44.7269 55.5032 44.8311 55.4639C45.328 55.2812 45.8079 55.0524 46.2878 54.8303C46.532 54.7176 46.6584 54.7586 46.6584 55.0438C46.6584 55.2624 46.6584 55.4827 46.6584 55.7064Z" fill="#A93F97"/>
<path d="M49.2885 57.5594C49.2885 57.5594 49.2851 57.5577 49.2834 57.5577C48.4466 57.2281 47.4834 56.8285 46.5391 56.4271C46.5596 56.422 46.58 56.4169 46.6022 56.4101C47.5005 56.1351 48.5986 56.6457 49.2902 57.5594H49.2885Z" fill="#A93F97"/>
<path d="M55.8567 54.6989L55.843 57.0299C55.8276 57.0897 55.8003 57.1427 55.7525 57.1905C55.1719 57.2998 54.733 57.8104 54.733 58.4235C54.733 59.0365 55.1292 59.4959 55.6671 59.6377C55.72 59.7367 55.6671 59.8631 55.6005 59.9724C55.0933 60.7733 54.6032 61.5862 54.0635 62.3649C54.0533 62.3803 54.0413 62.3957 54.0311 62.4111C53.8842 60.4267 52.6598 59.3047 52.6598 59.3047C52.6598 59.3047 52.226 58.7872 49.9581 57.8343C49.6729 56.825 48.7183 56.0377 47.2633 55.7304C47.2633 55.3324 47.2274 54.9209 47.2735 54.5179C47.3179 54.1285 48.1018 53.8979 48.4092 54.1456C49.3706 54.9158 50.426 55.5083 51.6932 55.4913C52.7759 55.4776 53.7254 55.0336 54.5537 54.3471C55.0762 53.9133 55.1258 53.8826 55.6449 54.2668C55.7559 54.3488 55.8515 54.5298 55.8567 54.6681C55.8567 54.6784 55.8567 54.6886 55.8567 54.6989Z" fill="#A93F97"/>
<path d="M57.8436 44.1792C57.8163 45.542 57.181 46.7169 56.8378 47.9806C56.696 48.4998 56.5355 49.0138 56.2947 49.5159C56.2947 48.4827 56.3869 47.4393 56.2691 46.4198C56.1496 45.3832 55.8234 44.3705 55.5723 43.2809C54.6826 43.7352 53.8407 44.1587 53.0073 44.5959C52.1722 45.0331 51.3081 45.3729 50.3859 45.5283C50.3705 45.4856 50.3535 45.4446 50.3381 45.4019C51.1134 44.9255 51.8904 44.449 52.6657 43.9726C52.6401 43.9196 52.6145 43.8667 52.5906 43.8137C51.2944 44.4559 50.0683 45.2841 48.5945 45.4498C48.5723 45.4173 48.5501 45.3866 48.5262 45.3541C48.9002 45.0484 49.2759 44.7445 49.6499 44.4388C49.6396 44.4097 49.6294 44.379 49.6208 44.35C49.5098 44.35 49.3869 44.3192 49.2861 44.3551C48.2239 44.724 47.3803 45.8972 47.2915 47.026C47.2368 47.733 47.1002 48.4332 46.9841 49.2597C46.8884 49.0599 46.8116 48.9558 46.7877 48.8431C46.5554 47.7723 46.2924 46.705 46.1165 45.624C45.9663 44.7018 45.9406 43.7745 46.2002 42.8472C46.6015 41.4092 47.5425 40.4102 48.7653 39.6742C49.2725 39.3685 49.8941 39.2336 50.4798 39.0884C51.0092 38.9569 51.5643 38.834 52.1022 38.8527C53.1644 38.8903 54.2061 39.0406 55.1949 39.5256C56.1359 39.9867 56.8634 40.639 57.333 41.5459C57.7548 42.3622 57.8641 43.2502 57.8453 44.1826L57.8436 44.1792Z" fill="#A93F97"/>
<path d="M55.4136 46.5514C54.5563 46.5514 53.699 46.5616 52.8418 46.5479C52.4865 46.5428 52.1791 46.5479 52.2304 47.0056C51.8991 47.103 51.6976 47.0551 51.5626 46.746C51.5182 46.6436 51.3014 46.565 51.163 46.5616C50.2374 46.5445 49.3101 46.5496 48.3845 46.5496C48.0054 46.5496 47.8603 46.7085 47.9012 47.0893C47.932 47.3762 47.961 47.6665 48.0344 47.9432C48.1796 48.4914 48.347 49.0737 49.001 49.1949C49.4638 49.2803 49.9642 49.3179 50.4236 49.2376C50.8949 49.154 51.2962 48.8653 51.3936 48.312C51.4312 48.0986 51.52 47.8953 51.5934 47.6614C52.3328 47.6648 52.3106 47.6716 52.5087 48.3377C52.5822 48.587 52.729 48.8807 52.934 49.0122C53.5488 49.4084 54.237 49.3862 54.9269 49.1949C55.2719 49.0993 55.5229 48.8944 55.6185 48.5562C55.75 48.0969 55.861 47.6272 55.9396 47.1559C56.0147 46.6999 55.8645 46.5479 55.4136 46.5479V46.5514ZM49.8412 48.6433C49.0181 48.6741 48.5912 48.2198 48.5741 47.2652H50.9684C51.0145 48.0969 50.5807 48.616 49.8412 48.6433ZM54.9372 48.4469C54.4863 48.7697 53.8493 48.7475 53.3336 48.4913C52.8657 48.2591 53.0381 47.7263 52.8844 47.2737H55.2019C55.3487 47.699 55.2463 48.2266 54.9372 48.4469Z" fill="#A93F97"/>
<path d="M57.7647 55.4059C57.4778 56.1095 57.1721 56.8046 56.863 57.5201C56.7691 57.4279 56.6598 57.3511 56.5402 57.293C56.4873 57.2213 56.4617 57.141 56.4531 57.0488V56.849C56.4531 56.849 56.4565 56.8387 56.4565 56.8336C56.4958 56.4135 56.4822 55.99 56.4719 55.5648L56.4822 54.7177C56.4839 54.6921 56.4856 54.6665 56.4873 54.6375C56.9142 54.8287 57.2746 54.979 57.6229 55.1532C57.6981 55.1908 57.7886 55.3462 57.7647 55.4042V55.4059Z" fill="#A93F97"/>
<path d="M54.0348 62.4094C54.0245 62.4248 54.0143 62.4401 54.004 62.4538C52.4534 64.6739 50.621 66.6463 48.5221 68.3523C47.3421 69.3121 46.0937 70.1984 44.8095 71.0147C43.5355 71.8225 42.2052 72.5551 40.8492 73.2194C39.4728 73.894 38.0451 74.4729 36.6174 75.0313C36.3476 75.1355 35.9395 75.0143 35.6406 74.8879C34.3137 74.3277 32.9936 73.7488 31.6889 73.1392C29.4654 72.0991 27.3751 70.8235 25.418 69.3463C23.3243 67.7666 21.4185 65.9769 19.7979 63.9002C19.5793 63.6202 19.3573 63.3401 19.125 63.0515C19.2616 60.9356 20.5817 59.6941 20.5817 59.6941C20.5817 59.6941 21.1179 59.0451 24.0877 57.8582C25.8194 57.1649 28.0736 56.1812 29.6669 55.4845C29.7506 55.464 29.8343 55.4315 29.9077 55.3957C30.0033 55.3496 30.0973 55.3035 30.1912 55.2556C30.5976 55.049 30.9973 54.827 31.4139 54.6391C31.5301 54.5862 31.7606 54.6323 31.8597 54.7211C32.635 55.4127 33.482 55.99 34.4503 56.3742C35.5023 56.7909 36.5799 56.9685 37.7189 56.7909C39.2867 56.5467 40.5777 55.7867 41.7253 54.745C41.8141 54.6648 41.8876 54.6152 41.961 54.593L42.0122 54.5042C42.0464 54.4974 43.1052 54.9585 44.5124 55.5647C44.8881 55.727 45.2877 55.8977 45.701 56.0754C45.9759 56.1932 46.2577 56.3127 46.5395 56.4323C47.4855 56.8319 48.4487 57.2315 49.2838 57.5628C49.2855 57.5628 49.2872 57.5628 49.2889 57.5645C49.528 57.6584 49.7517 57.7507 49.9601 57.8377C52.228 58.7907 52.6617 59.3081 52.6617 59.3081C52.6617 59.3081 53.8862 60.4301 54.033 62.4145L54.0348 62.4094Z" fill="#814B99"/>
<path d="M45.4961 43.4004C45.2656 44.3106 44.9343 45.1952 44.6491 46.0935C44.6252 46.1703 44.6252 46.254 44.6098 46.3343C44.5808 46.4965 44.603 46.7032 44.5108 46.8142C43.9079 47.5434 43.8174 48.4946 43.4076 49.3075C42.6374 50.8359 41.7203 52.2465 40.4053 53.3617C39.2816 54.3146 38.0589 55.0643 36.4997 54.9208C35.5502 54.8337 34.6912 54.458 33.9262 53.903C31.7881 52.3507 30.4236 50.2467 29.5868 47.7671C29.4741 47.4324 29.1974 47.1523 29.0864 46.8159C28.738 45.7673 28.4255 44.7085 28.1198 43.648C28.0652 43.455 28.0788 43.233 28.1044 43.0298C28.1711 42.526 28.4699 42.2989 29.0249 42.3382C28.6714 41.6551 29.0949 41.3477 29.5816 40.989C30.7071 40.1591 31.9554 39.6519 33.2994 39.3137C34.6844 38.9654 36.0899 38.7741 37.509 38.8544C38.7386 38.9244 39.9579 39.0917 41.1397 39.517C42.2343 39.9115 43.259 40.4135 44.1965 41.0949C44.5364 41.3425 44.9377 41.5697 44.7703 42.1025C45.3612 42.2613 45.7079 42.5653 45.4961 43.4038V43.4004Z" fill="#814B99"/>
<path d="M44.8843 32.5681C44.8877 32.148 44.7374 31.9038 44.413 31.6903C42.4969 30.43 40.4561 29.4856 38.1541 29.2038C36.3268 28.9801 34.5251 29.0775 32.7747 29.6957C31.4563 30.1619 30.2779 30.8928 29.1474 31.7006C28.8759 31.8952 28.7171 32.1514 28.7188 32.5391C28.7358 34.9299 28.7222 37.3208 28.7188 39.7116C28.7188 39.9131 28.7188 40.1163 28.7188 40.4784C31.2052 38.6545 33.9223 38.0192 36.8169 37.9868C39.7252 37.9526 42.4183 38.6511 44.8792 40.4579C44.8792 40.1351 44.8792 39.9575 44.8792 39.7816C44.8775 37.3771 44.8621 34.9726 44.8843 32.5681ZM39.025 34.3561C38.663 34.3561 38.3095 34.3561 37.956 34.3561C37.5791 34.3561 37.3907 34.5497 37.3907 34.9367C37.3907 35.2271 37.3924 35.5174 37.3992 35.8077C37.4044 36.0297 37.3207 36.1356 37.0816 36.1236C35.9784 36.0639 36.1423 36.3217 36.127 35.1895C36.1133 34.211 36.2414 34.3783 35.3312 34.3664C34.5029 34.3561 34.3902 34.2451 34.5336 33.4203C34.5524 33.3161 34.7112 33.1709 34.8171 33.159C35.1314 33.1214 35.4558 33.1112 35.7683 33.1504C36.0655 33.1863 36.1372 33.0719 36.1321 32.8123C36.1236 32.3598 36.1304 31.9055 36.1304 31.4017C36.4839 31.4017 36.8032 31.3693 37.1089 31.4188C37.2216 31.4376 37.3685 31.6442 37.3856 31.7774C37.4231 32.1036 37.4146 32.4417 37.3856 32.7696C37.3617 33.0446 37.4471 33.1453 37.7237 33.1351C38.1489 33.1197 38.5742 33.1317 39.0301 33.1317V34.3561H39.025Z" fill="#814B99"/>
<path d="M29.397 55.505C28.3467 55.3974 27.65 54.7757 27.2691 53.8433C27.0659 53.3481 27.0027 52.7845 26.9464 52.2432C26.8559 51.379 26.7483 50.5047 26.7824 49.6406C26.8559 47.7364 26.8952 45.8476 26.5143 43.9623C26.2991 42.9018 25.9252 41.9164 25.283 41.0745C23.6675 38.9501 21.5038 38.5487 19.1215 39.1721C17.6477 39.558 16.6094 40.5536 15.8802 41.8737C15.3149 42.8984 15.1527 44.0238 15.1459 45.1714C15.1424 45.8579 15.209 46.5461 15.2483 47.2343C15.3047 48.2265 15.402 49.2187 15.4106 50.2109C15.4174 51.1451 15.3235 52.0809 15.2859 53.0151C15.2637 53.5581 15.0417 54.0175 14.7548 54.4615C14.7018 54.5418 14.6984 54.6938 14.736 54.7877C15.0639 55.6142 15.3969 56.4408 15.7555 57.2554C15.8068 57.3715 16.0475 57.5765 16.1415 57.5457C16.261 57.5081 16.3857 57.2451 16.3942 57.1085C16.425 56.5706 16.4164 56.0309 16.4028 55.4913C16.3959 55.2385 16.4745 55.1002 16.7887 55.0883C16.7887 55.7253 16.8092 56.3571 16.7802 56.9856C16.7648 57.3117 16.9168 57.4501 17.1866 57.4996C18.4811 57.7319 19.0925 58.8556 19.1215 60.0168C19.1352 60.5565 19.1044 61.0961 19.13 61.6341C19.1471 61.9978 19.0498 62.254 18.5938 62.3889C18.7765 62.6177 18.9507 62.8363 19.1198 63.0481C19.2564 60.9322 20.5765 59.6906 20.5765 59.6906C20.5765 59.6906 21.1127 59.0417 24.0825 57.8548C24.4992 57.6875 24.9449 57.5047 25.406 57.3117V54.9465L25.8056 55.1053L25.8398 57.1307C27.1701 56.5689 28.5722 55.9575 29.6634 55.481C29.5729 55.5032 29.4824 55.5152 29.397 55.5067V55.505ZM17.7143 45.0945C17.7638 45.0091 17.9483 44.9664 18.0729 44.963C18.6672 44.9494 19.2632 44.9255 19.8541 44.963C21.4321 45.0638 22.8341 44.6198 24.0893 43.6754C24.132 43.6429 24.1781 43.6122 24.3165 43.5149C24.7314 44.3465 25.1345 45.1543 25.5563 46.0013C24.7468 45.9689 24.0671 45.9364 23.3857 45.9177C22.7744 45.9006 22.1886 45.986 21.6319 46.2814C21.4577 46.3736 21.1588 46.3856 20.9881 46.2968C20.3562 45.9655 19.6782 45.9774 19.0088 45.9723C18.4503 45.9689 17.8919 46.0679 17.2156 46.1346C17.3864 45.7657 17.5282 45.4156 17.7126 45.0911L17.7143 45.0945ZM24.6102 47.7518C24.448 48.2436 23.9254 48.2043 23.565 48.2573C22.911 48.3529 22.0861 47.9584 22.0042 47.0379C21.9734 46.6844 22.1169 46.5222 22.4226 46.4607C22.7949 46.3873 23.1808 46.3805 23.5548 46.319C23.6231 46.319 23.6931 46.3258 23.7614 46.319C24.7963 46.2012 24.9056 46.8535 24.6102 47.7535V47.7518ZM20.5543 47.4051C20.2623 48.0336 19.8148 48.3751 19.1539 48.2897C18.1378 48.3768 17.7963 47.6988 17.9192 46.9355C17.9466 46.7647 18.1395 46.4966 18.2676 46.4898C18.908 46.4556 19.5587 46.4419 20.1922 46.5205C20.6294 46.5734 20.7456 46.9953 20.5543 47.4051ZM23.7871 51.999C23.4233 52.3678 23.4011 52.7145 23.5446 53.1483C23.6607 53.4984 23.7734 53.8501 23.8605 54.2088C23.8895 54.3249 23.8673 54.4769 23.8144 54.5862C23.215 55.8192 21.6524 56.2751 20.5167 56.0463C19.5843 55.8585 18.8568 55.4127 18.3393 54.6255C18.271 54.5213 18.2522 54.3454 18.2847 54.2207C18.4213 53.7067 18.6075 53.2063 18.727 52.6889C18.7629 52.5335 18.6894 52.2978 18.5818 52.1714C17.8185 51.2697 17.3437 50.2212 17.0773 49.0924C16.9151 48.4041 16.8382 47.6766 17.1029 46.903C17.2071 46.9901 17.3232 47.0414 17.3625 47.1268C17.4308 47.2736 17.4633 47.4393 17.4906 47.6015C17.576 48.119 17.8253 48.5186 18.3615 48.6244C19.13 48.7764 19.9207 48.8499 20.5304 48.2214C20.7575 47.9875 20.8497 47.6288 21.0222 47.3368C21.1025 47.2002 21.2237 47.0875 21.3279 46.9645C21.4218 47.0687 21.5704 47.1575 21.6011 47.277C21.9154 48.4742 22.5575 48.6449 23.7734 48.6159C23.9903 48.6108 24.2174 48.5732 24.4189 48.4964C24.8698 48.3256 25.1071 47.996 25.1328 47.4939C25.1464 47.2104 25.1567 46.8808 25.5853 46.7288C25.628 46.9457 25.698 47.137 25.6997 47.33C25.7219 49.1556 25.0508 50.7113 23.7836 51.999H23.7871Z" fill="#33346A"/>
<path d="M18.6563 59.9417C18.6256 60.4916 18.6563 61.0449 18.6461 61.5965C18.6444 61.6904 18.576 61.8577 18.5334 61.8595C18.4292 61.8646 18.2704 61.8202 18.2243 61.7433C17.5326 60.5752 16.8529 59.402 16.1801 58.2237C16.1323 58.14 16.0588 58.0085 16.0469 57.9094C17.519 57.5389 18.728 58.7053 18.658 59.94L18.6563 59.9417Z" fill="#33346A"/>
</svg>
