<svg width="34" height="34" viewBox="0 0 34 34" fill="none" xmlns="http://www.w3.org/2000/svg">
<path d="M26.7626 20.5616C26.7434 20.5244 26.6726 20.4878 26.6508 20.4522C25.8507 19.4343 24.9414 18.5612 24.9414 16.6006V10.0619C24.9414 7.30204 25.2674 4.75872 23.2272 2.87141C21.5519 1.34818 19.0318 0.764893 16.9911 0.764893H16.1154C12.4005 0.979843 8.46665 2.57897 7.58773 7.15608C7.44337 7.73937 7.88177 7.95591 8.17208 8.02809L12.2545 8.53654C12.6913 8.4633 12.9113 8.00792 12.9832 7.64808C13.3465 6.04896 14.6202 5.01083 16.1159 5.01083H16.4089C17.2846 5.01083 18.1476 5.4662 18.6563 6.19385C19.2385 7.0648 19.0819 8.32 19.0819 9.33796V9.91859C18.5492 9.99024 17.1243 10.0619 16.0312 10.2052C14.3554 10.4265 12.7222 10.7163 11.3383 11.3707C8.6419 12.4608 6.83984 14.7855 6.83984 18.1982C6.83984 19.0755 6.97142 19.861 7.18609 20.5616C8.0192 23.2821 10.3406 24.6642 13.1255 24.6642C14.291 24.6642 15.2402 24.5172 16.1127 24.3028C17.5004 23.8649 18.6653 23.0656 20.0498 21.6114C20.8515 22.701 21.0731 23.2121 22.4564 24.3739C22.8224 24.5172 23.1867 24.5172 23.476 24.3028C24.3522 23.574 25.8842 22.2658 26.6838 21.5402C27.0135 21.2786 26.9336 20.898 26.7626 20.5616ZM16.0312 13.5478C16.9778 13.3313 18.0165 13.2575 19.0819 13.2575V14.1306C19.0819 15.8008 19.2385 17.108 18.3649 18.5617C17.8546 19.5781 17.0204 20.232 16.0739 20.4522C15.9295 20.4522 15.7313 20.5244 15.5119 20.5244C13.9101 20.5244 12.931 19.2899 12.931 17.4737C12.931 15.1469 14.283 14.0594 16.0312 13.5478Z" fill="#626A84"/>
<path d="M7.58826 7.15608C7.4439 7.73936 7.8823 7.9559 8.17261 8.02808L12.2551 8.53653C12.6919 8.46329 12.9119 8.00792 12.9838 7.64807C13.3465 6.04895 14.5898 5.01082 16.1159 5.01082H16.4089C17.2846 5.01082 18.1476 5.46619 18.6563 6.19384C19.2385 7.06479 19.0819 8.31999 19.0819 9.33795V9.91859C18.5492 9.99024 17.1243 10.0619 16.0312 10.2052C14.3554 10.4265 12.7222 10.7163 11.3383 11.3707C8.6419 12.4608 6.83984 14.7855 6.83984 18.1982C6.83984 19.0755 6.97142 19.861 7.18609 20.5615C8.0192 23.2821 10.3406 24.6642 13.1255 24.6642C14.291 24.6642 15.2402 24.5172 16.1127 24.3027C17.5004 23.8649 18.6653 23.0656 20.0498 21.6114C20.8515 22.701 21.0731 23.2121 22.4564 24.3739C22.8224 24.5172 23.1867 24.5172 23.476 24.3027C24.3522 23.574 25.8842 22.2658 26.6838 21.5402C27.013 21.2786 26.9331 20.8975 26.7621 20.561C26.7429 20.5239 26.6721 20.4872 26.6502 20.4517C25.8507 19.4343 24.9414 18.5612 24.9414 16.6006V10.0619C24.9414 7.30203 25.2674 4.75872 23.2272 2.8714M16.0312 13.5478C16.9778 13.3313 18.0165 13.2575 19.0819 13.2575V14.1306C19.0819 15.8008 19.2385 17.108 18.3649 18.5617C17.8546 19.5781 17.0204 20.232 16.0739 20.4522C15.9295 20.4522 15.7313 20.5244 15.5119 20.5244C13.9101 20.5244 12.931 19.2899 12.931 17.4737C12.931 15.1469 14.283 14.0594 16.0312 13.5478Z" fill="#4B506D"/>
<path d="M30.4593 26.25C30.7555 26.2479 31.0485 26.2691 31.2317 26.3073C31.3223 26.3275 31.4048 26.3509 31.4411 26.3694C31.4539 26.3729 31.4664 26.3776 31.4784 26.3832C31.4858 26.4082 31.5013 26.474 31.4997 26.5653C31.5029 26.9129 31.3574 27.5599 31.1529 28.1909C30.9553 28.8215 30.7145 29.4546 30.5558 29.875C30.5174 29.9716 30.4918 30.0783 30.4918 30.1945C30.4886 30.3627 30.5584 30.6308 30.7065 30.7656C30.8503 30.9009 31.0368 31.0171 31.1918 31.0171H31.1998C31.4331 31.0171 31.6318 30.86 31.8022 30.7274C33.4131 29.2821 33.9766 26.9442 33.9995 25.646L33.9969 25.4077V25.4056C33.9969 25.0633 33.9074 24.8016 33.7636 24.5856L33.747 24.5633L33.7295 24.5426C33.584 24.3834 33.4434 24.324 33.2921 24.2581C32.8388 24.0835 32.1256 23.9906 31.3329 23.9885C31.0123 23.9885 30.8003 24.0092 30.2676 24.048V26.2521L30.4593 26.25Z" fill="#EA7B0C"/>
<path d="M29.2355 27.0865C29.0703 27.0844 28.7433 27.1465 28.5861 27.2192C28.4093 27.2887 28.241 27.3907 28.07 27.4618L27.737 27.6587L27.3242 27.8329C27.3242 27.8329 27.4228 27.8329 27.3242 27.8329H30.1778C30.0265 27.5839 29.668 27.0865 29.2355 27.0865Z" fill="#FA9826"/>
<path d="M30.1779 27.8327H27.3244C23.8694 29.4249 20.2568 30.1244 16.9073 30.1961C13.5855 30.1982 10.2616 29.4249 7.45061 27.8327C6.08482 27.302 4.69932 26.7473 3.63396 26.0154C3.10128 25.7984 2.73693 25.5802 2.34221 25.3621C2.17836 25.2823 1.9988 25.2397 1.81645 25.2374C1.6167 25.2374 1.38392 25.3133 1.23477 25.4523C1.08508 25.5935 0.982277 25.7968 0.984408 26.0048C0.982277 26.2728 1.12131 26.5207 1.32586 26.681C5.50953 30.3038 10.0932 33.6671 16.2627 33.6708C16.3826 33.6708 16.5035 33.6671 16.6255 33.665C20.5497 33.578 24.9859 32.2559 28.4313 30.099L28.4521 30.0868C28.914 29.8115 29.3571 29.506 29.7784 29.1723C30.0426 28.977 30.2248 28.5418 30.2248 28.2233C30.2222 28.1304 30.203 28.3634 30.1779 27.8327ZM29.5062 24.1801C28.5037 24.3993 27.808 24.8775 27.4533 25.1349C27.2317 25.2995 27.0197 25.5187 27.0106 25.853C27.0042 26.0356 27.0831 26.2442 27.2365 26.3678C27.3173 26.4327 27.4107 26.4802 27.5108 26.5074C27.6109 26.5346 27.7155 26.541 27.8182 26.526L27.8475 26.5239L27.8698 26.5202C28.1809 26.4554 28.5767 26.4103 29.1073 26.336C29.5148 26.2914 29.7358 26.259 30.2685 26.2521V24.048C30.268 24.0788 29.7806 24.1202 29.5062 24.1801Z" fill="#FA9826"/>
<path d="M26.7621 20.5615C25.962 19.5436 24.9408 18.5612 24.9408 16.6006V10.7051C23.3428 11.8696 20.5414 12.7644 17.8562 13.2968C18.2536 13.2729 19.0814 13.258 19.0814 13.258V14.1311C19.0814 15.8013 19.238 17.1085 18.3644 18.5622C17.8541 19.5786 17.0199 20.2325 16.0733 20.4527C15.929 20.4527 15.7308 20.5249 15.5113 20.5249C13.9096 20.5249 12.9726 19.2904 12.9726 17.4742C12.9726 15.2865 14.0965 14.2027 15.6962 13.6555C14.5711 13.7882 13.4391 13.8535 12.3062 13.8508C10.7236 13.8508 9.14315 14.1682 7.67509 14.6024C7.12536 15.6267 6.83984 16.7959 6.83984 18.1987C6.83984 19.076 6.98207 19.8615 7.19674 20.5621C8.02985 23.2827 10.3459 24.6647 13.1308 24.6647C14.2963 24.6647 15.2429 24.5177 16.1159 24.3033C17.5036 23.8654 18.6669 23.0661 20.0519 21.6119C20.8536 22.7015 21.0747 23.2126 22.458 24.3744C22.824 24.5177 23.1878 24.5177 23.477 24.3033C24.3533 23.5746 25.8853 22.2663 26.6848 21.5408C27.0135 21.2786 26.9331 20.898 26.7621 20.5615C26.7839 20.5971 26.7429 20.5239 26.7621 20.5615Z" fill="#2A2B35"/>
<path d="M30.1779 27.8327H27.3243C23.8694 29.4249 19.4971 31.8037 16.1471 31.8764C16.0214 31.8807 16.2701 31.8764 16.1471 31.8764C12.8253 31.8786 10.262 31.4131 7.45109 30.1165L4.07603 28.4107C3.42767 28.1726 2.81215 27.8538 2.24414 27.4617C6.18331 30.7677 10.5412 33.664 16.2595 33.6666C16.3793 33.6666 16.5019 33.665 16.6244 33.6629C20.5486 33.5759 24.9853 32.2549 28.4307 30.0979L28.4515 30.0862C28.9134 29.811 29.3565 29.5055 29.7778 29.1718C30.0421 28.977 30.2248 28.4988 30.2248 28.1809C30.2142 28.0642 30.1986 27.948 30.1779 27.8327Z" fill="#EA7B0C"/>
</svg>
