<svg width="24" height="24" viewBox="0 0 24 24" fill="none" xmlns="http://www.w3.org/2000/svg">
<path d="M5.63985 11.6947H13.0599C13.3242 11.6947 13.5386 11.4804 13.5386 11.216C13.5386 10.9517 13.3242 10.7373 13.0599 10.7373H5.63985C5.37536 10.7373 5.16113 10.9517 5.16113 11.216C5.16113 11.4804 5.37536 11.6947 5.63985 11.6947Z" fill="black"/>
<path d="M10.0822 13.8491H5.63985C5.37536 13.8491 5.16113 14.0635 5.16113 14.3278C5.16113 14.5922 5.37536 14.8065 5.63985 14.8065H10.0822C10.3465 14.8065 10.5609 14.5922 10.5609 14.3278C10.5609 14.0635 10.3465 13.8491 10.0822 13.8491Z" fill="black"/>
<path d="M18.3928 12.7862V4.51416C18.3925 3.19231 17.3209 2.12104 15.9992 2.12059H14.0365V1.20625C14.0365 0.941763 13.8223 0.727539 13.5578 0.727539C13.2935 0.727539 13.0791 0.941763 13.0791 1.20625V2.12059H6.5686V1.20625C6.5686 0.941763 6.35437 0.727539 6.08989 0.727539C5.82555 0.727539 5.61117 0.941763 5.61117 1.20625V2.12059H3.64845C2.32675 2.12104 1.25548 3.19231 1.25488 4.51416V17.4825C1.25548 18.8042 2.32675 19.8755 3.64845 19.8761H12.5096C13.4307 22.2352 15.9008 23.6046 18.3897 23.1361C20.8785 22.6677 22.6818 20.4939 22.6822 17.9612C22.6869 15.3905 20.8342 13.2459 18.3928 12.7862ZM3.65339 3.07802H5.61611V3.99236C5.61611 4.2567 5.83033 4.47108 6.09482 4.47108C6.35916 4.47108 6.57354 4.2567 6.57354 3.99236V3.07802H13.084V3.99236C13.084 4.2567 13.2983 4.47108 13.5627 4.47108C13.8271 4.47108 14.0415 4.2567 14.0415 3.99236V3.07802H16.0042C16.7963 3.08027 17.4379 3.72189 17.4403 4.51416V5.67265H2.21725V4.51416C2.21784 3.72114 2.86052 3.07862 3.65339 3.07802ZM3.65339 18.9186C2.86111 18.9164 2.21949 18.2746 2.21725 17.4825V6.62529H17.4354V12.6954H17.421C15.8576 12.6978 14.3758 13.3935 13.3756 14.5954C12.3752 15.7971 11.96 17.3808 12.2413 18.9186H3.65339ZM17.421 22.2696C15.0417 22.2696 13.1126 20.3407 13.1126 17.9612C13.1126 15.5817 15.0417 13.6528 17.421 13.6528C19.8005 13.6528 21.7294 15.5817 21.7294 17.9612C21.7259 20.3392 19.799 22.266 17.421 22.2696Z" fill="black"/>
<path d="M19.6377 16.2429L16.7943 18.9572L15.3245 17.4828C15.1383 17.2964 14.8361 17.2964 14.6497 17.4828C14.4631 17.6692 14.4631 17.9714 14.6497 18.1578L16.4543 19.9625C16.544 20.0529 16.6667 20.103 16.7943 20.1014C16.9179 20.1024 17.0367 20.0542 17.1245 19.9672L20.3031 16.9273C20.3947 16.8398 20.4476 16.7197 20.4505 16.593C20.453 16.4663 20.4053 16.3438 20.3175 16.2525C20.1311 16.0655 19.8294 16.0612 19.6377 16.2429Z" fill="black"/>
</svg>
