<svg width="24" height="24" viewBox="0 0 24 24" fill="none" xmlns="http://www.w3.org/2000/svg">
<g clip-path="url(#clip0_210_153)">
<path d="M5.63985 11.6947H13.0599C13.3242 11.6947 13.5386 11.4804 13.5386 11.216C13.5386 10.9517 13.3242 10.7373 13.0599 10.7373H5.63985C5.37536 10.7373 5.16113 10.9517 5.16113 11.216C5.16113 11.4804 5.37536 11.6947 5.63985 11.6947Z" fill="black"/>
<path d="M10.0822 13.8496H5.63985C5.37536 13.8496 5.16113 14.064 5.16113 14.3283C5.16113 14.5927 5.37536 14.807 5.63985 14.807H10.0822C10.3465 14.807 10.5609 14.5927 10.5609 14.3283C10.5609 14.064 10.3465 13.8496 10.0822 13.8496Z" fill="black"/>
<path d="M18.3926 12.7862V4.51416C18.3923 3.19231 17.3207 2.12104 15.999 2.12059H14.0363V1.20625C14.0363 0.941763 13.8221 0.727539 13.5576 0.727539C13.2932 0.727539 13.0789 0.941763 13.0789 1.20625V2.12059H6.56835V1.20625C6.56835 0.941763 6.35413 0.727539 6.08964 0.727539C5.8253 0.727539 5.61093 0.941763 5.61093 1.20625V2.12059H3.6482C2.32651 2.12104 1.25524 3.19231 1.25464 4.51416V17.4825C1.25524 18.8042 2.32651 19.8755 3.6482 19.8761H12.5093C13.4304 22.2352 15.9006 23.6046 18.3894 23.1361C20.8783 22.6677 22.6815 20.4939 22.682 17.9612C22.6866 15.3905 20.834 13.2459 18.3926 12.7862ZM3.65314 3.07802H5.61586V3.99236C5.61586 4.2567 5.83009 4.47108 6.09458 4.47108C6.35892 4.47108 6.57329 4.2567 6.57329 3.99236V3.07802H13.0838V3.99236C13.0838 4.2567 13.298 4.47108 13.5625 4.47108C13.8268 4.47108 14.0412 4.2567 14.0412 3.99236V3.07802H16.0039C16.7961 3.08027 17.4377 3.72189 17.4401 4.51416V5.67265H2.217V4.51416C2.2176 3.72114 2.86027 3.07862 3.65314 3.07802ZM3.65314 18.9186C2.86087 18.9164 2.21925 18.2746 2.217 17.4825V6.62529H17.4351V12.6954H17.4208C15.8573 12.6978 14.3756 13.3935 13.3754 14.5954C12.375 15.7971 11.9597 17.3808 12.2411 18.9186H3.65314ZM17.4208 22.2696C15.0414 22.2696 13.1124 20.3407 13.1124 17.9612C13.1124 15.5817 15.0414 13.6528 17.4208 13.6528C19.8003 13.6528 21.7292 15.5817 21.7292 17.9612C21.7256 20.3392 19.7988 22.266 17.4208 22.2696Z" fill="black"/>
<path d="M19.6372 16.2429L16.7938 18.9572L15.324 17.4828C15.1378 17.2964 14.8356 17.2964 14.6492 17.4828C14.4626 17.6692 14.4626 17.9714 14.6492 18.1578L16.4538 19.9625C16.5435 20.0529 16.6662 20.103 16.7938 20.1014C16.9174 20.1024 17.0362 20.0542 17.124 19.9672L20.3026 16.9273C20.3942 16.8398 20.4472 16.7197 20.45 16.593C20.4525 16.4663 20.4048 16.3438 20.317 16.2525C20.1306 16.0655 19.8289 16.0612 19.6372 16.2429Z" fill="black"/>
</g>
<defs>
<clipPath id="clip0_210_153">
<rect width="24" height="24" fill="white"/>
</clipPath>
</defs>
</svg>
