<svg width="24" height="24" viewBox="0 0 24 24" fill="none" xmlns="http://www.w3.org/2000/svg">
<path d="M19.7647 2H4.23529C3.37724 2 2.55433 2.35119 1.9476 2.97631C1.34086 3.60143 1 4.44928 1 5.33333V18.6667C1 19.5507 1.34086 20.3986 1.9476 21.0237C2.55433 21.6488 3.37724 22 4.23529 22H19.7647C20.6228 22 21.4457 21.6488 22.0524 21.0237C22.6591 20.3986 23 19.5507 23 18.6667V14.6667C23 14.4899 22.9318 14.3203 22.8105 14.1953C22.6891 14.0702 22.5246 14 22.3529 14C22.1813 14 22.0167 14.0702 21.8954 14.1953C21.7741 14.3203 21.7059 14.4899 21.7059 14.6667V18.6667C21.7059 19.1971 21.5014 19.7058 21.1373 20.0809C20.7733 20.456 20.2795 20.6667 19.7647 20.6667H4.23529C3.72046 20.6667 3.22672 20.456 2.86267 20.0809C2.49863 19.7058 2.29412 19.1971 2.29412 18.6667V6H21.7059V7.33333C21.7059 7.51014 21.7741 7.67971 21.8954 7.80474C22.0167 7.92976 22.1813 8 22.3529 8C22.5246 8 22.6891 7.92976 22.8105 7.80474C22.9318 7.67971 23 7.51014 23 7.33333V5.33333C23 4.44928 22.6591 3.60143 22.0524 2.97631C21.4457 2.35119 20.6228 2 19.7647 2ZM4.23529 3.33333H19.7647C20.1648 3.33504 20.5545 3.46406 20.8807 3.70273C21.2069 3.94139 21.4535 4.27806 21.5868 4.66667H2.41318C2.54652 4.27806 2.79315 3.94139 3.11931 3.70273C3.44547 3.46406 3.83524 3.33504 4.23529 3.33333ZM12 19.3333H14.5882C14.6733 19.3335 14.7575 19.3164 14.8361 19.283C14.9147 19.2496 14.9862 19.2005 15.0464 19.1387L21.8948 12.0813C22.0752 11.8956 22.2183 11.6751 22.3159 11.4323C22.4136 11.1896 22.4638 10.9294 22.4638 10.6667C22.4638 10.4039 22.4136 10.1437 22.3159 9.901C22.2183 9.65827 22.0752 9.43773 21.8948 9.252L21.1378 8.472C20.9575 8.28615 20.7434 8.13871 20.5079 8.03812C20.2723 7.93753 20.0197 7.88576 19.7647 7.88576C19.5097 7.88576 19.2572 7.93753 19.0216 8.03812C18.786 8.13871 18.5719 8.28615 18.3916 8.472L11.5419 15.528C11.4818 15.59 11.4342 15.6636 11.4018 15.7446C11.3694 15.8256 11.3528 15.9124 11.3529 16V18.6667C11.3529 18.8435 11.4211 19.013 11.5425 19.1381C11.6638 19.2631 11.8284 19.3333 12 19.3333ZM20.2228 9.41467L20.9799 10.1947C21.0401 10.2566 21.0879 10.3302 21.1206 10.4112C21.1532 10.4921 21.17 10.579 21.17 10.6667C21.17 10.7544 21.1532 10.8412 21.1206 10.9222C21.0879 11.0032 21.0401 11.0767 20.9799 11.1387L20.4118 11.724L18.7385 10L19.3066 9.41467C19.3667 9.35258 19.4381 9.30333 19.5167 9.26972C19.5953 9.23611 19.6796 9.21881 19.7647 9.21881C19.8498 9.21881 19.9341 9.23611 20.0127 9.26972C20.0913 9.30333 20.1627 9.35258 20.2228 9.41467ZM12.6471 16.276L17.8235 10.9427L19.4968 12.6667L14.3204 18H12.6471V16.276ZM3.58824 9.33333C3.58824 9.15652 3.65641 8.98695 3.77775 8.86193C3.8991 8.7369 4.06368 8.66667 4.23529 8.66667H14.5882C14.7598 8.66667 14.9244 8.7369 15.0458 8.86193C15.1671 8.98695 15.2353 9.15652 15.2353 9.33333C15.2353 9.51014 15.1671 9.67971 15.0458 9.80474C14.9244 9.92976 14.7598 10 14.5882 10H4.23529C4.06368 10 3.8991 9.92976 3.77775 9.80474C3.65641 9.67971 3.58824 9.51014 3.58824 9.33333ZM10.7059 14H4.23529C4.06368 14 3.8991 13.9298 3.77775 13.8047C3.65641 13.6797 3.58824 13.5101 3.58824 13.3333C3.58824 13.1565 3.65641 12.987 3.77775 12.8619C3.8991 12.7369 4.06368 12.6667 4.23529 12.6667H10.7059C10.8775 12.6667 11.0421 12.7369 11.1634 12.8619C11.2848 12.987 11.3529 13.1565 11.3529 13.3333C11.3529 13.5101 11.2848 13.6797 11.1634 13.8047C11.0421 13.9298 10.8775 14 10.7059 14ZM9.41176 16.6667C9.58338 16.6667 9.74796 16.7369 9.86931 16.8619C9.99065 16.987 10.0588 17.1565 10.0588 17.3333C10.0588 17.5101 9.99065 17.6797 9.86931 17.8047C9.74796 17.9298 9.58338 18 9.41176 18H4.23529C4.06368 18 3.8991 17.9298 3.77775 17.8047C3.65641 17.6797 3.58824 17.5101 3.58824 17.3333C3.58824 17.1565 3.65641 16.987 3.77775 16.8619C3.8991 16.7369 4.06368 16.6667 4.23529 16.6667H9.41176Z" fill="black"/>
</svg>
