<svg width="25" height="25" viewBox="0 0 25 25" fill="none" xmlns="http://www.w3.org/2000/svg">
<path d="M24.9997 23.8156L20.6917 19.5076C22.692 17.2006 23.7189 14.2073 23.5562 11.1583C23.3934 8.10917 22.0537 5.24223 19.8193 3.16123C17.5848 1.08023 14.6299 -0.0524062 11.577 0.00186395C8.52402 0.0561341 5.61127 1.29307 3.45217 3.45217C1.29307 5.61127 0.0561341 8.52402 0.00186395 11.577C-0.0524062 14.6299 1.08023 17.5848 3.16123 19.8193C5.24223 22.0537 8.10917 23.3934 11.1583 23.5562C14.2073 23.7189 17.2006 22.692 19.5076 20.6917L23.8156 24.9997L24.9997 23.8156ZM1.74616 11.8188C1.74461 9.82627 2.33405 7.87807 3.43991 6.22061C4.54577 4.56315 6.11836 3.2709 7.95875 2.50734C9.79915 1.74377 11.8247 1.54318 13.7791 1.93096C15.7335 2.31873 17.529 3.27744 18.9384 4.68581C20.3479 6.09419 21.308 7.88894 21.6973 9.84305C22.0866 11.7972 21.8876 13.8228 21.1254 15.6638C20.3633 17.5048 19.0722 19.0784 17.4156 20.1855C15.759 21.2927 13.8113 21.8836 11.8188 21.8836C9.14934 21.8816 6.5897 20.8207 4.70139 18.9339C2.81307 17.047 1.75028 14.4882 1.74616 11.8188V11.8188Z" fill="#002A3A"/>
<path d="M11.8201 12.2632C12.5073 12.2632 13.179 12.0595 13.7504 11.6777C14.3217 11.2959 14.767 10.7533 15.03 10.1184C15.293 9.48358 15.3618 8.78499 15.2277 8.11103C15.0937 7.43706 14.7628 6.81798 14.2769 6.33208C13.791 5.84618 13.1719 5.51527 12.4979 5.38121C11.824 5.24715 11.1254 5.31596 10.4905 5.57893C9.85564 5.8419 9.31302 6.28722 8.93124 6.85858C8.54947 7.42994 8.3457 8.10168 8.3457 8.78885C8.3457 9.24511 8.43557 9.69691 8.61018 10.1184C8.78478 10.54 9.0407 10.923 9.36333 11.2456C10.0149 11.8972 10.8986 12.2632 11.8201 12.2632V12.2632ZM11.8201 6.99712C12.1745 6.99712 12.5209 7.1022 12.8155 7.29908C13.1102 7.49596 13.3398 7.77579 13.4754 8.10318C13.611 8.43058 13.6465 8.79084 13.5774 9.1384C13.5083 9.48596 13.3376 9.80521 13.087 10.0558C12.8365 10.3064 12.5172 10.477 12.1696 10.5461C11.8221 10.6153 11.4618 10.5798 11.1344 10.4442C10.807 10.3086 10.5272 10.0789 10.3303 9.78428C10.1335 9.48963 10.0284 9.14322 10.0284 8.78885C10.0304 8.31428 10.2198 7.85974 10.5554 7.52417C10.891 7.1886 11.3455 6.99917 11.8201 6.99712V6.99712Z" fill="#002A3A"/>
<path d="M13.9066 13.2129H9.73886C9.07249 13.2162 8.4343 13.4821 7.96272 13.953C7.72819 14.1855 7.54203 14.4621 7.41501 14.767C7.28799 15.0718 7.22261 15.3988 7.22266 15.7291V17.0612H8.89753V15.7369C8.89786 15.6266 8.92006 15.5175 8.96285 15.4159C9.00564 15.3143 9.06817 15.2221 9.14682 15.1448C9.30391 14.9874 9.51648 14.8979 9.73886 14.8956H13.9066C14.129 14.8979 14.3415 14.9874 14.4986 15.1448C14.5773 15.2221 14.6398 15.3143 14.6826 15.4159C14.7254 15.5175 14.7476 15.6266 14.7479 15.7369V17.069H16.4306V15.7369C16.4306 15.0695 16.1655 14.4295 15.6936 13.9577C15.2217 13.4858 14.5817 13.2207 13.9144 13.2207L13.9066 13.2129Z" fill="#002A3A"/>
</svg>
