<svg width="24" height="24" viewBox="0 0 24 24" fill="none" xmlns="http://www.w3.org/2000/svg">
<g clip-path="url(#clip0_205_17)">
<path d="M9.375 2.25H4.125C3.6279 2.2506 3.15133 2.44833 2.79983 2.79983C2.44833 3.15133 2.2506 3.6279 2.25 4.125V9.375C2.2506 9.8721 2.44833 10.3487 2.79983 10.7002C3.15133 11.0517 3.6279 11.2494 4.125 11.25H9.375C9.8721 11.2494 10.3487 11.0517 10.7002 10.7002C11.0517 10.3487 11.2494 9.8721 11.25 9.375V4.125C11.2494 3.6279 11.0517 3.15133 10.7002 2.79983C10.3487 2.44833 9.8721 2.2506 9.375 2.25ZM10.5 9.375C10.5 9.67337 10.3815 9.95952 10.1705 10.1705C9.95952 10.3815 9.67337 10.5 9.375 10.5H4.125C3.82663 10.5 3.54048 10.3815 3.3295 10.1705C3.11853 9.95952 3 9.67337 3 9.375V4.125C3 3.82663 3.11853 3.54048 3.3295 3.3295C3.54048 3.11853 3.82663 3 4.125 3H9.375C9.67337 3 9.95952 3.11853 10.1705 3.3295C10.3815 3.54048 10.5 3.82663 10.5 4.125V9.375ZM19.875 2.25H14.625C14.1279 2.2506 13.6513 2.44833 13.2998 2.79983C12.9483 3.15133 12.7506 3.6279 12.75 4.125V9.375C12.7506 9.8721 12.9483 10.3487 13.2998 10.7002C13.6513 11.0517 14.1279 11.2494 14.625 11.25H19.875C20.3721 11.2494 20.8487 11.0517 21.2002 10.7002C21.5517 10.3487 21.7494 9.8721 21.75 9.375V4.125C21.7494 3.6279 21.5517 3.15133 21.2002 2.79983C20.8487 2.44833 20.3721 2.2506 19.875 2.25ZM21 9.375C21 9.67337 20.8815 9.95952 20.6705 10.1705C20.4595 10.3815 20.1734 10.5 19.875 10.5H14.625C14.3266 10.5 14.0405 10.3815 13.8295 10.1705C13.6185 9.95952 13.5 9.67337 13.5 9.375V4.125C13.5 3.82663 13.6185 3.54048 13.8295 3.3295C14.0405 3.11853 14.3266 3 14.625 3H19.875C20.1734 3 20.4595 3.11853 20.6705 3.3295C20.8815 3.54048 21 3.82663 21 4.125V9.375ZM9.375 12.75H4.125C3.6279 12.7506 3.15133 12.9483 2.79983 13.2998C2.44833 13.6513 2.2506 14.1279 2.25 14.625V19.875C2.2506 20.3721 2.44833 20.8487 2.79983 21.2002C3.15133 21.5517 3.6279 21.7494 4.125 21.75H9.375C9.8721 21.7494 10.3487 21.5517 10.7002 21.2002C11.0517 20.8487 11.2494 20.3721 11.25 19.875V14.625C11.2494 14.1279 11.0517 13.6513 10.7002 13.2998C10.3487 12.9483 9.8721 12.7506 9.375 12.75ZM10.5 19.875C10.5 20.1734 10.3815 20.4595 10.1705 20.6705C9.95952 20.8815 9.67337 21 9.375 21H4.125C3.82663 21 3.54048 20.8815 3.3295 20.6705C3.11853 20.4595 3 20.1734 3 19.875V14.625C3 14.3266 3.11853 14.0405 3.3295 13.8295C3.54048 13.6185 3.82663 13.5 4.125 13.5H9.375C9.67337 13.5 9.95952 13.6185 10.1705 13.8295C10.3815 14.0405 10.5 14.3266 10.5 14.625V19.875ZM17.25 12.75C16.36 12.75 15.49 13.0139 14.7499 13.5084C14.0099 14.0029 13.4331 14.7057 13.0925 15.5279C12.7519 16.3502 12.6628 17.255 12.8365 18.1279C13.0101 19.0008 13.4387 19.8026 14.068 20.432C14.6974 21.0613 15.4992 21.4899 16.3721 21.6635C17.245 21.8372 18.1498 21.7481 18.9721 21.4075C19.7943 21.0669 20.4971 20.4901 20.9916 19.7501C21.4861 19.01 21.75 18.14 21.75 17.25C21.7487 16.0569 21.2742 14.9131 20.4306 14.0694C19.5869 13.2258 18.4431 12.7513 17.25 12.75ZM17.25 21C16.5083 21 15.7833 20.7801 15.1666 20.368C14.5499 19.956 14.0693 19.3703 13.7855 18.6851C13.5016 17.9998 13.4274 17.2458 13.5721 16.5184C13.7167 15.791 14.0739 15.1228 14.5983 14.5984C15.1228 14.0739 15.791 13.7168 16.5184 13.5721C17.2458 13.4274 17.9998 13.5016 18.6851 13.7855C19.3703 14.0693 19.956 14.5499 20.368 15.1666C20.7801 15.7833 21 16.5083 21 17.25C20.9989 18.2442 20.6035 19.1974 19.9004 19.9004C19.1974 20.6035 18.2442 20.9989 17.25 21Z" fill="black"/>
</g>
<defs>
<clipPath id="clip0_205_17">
<rect width="24" height="24" fill="white"/>
</clipPath>
</defs>
</svg>
