<svg width="24" height="21" viewBox="0 0 24 21" fill="none" xmlns="http://www.w3.org/2000/svg">
<path d="M5.37695 5.08862H9.04321V6.62796H5.37695V5.08862Z" fill="#002A3A"/>
<path d="M5.37695 8.58887H9.04321V10.1282H5.37695V8.58887Z" fill="#002A3A"/>
<path d="M5.37695 12.0892H9.04321V13.6286H5.37695V12.0892Z" fill="#002A3A"/>
<path d="M5.37695 15.5895H9.04321V17.1288H5.37695V15.5895Z" fill="#002A3A"/>
<path d="M12.7928 19.1786V6.60082L20.8308 6.59143V20.2328H22.3692V5.82087C22.3692 5.40097 22.0184 5.05118 21.5991 5.05118L12.0227 5.06236C11.5982 5.06287 11.2544 5.40728 11.2544 5.83205V19.1786H3.16923V3.94805L11.2544 1.77302V6.80171H12.7928V0.769074C12.7928 0.271125 12.3051 -0.103644 11.8238 0.0257917L2.20026 2.61466C1.86431 2.70507 1.63077 3.00984 1.63077 3.35795V19.1786H0V20.7179H24V19.1786H12.7928Z" fill="#002A3A"/>
<path d="M20.8301 16.462H22.3685V17.8959H20.8301V16.462Z" fill="#002A3A"/>
<path d="M14.9531 8.58911H18.6194V10.1284H14.9531V8.58911Z" fill="#002A3A"/>
<path d="M14.9531 12.0892H18.6194V13.6286H14.9531V12.0892Z" fill="#002A3A"/>
<path d="M14.9531 15.5897H18.6194V17.1291H14.9531V15.5897Z" fill="#002A3A"/>
</svg>
