<svg width="24" height="24" viewBox="0 0 24 24" fill="none" xmlns="http://www.w3.org/2000/svg">
<path d="M6.4186 2.69767V3.39535H5.48837C3.56186 3.39535 2 4.95721 2 6.88372V18.0465C2 19.973 3.56186 21.5349 5.48837 21.5349H11.0698C11.4549 21.5349 11.7674 21.2223 11.7674 20.8372C11.7674 20.4521 11.4549 20.1395 11.0698 20.1395H5.48837C4.33209 20.1395 3.39535 19.2028 3.39535 18.0465V6.88372C3.39535 5.72744 4.33209 4.7907 5.48837 4.7907H6.4186V5.48837C6.4186 5.87349 6.73116 6.18605 7.11627 6.18605C7.50139 6.18605 7.81395 5.87349 7.81395 5.48837V4.7907H14.3256V5.48837C14.3256 5.87349 14.6381 6.18605 15.0232 6.18605C15.4084 6.18605 15.7209 5.87349 15.7209 5.48837V4.7907H16.6511C17.8074 4.7907 18.7442 5.72744 18.7442 6.88372V9.2093C18.7442 9.59442 19.0567 9.90698 19.4418 9.90698C19.827 9.90698 20.1395 9.59442 20.1395 9.2093V6.88372C20.1395 4.95721 18.5777 3.39535 16.6511 3.39535H15.7209V2.69767C15.7209 2.31256 15.4084 2 15.0232 2C14.6381 2 14.3256 2.31256 14.3256 2.69767V3.39535H7.81395V2.69767C7.81395 2.31256 7.50139 2 7.11627 2C6.73116 2 6.4186 2.31256 6.4186 2.69767Z" fill="white"/>
<path fill-rule="evenodd" clip-rule="evenodd" d="M17.7395 11.3023C16.1991 11.3023 14.9488 12.5526 14.9488 14.093C14.9488 15.6335 16.1991 16.8837 17.7395 16.8837C15.8232 16.8837 14.1898 18.106 13.5665 19.8093C13.3823 20.3088 13.4539 20.867 13.7591 21.3033C14.0632 21.7405 14.5628 22 15.0949 22C16.5088 22 18.9767 22 20.3907 21.9879C20.9125 21.9879 21.4074 21.7293 21.7097 21.2958C22.0121 20.8623 22.0828 20.3088 21.9004 19.813C21.293 18.1098 19.6586 16.8837 17.7395 16.8837C19.28 16.8837 20.5302 15.6335 20.5302 14.093C20.5302 12.5526 19.28 11.3023 17.7395 11.3023ZM17.7395 12.6977C18.5097 12.6977 19.1349 13.3228 19.1349 14.093C19.1349 14.8633 18.5097 15.4884 17.7395 15.4884C16.9693 15.4884 16.3442 14.8633 16.3442 14.093C16.3442 13.3228 16.9693 12.6977 17.7395 12.6977ZM15.0949 20.6047C15.0186 20.6047 14.947 20.5674 14.9032 20.5051C14.8595 20.4428 14.8493 20.3628 14.8753 20.2912L14.8763 20.2902C15.3042 19.1209 16.4242 18.2791 17.7395 18.2791C19.053 18.2791 20.1711 19.1181 20.5888 20.2884C20.5897 20.2912 20.5897 20.294 20.5907 20.2958C20.6158 20.3637 20.6065 20.4391 20.5646 20.4977C20.5237 20.5572 20.4567 20.5926 20.3842 20.5926H20.3786C18.9674 20.6047 16.5051 20.6047 15.0949 20.6047Z" fill="white"/>
<path d="M6.4186 10.8372H9.30232C9.68743 10.8372 9.99999 10.5247 9.99999 10.1395C9.99999 9.75442 9.68743 9.44186 9.30232 9.44186H6.4186C6.03348 9.44186 5.72092 9.75442 5.72092 10.1395C5.72092 10.5247 6.03348 10.8372 6.4186 10.8372Z" fill="white"/>
<path d="M11.0698 14.5581H6.4186C6.03348 14.5581 5.72092 14.2456 5.72092 13.8605C5.72092 13.4753 6.03348 13.1628 6.4186 13.1628H11.0698C11.4549 13.1628 11.7674 13.4753 11.7674 13.8605C11.7674 14.2456 11.4549 14.5581 11.0698 14.5581Z" fill="white"/>
</svg>
