<svg width="26" height="26" viewBox="0 0 26 26" fill="none" xmlns="http://www.w3.org/2000/svg">
<path d="M13.0037 6.91608C12.5357 6.91608 12.0783 6.77732 11.6892 6.51734C11.3001 6.25736 10.9969 5.88784 10.8178 5.45551C10.6387 5.02318 10.5919 4.54746 10.6832 4.0885C10.7745 3.62954 10.9998 3.20796 11.3307 2.87707C11.6616 2.54618 12.0832 2.32084 12.5421 2.22955C13.0011 2.13825 13.4768 2.18511 13.9091 2.36418C14.3415 2.54326 14.711 2.84652 14.971 3.2356C15.2309 3.62469 15.3697 4.08213 15.3697 4.55008C15.3689 5.17733 15.1193 5.77865 14.6758 6.22219C14.2323 6.66572 13.6309 6.91526 13.0037 6.91608ZM13.0037 3.01608C12.7003 3.01608 12.4037 3.10605 12.1515 3.27461C11.8992 3.44317 11.7026 3.68274 11.5865 3.96305C11.4704 4.24335 11.44 4.55178 11.4992 4.84935C11.5584 5.14692 11.7045 5.42025 11.919 5.63478C12.1335 5.84932 12.4069 5.99542 12.7044 6.05461C13.002 6.1138 13.3104 6.08342 13.5907 5.96731C13.871 5.85121 14.1106 5.65459 14.2792 5.40233C14.4477 5.15006 14.5377 4.85348 14.5377 4.55008C14.5371 4.14341 14.3754 3.75355 14.0878 3.46599C13.8002 3.17843 13.4104 3.01663 13.0037 3.01608Z" fill="white"/>
<path d="M17.299 13.8858H8.70995C8.59962 13.8858 8.4938 13.842 8.41579 13.7639C8.33777 13.6859 8.29395 13.5801 8.29395 13.4698V11.0697C8.29395 9.20137 9.81416 7.68115 11.6825 7.68115H14.3259C16.1943 7.68115 17.7145 9.20137 17.7145 11.0697V13.4698C17.7145 13.58 17.6708 13.6858 17.5929 13.7638C17.515 13.8418 17.4093 13.8857 17.299 13.8858ZM9.12595 13.0538H16.883V11.0697C16.8823 10.3918 16.6126 9.74191 16.1332 9.26261C15.6538 8.78331 15.0039 8.51377 14.3259 8.51315H11.6817C11.0041 8.51412 10.3544 8.7838 9.87531 9.26307C9.39619 9.74233 9.1267 10.3921 9.12595 11.0697V13.0538Z" fill="white"/>
<path d="M15.7041 13.8854C15.5938 13.8854 15.4879 13.8416 15.4099 13.7635C15.3319 13.6855 15.2881 13.5797 15.2881 13.4694V11.6455C15.2881 11.5352 15.3319 11.4294 15.4099 11.3513C15.4879 11.2733 15.5938 11.2295 15.7041 11.2295C15.8144 11.2295 15.9202 11.2733 15.9982 11.3513C16.0763 11.4294 16.1201 11.5352 16.1201 11.6455V13.4694C16.1201 13.5797 16.0763 13.6855 15.9982 13.7635C15.9202 13.8416 15.8144 13.8854 15.7041 13.8854Z" fill="white"/>
<path d="M10.3047 13.8854C10.1943 13.8854 10.0885 13.8416 10.0105 13.7635C9.9325 13.6855 9.88867 13.5797 9.88867 13.4694V11.6455C9.88867 11.5352 9.9325 11.4294 10.0105 11.3513C10.0885 11.2733 10.1943 11.2295 10.3047 11.2295C10.415 11.2295 10.5208 11.2733 10.5988 11.3513C10.6768 11.4294 10.7207 11.5352 10.7207 11.6455V13.4694C10.7207 13.5797 10.6768 13.6855 10.5988 13.7635C10.5208 13.8416 10.415 13.8854 10.3047 13.8854Z" fill="white"/>
<path d="M15.8283 20.3198H11.1613C11.051 20.3198 10.9452 20.276 10.8671 20.198C10.7891 20.12 10.7453 20.0142 10.7453 19.9038C10.7453 19.7935 10.7891 19.6877 10.8671 19.6097C10.9452 19.5317 11.051 19.4878 11.1613 19.4878H15.8283C16.0653 19.4838 16.2912 19.3868 16.4574 19.2178C16.6236 19.0488 16.7167 18.8212 16.7167 18.5842C16.7167 18.3472 16.6236 18.1196 16.4574 17.9506C16.2912 17.7816 16.0653 17.6846 15.8283 17.6806H11.1499C11.1106 17.6806 10.1756 17.6481 9.00824 17.1424L8.93492 17.1104C7.84916 16.6341 7.05148 16.391 6.56424 16.3878C5.77852 16.3829 5.10512 16.5438 4.56484 16.8642C4.51787 16.8927 4.46571 16.9117 4.41136 16.92C4.35701 16.9283 4.30156 16.9257 4.24821 16.9125C4.19486 16.8992 4.14466 16.8755 4.10053 16.8427C4.0564 16.8099 4.01921 16.7687 3.9911 16.7215C3.96299 16.6742 3.94453 16.6219 3.93677 16.5674C3.92902 16.513 3.93213 16.4576 3.94593 16.4044C3.95973 16.3511 3.98394 16.3012 4.01716 16.2574C4.05038 16.2136 4.09195 16.1768 4.13948 16.1492C4.81184 15.7493 5.62876 15.5488 6.5697 15.5558C7.38168 15.5613 8.49916 16.0108 9.26902 16.3483L9.33922 16.379C10.3114 16.8002 11.1028 16.8454 11.1694 16.8486H15.8283C16.2849 16.8542 16.721 17.0395 17.0419 17.3644C17.3628 17.6892 17.5428 18.1275 17.5428 18.5842C17.5428 19.0409 17.3628 19.4791 17.0419 19.804C16.721 20.1289 16.2849 20.3142 15.8283 20.3198Z" fill="white"/>
<path d="M12.965 23.8158C12.7676 23.8158 12.5691 23.8065 12.3696 23.788C11.6769 23.7211 10.9996 23.5428 10.3637 23.2599L8.63681 22.4986C8.11106 22.2661 7.5719 22.0652 7.0222 21.897C6.63064 21.7779 6.4242 21.7353 6.3202 21.7205C5.47702 21.6003 4.83066 21.6032 4.5002 21.7288C4.43714 21.7527 4.3692 21.761 4.30224 21.7528C4.23528 21.7447 4.1713 21.7204 4.11583 21.682C4.06036 21.6436 4.01505 21.5923 3.98381 21.5325C3.95258 21.4727 3.93635 21.4062 3.93652 21.3388V16.4817C3.93652 16.3714 3.98035 16.2656 4.05837 16.1876C4.13638 16.1095 4.24219 16.0657 4.35252 16.0657C4.46285 16.0657 4.56867 16.1095 4.64668 16.1876C4.7247 16.2656 4.76852 16.3714 4.76852 16.4817V20.8258C5.20636 20.7774 5.76458 20.8014 6.43772 20.8973C6.63454 20.9251 6.90573 20.9919 7.26479 21.1014C7.8464 21.2792 8.41682 21.4918 8.97298 21.7379L10.7002 22.4989C11.2541 22.7459 11.8443 22.9016 12.4479 22.9601C12.8999 23.0034 13.3556 22.9892 13.804 22.918C14.374 22.826 15.213 22.5426 15.5286 22.436L15.5824 22.4178C18.7368 21.3604 21.5936 18.5178 22.6755 17.3478C22.8036 17.2115 22.8961 17.0458 22.9448 16.8652C22.9934 16.6847 22.9968 16.4949 22.9545 16.3127C22.8978 16.0764 22.7532 15.7568 22.1568 15.7082C21.8863 15.6874 21.6173 15.7636 21.3979 15.9232L17.3894 18.8168C17.3452 18.8499 17.2949 18.8738 17.2413 18.8873C17.1877 18.9007 17.132 18.9033 17.0774 18.895C17.0228 18.8867 16.9704 18.8675 16.9233 18.8387C16.8761 18.8099 16.8352 18.7721 16.8029 18.7273C16.7705 18.6825 16.7475 18.6317 16.7349 18.5779C16.7224 18.5241 16.7208 18.4684 16.73 18.4139C16.7393 18.3595 16.7593 18.3074 16.7889 18.2608C16.8185 18.2142 16.8571 18.1739 16.9025 18.1423L20.9111 15.2488C21.2906 14.9728 21.7561 14.8412 22.2239 14.8775C23.04 14.9441 23.5865 15.3843 23.7626 16.1164C23.837 16.4316 23.8325 16.7602 23.7493 17.0732C23.6662 17.3862 23.507 17.6738 23.286 17.9104C22.1607 19.1301 19.1832 22.0873 15.8463 23.2061L15.7943 23.2238C15.4605 23.3364 14.5739 23.6359 13.9359 23.7378C13.6148 23.7896 13.2902 23.8157 12.965 23.8158Z" fill="white"/>
<path d="M3.48073 23.0379C3.13686 23.0375 2.80717 22.9008 2.56399 22.6577C2.32081 22.4145 2.18401 22.0849 2.18359 21.741V15.8809C2.18359 15.5369 2.32023 15.207 2.56344 14.9638C2.80665 14.7206 3.13652 14.584 3.48047 14.584C3.82443 14.584 4.15429 14.7206 4.39751 14.9638C4.64072 15.207 4.77735 15.5369 4.77735 15.8809V21.741C4.77701 22.0848 4.6403 22.4144 4.39722 22.6576C4.15414 22.9007 3.82454 23.0375 3.48073 23.0379ZM3.48073 15.4162C3.35748 15.4163 3.23929 15.4653 3.15209 15.5524C3.06489 15.6395 3.0158 15.7576 3.01559 15.8809V21.741C3.01559 21.8643 3.06457 21.9825 3.15175 22.0697C3.23894 22.1569 3.35718 22.2059 3.48047 22.2059C3.60377 22.2059 3.72201 22.1569 3.80919 22.0697C3.89638 21.9825 3.94535 21.8643 3.94535 21.741V15.8809C3.94522 15.7577 3.89622 15.6396 3.80912 15.5525C3.72201 15.4654 3.60392 15.4164 3.48073 15.4162Z" fill="white"/>
</svg>
