<svg width="47" height="30" viewBox="0 0 47 30" fill="none" xmlns="http://www.w3.org/2000/svg">
<path d="M33.2217 16.7772C34.0039 15.995 34.0039 14.7267 33.2217 13.9445C32.4395 13.1623 31.1712 13.1623 30.389 13.9445C29.6068 14.7267 29.6068 15.995 30.389 16.7772C31.1712 17.5594 32.4395 17.5594 33.2217 16.7772Z" fill="#F8B133"/>
<path d="M15.9779 17.1449C16.9591 16.9097 17.5638 15.9236 17.3286 14.9424C17.0934 13.9613 16.1074 13.3565 15.1262 13.5917C14.145 13.8269 13.5403 14.813 13.7755 15.7942C14.0107 16.7753 14.9967 17.3801 15.9779 17.1449Z" fill="#E61B72"/>
<path d="M31.81 0.730469C24.9964 0.730469 19.1834 5.43392 17.598 11.861C18.8053 12.5683 19.6143 13.8694 19.6143 15.3694C19.6143 17.6133 17.7929 19.4347 15.5491 19.4347C13.3052 19.4347 11.4838 17.6133 11.4838 15.3694C11.4838 13.5362 12.6951 11.9913 14.358 11.4829C15.8028 4.96648 20.4317 1.57204 20.4317 1.57204C18.9025 1.02712 17.2604 0.730469 15.5491 0.730469C7.47538 0.730469 0.914062 7.2918 0.914062 15.3655C0.914062 23.4392 7.47538 30.0005 15.5491 30.0005C22.3582 30.0005 28.1717 25.2971 29.7571 18.87C28.5538 18.1627 27.7408 16.8576 27.7408 15.3616C27.7408 13.1177 29.5622 11.2963 31.806 11.2963C34.0499 11.2963 35.8713 13.1177 35.8713 15.3616C35.8713 17.1908 34.66 18.7397 32.9971 19.2481C31.5558 25.7502 26.9279 29.159 26.9279 29.159C28.4565 29.7039 30.0987 30.0005 31.81 30.0005C39.8837 30.0005 46.445 23.4392 46.445 15.3655C46.445 7.2918 39.8832 0.730469 31.81 0.730469Z" fill="url(#paint0_linear_603_8339)"/>
<defs>
<linearGradient id="paint0_linear_603_8339" x1="15.3847" y1="0.547839" x2="31.8164" y2="29.9018" gradientUnits="userSpaceOnUse">
<stop stop-color="#00ABFF"/>
<stop offset="0.604167" stop-color="#292BB3"/>
<stop offset="1" stop-color="#1F1380"/>
</linearGradient>
</defs>
</svg>
