<svg width="24" height="24" viewBox="0 0 24 24" fill="none" xmlns="http://www.w3.org/2000/svg">
<g clip-path="url(#clip0_210_110)">
<path d="M16 22.5H4C3.3372 22.4992 2.70178 22.2356 2.23311 21.7669C1.76444 21.2982 1.50079 20.6628 1.5 20V4C1.50079 3.3372 1.76444 2.70178 2.23311 2.23311C2.70178 1.76444 3.3372 1.50079 4 1.5H11.73C12.0629 1.50022 12.3925 1.56664 12.6996 1.6954C13.0066 1.82416 13.285 2.01268 13.5185 2.25L17.7875 6.6195C18.2454 7.08696 18.5013 7.71563 18.5 8.37V12.095C18.5 12.2276 18.4473 12.3548 18.3536 12.4486C18.2598 12.5423 18.1326 12.595 18 12.595C17.8674 12.595 17.7402 12.5423 17.6465 12.4486C17.5527 12.3548 17.5 12.2276 17.5 12.095V8.37C17.5002 7.97748 17.3466 7.60052 17.072 7.32L12.8025 2.95C12.6626 2.8075 12.4957 2.69432 12.3115 2.61705C12.1274 2.53979 11.9297 2.5 11.73 2.5H4C3.60218 2.5 3.22064 2.65804 2.93934 2.93934C2.65804 3.22064 2.5 3.60218 2.5 4V20C2.5 20.3978 2.65804 20.7794 2.93934 21.0607C3.22064 21.342 3.60218 21.5 4 21.5H16C16.1886 21.5007 16.3755 21.4642 16.55 21.3925C16.6727 21.342 16.8103 21.3424 16.9328 21.3934C17.0552 21.4445 17.1523 21.5421 17.2028 21.6647C17.2532 21.7874 17.2529 21.9251 17.2018 22.0475C17.1508 22.1699 17.0532 22.267 16.9305 22.3175C16.6353 22.4387 16.3191 22.5008 16 22.5Z" fill="black"/>
<path d="M17.795 8.00027H14.5C13.8372 7.99948 13.2018 7.73583 12.7331 7.26716C12.2644 6.79849 12.0008 6.16307 12 5.50027V2.15527C12 2.02267 12.0527 1.89549 12.1464 1.80172C12.2402 1.70795 12.3674 1.65527 12.5 1.65527C12.6326 1.65527 12.7598 1.70795 12.8536 1.80172C12.9473 1.89549 13 2.02267 13 2.15527V5.50027C13 5.8981 13.158 6.27963 13.4393 6.56093C13.7206 6.84224 14.1022 7.00027 14.5 7.00027H17.795C17.9276 7.00027 18.0548 7.05295 18.1486 7.14672C18.2423 7.24049 18.295 7.36767 18.295 7.50027C18.295 7.63288 18.2423 7.76006 18.1486 7.85383C18.0548 7.9476 17.9276 8.00027 17.795 8.00027Z" fill="black"/>
<path d="M17 22.4266C16.8028 22.4268 16.61 22.3685 16.446 22.2591L14.84 21.1881C13.8118 20.5044 12.9688 19.577 12.386 18.4885C11.8033 17.4 11.4989 16.1843 11.5 14.9496V14.0936C11.501 13.8686 11.5775 13.6505 11.7172 13.4741C11.8569 13.2978 12.0517 13.1735 12.2705 13.1211C13.7555 12.7106 15.1681 12.0733 16.4585 11.2316C16.62 11.1276 16.808 11.0723 17 11.0723C17.1921 11.0723 17.38 11.1276 17.5415 11.2316C18.8318 12.0734 20.2445 12.7107 21.7295 13.1211C21.9483 13.1735 22.1431 13.2978 22.2828 13.4741C22.4226 13.6505 22.499 13.8686 22.5 14.0936V14.9496C22.5015 16.1846 22.1972 17.4008 21.6144 18.4897C21.0317 19.5785 20.1884 20.5063 19.16 21.1901L17.5545 22.2606C17.3902 22.3695 17.1972 22.4273 17 22.4266ZM17 12.0716C15.6176 12.9734 14.1036 13.6552 12.512 14.0926L12.5 14.9496C12.4988 16.0199 12.7625 17.0739 13.2675 18.0176C13.7725 18.9613 14.5033 19.7653 15.3945 20.3581L17 21.4266L18.6055 20.3561C19.4965 19.7635 20.227 18.9598 20.732 18.0165C21.2371 17.0732 21.5009 16.0196 21.5 14.9496V14.0936C19.9045 13.6564 18.3865 12.9745 17 12.0721V12.0716Z" fill="black"/>
<path d="M16.5 17.9997C16.3674 17.9997 16.2403 17.947 16.1465 17.8532L15.1465 16.8532C15.0554 16.7589 15.005 16.6326 15.0062 16.5015C15.0073 16.3704 15.0599 16.245 15.1526 16.1523C15.2453 16.0596 15.3707 16.007 15.5018 16.0059C15.6329 16.0047 15.7592 16.0551 15.8535 16.1462L16.5 16.7927L18.1465 15.1462C18.2408 15.0551 18.3671 15.0047 18.4982 15.0059C18.6293 15.007 18.7547 15.0596 18.8474 15.1523C18.9401 15.245 18.9927 15.3704 18.9939 15.5015C18.995 15.6326 18.9446 15.7589 18.8535 15.8532L16.8535 17.8532C16.7598 17.947 16.6326 17.9997 16.5 17.9997Z" fill="black"/>
<path d="M9 6.5H5C4.86739 6.5 4.74021 6.44732 4.64645 6.35355C4.55268 6.25979 4.5 6.13261 4.5 6C4.5 5.86739 4.55268 5.74021 4.64645 5.64645C4.74021 5.55268 4.86739 5.5 5 5.5H9C9.13261 5.5 9.25979 5.55268 9.35355 5.64645C9.44732 5.74021 9.5 5.86739 9.5 6C9.5 6.13261 9.44732 6.25979 9.35355 6.35355C9.25979 6.44732 9.13261 6.5 9 6.5Z" fill="black"/>
<path d="M12 9.5H5C4.86739 9.5 4.74021 9.44732 4.64645 9.35355C4.55268 9.25979 4.5 9.13261 4.5 9C4.5 8.86739 4.55268 8.74021 4.64645 8.64645C4.74021 8.55268 4.86739 8.5 5 8.5H12C12.1326 8.5 12.2598 8.55268 12.3536 8.64645C12.4473 8.74021 12.5 8.86739 12.5 9C12.5 9.13261 12.4473 9.25979 12.3536 9.35355C12.2598 9.44732 12.1326 9.5 12 9.5Z" fill="black"/>
<path d="M13 12.5H5C4.86739 12.5 4.74021 12.4473 4.64645 12.3536C4.55268 12.2598 4.5 12.1326 4.5 12C4.5 11.8674 4.55268 11.7402 4.64645 11.6464C4.74021 11.5527 4.86739 11.5 5 11.5H13C13.1326 11.5 13.2598 11.5527 13.3536 11.6464C13.4473 11.7402 13.5 11.8674 13.5 12C13.5 12.1326 13.4473 12.2598 13.3536 12.3536C13.2598 12.4473 13.1326 12.5 13 12.5Z" fill="black"/>
<path d="M10 15.5H5C4.86739 15.5 4.74021 15.4473 4.64645 15.3536C4.55268 15.2598 4.5 15.1326 4.5 15C4.5 14.8674 4.55268 14.7402 4.64645 14.6464C4.74021 14.5527 4.86739 14.5 5 14.5H10C10.1326 14.5 10.2598 14.5527 10.3536 14.6464C10.4473 14.7402 10.5 14.8674 10.5 15C10.5 15.1326 10.4473 15.2598 10.3536 15.3536C10.2598 15.4473 10.1326 15.5 10 15.5Z" fill="black"/>
<path d="M10 18.5H5C4.86739 18.5 4.74021 18.4473 4.64645 18.3536C4.55268 18.2598 4.5 18.1326 4.5 18C4.5 17.8674 4.55268 17.7402 4.64645 17.6464C4.74021 17.5527 4.86739 17.5 5 17.5H10C10.1326 17.5 10.2598 17.5527 10.3536 17.6464C10.4473 17.7402 10.5 17.8674 10.5 18C10.5 18.1326 10.4473 18.2598 10.3536 18.3536C10.2598 18.4473 10.1326 18.5 10 18.5Z" fill="black"/>
</g>
<defs>
<clipPath id="clip0_210_110">
<rect width="24" height="24" fill="white"/>
</clipPath>
</defs>
</svg>
