<svg width="24" height="24" viewBox="0 0 24 24" fill="none" xmlns="http://www.w3.org/2000/svg">
<path d="M20.0666 5.36634L16.1333 1.43301C16.0666 1.36634 16 1.33301 15.9 1.33301H6.23331C6.03331 1.33301 5.89998 1.46634 5.89998 1.66634V3.36634H4.16665C3.96665 3.36634 3.83331 3.49967 3.83331 3.69967V22.333C3.83331 22.533 3.96665 22.6663 4.16665 22.6663H17.7666C17.9666 22.6663 18.1 22.533 18.1 22.333V20.633H19.8333C20.0333 20.633 20.1666 20.4997 20.1666 20.2997V5.59967C20.1666 5.49967 20.1333 5.43301 20.0666 5.36634ZM16.2333 2.46634L19.0333 5.26634H16.2333V2.46634ZM17.4333 21.9997H4.49998V4.03301H5.86665V20.2663C5.86665 20.3663 5.89998 20.433 5.96665 20.4997C6.03331 20.5663 6.09998 20.5997 6.19998 20.5997H17.4333V21.9997ZM17.8 19.9663H6.56665V1.99967H15.6V5.59967C15.6 5.79967 15.7333 5.93301 15.9333 5.93301H19.5333V19.9663H17.8Z" fill="black"/>
<path d="M17.7667 12.1326L16.7333 11.7326C16.6667 11.4993 16.5667 11.266 16.4333 11.066L16.8667 10.066C16.9333 9.93262 16.9 9.79928 16.8 9.69928L16.2 9.09928C16.1 8.99928 15.9667 8.96595 15.8333 9.03262L14.8333 9.46595C14.6333 9.36595 14.4 9.26595 14.1667 9.16595L13.7667 8.13262C13.7333 7.99928 13.6 7.93262 13.4667 7.93262H12.6C12.4667 7.93262 12.3333 8.03262 12.3 8.13262L11.9 9.16595C11.6667 9.23262 11.4333 9.33262 11.2333 9.46595L10.2333 9.03262C10.1 8.96595 9.96666 8.99928 9.86666 9.09928L9.19999 9.66595C9.09999 9.76595 9.06666 9.89928 9.13332 10.0326L9.56666 11.0326C9.46666 11.2326 9.36666 11.466 9.26666 11.6993L8.23333 12.0993C8.09999 12.1326 8.03333 12.266 8.03333 12.3993V13.3326C8.03333 13.466 8.13333 13.5993 8.23333 13.6326L9.26666 14.0326C9.33332 14.266 9.43333 14.4993 9.56666 14.6993L9.13332 15.6993C9.06666 15.8326 9.09999 15.966 9.19999 16.066L9.79999 16.666C9.89999 16.766 10.0333 16.7993 10.1667 16.7326L11.1667 16.2993C11.3667 16.3993 11.6 16.4993 11.8333 16.5993L12.2333 17.6326C12.2667 17.766 12.4 17.8326 12.5333 17.8326H13.4C13.5333 17.8326 13.6667 17.7326 13.7 17.6326L14.1 16.5993C14.3333 16.5326 14.5667 16.4326 14.7667 16.2993L15.7667 16.7326C15.9 16.7993 16.0333 16.766 16.1333 16.666L16.7333 16.066C16.8333 15.966 16.8667 15.8326 16.8 15.6993L16.3667 14.6993C16.4667 14.4993 16.5667 14.266 16.6667 14.0326L17.7 13.6326C17.8333 13.5993 17.9 13.466 17.9 13.3326V12.466C18 12.2993 17.9 12.1993 17.7667 12.1326ZM17.3333 13.0993L16.3667 13.466C16.2667 13.4993 16.2 13.5993 16.1667 13.6993C16.1 13.9993 15.9667 14.266 15.8333 14.5326C15.7667 14.6326 15.7667 14.7326 15.8 14.8326L16.2333 15.7993L15.9333 16.0993L14.9667 15.666C14.8667 15.6326 14.7667 15.6326 14.6667 15.6993C14.4 15.866 14.1333 15.966 13.8333 16.0326C13.7333 16.066 13.6333 16.1326 13.6 16.2326L13.2333 17.1993H12.8333L12.4667 16.2326C12.4333 16.1326 12.3333 16.066 12.2333 16.0326C11.9333 15.966 11.6667 15.8326 11.4 15.6993C11.3 15.6326 11.2 15.6326 11.1 15.666L10.1333 16.0993L9.83333 15.7993L10.2667 14.8326C10.3 14.7326 10.3 14.6326 10.2333 14.5326C10.0667 14.266 9.96666 13.9993 9.89999 13.6993C9.86666 13.5993 9.79999 13.4993 9.69999 13.466L8.73333 13.0993V12.666L9.69999 12.2993C9.79999 12.266 9.86666 12.166 9.89999 12.066C9.96666 11.766 10.1 11.4993 10.2333 11.2326C10.3 11.1326 10.3 11.0326 10.2667 10.9326L9.83333 9.99928L10.1333 9.69928L11.1 10.1326C11.2 10.166 11.3 10.166 11.4 10.0993C11.6667 9.93262 11.9333 9.83262 12.2333 9.76595C12.3333 9.73262 12.4333 9.66595 12.4667 9.56595L12.8333 8.59928H13.2333L13.6 9.56595C13.6333 9.66595 13.7333 9.73262 13.8333 9.76595C14.1333 9.83262 14.4 9.96595 14.6667 10.0993C14.7667 10.166 14.8667 10.166 14.9667 10.1326L15.9333 9.69928L16.2333 9.99928L15.8 10.966C15.7667 11.066 15.7667 11.166 15.8333 11.266C16 11.5326 16.1 11.7993 16.1667 12.0993C16.2 12.1993 16.2667 12.2993 16.3667 12.3326L17.3333 12.666V13.0993Z" fill="black"/>
<path d="M13.0333 11.2334C12.1333 11.2334 11.4 11.9667 11.4 12.8667C11.4 13.7667 12.1333 14.5001 13.0333 14.5001C13.9333 14.5001 14.6666 13.7667 14.6666 12.8667C14.6666 11.9667 13.9333 11.2334 13.0333 11.2334ZM13.0333 13.8667C12.5 13.8667 12.0666 13.4334 12.0666 12.9001C12.0666 12.3667 12.5 11.9334 13.0333 11.9334C13.5666 11.9334 14 12.3667 14 12.9001C14 13.4334 13.5666 13.8667 13.0333 13.8667Z" fill="black"/>
<path d="M8.03328 3.96647H14.0666C14.2666 3.96647 14.4 3.83314 14.4 3.63314C14.4 3.43314 14.2666 3.2998 14.0666 3.2998H8.03328C7.83328 3.2998 7.69995 3.43314 7.69995 3.63314C7.69995 3.83314 7.86662 3.96647 8.03328 3.96647Z" fill="black"/>
<path d="M14.4 5.59993C14.4 5.39993 14.2666 5.2666 14.0666 5.2666H8.03328C7.83328 5.2666 7.69995 5.39993 7.69995 5.59993C7.69995 5.79993 7.83328 5.93327 8.03328 5.93327H14.0666C14.2666 5.93327 14.4 5.7666 14.4 5.59993Z" fill="black"/>
</svg>
