<svg width="24" height="24" viewBox="0 0 24 24" fill="none" xmlns="http://www.w3.org/2000/svg">
<path d="M20.9722 12.2025C20.9825 12.3848 21 12.5652 21 12.75C21 13.5255 20.8993 14.2763 20.7275 15H17.8692C17.9542 14.2747 18 13.523 18 12.75C18 12.5532 17.991 12.3612 17.985 12.1675C17.7065 11.937 17.0718 11.3845 16.3608 10.6C16.4488 11.2953 16.5 12.0132 16.5 12.75C16.5 13.5225 16.4433 14.274 16.3465 15H12V9H15.0968C14.7793 8.5335 14.484 8.03125 14.2343 7.5H12V3.1165C12.5372 3.26675 13.049 3.58025 13.5245 4.01775C13.5855 3.25675 13.79 2.53725 14.1095 1.88225C13.1945 1.64125 12.2395 1.5 11.25 1.5C5.0465 1.5 0 6.54675 0 12.75C0 18.9532 5.0465 24 11.25 24C17.4535 24 22.5 18.9532 22.5 12.75C22.5 12.1265 22.436 11.5193 22.338 10.9233C21.7107 11.5795 21.186 12.028 20.9722 12.2025ZM6.95525 4.01025C6.25525 4.961 5.67875 6.147 5.25925 7.5H3.04725C4.005 6.00875 5.3565 4.79925 6.95525 4.01025ZM1.5 12.75C1.5 11.4215 1.769 10.1552 2.25225 9H4.87825C4.63725 10.1697 4.5 11.427 4.5 12.75C4.5 13.523 4.54575 14.2747 4.63075 15H1.7725C1.60075 14.2763 1.5 13.5255 1.5 12.75ZM2.25225 16.5H4.87825C5.28675 18.483 6.00725 20.2025 6.95525 21.4897C4.84725 20.4495 3.1635 18.6785 2.25225 16.5ZM10.5 22.3835C8.6825 21.875 7.13225 19.571 6.4195 16.5H10.5V22.3835ZM10.5 15H6.1535C6.05675 14.274 6 13.5225 6 12.75C6 11.4297 6.15025 10.161 6.4195 9H10.5V15ZM10.5 7.5H6.85875C7.67275 5.19375 8.99325 3.53825 10.5 3.1165V7.5ZM12 22.3835V16.5H16.0805C15.3677 19.571 13.8175 21.875 12 22.3835ZM15.5448 21.4897C16.4928 20.2025 17.2132 18.483 17.622 16.5H20.248C19.3365 18.6785 17.6528 20.4495 15.5448 21.4897ZM19.5 11.25C19.3345 11.25 19.1682 11.195 19.0312 11.0855C18.8672 10.954 15 7.82225 15 4.5C15 2.0185 17.0185 0 19.5 0C21.9815 0 24 2.0185 24 4.5C24 7.82225 20.1328 10.954 19.9688 11.0855C19.8318 11.195 19.6655 11.25 19.5 11.25ZM19.5 1.5C17.8455 1.5 16.5 2.84575 16.5 4.5C16.5 6.5105 18.5523 8.632 19.5 9.504C20.4477 8.632 22.5 6.5105 22.5 4.5C22.5 2.84575 21.1545 1.5 19.5 1.5ZM19.5 6C18.673 6 18 5.32725 18 4.5C18 3.67275 18.673 3 19.5 3C20.327 3 21 3.67275 21 4.5C21 5.32725 20.327 6 19.5 6Z" fill="#002A3A"/>
</svg>
