<svg width="29" height="29" viewBox="0 0 29 29" fill="none" xmlns="http://www.w3.org/2000/svg">
<path d="M18.9463 8.58936L14.4999 13.0357L10.0536 8.58936L8.58911 10.0539L13.0354 14.5002L8.58911 18.9465L10.0536 20.411L14.4999 15.9647L18.9463 20.411L20.4108 18.9465L15.9644 14.5002L20.4108 10.0539L18.9463 8.58936Z" fill="black"/>
<path d="M14.5 0C6.49289 0 0 6.49289 0 14.5C0 22.5071 6.49289 29 14.5 29C22.5071 29 29 22.5071 29 14.5C29 6.49289 22.5071 0 14.5 0ZM14.5 26.9286C7.64668 26.9286 2.07143 21.3533 2.07143 14.5C2.07143 7.64668 7.64668 2.07143 14.5 2.07143C21.3533 2.07143 26.9286 7.64668 26.9286 14.5C26.9286 21.3533 21.3533 26.9286 14.5 26.9286Z" fill="black"/>
</svg>
