<svg width="200" height="200" viewBox="0 0 200 200" fill="none" xmlns="http://www.w3.org/2000/svg">
<path fill-rule="evenodd" clip-rule="evenodd" d="M100 200C155.194 200 200 155.194 200 100C200 44.8096 155.194 0 100 0C44.8096 0 0 44.8096 0 100C0 155.194 44.8096 200 100 200ZM100 186.669C52.1696 186.669 13.3344 147.834 13.3344 100C13.3344 52.1696 52.1696 13.3344 100 13.3344C147.834 13.3344 186.669 52.1696 186.669 100C186.669 147.834 147.834 186.669 100 186.669ZM90.5728 100L61.9552 128.621C59.3504 131.222 59.3504 135.446 61.9552 138.048C64.5568 140.65 68.7808 140.65 71.3824 138.048L100 109.43L128.621 138.048C131.222 140.65 135.446 140.65 138.048 138.048C140.65 135.446 140.65 131.222 138.048 128.621L109.43 100L138.048 71.3824C140.65 68.7808 140.65 64.5568 138.048 61.9552C135.446 59.3504 131.222 59.3504 128.621 61.9552L100 90.5728L71.3824 61.9552C68.7808 59.3504 64.5568 59.3504 61.9552 61.9552C59.3504 64.5568 59.3504 68.7808 61.9552 71.3824L90.5728 100Z" fill="#F03535"/>
</svg>
