<svg width="24" height="24" viewBox="0 0 24 24" fill="none" xmlns="http://www.w3.org/2000/svg">
<g clip-path="url(#clip0_205_111)">
<path d="M21.625 6.5H2.375C1.61692 6.5 1 5.88308 1 5.125V2.375C1 1.61692 1.61692 1 2.375 1H21.625C22.3831 1 23 1.61692 23 2.375V5.125C23 5.88308 22.3831 6.5 21.625 6.5ZM2.375 1.91667C2.122 1.91667 1.91667 2.122 1.91667 2.375V5.125C1.91667 5.378 2.122 5.58333 2.375 5.58333H21.625C21.878 5.58333 22.0833 5.378 22.0833 5.125V2.375C22.0833 2.122 21.878 1.91667 21.625 1.91667H2.375Z" fill="black"/>
<path d="M9.70833 22.9997H2.375C1.61692 22.9997 1 22.3828 1 21.6247V9.70801C1 8.94992 1.61692 8.33301 2.375 8.33301H9.70833C10.4664 8.33301 11.0833 8.94992 11.0833 9.70801V21.6247C11.0833 22.3828 10.4664 22.9997 9.70833 22.9997ZM2.375 9.24967C2.122 9.24967 1.91667 9.45501 1.91667 9.70801V21.6247C1.91667 21.8777 2.122 22.083 2.375 22.083H9.70833C9.96133 22.083 10.1667 21.8777 10.1667 21.6247V9.70801C10.1667 9.45501 9.96133 9.24967 9.70833 9.24967H2.375Z" fill="black"/>
<path d="M21.625 14.7497H14.2917C13.5336 14.7497 12.9167 14.1328 12.9167 13.3747V9.70801C12.9167 8.94992 13.5336 8.33301 14.2917 8.33301H21.625C22.3831 8.33301 23 8.94992 23 9.70801V13.3747C23 14.1328 22.3831 14.7497 21.625 14.7497ZM14.2917 9.24967C14.0387 9.24967 13.8334 9.45501 13.8334 9.70801V13.3747C13.8334 13.6277 14.0387 13.833 14.2917 13.833H21.625C21.878 13.833 22.0834 13.6277 22.0834 13.3747V9.70801C22.0834 9.45501 21.878 9.24967 21.625 9.24967H14.2917Z" fill="black"/>
<path d="M21.625 22.9997H14.2917C13.5336 22.9997 12.9167 22.3828 12.9167 21.6247V17.958C12.9167 17.1999 13.5336 16.583 14.2917 16.583H21.625C22.3831 16.583 23 17.1999 23 17.958V21.6247C23 22.3828 22.3831 22.9997 21.625 22.9997ZM14.2917 17.4997C14.0387 17.4997 13.8334 17.705 13.8334 17.958V21.6247C13.8334 21.8777 14.0387 22.083 14.2917 22.083H21.625C21.878 22.083 22.0834 21.8777 22.0834 21.6247V17.958C22.0834 17.705 21.878 17.4997 21.625 17.4997H14.2917Z" fill="black"/>
</g>
<defs>
<clipPath id="clip0_205_111">
<rect width="22" height="22" fill="white" transform="translate(1 1)"/>
</clipPath>
</defs>
</svg>
