<svg width="164" height="200" viewBox="0 0 164 200" fill="none" xmlns="http://www.w3.org/2000/svg">
<path d="M145.447 54.5427C143.036 54.5427 140.724 55.5005 139.019 57.2053C137.315 58.91 136.357 61.2222 136.357 63.6332V165.364C136.096 169.961 134.029 174.269 130.607 177.349C127.185 180.429 122.684 182.032 118.085 181.809H45.5433C40.9444 182.032 36.4436 180.429 33.0212 177.349C29.5989 174.269 27.5322 169.961 27.2715 165.364V63.6332C27.2715 61.2222 26.3137 58.91 24.6089 57.2053C22.9041 55.5005 20.592 54.5427 18.181 54.5427C15.7701 54.5427 13.4579 55.5005 11.7531 57.2053C10.0483 58.91 9.09058 61.2222 9.09058 63.6332V165.364C9.35005 174.784 13.332 183.717 20.1644 190.207C26.9967 196.697 36.1226 200.215 45.5433 199.99H118.085C127.506 200.215 136.632 196.697 143.464 190.207C150.296 183.717 154.278 174.784 154.538 165.364V63.6332C154.538 61.2222 153.58 58.91 151.875 57.2053C150.17 55.5005 147.858 54.5427 145.447 54.5427Z" fill="#F03535"/>
<path d="M154.538 27.2713H118.176V9.09045C118.176 6.67951 117.218 4.36732 115.513 2.66253C113.808 0.957741 111.496 0 109.085 0H54.5427C52.1317 0 49.8196 0.957741 48.1148 2.66253C46.41 4.36732 45.4522 6.67951 45.4522 9.09045V27.2713H9.09045C6.67951 27.2713 4.36732 28.2291 2.66253 29.9339C0.95774 31.6387 0 33.9509 0 36.3618C0 38.7727 0.95774 41.0849 2.66253 42.7897C4.36732 44.4945 6.67951 45.4522 9.09045 45.4522H154.538C156.949 45.4522 159.261 44.4945 160.966 42.7897C162.67 41.0849 163.628 38.7727 163.628 36.3618C163.628 33.9509 162.67 31.6387 160.966 29.9339C159.261 28.2291 156.949 27.2713 154.538 27.2713ZM63.6331 27.2713V18.1809H99.9949V27.2713H63.6331Z" fill="#F03535"/>
<path d="M72.7236 145.447V81.814C72.7236 79.403 71.7659 77.0908 70.0611 75.386C68.3563 73.6813 66.0441 72.7235 63.6332 72.7235C61.2222 72.7235 58.91 73.6813 57.2053 75.386C55.5005 77.0908 54.5427 79.403 54.5427 81.814V145.447C54.5427 147.858 55.5005 150.17 57.2053 151.875C58.91 153.58 61.2222 154.538 63.6332 154.538C66.0441 154.538 68.3563 153.58 70.0611 151.875C71.7659 150.17 72.7236 147.858 72.7236 145.447Z" fill="#F03535"/>
<path d="M109.085 145.447V81.814C109.085 79.403 108.128 77.0908 106.423 75.386C104.718 73.6813 102.406 72.7235 99.995 72.7235C97.5841 72.7235 95.2719 73.6813 93.5671 75.386C91.8623 77.0908 90.9045 79.403 90.9045 81.814V145.447C90.9045 147.858 91.8623 150.17 93.5671 151.875C95.2719 153.58 97.5841 154.538 99.995 154.538C102.406 154.538 104.718 153.58 106.423 151.875C108.128 150.17 109.085 147.858 109.085 145.447Z" fill="#F03535"/>
</svg>
