<svg width="15" height="18" viewBox="0 0 15 18" fill="none" xmlns="http://www.w3.org/2000/svg">
<path d="M12.6109 4.72949C12.4018 4.72949 12.2014 4.81253 12.0535 4.96035C11.9057 5.10816 11.8227 5.30864 11.8227 5.51768V14.3383C11.8001 14.7368 11.6209 15.1103 11.3242 15.3774C11.0274 15.6445 10.6372 15.7835 10.2384 15.7641H3.94871C3.54997 15.7835 3.15972 15.6445 2.86299 15.3774C2.56626 15.1103 2.38707 14.7368 2.36446 14.3383V5.51768C2.36446 5.30864 2.28142 5.10816 2.1336 4.96035C1.98579 4.81253 1.78531 4.72949 1.57627 4.72949C1.36723 4.72949 1.16675 4.81253 1.01894 4.96035C0.871127 5.10816 0.788086 5.30864 0.788086 5.51768V14.3383C0.810584 15.155 1.15584 15.9295 1.74824 16.4923C2.34064 17.055 3.13189 17.36 3.94871 17.3405H10.2384C11.0553 17.36 11.8465 17.055 12.4389 16.4923C13.0313 15.9295 13.3766 15.155 13.3991 14.3383V5.51768C13.3991 5.30864 13.316 5.10816 13.1682 4.96035C13.0204 4.81253 12.8199 4.72949 12.6109 4.72949Z" fill="black" fill-opacity="0.4"/>
<path d="M13.3992 2.36456H10.2464V0.788186C10.2464 0.579146 10.1634 0.378668 10.0156 0.230854C9.86775 0.0830408 9.66727 0 9.45823 0H4.72912C4.52008 0 4.3196 0.0830408 4.17178 0.230854C4.02397 0.378668 3.94093 0.579146 3.94093 0.788186V2.36456H0.788186C0.579146 2.36456 0.378668 2.4476 0.230854 2.59541C0.0830408 2.74323 0 2.9437 0 3.15274C0 3.36178 0.0830408 3.56226 0.230854 3.71008C0.378668 3.85789 0.579146 3.94093 0.788186 3.94093H13.3992C13.6082 3.94093 13.8087 3.85789 13.9565 3.71008C14.1043 3.56226 14.1873 3.36178 14.1873 3.15274C14.1873 2.9437 14.1043 2.74323 13.9565 2.59541C13.8087 2.4476 13.6082 2.36456 13.3992 2.36456ZM5.5173 2.36456V1.57637H8.67005V2.36456H5.5173Z" fill="black" fill-opacity="0.4"/>
<path d="M6.30586 12.6112V7.09385C6.30586 6.88481 6.22282 6.68433 6.07501 6.53652C5.9272 6.38871 5.72672 6.30566 5.51768 6.30566C5.30864 6.30566 5.10816 6.38871 4.96035 6.53652C4.81253 6.68433 4.72949 6.88481 4.72949 7.09385V12.6112C4.72949 12.8202 4.81253 13.0207 4.96035 13.1685C5.10816 13.3163 5.30864 13.3993 5.51768 13.3993C5.72672 13.3993 5.9272 13.3163 6.07501 13.1685C6.22282 13.0207 6.30586 12.8202 6.30586 12.6112Z" fill="black" fill-opacity="0.4"/>
<path d="M9.45821 12.6112V7.09385C9.45821 6.88481 9.37517 6.68433 9.22735 6.53652C9.07954 6.38871 8.87906 6.30566 8.67002 6.30566C8.46098 6.30566 8.2605 6.38871 8.11269 6.53652C7.96488 6.68433 7.88184 6.88481 7.88184 7.09385V12.6112C7.88184 12.8202 7.96488 13.0207 8.11269 13.1685C8.2605 13.3163 8.46098 13.3993 8.67002 13.3993C8.87906 13.3993 9.07954 13.3163 9.22735 13.1685C9.37517 13.0207 9.45821 12.8202 9.45821 12.6112Z" fill="black" fill-opacity="0.4"/>
</svg>
