<svg width="14" height="14" viewBox="0 0 14 14" fill="none" xmlns="http://www.w3.org/2000/svg">
<path d="M8.64576 2.33789L0.942759 10.0414C0.904005 10.0803 0.876023 10.1294 0.862697 10.1821L0.00889326 13.6091C-0.0166465 13.7123 0.0136681 13.822 0.0889547 13.8973C0.145919 13.9542 0.223538 13.9858 0.302933 13.9858C0.327252 13.9858 0.352125 13.9828 0.376332 13.9767L3.80332 13.1228C3.85673 13.1094 3.90526 13.0816 3.94401 13.0428L11.6477 5.33981L8.64576 2.33789Z" fill="black" fill-opacity="0.4"/>
<path d="M13.5561 1.28708L12.6986 0.429609C12.1255 -0.14348 11.1267 -0.142925 10.5543 0.429609L9.50391 1.47996L12.5057 4.48176L13.5561 3.43142C13.8423 3.14526 14 2.76438 14 2.3593C14 1.95422 13.8423 1.57334 13.5561 1.28708Z" fill="black" fill-opacity="0.4"/>
</svg>
