<svg width="25" height="21" viewBox="0 0 25 21" fill="none" xmlns="http://www.w3.org/2000/svg">
<path d="M21.1779 10.8766H18.7491C18.4185 10.8766 18.0985 10.9218 17.7939 11.0049C17.193 9.82375 15.9664 9.01221 14.5529 9.01221H10.2596C8.84615 9.01221 7.61948 9.82375 7.01865 11.0049C6.71406 10.9218 6.39402 10.8766 6.06346 10.8766H3.63465C1.6305 10.8766 0 12.5071 0 14.5113V18.394C0 19.5964 0.978301 20.5747 2.18079 20.5747H22.6317C23.8342 20.5747 24.8125 19.5964 24.8125 18.394V14.5113C24.8125 12.5071 23.182 10.8766 21.1779 10.8766ZM6.62499 12.6469V19.1209H2.18079C1.77996 19.1209 1.45386 18.7948 1.45386 18.394V14.5113C1.45386 13.3088 2.43216 12.3305 3.63465 12.3305H6.06346C6.2608 12.3305 6.45188 12.3573 6.63381 12.4067C6.62858 12.4863 6.62499 12.5662 6.62499 12.6469ZM16.7337 19.1209H8.07885V12.6469C8.07885 11.4444 9.05715 10.4661 10.2596 10.4661H14.5529C15.7554 10.4661 16.7337 11.4444 16.7337 12.6469V19.1209ZM23.3587 18.394C23.3587 18.7948 23.0326 19.1209 22.6317 19.1209H18.1875V12.6469C18.1875 12.5661 18.1839 12.4862 18.1787 12.4067C18.3606 12.3573 18.5517 12.3305 18.7491 12.3305H21.1779C22.3804 12.3305 23.3587 13.3088 23.3587 14.5113V18.394Z" fill="#002A3A"/>
<path d="M4.85089 4.01074C3.06996 4.01074 1.62109 5.45961 1.62109 7.24054C1.62105 9.02146 3.06996 10.4703 4.85089 10.4703C6.63177 10.4703 8.08068 9.02146 8.08068 7.24054C8.08068 5.45961 6.63182 4.01074 4.85089 4.01074ZM4.85084 9.01647C3.87157 9.01647 3.0749 8.21981 3.0749 7.24054C3.0749 6.26127 3.87157 5.4646 4.85084 5.4646C5.83011 5.4646 6.62678 6.26127 6.62678 7.24054C6.62678 8.21981 5.83011 9.01647 4.85084 9.01647Z" fill="#002A3A"/>
<path d="M12.4107 0C10.0314 0 8.0957 1.93567 8.0957 4.31495C8.0957 6.69424 10.0314 8.62991 12.4107 8.62991C14.7899 8.62991 16.7256 6.69424 16.7256 4.31495C16.7256 1.93571 14.7899 0 12.4107 0ZM12.4107 7.17605C10.833 7.17605 9.54956 5.89258 9.54956 4.31495C9.54956 2.73737 10.833 1.45386 12.4107 1.45386C13.9883 1.45386 15.2718 2.73732 15.2718 4.31495C15.2718 5.89258 13.9883 7.17605 12.4107 7.17605Z" fill="#002A3A"/>
<path d="M19.9603 4.01123C18.1794 4.01123 16.7305 5.4601 16.7305 7.24102C16.7305 9.02195 18.1794 10.4708 19.9603 10.4708C21.7412 10.4708 23.1901 9.02195 23.1901 7.24102C23.1901 5.4601 21.7412 4.01123 19.9603 4.01123ZM19.9603 9.01696C18.981 9.01696 18.1843 8.2203 18.1843 7.24102C18.1844 6.26175 18.981 5.46509 19.9603 5.46509C20.9395 5.46509 21.7362 6.26175 21.7362 7.24102C21.7362 8.2203 20.9395 9.01696 19.9603 9.01696Z" fill="#002A3A"/>
</svg>
