<svg width="24" height="24" viewBox="0 0 24 24" fill="none" xmlns="http://www.w3.org/2000/svg">
<g clip-path="url(#clip0_205_23)">
<path d="M9.27699 17.5H2.99999C2.60216 17.5 2.22063 17.342 1.93933 17.0607C1.65802 16.7794 1.49999 16.3978 1.49999 16V9.723C1.47541 7.57948 2.29825 5.51297 3.78951 3.97302C5.28076 2.43307 7.31978 1.54428 9.46299 1.5H9.49999C10.5536 1.49999 11.5969 1.70812 12.5699 2.11244C13.5429 2.51675 14.4264 3.1093 15.1698 3.85604C15.9131 4.60278 16.5016 5.489 16.9015 6.46382C17.3014 7.43864 17.5048 8.48286 17.5 9.5365C17.4558 11.6798 16.5671 13.7189 15.0271 15.2103C13.4872 16.7017 11.4206 17.5246 9.27699 17.5ZM9.46799 2.5C7.58896 2.54241 5.80269 3.32508 4.49777 4.67775C3.19285 6.03043 2.47486 7.84366 2.49999 9.723V16C2.49999 16.1326 2.55266 16.2598 2.64643 16.3536C2.7402 16.4473 2.86738 16.5 2.99999 16.5H9.27699C11.1563 16.5251 12.9696 15.8071 14.3222 14.5022C15.6749 13.1973 16.4576 11.411 16.5 9.532C16.507 8.60694 16.3294 7.68978 15.9773 6.83429C15.6253 5.9788 15.1061 5.20219 14.45 4.55C13.7951 3.89752 13.018 3.3806 12.1631 3.02884C11.3083 2.67707 10.3924 2.49736 9.46799 2.5Z" fill="black"/>
<path d="M21 22.4995H15C13.3863 22.4929 11.8172 21.9689 10.5233 21.0046C9.22936 20.0403 8.27872 18.6865 7.81102 17.142C7.77797 17.0165 7.79507 16.8829 7.85871 16.7697C7.92234 16.6566 8.02752 16.5726 8.15198 16.5355C8.27645 16.4985 8.41044 16.5113 8.5256 16.5714C8.64076 16.6314 8.72806 16.7338 8.76902 16.857C9.17456 18.1955 9.99859 19.3687 11.1201 20.2043C12.2416 21.0399 13.6015 21.4938 15 21.4995H21C21.1326 21.4995 21.2598 21.4469 21.3536 21.3531C21.4473 21.2593 21.5 21.1321 21.5 20.9995V14.9995C21.4974 13.5843 21.0338 12.2084 20.1795 11.08C19.3252 9.95172 18.1265 9.13239 16.765 8.74603C16.6374 8.7102 16.5293 8.62518 16.4643 8.50965C16.3994 8.39412 16.383 8.25753 16.4187 8.1299C16.4544 8.00227 16.5393 7.89404 16.6548 7.829C16.7703 7.76396 16.9069 7.74743 17.0345 7.78303C18.606 8.22865 19.9894 9.17405 20.9756 10.4761C21.9618 11.7782 22.4969 13.3661 22.5 14.9995V20.9995C22.5 21.3974 22.342 21.7789 22.0607 22.0602C21.7794 22.3415 21.3979 22.4995 21 22.4995Z" fill="black"/>
<path d="M9 11.5005C8.86739 11.5005 8.74021 11.4478 8.64645 11.354C8.55268 11.2603 8.5 11.1331 8.5 11.0005V10.2905C8.49484 10.001 8.57596 9.71659 8.73304 9.47341C8.89011 9.23023 9.11603 9.03931 9.382 8.92498C9.59432 8.83708 9.76989 8.67872 9.87917 8.47656C9.98844 8.2744 10.0248 8.04077 9.982 7.81498C9.94349 7.61713 9.84677 7.43528 9.70424 7.29275C9.5617 7.15022 9.37986 7.0535 9.182 7.01498C9.03753 6.98824 8.88894 6.99367 8.7468 7.03087C8.60466 7.06807 8.47247 7.13613 8.35962 7.23022C8.24677 7.32431 8.15605 7.44211 8.09389 7.57524C8.03173 7.70837 7.99968 7.85356 8 8.00048C8 8.13309 7.94732 8.26027 7.85355 8.35404C7.75979 8.44781 7.63261 8.50048 7.5 8.50048C7.36739 8.50048 7.24021 8.44781 7.14645 8.35404C7.05268 8.26027 7 8.13309 7 8.00048C7.00027 7.63828 7.09889 7.28296 7.28533 6.97243C7.47178 6.6619 7.73905 6.40784 8.05862 6.23735C8.37819 6.06687 8.73806 5.98637 9.09981 6.00445C9.46156 6.02252 9.81161 6.13849 10.1126 6.33998C10.4136 6.54147 10.6542 6.82092 10.8088 7.14848C10.9633 7.47605 11.026 7.83944 10.9902 8.19986C10.9543 8.56028 10.8213 8.90421 10.6053 9.19492C10.3892 9.48563 10.0983 9.71221 9.7635 9.85048C9.6816 9.89032 9.61307 9.95314 9.56628 10.0313C9.51949 10.1094 9.49646 10.1995 9.5 10.2905V11.0005C9.5 11.1331 9.44732 11.2603 9.35355 11.354C9.25979 11.4478 9.13261 11.5005 9 11.5005Z" fill="black"/>
<path d="M9 13.5C9.41421 13.5 9.75 13.1642 9.75 12.75C9.75 12.3358 9.41421 12 9 12C8.58579 12 8.25 12.3358 8.25 12.75C8.25 13.1642 8.58579 13.5 9 13.5Z" fill="black"/>
</g>
<defs>
<clipPath id="clip0_205_23">
<rect width="24" height="24" fill="white"/>
</clipPath>
</defs>
</svg>
