<svg width="24" height="24" viewBox="0 0 24 24" fill="none" xmlns="http://www.w3.org/2000/svg">
<g clip-path="url(#clip0_205_41)">
<path d="M10.425 7.24199C10.425 8.48887 9.57654 9.00449 9.01404 9.34199C8.76091 9.49668 8.5031 9.65137 8.5031 9.76855V10.1014C8.5031 10.3076 8.33435 10.4764 8.1281 10.4764C7.92185 10.4764 7.7531 10.3076 7.7531 10.1014V9.76855C7.7531 9.2248 8.21716 8.94824 8.62966 8.6998C9.16873 8.37168 9.67966 8.06699 9.67966 7.24199C9.67966 6.38887 8.98591 5.69043 8.1281 5.69043C7.27498 5.69043 6.57654 6.38418 6.57654 7.24199C6.57654 7.44824 6.40779 7.61699 6.20154 7.61699C5.99529 7.61699 5.82654 7.44824 5.82654 7.24199C5.82654 5.97168 6.85779 4.94043 8.1281 4.94043C9.38904 4.94043 10.425 5.97168 10.425 7.24199Z" fill="black"/>
<path d="M8.52185 11.4141C8.52185 11.6344 8.34373 11.8125 8.12341 11.8125C7.9031 11.8125 7.72498 11.6344 7.72498 11.4141C7.72498 11.1938 7.9031 11.0156 8.12341 11.0156C8.34373 11.0156 8.52185 11.1984 8.52185 11.4141Z" fill="black"/>
<path d="M19.2188 18.4551C19.2188 18.6613 19.05 18.8301 18.8438 18.8301H12.0938C11.8875 18.8301 11.7188 18.6613 11.7188 18.4551C11.7188 18.2488 11.8875 18.0801 12.0938 18.0801H18.8438C19.05 18.0801 19.2188 18.2441 19.2188 18.4551Z" fill="black"/>
<path d="M19.2188 15.4688C19.2188 15.675 19.05 15.8438 18.8438 15.8438H12.0938C11.8875 15.8438 11.7188 15.675 11.7188 15.4688C11.7188 15.2625 11.8875 15.0938 12.0938 15.0938H18.8438C19.05 15.0938 19.2188 15.2625 19.2188 15.4688Z" fill="black"/>
<path d="M22.0922 18.7828C22.6031 17.7609 22.875 16.6172 22.875 15.4688C22.875 13.5094 22.1156 11.6578 20.7375 10.2656C19.4437 8.95781 17.7469 8.18906 15.9234 8.07656C15.6891 4.20469 12.4641 1.125 8.53125 1.125C4.44844 1.125 1.125 4.44844 1.125 8.53125C1.125 9.67969 1.39688 10.8234 1.90781 11.8453L1.13438 15.4875C1.10625 15.6141 1.14844 15.7406 1.2375 15.8297C1.30781 15.9 1.40625 15.9375 1.50469 15.9375C1.52812 15.9375 1.55625 15.9328 1.58437 15.9281L5.22656 15.1547C6.1125 15.6 7.09219 15.8578 8.08594 15.9234C8.19375 17.7469 8.96719 19.4437 10.275 20.7375C11.6719 22.1156 13.5188 22.875 15.4781 22.875C16.6266 22.875 17.7703 22.6031 18.7922 22.0922L22.4344 22.8656C22.4578 22.8703 22.4859 22.875 22.5141 22.875C22.6125 22.875 22.7062 22.8375 22.7812 22.7672C22.8703 22.6781 22.9078 22.5469 22.8844 22.425L22.0922 18.7828ZM5.44687 14.4281C5.39062 14.4 5.33437 14.3859 5.27344 14.3859C5.25 14.3859 5.22188 14.3906 5.19375 14.3953L1.9875 15.075L2.66719 11.8687C2.68594 11.7844 2.67188 11.6953 2.63438 11.6156C2.1375 10.6734 1.875 9.60469 1.875 8.53125C1.875 4.86094 4.86094 1.875 8.53125 1.875C12.2016 1.875 15.1875 4.86094 15.1875 8.53125C15.1875 12.2016 12.2016 15.1875 8.53125 15.1875C7.45781 15.1875 6.38906 14.925 5.44687 14.4281ZM18.8203 21.3328C18.7313 21.3094 18.6375 21.3234 18.5578 21.3656C17.6109 21.8625 16.5422 22.125 15.4688 22.125C11.9719 22.125 9.07031 19.3781 8.82656 15.9328C11.175 15.8391 13.2422 14.6484 14.5359 12.8625H18.8438C19.05 12.8625 19.2188 12.6937 19.2188 12.4875C19.2188 12.2812 19.05 12.1125 18.8438 12.1125H15.0141C15.5578 11.1328 15.8859 10.0172 15.9328 8.83125C19.3828 9.07031 22.125 11.9719 22.125 15.4688C22.125 16.5422 21.8625 17.6109 21.3656 18.5531C21.3234 18.6375 21.3141 18.7312 21.3328 18.8156L22.0125 22.0125L18.8203 21.3328Z" fill="black"/>
</g>
<defs>
<clipPath id="clip0_205_41">
<rect width="24" height="24" fill="white"/>
</clipPath>
</defs>
</svg>
