<svg width="13" height="12" viewBox="0 0 13 12" fill="none" xmlns="http://www.w3.org/2000/svg">
<path d="M0.0555086 0.332386C-0.0489798 0.565341 -0.00595474 0.764205 0.184583 0.928977L4.72984 5.13068V11.4545C4.72984 11.6932 4.84969 11.8608 5.0894 11.9574C5.16931 11.9858 5.24614 12 5.31989 12C5.48585 12 5.62414 11.946 5.73477 11.8381L8.09499 9.65625C8.21177 9.5483 8.27016 9.42045 8.27016 9.27273V5.13068L12.8154 0.928977C13.006 0.764205 13.049 0.565341 12.9445 0.332386C12.84 0.110795 12.6587 0 12.4005 0H0.599464C0.341316 0 0.159998 0.110795 0.0555086 0.332386Z" fill="#002A3A"/>
</svg>
