<svg width="16" height="15" viewBox="0 0 16 15" fill="none" xmlns="http://www.w3.org/2000/svg">
<path fill-rule="evenodd" clip-rule="evenodd" d="M8.93677 6.1362C9.82088 5.11963 10.8208 4.60403 12.0851 4.66626C14.142 4.76737 15.5897 6.1993 15.6937 8.43477C15.7851 10.4037 15.7203 12.3795 15.7343 14.3519C15.7378 14.8252 15.5161 15.0021 15.0619 14.9906C14.4534 14.9753 13.8428 14.9612 13.2358 14.9967C12.6336 15.0318 12.4046 14.7902 12.4149 14.192C12.4386 12.853 12.424 11.5129 12.4214 10.1733C12.4205 9.80828 12.4251 9.4415 12.3966 9.07817C12.3086 7.95361 11.6487 7.27491 10.6704 7.28254C9.66492 7.29028 8.85141 8.09838 8.8337 9.17349C8.80775 10.7562 8.82337 12.3396 8.82005 13.9227C8.81771 14.9826 8.81685 14.9826 7.77027 14.9895C5.50712 15.004 5.50798 15.004 5.50712 12.7404C5.50626 10.4267 5.52311 8.1124 5.48941 5.79919C5.47969 5.12935 5.70367 4.86109 6.37155 4.9237C6.75776 4.95998 7.15024 4.92776 7.54014 4.92936C8.70345 4.93452 8.70345 4.93514 8.93677 6.1362ZM0.236327 9.91738C0.236327 8.52973 0.261787 7.14146 0.225134 5.75491C0.208284 5.10647 0.455877 4.882 1.08095 4.9205C1.68732 4.95764 2.29813 4.94141 2.90623 4.92849C3.36304 4.91902 3.56955 5.105 3.56783 5.57669C3.557 8.49799 3.55553 11.4189 3.56118 14.3402C3.56205 14.8079 3.35984 15.0006 2.89995 14.9909C2.24302 14.9769 1.58487 14.9717 0.928432 14.9935C0.424513 15.0103 0.23522 14.795 0.240632 14.299C0.256622 12.8386 0.24629 11.3777 0.24629 9.91726C0.243215 9.91738 0.239771 9.91738 0.236327 9.91738ZM1.86739 3.48033C0.798793 3.47578 0.00730643 2.73988 4.9604e-05 1.7441C-0.00733022 0.765288 0.809617 0.000738384 1.86309 4.01178e-07C3.00942 -0.000614584 3.78578 0.705881 3.78123 1.74533C3.77631 2.80384 3.02479 3.48488 1.86739 3.48033Z" fill="white"/>
</svg>
