<svg width="336" height="83" viewBox="0 0 336 83" fill="none" xmlns="http://www.w3.org/2000/svg">
<path d="M68.79 16.4002C68.79 16.4002 68.7712 16.4002 68.7637 16.4002C68.7637 15.3667 68.7769 14.335 68.7506 13.3014C68.7469 13.1364 68.6044 12.8869 68.462 12.8269C67.6503 12.4836 66.8199 12.1797 65.9914 11.8721C63.7589 11.0393 61.5188 10.2214 59.2901 9.37919C56.9751 8.5032 54.6694 7.60283 52.3582 6.71747C50.6074 6.04782 48.8529 5.38567 47.1002 4.72164C45.4732 4.10451 43.8442 3.48926 42.2172 2.87401C39.7841 1.953 37.3472 1.047 34.9273 0.0922326C34.5636 -0.0503262 34.3049 -0.0146868 33.975 0.11099C31.9037 0.908194 29.823 1.67914 27.748 2.46884C26.0103 3.13099 24.2802 3.81564 22.5406 4.47592C20.4206 5.27875 18.2893 6.05907 16.1692 6.86378C14.4709 7.50904 12.7858 8.18432 11.0875 8.82959C9.37794 9.47861 7.65715 10.1014 5.94574 10.7466C4.1481 11.4238 2.35984 12.1216 0.558448 12.7837C0.322261 12.87 0.256654 12.9657 0.25103 13.1945C0.21729 14.5432 0.153557 15.8919 0.131063 17.2406C0.0729537 20.7614 -0.013273 24.2841 0.00172291 27.8049C0.0129699 30.4573 0.153557 33.1096 0.260403 35.762C0.307265 36.9568 0.38412 38.1517 0.496589 39.3409C0.60531 40.4945 0.766516 41.6425 0.925848 42.7905C1.1058 44.0998 1.26326 45.4166 1.51631 46.7127C1.77124 48.0201 2.07491 49.3257 2.45169 50.6012C3.02341 52.5389 3.61949 54.4728 4.31493 56.3692C5.11347 58.547 6.16318 60.6141 7.35911 62.608C8.82684 65.0578 10.4764 67.3706 12.469 69.4171C13.7549 70.7376 15.0633 72.0488 16.4654 73.2418C17.7494 74.3354 19.159 75.2883 20.5405 76.2618C22.5406 77.6705 24.6626 78.8897 26.8876 79.8933C29.2401 80.955 31.6638 81.8572 34.0294 82.8927C34.423 83.0652 34.6555 83.009 34.9929 82.8701C35.9639 82.4725 36.9761 82.1686 37.9302 81.7353C40.1777 80.7168 42.4309 79.7057 44.624 78.5765C46.7403 77.4848 48.7554 76.2036 50.6168 74.7049C51.9121 73.662 53.2148 72.6265 54.4407 71.5086C55.423 70.612 56.3077 69.6047 57.215 68.6274C58.7633 66.9598 60.068 65.1084 61.2658 63.1801C62.651 60.948 63.8451 58.6126 64.7392 56.1422C65.4609 54.1445 66.1338 52.1243 66.6981 50.0779C67.1667 48.3747 67.4816 46.6264 67.7965 44.8876C68.0402 43.5408 68.2126 42.179 68.3551 40.819C68.5276 39.1646 68.6794 37.5064 68.7562 35.8445C68.8687 33.4191 68.9699 30.99 68.9643 28.5627C68.9549 24.5092 68.8575 20.4556 68.7975 16.404L68.79 16.4002ZM63.7926 35.4918C63.7514 36.7711 63.5527 38.0448 63.4289 39.3222C63.369 39.9412 63.339 40.5639 63.2602 41.1792C63.1571 41.9801 63.0184 42.7773 62.8928 43.5764C62.7916 44.2161 62.7073 44.8595 62.5798 45.4953C62.3586 46.5964 62.1599 47.7069 61.8656 48.7892C61.4682 50.2486 61.0071 51.691 60.5422 53.1297C59.9255 55.0393 59.1045 56.8682 58.126 58.6145C57.3218 60.0476 56.4615 61.4563 55.5186 62.8012C54.0977 64.8271 52.4257 66.6484 50.6018 68.3235C48.9279 69.8598 47.1433 71.2704 45.2164 72.4633C43.4 73.5869 41.5124 74.6017 39.6023 75.5603C38.1045 76.3124 36.5206 76.8958 34.9835 77.573C34.6274 77.7286 34.3031 77.723 33.96 77.573C32.3742 76.8827 30.764 76.243 29.2063 75.4909C27.6917 74.7593 26.1846 73.9902 24.7582 73.1011C23.2248 72.1445 21.7421 71.0884 20.325 69.9667C19.0353 68.9463 17.8019 67.8358 16.6528 66.6578C15.5881 65.5661 14.634 64.36 13.6949 63.1539C12.0378 61.0249 10.707 58.6858 9.62724 56.2229C8.87557 54.5084 8.27948 52.7227 7.68152 50.9445C7.31412 49.8528 7.03482 48.7273 6.79301 47.6018C6.48934 46.1913 6.24566 44.7657 6.0151 43.342C5.82202 42.1546 5.67019 40.9597 5.53523 39.7649C5.43775 38.9076 5.43775 38.0391 5.32716 37.1857C5.00662 34.6965 5.05161 32.1924 5.03661 29.6938C5.01599 25.9873 5.05348 22.2808 5.07785 18.5761C5.0816 17.9421 5.15658 17.3081 5.17907 16.6741C5.18844 16.4246 5.27655 16.3289 5.5221 16.237C8.27761 15.2035 11.0219 14.1418 13.7736 13.0989C16.4148 12.0972 19.0616 11.1143 21.7027 10.1145C23.7384 9.34355 25.7666 8.55573 27.7986 7.78103C29.9018 6.98007 31.9993 6.16224 34.1175 5.40818C34.438 5.29375 34.8879 5.41943 35.2384 5.54323C36.6668 6.05157 38.0802 6.60117 39.4954 7.14139C40.6876 7.59721 41.8741 8.07178 43.0682 8.52571C45.9605 9.62492 48.8566 10.7147 51.7509 11.8121C54.1633 12.7256 56.5739 13.6428 58.9864 14.5563C60.5029 15.1303 62.0231 15.6912 63.5302 16.2877C63.6651 16.3402 63.7907 16.6047 63.7945 16.7735C63.847 19.3546 63.8788 21.9375 63.9144 24.5186C63.9219 25.0644 63.9144 25.6121 63.9144 26.158C63.9351 26.158 63.9576 26.158 63.9782 26.158C63.9182 29.2699 63.8882 32.3837 63.7851 35.4956L63.7926 35.4918Z" fill="#40355D"/>
<path d="M27.7046 53.417C27.6015 53.4695 27.4984 53.522 27.3935 53.5707C27.3129 53.6101 27.221 53.6438 27.1292 53.6682C27.3316 53.5801 27.5228 53.4957 27.7046 53.417Z" fill="black"/>
<path d="M53.8795 61.3247H53.8438C53.8545 61.3104 53.8652 61.2944 53.8759 61.2783C53.8759 61.2944 53.8777 61.3086 53.8795 61.3247Z" fill="black"/>
<path d="M56.6961 56.4593L56.0569 57.6983C56.0456 57.6983 56.0362 57.6983 56.025 57.6983C55.5826 57.6983 55.2227 57.3384 55.2227 56.896C55.2227 56.4537 55.5826 56.0938 56.025 56.0938C56.3062 56.0938 56.5536 56.2381 56.6961 56.4574V56.4593Z" fill="#A93F97"/>
<path d="M55.7577 58.2751L56.0557 57.6996L56.6949 56.4587L56.9499 55.9639" fill="black"/>
<path d="M45.7794 53.9151C45.4364 54.0463 45.099 54.1737 44.7278 54.3162C44.276 54.1231 43.8355 53.9338 43.4232 53.7557C43.5431 53.7295 43.6593 53.692 43.7737 53.6489C44.3192 53.4483 44.8459 53.1971 45.3726 52.9535C45.6407 52.8297 45.7794 52.8747 45.7794 53.1878C45.7794 53.4277 45.7794 53.6695 45.7794 53.9151Z" fill="#A93F97"/>
<path d="M48.6677 55.9496C48.6677 55.9496 48.6639 55.9477 48.662 55.9477C47.7435 55.586 46.6863 55.1473 45.6497 54.7068C45.6722 54.7012 45.6947 54.6956 45.7191 54.6881C46.7051 54.3863 47.9104 54.9468 48.6695 55.9496H48.6677Z" fill="#A93F97"/>
<path d="M55.8785 52.8089L55.8635 55.3689C55.8466 55.4345 55.8166 55.4927 55.7641 55.5452C55.1268 55.6652 54.6451 56.226 54.6451 56.8992C54.6451 57.5725 55.08 58.077 55.6704 58.2327C55.7285 58.3415 55.6704 58.4803 55.5973 58.6003C55.0406 59.4799 54.5026 60.3726 53.9103 61.2278C53.899 61.2447 53.8859 61.2616 53.8747 61.2784C53.7135 59.0992 52.3694 57.867 52.3694 57.867C52.3694 57.867 51.8933 57.2987 49.404 56.2522C49.091 55.1438 48.0431 54.2792 46.446 53.9417C46.446 53.5047 46.4067 53.0527 46.4573 52.6101C46.506 52.1825 47.3664 51.9293 47.7038 52.2012C48.7592 53.0471 49.9176 53.6978 51.3085 53.6791C52.4969 53.6641 53.5391 53.1765 54.4483 52.4225C55.0218 51.9462 55.0762 51.9124 55.6461 52.3344C55.7679 52.4244 55.8729 52.6232 55.8785 52.7751C55.8785 52.7864 55.8785 52.7976 55.8785 52.8089Z" fill="#A93F97"/>
<path d="M58.0559 41.254C58.0259 42.7509 57.3286 44.0414 56.9518 45.4295C56.7962 45.9997 56.62 46.5643 56.3557 47.1158C56.3557 45.981 56.457 44.8349 56.3276 43.715C56.1964 42.5764 55.8384 41.4641 55.5628 40.2673C54.5862 40.7663 53.6621 41.2315 52.7473 41.7117C51.8307 42.1919 50.8822 42.5652 49.87 42.7359C49.8531 42.689 49.8344 42.644 49.8175 42.5971C50.6685 42.0737 51.5214 41.5504 52.3724 41.027C52.3443 40.9689 52.3162 40.9107 52.29 40.8526C50.8672 41.5579 49.5213 42.4676 47.9036 42.6496C47.8793 42.6139 47.8549 42.5802 47.8287 42.5445C48.2392 42.2088 48.6516 41.8749 49.0621 41.5391C49.0508 41.5072 49.0396 41.4735 49.0302 41.4416C48.9084 41.4416 48.7734 41.4078 48.6628 41.4472C47.4969 41.8524 46.5709 43.141 46.4734 44.3809C46.4134 45.1575 46.2635 45.9266 46.136 46.8344C46.031 46.615 45.9467 46.5005 45.9204 46.3767C45.6655 45.2006 45.3768 44.0283 45.1838 42.8409C45.0188 41.828 44.9907 40.8094 45.2756 39.7909C45.7161 38.2115 46.749 37.1142 48.0911 36.3057C48.6478 35.9699 49.3301 35.8218 49.9731 35.6623C50.5542 35.5179 51.1634 35.3828 51.7539 35.4035C52.9198 35.4447 54.0632 35.6098 55.1486 36.1425C56.1814 36.649 56.9799 37.3655 57.4954 38.3616C57.9584 39.2582 58.0784 40.2336 58.0578 41.2578L58.0559 41.254Z" fill="#A93F97"/>
<path d="M55.393 43.8591C54.452 43.8591 53.511 43.8704 52.57 43.8554C52.1801 43.8498 51.8427 43.8554 51.8989 44.3578C51.5353 44.4646 51.3141 44.4121 51.166 44.0728C51.1172 43.9604 50.8792 43.8741 50.7274 43.8704C49.7114 43.8516 48.6935 43.8573 47.6776 43.8573C47.2614 43.8573 47.1021 44.0316 47.1471 44.4496C47.1808 44.7645 47.2127 45.0832 47.2933 45.3868C47.4526 45.9886 47.6363 46.6278 48.3542 46.7608C48.8622 46.8546 49.4115 46.8958 49.9157 46.8077C50.4331 46.7159 50.8736 46.3991 50.9804 45.7917C51.0216 45.5574 51.1191 45.3344 51.1997 45.0776C52.0114 45.0813 51.987 45.0888 52.2045 45.8199C52.2851 46.0935 52.4463 46.4159 52.6712 46.5603C53.346 46.9952 54.1014 46.9708 54.8587 46.7608C55.2374 46.6559 55.5129 46.4309 55.6179 46.0598C55.7622 45.5556 55.8841 45.0401 55.9703 44.5227C56.0528 44.0222 55.8878 43.8554 55.393 43.8554V43.8591ZM49.2765 46.1554C48.373 46.1891 47.9044 45.6905 47.8856 44.6427H50.5137C50.5643 45.5556 50.0882 46.1254 49.2765 46.1554ZM54.87 45.9398C54.3751 46.2941 53.6759 46.2697 53.1098 45.9886C52.5962 45.7336 52.7855 45.1488 52.6168 44.652H55.1605C55.3217 45.1188 55.2093 45.698 54.87 45.9398Z" fill="#A93F97"/>
<path d="M57.9715 53.5857C57.6566 54.358 57.321 55.1209 56.9817 55.9063C56.8786 55.8051 56.7587 55.7208 56.6275 55.657C56.5694 55.5783 56.5412 55.4902 56.5319 55.389V55.1697C56.5319 55.1697 56.5356 55.1584 56.5356 55.1528C56.5787 54.6917 56.5637 54.2268 56.5525 53.76L56.5637 52.8303C56.5656 52.8022 56.5675 52.7741 56.5694 52.7422C57.038 52.9521 57.4335 53.1171 57.8159 53.3083C57.8984 53.3495 57.9977 53.5201 57.9715 53.5838V53.5857Z" fill="#A93F97"/>
<path d="M53.8778 61.2778C53.8665 61.2947 53.8553 61.3115 53.844 61.3265C52.142 63.765 50.1307 65.9316 47.8269 67.8055C46.5316 68.8597 45.1614 69.8332 43.7518 70.7298C42.3534 71.617 40.8932 72.4217 39.4048 73.1514C37.894 73.8924 36.3269 74.5282 34.7598 75.1416C34.4636 75.256 34.0156 75.1229 33.6876 74.9841C32.2311 74.3688 30.7821 73.7329 29.35 73.0633C26.9094 71.9209 24.6151 70.5197 22.4669 68.8972C20.1688 67.1621 18.0768 65.1963 16.2979 62.9153C16.058 62.6077 15.8143 62.3001 15.5594 61.9831C15.7093 59.659 17.1583 58.2953 17.1583 58.2953C17.1583 58.2953 17.7469 57.5825 21.0067 56.2788C22.9074 55.5173 25.3817 54.4368 27.1306 53.6715C27.2225 53.649 27.3143 53.6134 27.3949 53.574C27.4999 53.5233 27.603 53.4727 27.7061 53.4202C28.1522 53.1932 28.5909 52.9493 29.0482 52.743C29.1757 52.6848 29.4288 52.7355 29.5375 52.833C30.3885 53.5927 31.3183 54.2267 32.3811 54.6488C33.5358 55.1065 34.7186 55.3016 35.9689 55.1065C37.6897 54.8382 39.1068 54.0035 40.3664 52.8593C40.4639 52.7711 40.5445 52.7167 40.6251 52.6924L40.6813 52.5948C40.7188 52.5873 41.881 53.0938 43.4256 53.7597C43.838 53.9379 44.2766 54.1254 44.7302 54.3205C45.032 54.45 45.3413 54.5813 45.6506 54.7126C46.6891 55.1515 47.7463 55.5904 48.6629 55.9543C48.6648 55.9543 48.6667 55.9543 48.6686 55.9562C48.931 56.0594 49.1765 56.1607 49.4052 56.2563C51.8946 57.303 52.3707 57.8714 52.3707 57.8714C52.3707 57.8714 53.7147 59.1037 53.8759 61.2834L53.8778 61.2778Z" fill="#814B99"/>
<path d="M44.5049 40.399C44.2518 41.3988 43.8882 42.3705 43.5751 43.3571C43.5489 43.4415 43.5489 43.5334 43.532 43.6216C43.5002 43.7998 43.5245 44.0268 43.4233 44.1487C42.7616 44.9496 42.6623 45.9945 42.2124 46.8873C41.367 48.5661 40.3604 50.1155 38.917 51.3404C37.6836 52.3871 36.3415 53.2106 34.6301 53.053C33.5878 52.9573 32.645 52.5447 31.8052 51.935C29.4583 50.23 27.9606 47.919 27.0421 45.1954C26.9184 44.8277 26.6147 44.5201 26.4929 44.1506C26.1105 42.9988 25.7675 41.8359 25.4319 40.671C25.3719 40.459 25.3869 40.2152 25.415 39.992C25.4882 39.4386 25.8162 39.1891 26.4254 39.2323C26.0374 38.482 26.5023 38.1443 27.0365 37.7504C28.2718 36.8388 29.642 36.2817 31.1173 35.9103C32.6375 35.5276 34.1802 35.3176 35.7379 35.4057C37.0875 35.4826 38.4259 35.6664 39.7231 36.1335C40.9246 36.5668 42.0493 37.1183 43.0784 37.8667C43.4514 38.1387 43.8919 38.3882 43.7082 38.9734C44.3568 39.1479 44.7373 39.4818 44.5049 40.4028V40.399Z" fill="#814B99"/>
<path d="M43.8333 28.5002C43.837 28.0388 43.6721 27.7706 43.3159 27.5361C41.2127 26.1518 38.9727 25.1145 36.4459 24.805C34.4402 24.5592 32.4626 24.6661 30.5412 25.3452C29.0941 25.8573 27.8007 26.6601 26.5598 27.5473C26.2618 27.7612 26.0874 28.0425 26.0893 28.4683C26.1081 31.0944 26.0931 33.7205 26.0893 36.3466C26.0893 36.5679 26.0893 36.7912 26.0893 37.1888C28.8186 35.1855 31.8009 34.4877 34.9782 34.4521C38.1704 34.4145 41.1265 35.1817 43.8276 37.1663C43.8276 36.8118 43.8276 36.6167 43.8276 36.4235C43.8258 33.7824 43.8089 31.1413 43.8333 28.5002ZM37.4019 30.4642C37.0045 30.4642 36.6165 30.4642 36.2284 30.4642C35.8148 30.4642 35.608 30.6768 35.608 31.1019C35.608 31.4208 35.6099 31.7397 35.6174 32.0586C35.623 32.3024 35.5311 32.4187 35.2687 32.4056C34.0578 32.3399 34.2377 32.6232 34.2209 31.3795C34.2059 30.3047 34.3465 30.4886 33.3473 30.4754C32.4382 30.4642 32.3145 30.3422 32.472 29.4362C32.4926 29.3218 32.6669 29.1624 32.7831 29.1492C33.128 29.108 33.4842 29.0967 33.8272 29.1399C34.1534 29.1793 34.2321 29.0536 34.2265 28.7685C34.2171 28.2714 34.2246 27.7724 34.2246 27.2191C34.6126 27.2191 34.9632 27.1834 35.2987 27.2378C35.4224 27.2585 35.5836 27.4854 35.6024 27.6317C35.6436 27.99 35.6342 28.3614 35.6024 28.7216C35.5761 29.0236 35.6698 29.1342 35.9735 29.123C36.4403 29.1061 36.907 29.1192 37.4075 29.1192V30.4642H37.4019Z" fill="#814B99"/>
<path d="M26.8364 53.6944C25.6836 53.5763 24.9188 52.8935 24.5008 51.8693C24.2777 51.3253 24.2084 50.7063 24.1465 50.1117C24.0472 49.1626 23.9291 48.2022 23.9665 47.253C24.0472 45.1615 24.0903 43.0869 23.6723 41.0161C23.4361 39.8512 23.0256 38.7689 22.3207 37.8441C20.5475 35.5107 18.1725 35.0699 15.5576 35.7545C13.9399 36.1784 12.8002 37.272 11.9998 38.722C11.3793 39.8475 11.2013 41.0836 11.1938 42.3441C11.19 43.0982 11.2631 43.8541 11.3062 44.6101C11.3681 45.6999 11.4749 46.7897 11.4843 47.8795C11.4918 48.9056 11.3887 49.9335 11.3475 50.9595C11.3231 51.556 11.0794 52.0606 10.7645 52.5483C10.7064 52.6365 10.7026 52.8034 10.7439 52.9066C11.1038 53.8145 11.4693 54.7223 11.863 55.6171C11.9192 55.7446 12.1835 55.9697 12.2866 55.936C12.4178 55.8947 12.5546 55.6058 12.564 55.4558C12.5978 54.8649 12.5884 54.2722 12.5734 53.6794C12.5659 53.4018 12.6521 53.2499 12.997 53.2367C12.997 53.9364 13.0195 54.6304 12.9876 55.3207C12.9708 55.679 13.1376 55.8309 13.4338 55.8853C14.8546 56.1404 15.5257 57.3747 15.5576 58.6502C15.5726 59.243 15.5388 59.8357 15.5669 60.4266C15.5857 60.8261 15.4788 61.1075 14.9784 61.2557C15.1789 61.507 15.3701 61.7471 15.5557 61.9797C15.7057 59.6556 17.1546 58.292 17.1546 58.292C17.1546 58.292 17.7432 57.5792 21.003 56.2755C21.4604 56.0917 21.9496 55.891 22.4557 55.679V53.081L22.8943 53.2555L22.9318 55.4802C24.3921 54.863 25.931 54.1915 27.1288 53.6682C27.0295 53.6925 26.9301 53.7057 26.8364 53.6963V53.6944ZM14.013 42.2597C14.0674 42.1659 14.2698 42.119 14.4066 42.1153C15.059 42.1003 15.7132 42.074 16.3617 42.1153C18.0938 42.2259 19.6327 41.7382 21.0105 40.7009C21.0573 40.6653 21.1079 40.6315 21.2598 40.5246C21.7153 41.4381 22.1577 42.3254 22.6207 43.2557C21.7322 43.2201 20.9861 43.1845 20.2382 43.1638C19.5671 43.1451 18.9242 43.2389 18.3131 43.5634C18.1219 43.6647 17.7938 43.6778 17.6064 43.5802C16.9128 43.2163 16.1687 43.2295 15.4339 43.2239C14.8209 43.2201 14.2079 43.3289 13.4656 43.4021C13.6531 42.9969 13.8087 42.6123 14.0111 42.2559L14.013 42.2597ZM21.5822 45.1784C21.4041 45.7186 20.8305 45.6755 20.435 45.7336C19.7171 45.8387 18.8117 45.4054 18.7217 44.3943C18.688 44.006 18.8454 43.8279 19.181 43.7603C19.5896 43.6797 20.0132 43.6722 20.4238 43.6046C20.4987 43.6046 20.5756 43.6121 20.6506 43.6046C21.7865 43.4752 21.9065 44.1917 21.5822 45.1803V45.1784ZM17.1303 44.7976C16.8097 45.4879 16.3186 45.8631 15.5932 45.7693C14.4779 45.8649 14.103 45.1203 14.2379 44.2818C14.2679 44.0942 14.4797 43.7997 14.6203 43.7922C15.3233 43.7547 16.0374 43.7397 16.7329 43.826C17.2128 43.8841 17.3402 44.3474 17.1303 44.7976ZM20.6787 49.8435C20.2794 50.2486 20.2551 50.6294 20.4125 51.1059C20.54 51.4904 20.6637 51.8768 20.7593 52.2707C20.7912 52.3983 20.7668 52.5652 20.7087 52.6853C20.0507 54.0396 18.3356 54.5404 17.089 54.289C16.0656 54.0827 15.267 53.5931 14.6991 52.7284C14.6241 52.614 14.6035 52.4208 14.6391 52.2838C14.789 51.7192 14.9934 51.1696 15.1246 50.6013C15.1639 50.4306 15.0833 50.1717 14.9652 50.0329C14.1273 49.0425 13.6062 47.8908 13.3138 46.6509C13.1357 45.895 13.0514 45.0959 13.3419 44.2462C13.4563 44.3418 13.5837 44.3981 13.6268 44.4919C13.7018 44.6532 13.7374 44.8351 13.7674 45.0133C13.8612 45.5817 14.1348 46.0206 14.7234 46.1369C15.5669 46.3039 16.4348 46.3845 17.104 45.6942C17.3533 45.4373 17.4546 45.0433 17.6439 44.7226C17.732 44.5725 17.8651 44.4487 17.9794 44.3137C18.0825 44.4281 18.2456 44.5256 18.2793 44.6569C18.6242 45.9719 19.3291 46.1594 20.6637 46.1276C20.9018 46.1219 21.1511 46.0807 21.3723 45.9962C21.8671 45.8087 22.1277 45.4466 22.1558 44.8952C22.1708 44.5838 22.182 44.2218 22.6525 44.0548C22.6994 44.293 22.7762 44.5031 22.7781 44.7151C22.8025 46.7203 22.0658 48.4291 20.6749 49.8435H20.6787Z" fill="#33346A"/>
<path d="M15.048 58.5673C15.0143 59.1712 15.048 59.7788 15.0368 60.3846C15.0349 60.4877 14.9599 60.6715 14.913 60.6734C14.7987 60.679 14.6244 60.6303 14.5738 60.5459C13.8146 59.2631 13.0685 57.9746 12.33 56.6806C12.2775 56.5887 12.1969 56.4443 12.1838 56.3355C13.7996 55.9285 15.1267 57.2095 15.0499 58.5654L15.048 58.5673Z" fill="#33346A"/>
<path d="M94.7692 45.4322H89.239V15.2256H108.459V19.853H94.7692V27.6668H106.479V32.2942H94.7692V45.4322Z" fill="black"/>
<path d="M136.568 24.3045C136.568 26.4085 135.987 28.2012 134.817 29.6693C133.654 31.1373 131.849 32.2265 129.416 32.9301V33.0181L138.394 45.4322H131.761L123.547 33.742H119.755V45.4322H114.224V15.2256H123.405C124.926 15.2256 126.339 15.3135 127.644 15.4827C128.956 15.6586 130.071 15.9156 131.004 16.2606C132.776 16.9372 134.148 17.9452 135.108 19.2712C136.068 20.6039 136.555 22.2749 136.555 24.2909L136.568 24.3045ZM122.493 29.1145C123.757 29.1145 124.825 29.0604 125.711 28.9454C126.59 28.8304 127.333 28.6613 127.935 28.438C129.05 28.0186 129.821 27.4435 130.247 26.7129C130.673 25.9823 130.889 25.1434 130.889 24.1963C130.889 23.3844 130.72 22.6673 130.382 22.0382C130.044 21.4158 129.47 20.9219 128.658 20.5566C128.131 20.313 127.468 20.1371 126.671 20.0289C125.873 19.9139 124.886 19.8597 123.716 19.8597H119.768V29.1145H122.499H122.493Z" fill="black"/>
<path d="M172.232 30.3324C172.232 32.6325 171.907 34.7433 171.251 36.6646C170.596 38.5859 169.642 40.2366 168.385 41.6167C167.128 43.0036 165.586 44.0792 163.761 44.8437C161.935 45.6082 159.853 45.9938 157.521 45.9938C155.188 45.9938 153.113 45.6082 151.281 44.8437C149.449 44.0792 147.914 43.0036 146.656 41.6167C145.399 40.2299 144.446 38.5792 143.79 36.6646C143.134 34.7433 142.81 32.6325 142.81 30.3324C142.81 28.0322 143.134 25.9214 143.79 24.0001C144.446 22.0788 145.399 20.4281 146.656 19.048C147.914 17.6611 149.455 16.5855 151.281 15.821C153.106 15.0565 155.188 14.6709 157.521 14.6709C159.853 14.6709 161.929 15.0565 163.761 15.821C165.593 16.5855 167.128 17.6679 168.385 19.048C169.642 20.4348 170.596 22.0856 171.251 24.0001C171.907 25.9214 172.232 28.0322 172.232 30.3324ZM166.526 30.3324C166.526 28.499 166.303 26.8888 165.85 25.5155C165.397 24.1422 164.775 22.9921 163.977 22.072C163.179 21.152 162.233 20.4687 161.138 20.0154C160.042 19.5622 158.839 19.3389 157.527 19.3389C156.216 19.3389 155.013 19.5622 153.917 20.0154C152.822 20.4687 151.869 21.152 151.078 22.072C150.28 22.9921 149.658 24.1354 149.205 25.5155C148.752 26.8956 148.529 28.499 148.529 30.3324C148.529 32.1657 148.752 33.7759 149.205 35.1492C149.658 36.5225 150.28 37.6726 151.078 38.5792C151.876 39.4925 152.822 40.1757 153.917 40.6358C155.013 41.0958 156.216 41.3258 157.527 41.3258C158.839 41.3258 160.036 41.0958 161.138 40.6358C162.233 40.1757 163.186 39.4925 163.977 38.5792C164.775 37.6659 165.397 36.5225 165.85 35.1492C166.303 33.7759 166.526 32.1657 166.526 30.3324Z" fill="black"/>
<path d="M194.743 29.2702C196.907 32.3551 198.671 35.095 200.023 37.4899H200.159C199.976 33.5593 199.888 30.7044 199.888 28.9116V15.2324H205.418V45.439H199.618L189.781 31.5297C188.05 29.1213 186.259 26.3273 184.413 23.1544H184.278C184.461 26.855 184.548 29.7234 184.548 31.753V45.4322H179.018V15.2256H184.819L194.743 29.2702Z" fill="black"/>
<path d="M225.902 45.4322H220.372V19.853H210.623V15.2256H235.617V19.853H225.895V45.4322H225.902Z" fill="black"/>
<path d="M246.361 15.2256V40.8048H260.484V45.4322H240.838V15.2256H246.368H246.361Z" fill="black"/>
<path d="M266.595 45.4322V15.2256H272.126V45.4322H266.595Z" fill="black"/>
<path d="M295.993 29.2702C298.156 32.3551 299.92 35.095 301.273 37.4899H301.408C301.225 33.5593 301.137 30.7044 301.137 28.9116V15.2324H306.668V45.439H300.867L291.03 31.5297C289.3 29.1213 287.508 26.3273 285.662 23.1544H285.527C285.71 26.855 285.798 29.7234 285.798 31.753V45.4322H280.267V15.2256H286.068L295.993 29.2702Z" fill="black"/>
<path d="M320.329 40.8048H335.175V45.4322H314.805V15.2256H334.364V19.853H320.329V27.6668H332.376V32.2942H320.329V40.8048Z" fill="black"/>
<path d="M89.239 58.5908H90.1923V65.1801H98.5957V58.5908H99.5489V73.0752H98.5957V66.0461H90.1923V73.0752H89.239V58.5908Z" fill="black"/>
<path d="M103.855 58.5908H112.103V59.4568H104.808V65.2207H111.487V66.0867H104.808V72.2092H112.529V73.0752H103.855V58.5908Z" fill="black"/>
<path d="M114.686 73.0752L120.608 58.5908H121.541L127.484 73.0752H126.436L124.36 67.9268H117.803L115.734 73.0752H114.693H114.686ZM123.995 67.0609L123.441 65.6605C122.238 62.6635 121.46 60.6813 121.115 59.7139H121.075C120.777 60.5392 120.291 61.7637 119.614 63.3874C119.405 63.888 118.905 65.1125 118.12 67.0609H124.002H123.995Z" fill="black"/>
<path d="M130.276 58.5908H131.229V72.2092H138.571V73.0752H130.276V58.5908Z" fill="black"/>
<path d="M142.803 59.4771H137.814V58.5908H148.773V59.4771H143.763V73.0752H142.81V59.4771H142.803Z" fill="black"/>
<path d="M151.665 58.5908H152.618V65.1801H161.022V58.5908H161.975V73.0752H161.022V66.0461H152.618V73.0752H151.665V58.5908Z" fill="black"/>
<path d="M178.202 58.5908C179.818 58.5908 181.082 58.9223 181.988 59.5853C182.894 60.2483 183.347 61.2089 183.347 62.474C183.347 63.9827 182.799 65.1057 181.704 65.8364C180.609 66.567 179.02 66.9391 176.938 66.9391C176.505 66.9391 175.951 66.8985 175.268 66.8173V73.0819H174.315V58.5976H178.202V58.5908ZM182.346 62.5146C182.346 61.4322 181.954 60.6542 181.163 60.1739C180.379 59.7003 179.27 59.4568 177.837 59.4568H175.261V65.9581C175.985 66.0326 176.539 66.0664 176.931 66.0664C178.838 66.0664 180.217 65.762 181.069 65.1531C181.92 64.5442 182.346 63.6648 182.346 62.5079V62.5146Z" fill="black"/>
<path d="M189.953 58.5908C190.852 58.5908 191.562 58.6246 192.062 58.699C194.408 59.1523 195.578 60.3971 195.578 62.4267C195.578 63.6106 195.192 64.5847 194.422 65.3492C193.651 66.1137 192.63 66.5331 191.366 66.594V66.6346L196.423 73.0683H195.253L190.196 66.6955H187.729V73.0683H186.775V58.584H189.946L189.953 58.5908ZM194.584 62.4063C194.584 61.3239 194.171 60.5594 193.347 60.1197C192.522 59.68 191.352 59.4567 189.838 59.4567H187.729V65.8363H189.885C191.46 65.8363 192.637 65.5725 193.414 65.0312C194.192 64.4968 194.584 63.6173 194.584 62.3996V62.4063Z" fill="black"/>
<path d="M199.172 65.8372C199.172 64.403 199.449 63.1041 200.01 61.9608C200.572 60.8107 201.349 59.9177 202.343 59.2682C203.337 58.6187 204.466 58.3008 205.73 58.3008C206.994 58.3008 208.204 58.6255 209.198 59.2682C210.192 59.9177 210.956 60.8107 211.497 61.9472C212.037 63.0906 212.301 64.3827 212.301 65.8372C212.301 67.2918 212.024 68.5501 211.47 69.6934C210.915 70.8367 210.138 71.7297 209.144 72.3724C208.15 73.0219 207.028 73.3398 205.784 73.3398C204.445 73.3398 203.282 73.0219 202.282 72.3724C201.281 71.7297 200.511 70.8367 199.977 69.7002C199.436 68.5636 199.172 67.2714 199.172 65.8237V65.8372ZM211.274 65.8372C211.274 64.4504 211.03 63.2529 210.537 62.2449C210.043 61.2369 209.381 60.4724 208.542 59.9447C207.704 59.4238 206.764 59.16 205.73 59.16C204.695 59.16 203.783 59.4238 202.938 59.9447C202.093 60.4656 201.423 61.2369 200.93 62.2449C200.436 63.2529 200.186 64.4504 200.186 65.8372C200.186 67.2241 200.436 68.4418 200.93 69.4363C201.43 70.4376 202.099 71.1953 202.951 71.7094C203.796 72.2236 204.743 72.4807 205.784 72.4807C206.825 72.4807 207.724 72.2236 208.556 71.7094C209.387 71.1953 210.043 70.4376 210.537 69.4363C211.03 68.4351 211.274 67.2376 211.274 65.8372Z" fill="black"/>
<path d="M216.161 58.5908H224.281V59.4568H217.114V65.1801H223.652V66.0461H217.114V73.0752H216.161V58.5908Z" fill="black"/>
<path d="M227.439 58.5908H235.687V59.4568H228.392V65.2207H235.072V66.0867H228.392V72.2092H236.113V73.0752H227.439V58.5908Z" fill="black"/>
<path d="M239.329 72.5686V71.5268C239.68 71.7432 240.262 71.953 241.059 72.1559C241.864 72.3589 242.526 72.4604 243.054 72.4604C244.352 72.4604 245.359 72.2168 246.083 71.7365C246.799 71.2494 247.157 70.4308 247.157 69.2672C247.157 68.6854 247.036 68.1983 246.792 67.8127C246.549 67.427 246.218 67.1226 245.799 66.8926C245.379 66.6626 244.629 66.3988 243.547 66.1011C242.608 65.8643 241.857 65.6275 241.283 65.3907C240.715 65.1539 240.235 64.7886 239.843 64.2947C239.45 63.8009 239.261 63.1312 239.261 62.299C239.261 61.0948 239.694 60.1274 240.566 59.3967C241.438 58.6661 242.574 58.3008 243.98 58.3008C244.906 58.3008 245.805 58.4361 246.684 58.6999C247.036 58.8285 247.354 58.9638 247.637 59.0991V60.1409C247.198 59.938 246.819 59.7756 246.508 59.6471C246.197 59.5185 245.819 59.4103 245.373 59.3156C244.926 59.2208 244.446 59.1735 243.919 59.1667C242.668 59.1667 241.742 59.4576 241.141 60.0327C240.539 60.6077 240.235 61.379 240.235 62.3396C240.235 62.9485 240.363 63.4221 240.627 63.7671C240.89 64.1121 241.249 64.3827 241.695 64.5721C242.141 64.7616 242.81 64.978 243.696 65.2216C244.69 65.499 245.474 65.7493 246.035 65.986C246.596 66.2228 247.09 66.5949 247.502 67.1159C247.915 67.63 248.124 68.3336 248.124 69.2198C248.124 70.5188 247.678 71.5335 246.786 72.2574C245.893 72.9813 244.629 73.3466 242.979 73.3466C242.303 73.3466 241.594 73.2587 240.857 73.076C240.12 72.8934 239.606 72.7242 239.322 72.5686H239.329Z" fill="black"/>
<path d="M251.473 72.5686V71.5268C251.824 71.7432 252.406 71.953 253.204 72.1559C254.008 72.3589 254.671 72.4604 255.198 72.4604C256.496 72.4604 257.503 72.2168 258.227 71.7365C258.943 71.2494 259.302 70.4308 259.302 69.2672C259.302 68.6854 259.18 68.1983 258.937 67.8127C258.693 67.427 258.362 67.1226 257.943 66.8926C257.524 66.6626 256.773 66.3988 255.691 66.1011C254.752 65.8643 254.001 65.6275 253.427 65.3907C252.859 65.1539 252.379 64.7886 251.987 64.2947C251.595 63.8009 251.405 63.1312 251.405 62.299C251.405 61.0948 251.838 60.1274 252.71 59.3967C253.582 58.6661 254.718 58.3008 256.124 58.3008C257.05 58.3008 257.95 58.4361 258.828 58.6999C259.18 58.8285 259.498 58.9638 259.782 59.0991V60.1409C259.342 59.938 258.964 59.7756 258.653 59.6471C258.342 59.5185 257.963 59.4103 257.517 59.3156C257.071 59.2208 256.591 59.1735 256.063 59.1667C254.813 59.1667 253.886 59.4576 253.285 60.0327C252.683 60.6077 252.379 61.379 252.379 62.3396C252.379 62.9485 252.507 63.4221 252.771 63.7671C253.035 64.1121 253.393 64.3827 253.839 64.5721C254.285 64.7616 254.955 64.978 255.84 65.2216C256.834 65.499 257.618 65.7493 258.179 65.986C258.741 66.2228 259.234 66.5949 259.646 67.1159C260.059 67.63 260.268 68.3336 260.268 69.2198C260.268 70.5188 259.822 71.5335 258.93 72.2574C258.037 72.9813 256.773 73.3466 255.124 73.3466C254.448 73.3466 253.738 73.2587 253.001 73.076C252.264 72.8934 251.75 72.7242 251.466 72.5686H251.473Z" fill="black"/>
<path d="M264.068 58.5908H265.021V73.0752H264.068V58.5908Z" fill="black"/>
<path d="M268.875 65.8372C268.875 64.403 269.152 63.1041 269.713 61.9608C270.274 60.8107 271.052 59.9177 272.045 59.2682C273.039 58.6187 274.168 58.3008 275.433 58.3008C276.697 58.3008 277.907 58.6255 278.901 59.2682C279.895 59.9177 280.658 60.8107 281.199 61.9472C281.74 63.0906 282.004 64.3827 282.004 65.8372C282.004 67.2918 281.727 68.5501 281.172 69.6934C280.618 70.8367 279.84 71.7297 278.847 72.3724C277.853 73.0219 276.731 73.3398 275.487 73.3398C274.148 73.3398 272.985 73.0219 271.985 72.3724C270.984 71.7297 270.213 70.8367 269.679 69.7002C269.138 68.5636 268.875 67.2714 268.875 65.8237V65.8372ZM280.976 65.8372C280.976 64.4504 280.733 63.2529 280.239 62.2449C279.746 61.2369 279.083 60.4724 278.245 59.9447C277.407 59.4238 276.467 59.16 275.433 59.16C274.398 59.16 273.485 59.4238 272.64 59.9447C271.795 60.4656 271.126 61.2369 270.633 62.2449C270.139 63.2529 269.889 64.4504 269.889 65.8372C269.889 67.2241 270.139 68.4418 270.633 69.4363C271.133 70.4376 271.802 71.1953 272.654 71.7094C273.499 72.2236 274.445 72.4807 275.487 72.4807C276.528 72.4807 277.427 72.2236 278.258 71.7094C279.09 71.1953 279.746 70.4376 280.239 69.4363C280.733 68.4351 280.976 67.2376 280.976 65.8372Z" fill="black"/>
<path d="M286.683 58.5908L293.2 67.7036L295.931 71.6138H295.999C295.897 70.7005 295.85 69.2054 295.85 67.1285V58.5908H296.803V73.0752H295.979L289.441 63.8677L286.737 60.0318H286.696C286.784 60.9451 286.825 62.6364 286.825 65.1125V73.0752H285.871V58.5908H286.696H286.683Z" fill="black"/>
<path d="M299.587 73.0752L305.509 58.5908H306.442L312.384 73.0752H311.337L309.261 67.9268H302.703L300.635 73.0752H299.593H299.587ZM308.896 67.0609L308.342 65.6605C307.138 62.6635 306.361 60.6813 306.016 59.7139H305.975C305.678 60.5392 305.191 61.7637 304.515 63.3874C304.306 63.888 303.805 65.1125 303.021 67.0609H308.903H308.896Z" fill="black"/>
<path d="M315.176 58.5908H316.129V72.2092H323.472V73.0752H315.176V58.5908Z" fill="black"/>
<path d="M326.373 72.5686V71.5268C326.724 71.7432 327.306 71.953 328.103 72.1559C328.908 72.3589 329.571 72.4604 330.098 72.4604C331.396 72.4604 332.403 72.2168 333.127 71.7365C333.843 71.2494 334.202 70.4308 334.202 69.2672C334.202 68.6854 334.08 68.1983 333.836 67.8127C333.593 67.427 333.262 67.1226 332.843 66.8926C332.423 66.6626 331.673 66.3988 330.591 66.1011C329.652 65.8643 328.901 65.6275 328.327 65.3907C327.759 65.1539 327.279 64.7886 326.887 64.2947C326.494 63.8009 326.305 63.1312 326.305 62.299C326.305 61.0948 326.738 60.1274 327.61 59.3967C328.482 58.6661 329.618 58.3008 331.024 58.3008C331.95 58.3008 332.849 58.4361 333.728 58.6999C334.08 58.8285 334.398 58.9638 334.682 59.0991V60.1409C334.242 59.938 333.864 59.7756 333.553 59.6471C333.242 59.5185 332.863 59.4103 332.417 59.3156C331.971 59.2208 331.491 59.1735 330.963 59.1667C329.713 59.1667 328.786 59.4576 328.185 60.0327C327.583 60.6077 327.279 61.379 327.279 62.3396C327.279 62.9485 327.407 63.4221 327.671 63.7671C327.934 64.1121 328.293 64.3827 328.739 64.5721C329.185 64.7616 329.854 64.978 330.74 65.2216C331.734 65.499 332.518 65.7493 333.079 65.986C333.64 66.2228 334.134 66.5949 334.546 67.1159C334.959 67.63 335.168 68.3336 335.168 69.2198C335.168 70.5188 334.722 71.5335 333.83 72.2574C332.937 72.9813 331.673 73.3466 330.023 73.3466C329.347 73.3466 328.638 73.2587 327.901 73.076C327.164 72.8934 326.65 72.7242 326.366 72.5686H326.373Z" fill="black"/>
</svg>
