<svg width="498" height="446" viewBox="0 0 498 446" fill="none" xmlns="http://www.w3.org/2000/svg">
<path d="M483.58 322.426C475.436 303.881 459.794 288.404 441.005 280.789C421.435 272.856 398.963 275.742 378.349 273.087C360.446 270.779 347.53 262.779 336.838 248.554C326.595 234.924 317.41 219.83 300.666 213.524C287.433 208.542 272.388 209.925 259.236 215.114C235.003 224.681 216.697 245.019 201.281 265.282C187.206 283.783 175.727 304.04 149.693 304.699C123.642 305.359 98.8409 290.485 72.6142 294.426C37.9494 299.635 9.07665 328.525 3.02771 362.915C-2.64274 395.147 11.5841 426.411 36.0265 444.777H456.147C486.946 412.068 503.106 366.887 483.58 322.426Z" fill="#F7F0E3"/>
<path d="M103.799 444.778H104.954C112.98 435.945 119.269 425.231 123.263 413.337C129.731 394.085 129.461 373.88 122.496 356.444C118.978 347.632 113.896 339.422 108.979 331.479C103.995 323.424 98.8412 315.095 95.3436 306.171C93.8973 302.481 92.8294 298.519 92.1873 294.477C91.8967 294.44 91.6061 294.409 91.3188 294.372C91.9643 298.56 93.0626 302.663 94.5596 306.479C98.0842 315.474 103.261 323.837 108.266 331.922C113.163 339.831 118.225 348.014 121.716 356.755C128.606 374.005 128.873 394.004 122.466 413.067C118.421 425.11 112 435.925 103.802 444.778H103.799Z" fill="white"/>
<path d="M454.116 408.101C462.774 409.948 471.114 411.602 479.181 412.644C479.319 412.376 479.454 412.109 479.589 411.842C471.455 410.807 463.034 409.139 454.292 407.272C440.978 404.434 426.568 401.359 412.274 401.359C403.423 401.359 394.62 402.536 386.152 405.678C382.945 406.869 379.853 408.378 376.906 410.178C369.259 406.917 361.571 403.354 353.957 399.444C359.483 395.276 365.068 391.196 370.712 387.252C412.608 357.967 451.274 341.363 488.629 336.651C488.555 336.377 488.477 336.103 488.399 335.829C450.943 340.579 412.196 357.226 370.232 386.558C364.467 390.587 358.766 394.759 353.126 399.014C344.563 394.586 336.101 389.718 327.91 384.346C313.054 374.603 295.387 360.697 279.958 342.216C339.754 335.501 400.632 327.04 450.348 293.777C452.237 292.515 454.329 291.023 456.495 289.335C456.255 289.166 456.012 288.997 455.772 288.828C453.697 290.438 451.693 291.859 449.882 293.073C400.179 326.327 339.186 334.723 279.316 341.438C268.411 328.235 258.668 312.728 251.899 294.775C241.353 266.809 241.91 239.367 253.427 219.479C253.927 218.616 254.454 217.764 254.998 216.925C254.518 217.145 254.042 217.375 253.565 217.605C253.268 218.085 252.977 218.569 252.697 219.056C241.052 239.164 240.474 266.869 251.109 295.072C257.843 312.927 267.498 328.373 278.312 341.55C274.845 341.939 271.378 342.321 267.924 342.703C255.458 344.08 242.562 345.504 230.045 347.118C225.477 347.706 220.83 348.393 216.204 349.256C206.292 328.312 195.404 307.883 181.329 290.36C181.127 290.56 180.924 290.756 180.721 290.955C194.674 308.343 205.495 328.624 215.349 349.418C195.181 353.268 175.598 360.507 165.143 377.354C155.376 393.087 155.387 414.836 165.17 441.993C165.508 442.934 165.856 443.857 166.211 444.778H167.116C166.728 443.773 166.342 442.755 165.967 441.706C156.275 414.802 156.242 393.301 165.862 377.797C176.193 361.15 195.671 354.009 215.727 350.206C219.228 357.615 222.608 365.087 225.967 372.513L226.332 373.321C238 399.106 250.068 423.986 265.866 444.781H266.92C250.977 423.949 238.842 398.919 227.099 372.973L226.734 372.164C223.402 364.803 220.049 357.395 216.582 350.047C221.117 349.208 225.676 348.535 230.157 347.96C242.667 346.346 255.556 344.922 268.022 343.545C271.661 343.143 275.311 342.74 278.961 342.331C294.539 361.099 312.433 375.199 327.457 385.053C335.557 390.368 343.924 395.188 352.389 399.579C338.017 410.462 324.04 421.909 310.392 433.086C305.664 436.956 300.886 440.867 296.067 444.778H297.405C301.95 441.087 306.461 437.396 310.925 433.743C324.669 422.488 338.747 410.956 353.221 400.012C360.794 403.913 368.438 407.468 376.044 410.726C365.64 417.349 357.158 427.61 352.031 440.065C351.389 441.625 350.828 443.201 350.311 444.781H351.2C351.69 443.309 352.214 441.841 352.812 440.387C357.952 427.897 366.505 417.647 376.991 411.128C398.253 420.171 419.147 426.882 437.105 432.2L437.781 432.4C445.347 434.639 453.086 436.936 459.932 440.62C460.125 440.4 460.317 440.184 460.507 439.964C453.549 436.185 445.698 433.858 438.021 431.588L437.345 431.388C419.573 426.124 398.916 419.494 377.883 410.587C380.623 408.953 383.492 407.576 386.459 406.473C408.378 398.341 432.685 403.527 454.13 408.101H454.116Z" fill="white"/>
<path d="M38.1454 353.319C41.8762 368.609 40.2136 385.121 33.5766 398.622C29.2309 407.465 22.9555 415.472 15.2271 422.346C15.3791 422.586 15.5379 422.823 15.6934 423.06C23.5469 416.094 29.9236 407.972 34.3336 398.994C41.055 385.317 42.7413 368.596 38.9632 353.116C36.0131 341.022 30.0791 330.779 21.8775 323.367C21.695 323.583 21.5125 323.8 21.3334 324.016C29.3964 331.313 35.2325 341.404 38.142 353.319H38.1454Z" fill="white"/>
<path d="M229.353 159.629C236.713 167.156 240.011 179.841 235.952 191.533C232.022 202.855 223.408 212.232 213.061 218.264C204.734 223.115 193.873 225.791 185.685 220.71C179.565 216.914 176.392 209.465 176.217 202.263C176.041 195.058 178.46 188.038 181.451 181.482C185.668 172.243 191.342 163.282 199.797 157.663C211.449 149.917 222.276 152.393 229.353 159.629Z" fill="#F7F0E3"/>
<path d="M131.796 27.6293H70.854V0.376953H131.796V27.6293ZM72.1212 26.3607H130.529V1.64553H72.1212V26.3607Z" fill="#E9DDCA"/>
<path d="M92.1502 53.6942H31.208V26.4419H92.1502V53.6942ZM32.4752 52.4257H90.883V27.7105H32.4752V52.4257Z" fill="#E9DDCA"/>
<path d="M478.542 82.7329C474.595 69.5972 467.654 57.5373 457.719 46.5126C447.763 35.4878 434.185 26.3845 416.984 19.1858C399.784 11.9871 377.93 8.3877 351.423 8.3877C330.275 8.3877 308.725 11.2428 286.77 16.9531C264.795 22.6837 245.732 30.833 229.565 41.4247L250.612 99.265L239.332 108.412L255.691 113.226C271.837 104.765 286.55 98.6222 299.824 94.7962C313.078 90.9905 327.163 89.0859 342.096 89.0859C357.029 89.0859 368.302 92.6853 375.97 99.884C383.638 107.103 387.463 115.77 387.463 125.949C387.463 138.236 383.516 149.139 375.666 158.675C367.775 168.211 359.074 177.849 349.541 187.592C342.924 194.357 336.49 201.346 330.275 208.545C324.064 215.764 318.559 223.48 313.804 231.755C309.03 240.009 305.204 248.903 302.312 258.439C299.399 267.975 297.962 278.668 297.962 290.522C297.962 294.348 298.043 298.898 298.266 304.195C298.304 305.173 298.354 306.124 298.412 307.064H282.948L299.824 318.488H381.88C381.455 315.944 381.252 312.984 381.252 309.595V301.963C381.252 294.764 382.708 287.67 385.601 280.678C388.494 273.685 392.137 267.025 396.489 260.655C400.838 254.305 405.698 248.263 411.098 242.556C416.481 236.826 421.661 231.427 426.639 226.339C433.256 219.573 440.096 212.378 447.138 204.743C454.18 197.111 460.412 189.083 465.795 180.603C471.178 172.122 475.629 162.917 479.15 152.948C482.671 142.999 484.452 132.096 484.452 120.222C484.452 108.348 482.468 95.8753 478.542 82.7397V82.7329Z" fill="#E49B31"/>
<path d="M324.723 85.0499C309.966 85.0499 296.047 86.8902 282.949 90.5741C269.83 94.2784 255.292 100.222 239.332 108.412L213.514 38.9246C229.491 28.6745 248.331 20.7857 270.05 15.2411C291.748 9.71692 313.045 6.95312 333.942 6.95312C360.138 6.95312 381.739 10.4375 398.737 17.4028C415.735 24.3681 429.154 33.1771 438.994 43.8466C448.814 54.5162 455.671 66.1871 459.571 78.8999C463.45 91.6127 465.41 103.703 465.41 115.174C465.41 126.646 463.65 137.217 460.172 146.845C456.692 156.493 452.292 165.403 446.973 173.61C441.654 181.817 435.493 189.584 428.535 196.972C421.577 204.36 414.815 211.325 408.276 217.871C403.356 222.797 398.237 228.02 392.918 233.568C387.578 239.092 382.78 244.938 378.478 251.084C374.179 257.251 370.577 263.696 367.718 270.461C364.859 277.227 363.42 284.094 363.42 291.06V298.448C363.42 301.733 363.619 304.594 364.038 307.057H282.945C282.104 302.954 281.607 298.35 281.404 293.225C281.185 288.1 281.103 283.695 281.103 279.991C281.103 268.52 282.523 258.171 285.402 248.94C288.261 239.711 292.042 231.102 296.76 223.115C301.46 215.108 306.898 207.642 313.038 200.653C319.178 193.687 325.538 186.918 332.077 180.372C341.495 170.944 350.095 161.614 357.895 152.386C365.653 143.157 369.553 132.606 369.553 120.715C369.553 110.865 365.775 102.478 358.195 95.4928C350.616 88.5275 339.457 85.0432 324.72 85.0432L324.723 85.0499Z" fill="#FBC343"/>
<path d="M387.494 398.219C387.494 413.029 382.705 424.457 373.125 432.518C363.548 440.596 352.721 444.618 340.633 444.618C328.545 444.618 317.705 440.596 308.128 432.518C298.564 424.457 293.776 413.029 293.776 398.219C293.776 383.409 298.564 371.999 308.128 363.92C322.872 351.465 344.685 348.691 361.946 357.432C377.265 365.189 387.494 380.943 387.494 398.219Z" fill="#E49B31"/>
<path d="M371.442 398.219C371.442 413.029 366.654 424.456 357.073 432.518C347.496 440.596 336.669 444.618 324.581 444.618C312.494 444.618 301.653 440.596 292.076 432.518C282.513 424.456 277.724 413.029 277.724 398.219C277.724 383.409 282.513 371.998 292.076 363.92C301.653 355.858 312.48 351.819 324.581 351.819C336.683 351.819 347.493 355.858 357.073 363.92C366.65 371.998 371.442 383.425 371.442 398.219Z" fill="#FBC343"/>
<path d="M128.526 188.288C129.426 183.486 126.266 178.864 121.47 177.963C116.673 177.063 112.055 180.226 111.155 185.028C110.256 189.829 113.415 194.452 118.212 195.352C123.009 196.253 127.627 193.09 128.526 188.288Z" fill="#002A3A"/>
<path d="M132.737 204.872C133.242 202.171 131.449 199.568 128.733 199.059C126.016 198.549 123.404 200.326 122.898 203.027C122.393 205.729 124.185 208.331 126.902 208.841C129.619 209.35 132.231 207.574 132.737 204.872Z" fill="#002A3A"/>
<path d="M122.635 166.73C136.222 153.128 136.222 131.075 122.635 117.473C109.047 103.871 87.0173 103.871 73.4297 117.473C59.8421 131.075 59.8421 153.128 73.4297 166.73C87.0173 180.332 109.047 180.332 122.635 166.73Z" fill="#002A3A"/>
<path d="M84.6715 146.49C87.0922 146.49 89.0545 144.525 89.0545 142.102C89.0545 139.679 87.0922 137.714 84.6715 137.714C82.2509 137.714 80.2886 139.679 80.2886 142.102C80.2886 144.525 82.2509 146.49 84.6715 146.49Z" fill="white"/>
<path d="M98.0299 146.49C100.451 146.49 102.413 144.525 102.413 142.102C102.413 139.679 100.451 137.714 98.0299 137.714C95.6093 137.714 93.647 139.679 93.647 142.102C93.647 144.525 95.6093 146.49 98.0299 146.49Z" fill="white"/>
<path d="M111.392 146.49C113.812 146.49 115.775 144.525 115.775 142.102C115.775 139.679 113.812 137.714 111.392 137.714C108.971 137.714 107.009 139.679 107.009 142.102C107.009 144.525 108.971 146.49 111.392 146.49Z" fill="white"/>
<path d="M73.1044 427.183L76.3553 439.73C77.2035 443.001 80.3632 445.214 83.8607 444.974C94.519 444.25 116.667 441.635 129.38 432.254L125.767 414.173C108.29 413.185 91.9474 414.159 77.7915 418.926C74.2466 420.12 72.1988 423.675 73.1078 427.18L73.1044 427.183Z" fill="#102048"/>
<path d="M93.4748 437.169C93.289 437.169 93.12 437.048 93.0693 436.861L88.7033 421.216C88.6391 420.992 88.7708 420.759 88.9973 420.695C89.2237 420.634 89.4568 420.762 89.5177 420.989L93.8837 436.635C93.9479 436.861 93.8161 437.092 93.5897 437.156C93.5526 437.166 93.512 437.173 93.4748 437.173V437.169Z" fill="white"/>
<path d="M102.909 435.055C102.724 435.055 102.555 434.933 102.504 434.747L98.1378 419.101C98.0736 418.878 98.2054 418.645 98.4318 418.58C98.6582 418.516 98.8914 418.648 98.9522 418.875L103.318 434.52C103.382 434.747 103.251 434.977 103.024 435.041C102.987 435.051 102.947 435.058 102.909 435.058V435.055Z" fill="white"/>
<path d="M113.866 359.363L73.2466 371.43L103.414 412.809L146.723 416.256L206.455 390.969L183.756 356.775L113.866 359.363Z" fill="#1B2C49"/>
<path d="M163.943 365.111C253.15 338.677 267.485 417.599 128.302 431.966C123.385 426.429 117.64 416.821 115.359 408.787L188.859 374.786L163.943 365.111Z" fill="#2D4773"/>
<path d="M167.735 421.673C163.561 420.336 159.563 417.694 159.563 417.694L145.229 422.197L148.513 437.809L163.406 440.837C167.944 432.528 168.208 425.708 167.735 421.673Z" fill="#F9B384"/>
<path d="M115.677 409.335L115.042 408.239C130.377 399.318 169.651 377.888 203.116 371.565L203.353 372.813C170.083 379.099 130.958 400.448 115.68 409.335H115.677Z" fill="white"/>
<path d="M113.866 359.363C30.8329 343.558 9.32706 423.441 148.513 437.808C153.43 432.27 157.283 425.728 159.564 417.694C138.183 403.374 114.278 389.761 88.0815 376.795L113.869 359.363H113.866Z" fill="#2D4773"/>
<path d="M159.222 418.229C155.272 415.712 151.156 413.053 146.8 410.235C124.926 396.098 100.135 380.073 79.0723 370.936L79.5758 369.772C100.734 378.95 125.571 395.005 147.486 409.169C151.842 411.984 155.955 414.643 159.902 417.16L159.222 418.229Z" fill="white"/>
<path d="M52.9473 398.969L51.8389 398.357C54.9546 392.708 59.9492 388.899 66.6774 387.035L67.0153 388.256C60.5372 390.052 55.9346 393.557 52.9473 398.969Z" fill="white"/>
<path d="M226.248 394.159C223.26 388.747 218.658 385.242 212.18 383.446L212.518 382.225C219.246 384.089 224.24 387.901 227.356 393.547L226.248 394.159Z" fill="white"/>
<path d="M140.738 437.105L139.812 436.239C146.456 429.118 150.535 421.601 152.285 413.256L153.525 413.516C151.727 422.092 147.544 429.808 140.741 437.105H140.738Z" fill="white"/>
<path d="M209.145 417.024C198.507 410.445 177.883 421.814 172.706 422.389C171.196 422.559 169.452 422.227 167.735 421.676C168.208 425.711 167.945 432.531 163.406 440.84L165.937 441.354C165.937 441.354 183.425 447.771 201.978 444.036C219.1 440.589 217.509 422.2 209.145 417.028V417.024Z" fill="#102048"/>
<path d="M194.644 438.543C194.604 438.543 194.56 438.536 194.516 438.523C194.293 438.452 194.171 438.215 194.239 437.992C195.503 433.986 196.054 426.104 192.394 420.81C192.262 420.617 192.309 420.353 192.502 420.222C192.695 420.09 192.958 420.137 193.09 420.33C196.922 425.874 196.361 434.081 195.047 438.245C194.989 438.425 194.824 438.54 194.644 438.54V438.543Z" fill="white"/>
<path d="M186.301 440.129C186.26 440.129 186.216 440.122 186.172 440.109C185.949 440.038 185.828 439.801 185.895 439.578C187.159 435.572 187.71 427.69 184.05 422.396C183.918 422.203 183.966 421.939 184.158 421.808C184.351 421.676 184.614 421.723 184.746 421.916C188.578 427.46 188.017 435.667 186.703 439.831C186.645 440.011 186.48 440.126 186.301 440.126V440.129Z" fill="white"/>
<path d="M99.1759 256.369C99.1759 256.369 120.087 238.568 119.313 235.186C118.759 232.767 112.835 236.312 112.835 236.312C112.835 236.312 121.141 226.444 120.719 225.247C119.965 223.105 114.217 227.097 114.217 227.097C114.217 227.097 118.1 221.502 116.245 220.588C114.389 219.675 110.341 223.126 110.341 223.126C110.341 223.126 112.707 220.02 111.595 219.205C110.483 218.39 105.691 221.742 105.691 221.742C105.691 221.742 107.411 217.825 103.758 219.31C100.105 220.795 74.4834 244.333 74.4834 244.333L99.1759 256.369Z" fill="#F1ABA5"/>
<path d="M107.733 235.254C107.631 235.254 107.53 235.216 107.449 235.142C103.86 231.861 102.275 231.062 98.3179 229.841C98.0948 229.773 97.9698 229.537 98.0374 229.313C98.105 229.09 98.3415 228.965 98.5646 229.033C102.667 230.294 104.306 231.12 108.02 234.516C108.192 234.675 108.206 234.942 108.047 235.115C107.962 235.206 107.851 235.254 107.736 235.254H107.733Z" fill="#896559"/>
<path d="M101.433 244.912C101.413 244.912 101.393 244.912 101.376 244.908C101.146 244.875 100.984 244.661 101.018 244.431C101.43 241.488 102.356 239.648 103.846 238.809C105.123 238.092 106.783 238.163 108.783 239.029C108.996 239.12 109.098 239.371 109.003 239.584C108.912 239.797 108.662 239.898 108.449 239.804C106.705 239.049 105.296 238.961 104.262 239.547C103.032 240.24 102.221 241.921 101.856 244.55C101.825 244.76 101.646 244.915 101.437 244.915L101.433 244.912Z" fill="#896559"/>
<path d="M100.447 227.114C100.335 227.114 100.224 227.07 100.139 226.982C99.9802 226.813 99.987 226.546 100.156 226.384L105.404 221.434C105.573 221.272 105.84 221.282 106.002 221.451C106.161 221.62 106.154 221.888 105.985 222.05L100.737 226.999C100.656 227.077 100.551 227.114 100.447 227.114Z" fill="#896559"/>
<path d="M105.303 228.806C105.198 228.806 105.094 228.765 105.009 228.688C104.84 228.525 104.837 228.258 104.996 228.089L110.038 222.832C110.2 222.663 110.467 222.656 110.636 222.818C110.805 222.981 110.808 223.248 110.649 223.417L105.607 228.674C105.523 228.762 105.415 228.803 105.303 228.803V228.806Z" fill="#896559"/>
<path d="M110.267 231.766C110.162 231.766 110.061 231.729 109.98 231.651C109.811 231.492 109.801 231.225 109.96 231.052L113.913 226.807C114.072 226.638 114.339 226.628 114.512 226.787C114.681 226.946 114.691 227.213 114.532 227.385L110.578 231.631C110.494 231.719 110.382 231.766 110.267 231.766Z" fill="#896559"/>
<path d="M178.17 375.428L101.714 378.388L93.2656 308.617C93.2656 308.617 118.86 284.314 128.708 275.363L145.334 274.511C196.912 297.981 188.467 327.294 178.17 375.428Z" fill="#FF6B82"/>
<path d="M145.334 274.511C145.334 274.511 204.343 279.561 222.946 320.034C241.151 359.637 166.343 373.737 166.343 373.737L145.334 274.511Z" fill="#FF6B82"/>
<path d="M77.8796 283.184L102.265 253.48L79.4611 239.647C69.9484 246.267 51.5549 261.263 35.9662 278.245C32.5261 281.994 29.8361 286.371 28.4844 291.192C27.3287 295.305 27.1192 299.368 27.768 303.346C29.461 313.718 37.6085 321.719 48.4865 322.994C57.7761 324.083 93.2621 321.303 121.986 312.845L130.434 280.204C126.092 277.738 93.8298 277.308 77.8796 283.184Z" fill="#FF6B82"/>
<g opacity="0.8">
<path d="M194.577 290.573C194.706 290.542 194.831 290.515 194.959 290.485C194.692 290.326 194.425 290.174 194.158 290.018C189.833 291.016 185.372 292.034 180.972 292.565C178.33 292.883 169.496 293.469 166.918 287.579C165.634 284.65 166.607 281.388 168.057 279.102C167.844 279.041 167.634 278.98 167.425 278.919C165.938 281.341 164.982 284.741 166.337 287.833C169.091 294.125 178.296 293.53 181.05 293.195C185.575 292.65 190.154 291.595 194.577 290.573Z" fill="white"/>
<path d="M222.118 336.218C219.3 335.129 216.387 333.999 213.325 334.29C207.956 334.797 203.36 340.115 203.079 346.14C202.89 350.25 204.458 354.556 207.445 358.342C207.624 358.23 207.804 358.115 207.983 358.003C205.06 354.323 203.525 350.145 203.711 346.17C203.975 340.446 208.314 335.399 213.383 334.922C216.292 334.652 219.013 335.7 221.888 336.81C222.916 337.206 223.96 337.608 225.021 337.946C225.075 337.743 225.129 337.537 225.177 337.331C224.142 336.999 223.122 336.607 222.115 336.218H222.118Z" fill="white"/>
<path d="M73.1759 316.046C69.4925 312.995 63.7679 312.179 57.4723 313.81C51.8627 315.261 47.0506 318.14 43.7456 321.946C43.9619 322.017 44.1748 322.095 44.3944 322.159C47.6115 318.546 52.2445 315.816 57.6311 314.422C63.724 312.843 69.2458 313.614 72.7704 316.533C74.4465 317.92 75.6326 319.723 76.4944 321.665C76.7106 321.641 76.9303 321.614 77.1499 321.591C76.2477 319.5 74.9906 317.548 73.1759 316.043V316.046Z" fill="white"/>
<path d="M39.8696 274.095C46.7735 272.377 53.5085 269.965 59.723 266.382C62.0716 265.029 64.721 263.304 66.5863 260.77C68.57 258.074 69.2289 254.863 68.3503 252.184C68.0056 251.132 67.394 250.209 66.6303 249.471C66.4681 249.603 66.3059 249.738 66.1436 249.87C66.8567 250.55 67.4278 251.406 67.7488 252.384C68.5632 254.87 67.9414 257.864 66.0794 260.394C64.285 262.833 61.6999 264.515 59.4087 265.834C53.549 269.214 47.2095 271.551 40.6976 273.239C40.4205 273.523 40.1467 273.811 39.873 274.095H39.8696Z" fill="white"/>
</g>
<path d="M150.734 259.001L150.724 260.083L150.551 276.906L150.531 278.729C150.501 281.581 149.331 284.166 147.446 286.043C145.57 287.907 142.989 289.078 140.13 289.098C134.368 289.128 129.654 284.497 129.6 278.719L129.397 257.928L150.734 259.001Z" fill="#EEA9A3"/>
<path d="M150.724 260.083L150.551 276.906C141.211 273.101 137.365 262.979 137.365 262.979L150.72 260.083H150.724Z" fill="#102048"/>
<path d="M154.417 230.727C157.762 234.749 167.539 257.533 157.631 265.307C146.482 274.055 129.515 259.677 129.515 259.677L127.237 233.139L141.964 229.252L154.417 230.727Z" fill="#F1ABA5"/>
<path d="M119.735 229.265C119.735 229.265 87.0678 246.322 113.703 295.485C117.123 301.8 124.703 304.554 131.184 301.476C138.139 298.171 140.772 289.666 136.993 282.951C132.638 275.204 128.43 265.225 130.228 257.803L119.735 229.269V229.265Z" fill="#102048"/>
<path d="M129.068 243.592C132.519 240.137 132.519 234.536 129.068 231.081C125.617 227.627 120.021 227.627 116.57 231.081C113.119 234.536 113.119 240.137 116.57 243.592C120.021 247.046 125.617 247.046 129.068 243.592Z" fill="#FF6B82"/>
<path d="M133.692 247.966C132.735 242.448 132.154 238.663 137.727 235.818C137.727 235.818 157.364 239.394 161.111 231.975C164.859 224.56 159.148 212.855 147.189 220.984C116.572 214.997 112.466 243.68 121.749 253.24L130.911 251.833C132.756 251.548 134.009 249.803 133.692 247.963V247.966Z" fill="#102048"/>
<path d="M148.896 249.289C149.616 249.289 150.2 248.704 150.2 247.983C150.2 247.262 149.616 246.677 148.896 246.677C148.175 246.677 147.591 247.262 147.591 247.983C147.591 248.704 148.175 249.289 148.896 249.289Z" fill="#102048"/>
<path d="M157.733 244.932C158.453 244.932 159.037 244.347 159.037 243.626C159.037 242.905 158.453 242.32 157.733 242.32C157.012 242.32 156.428 242.905 156.428 243.626C156.428 244.347 157.012 244.932 157.733 244.932Z" fill="#102048"/>
<path d="M156.827 252.005C156.736 252.005 156.644 251.972 156.573 251.904C156.425 251.762 156.418 251.528 156.56 251.38C157.084 250.828 157.658 250.054 157.415 249.489C157.165 248.903 156.107 248.653 155.62 248.653C154.58 248.653 154.079 246.799 153.988 246.427C153.941 246.227 154.063 246.028 154.262 245.981C154.461 245.93 154.661 246.055 154.708 246.255C154.897 247.039 155.33 247.916 155.62 247.916C156.121 247.916 157.645 248.152 158.094 249.201C158.415 249.949 158.081 250.855 157.094 251.894C157.023 251.972 156.925 252.009 156.827 252.009V252.005Z" fill="#102048"/>
<path d="M156.894 256.961C156.823 256.961 156.752 256.941 156.688 256.897C154.231 255.236 151.748 256.63 151.724 256.643C151.548 256.745 151.322 256.684 151.22 256.508C151.119 256.332 151.18 256.105 151.356 256.004C151.474 255.936 154.265 254.37 157.104 256.285C157.273 256.4 157.317 256.63 157.202 256.799C157.131 256.904 157.013 256.961 156.894 256.961Z" fill="#102048"/>
<path d="M148.324 242.32C149.068 243.721 147.774 244.001 146.256 244.807C144.739 245.612 143.188 245.909 142.833 245.24C142.478 244.573 143.421 243.379 144.938 242.571C146.456 241.762 147.75 241.234 148.324 242.317V242.32Z" fill="#102048"/>
<path d="M153.853 239.796C154.181 241.045 155.11 240.5 156.462 240.145C157.813 239.79 158.908 239.11 158.753 238.514C158.597 237.919 157.374 237.723 156.019 238.078C154.664 238.433 153.596 238.832 153.849 239.8L153.853 239.796Z" fill="#102048"/>
<path opacity="0.4" d="M145.488 256.89C147.051 255.447 147.149 253.009 145.708 251.445C144.266 249.881 141.831 249.783 140.269 251.225C138.706 252.668 138.608 255.106 140.049 256.67C141.491 258.234 143.926 258.333 145.488 256.89Z" fill="#EB5D60"/>
<path d="M132.939 257.73C134.699 255.448 134.025 251.976 131.435 249.975C128.845 247.974 125.319 248.202 123.56 250.484C121.8 252.766 122.474 256.238 125.064 258.239C127.654 260.24 131.18 260.013 132.939 257.73Z" fill="#EEA9A3"/>
<path d="M130.542 256.027C130.34 256.027 130.174 255.861 130.174 255.658C130.174 254.566 129.643 253.558 128.751 252.956C127.991 252.441 127.082 252.323 126.322 252.631C126.132 252.705 125.916 252.617 125.838 252.428C125.761 252.238 125.852 252.022 126.041 251.944C127.028 251.541 128.194 251.687 129.16 252.34C130.255 253.077 130.911 254.315 130.911 255.655C130.911 255.858 130.745 256.024 130.542 256.024V256.027Z" fill="#102048"/>
<path d="M77.5709 282.888L64.2344 297.331L64.8547 297.905L78.1913 283.462L77.5709 282.888Z" fill="white"/>
<path d="M171.533 344.967L171.287 344.158C180.995 341.195 190.42 337.653 198.96 326.963L199.619 327.491C190.927 338.37 181.374 341.966 171.533 344.97V344.967Z" fill="white"/>
<path d="M177.437 312.217H94.8403C91.8699 312.217 89.4604 314.825 89.4604 318.042V377.076C89.4604 380.294 91.8699 382.902 94.8403 382.902H177.437C180.407 382.902 182.817 380.294 182.817 377.076V318.042C182.817 314.825 180.407 312.217 177.437 312.217Z" fill="#D3DFFF"/>
<path d="M140.502 343.826C140.816 343.826 141.07 344.1 141.07 344.442V350.673C141.07 351.011 140.816 351.289 140.502 351.289H131.78C131.466 351.289 131.212 351.015 131.212 350.673V344.442C131.212 344.104 131.466 343.826 131.78 343.826H140.502ZM140.502 342.135H131.78C130.536 342.135 129.522 343.17 129.522 344.442V350.673C129.522 351.945 130.536 352.98 131.78 352.98H140.502C141.745 352.98 142.759 351.945 142.759 350.673V344.442C142.759 343.17 141.745 342.135 140.502 342.135Z" fill="#1F3C88"/>
<path d="M498 443.932H0V445.623H498V443.932Z" fill="#102048"/>
</svg>
