<svg width="69" height="83" viewBox="0 0 69 83" fill="none" xmlns="http://www.w3.org/2000/svg">
<path d="M68.7901 16.4002C68.7901 16.4002 68.7714 16.4002 68.7639 16.4002C68.7639 15.3667 68.777 14.335 68.7507 13.3014C68.747 13.1364 68.6045 12.8869 68.4621 12.8269C67.6504 12.4836 66.82 12.1797 65.9915 11.8721C63.759 11.0393 61.519 10.2214 59.2902 9.37919C56.9752 8.5032 54.6696 7.60283 52.3583 6.71747C50.6075 6.04782 48.853 5.38567 47.1004 4.72164C45.4733 4.10451 43.8444 3.48926 42.2173 2.87401C39.7842 1.953 37.3474 1.047 34.9274 0.0922326C34.5637 -0.0503262 34.3051 -0.0146868 33.9752 0.11099C31.9038 0.908194 29.8232 1.67914 27.7481 2.46884C26.0104 3.13099 24.2803 3.81564 22.5407 4.47592C20.4207 5.27875 18.2894 6.05907 16.1693 6.86378C14.4711 7.50904 12.7859 8.18432 11.0876 8.82959C9.37806 9.47861 7.65727 10.1014 5.94586 10.7466C4.14822 11.4238 2.35996 12.1216 0.55857 12.7837C0.322383 12.87 0.256776 12.9657 0.251153 13.1945C0.217412 14.5432 0.153679 15.8919 0.131185 17.2406C0.0730758 20.7614 -0.013151 24.2841 0.00184498 27.8049C0.0130919 30.4573 0.153679 33.1096 0.260525 35.762C0.307388 36.9568 0.384242 38.1517 0.496711 39.3409C0.605432 40.4945 0.766638 41.6425 0.92597 42.7905C1.10592 44.0998 1.26338 45.4166 1.51644 46.7127C1.77137 48.0201 2.07503 49.3257 2.45181 50.6012C3.02353 52.5389 3.61962 54.4728 4.31505 56.3692C5.11359 58.547 6.1633 60.6141 7.35923 62.608C8.82696 65.0578 10.4765 67.3706 12.4691 69.4171C13.755 70.7376 15.0634 72.0488 16.4655 73.2418C17.7495 74.3354 19.1592 75.2883 20.5407 76.2618C22.5407 77.6705 24.6627 78.8897 26.8877 79.8933C29.2402 80.955 31.6639 81.8572 34.0295 82.8927C34.4232 83.0652 34.6556 83.009 34.993 82.8701C35.964 82.4725 36.9762 82.1686 37.9303 81.7353C40.1779 80.7168 42.431 79.7057 44.6241 78.5765C46.7405 77.4848 48.7555 76.2036 50.6169 74.7049C51.9122 73.662 53.215 72.6265 54.4409 71.5086C55.4231 70.612 56.3079 69.6047 57.2151 68.6274C58.7635 66.9598 60.0681 65.1084 61.2659 63.1801C62.6511 60.948 63.8452 58.6126 64.7393 56.1422C65.461 54.1445 66.134 52.1243 66.6982 50.0779C67.1668 48.3747 67.4817 46.6264 67.7966 44.8876C68.0403 43.5408 68.2128 42.179 68.3552 40.819C68.5277 39.1646 68.6795 37.5064 68.7564 35.8445C68.8688 33.4191 68.9701 30.99 68.9644 28.5627C68.9551 24.5092 68.8576 20.4556 68.7976 16.404L68.7901 16.4002ZM63.7927 35.4918C63.7515 36.7711 63.5528 38.0448 63.4291 39.3222C63.3691 39.9412 63.3391 40.5639 63.2604 41.1792C63.1573 41.9801 63.0185 42.7773 62.893 43.5764C62.7917 44.2161 62.7074 44.8595 62.5799 45.4953C62.3587 46.5964 62.16 47.7069 61.8657 48.7892C61.4683 50.2486 61.0072 51.691 60.5423 53.1297C59.9256 55.0393 59.1046 56.8682 58.1261 58.6145C57.322 60.0476 56.4616 61.4563 55.5187 62.8012C54.0978 64.8271 52.4258 66.6484 50.6019 68.3235C48.928 69.8598 47.1435 71.2704 45.2165 72.4633C43.4001 73.5869 41.5125 74.6017 39.6024 75.5603C38.1047 76.3124 36.5207 76.8958 34.9836 77.573C34.6275 77.7286 34.3032 77.723 33.9602 77.573C32.3743 76.8827 30.7641 76.243 29.2064 75.4909C27.6919 74.7593 26.1848 73.9902 24.7583 73.1011C23.2249 72.1445 21.7422 71.0884 20.3251 69.9667C19.0354 68.9463 17.802 67.8358 16.653 66.6578C15.5883 65.5661 14.6341 64.36 13.695 63.1539C12.038 61.0249 10.7071 58.6858 9.62737 56.2229C8.87569 54.5084 8.2796 52.7227 7.68164 50.9445C7.31424 49.8528 7.03494 48.7273 6.79313 47.6018C6.48946 46.1913 6.24578 44.7657 6.01522 43.342C5.82215 42.1546 5.67031 40.9597 5.53535 39.7649C5.43787 38.9076 5.43787 38.0391 5.32728 37.1857C5.00674 34.6965 5.05173 32.1924 5.03673 29.6938C5.01611 25.9873 5.0536 22.2808 5.07797 18.5761C5.08172 17.9421 5.1567 17.3081 5.17919 16.6741C5.18857 16.4246 5.27667 16.3289 5.52223 16.237C8.27773 15.2035 11.022 14.1418 13.7737 13.0989C16.4149 12.0972 19.0617 11.1143 21.7028 10.1145C23.7385 9.34355 25.7668 8.55573 27.7987 7.78103C29.9019 6.98007 31.9994 6.16224 34.1176 5.40818C34.4382 5.29375 34.888 5.41943 35.2386 5.54323C36.6669 6.05157 38.0803 6.60117 39.4955 7.14139C40.6877 7.59721 41.8743 8.07178 43.0683 8.52571C45.9607 9.62492 48.8568 10.7147 51.751 11.8121C54.1634 12.7256 56.574 13.6428 58.9865 14.5563C60.503 15.1303 62.0232 15.6912 63.5303 16.2877C63.6653 16.3402 63.7908 16.6047 63.7946 16.7735C63.8471 19.3546 63.8789 21.9375 63.9146 24.5186C63.9221 25.0644 63.9146 25.6121 63.9146 26.158C63.9352 26.158 63.9577 26.158 63.9783 26.158C63.9183 29.2699 63.8883 32.3837 63.7852 35.4956L63.7927 35.4918Z" fill="#40355D"/>
<path d="M27.7047 53.4172C27.6016 53.4697 27.4985 53.5222 27.3936 53.5709C27.313 53.6103 27.2211 53.644 27.1293 53.6684C27.3317 53.5803 27.5229 53.496 27.7047 53.4172Z" fill="black"/>
<path d="M53.8796 61.3242H53.8439C53.8546 61.3099 53.8653 61.2939 53.876 61.2778C53.876 61.2939 53.8778 61.3082 53.8796 61.3242Z" fill="black"/>
<path d="M56.6962 56.4595L56.057 57.6986C56.0457 57.6986 56.0364 57.6986 56.0251 57.6986C55.5827 57.6986 55.2228 57.3387 55.2228 56.8963C55.2228 56.4539 55.5827 56.094 56.0251 56.094C56.3063 56.094 56.5537 56.2383 56.6962 56.4576V56.4595Z" fill="#A93F97"/>
<path d="M55.7578 58.2751L56.0559 57.6996L56.6951 56.4587L56.95 55.9639" fill="black"/>
<path d="M45.7795 53.9151C45.4365 54.0463 45.0991 54.1737 44.7279 54.3162C44.2762 54.1231 43.8357 53.9338 43.4233 53.7557C43.5432 53.7295 43.6595 53.692 43.7738 53.6489C44.3193 53.4483 44.846 53.1971 45.3728 52.9535C45.6408 52.8297 45.7795 52.8747 45.7795 53.1878C45.7795 53.4277 45.7795 53.6695 45.7795 53.9151Z" fill="#A93F97"/>
<path d="M48.6678 55.9499C48.6678 55.9499 48.664 55.948 48.6622 55.948C47.7437 55.5862 46.6864 55.1476 45.6498 54.7071C45.6723 54.7014 45.6948 54.6958 45.7192 54.6883C46.7052 54.3865 47.9105 54.947 48.6696 55.9499H48.6678Z" fill="#A93F97"/>
<path d="M55.8786 52.8091L55.8636 55.3691C55.8467 55.4348 55.8168 55.4929 55.7643 55.5454C55.1269 55.6654 54.6452 56.2262 54.6452 56.8995C54.6452 57.5728 55.0801 58.0773 55.6705 58.2329C55.7287 58.3417 55.6705 58.4805 55.5974 58.6005C55.0407 59.4801 54.5027 60.3728 53.9104 61.228C53.8992 61.2449 53.886 61.2618 53.8748 61.2787C53.7136 59.0994 52.3696 57.8672 52.3696 57.8672C52.3696 57.8672 51.8934 57.299 49.4041 56.2525C49.0911 55.1441 48.0432 54.2795 46.4462 53.9419C46.4462 53.5049 46.4068 53.0529 46.4574 52.6103C46.5061 52.1827 47.3665 51.9295 47.7039 52.2015C48.7593 53.0473 49.9177 53.6981 51.3086 53.6793C52.497 53.6643 53.5392 53.1767 54.4484 52.4228C55.022 51.9464 55.0763 51.9127 55.6462 52.3346C55.768 52.4247 55.873 52.6235 55.8786 52.7754C55.8786 52.7866 55.8786 52.7979 55.8786 52.8091Z" fill="#A93F97"/>
<path d="M58.056 41.254C58.026 42.7509 57.3287 44.0414 56.9519 45.4295C56.7964 45.9997 56.6202 46.5643 56.3559 47.1158C56.3559 45.981 56.4571 44.8349 56.3277 43.715C56.1965 42.5764 55.8385 41.4641 55.5629 40.2673C54.5863 40.7663 53.6622 41.2315 52.7475 41.7117C51.8308 42.1919 50.8823 42.5652 49.8701 42.7359C49.8532 42.689 49.8345 42.644 49.8176 42.5971C50.6686 42.0737 51.5215 41.5504 52.3726 41.027C52.3444 40.9689 52.3163 40.9107 52.2901 40.8526C50.8673 41.5579 49.5215 42.4676 47.9038 42.6496C47.8794 42.6139 47.855 42.5802 47.8288 42.5445C48.2393 42.2088 48.6517 41.8749 49.0622 41.5391C49.051 41.5072 49.0397 41.4735 49.0303 41.4416C48.9085 41.4416 48.7735 41.4078 48.6629 41.4472C47.497 41.8524 46.571 43.141 46.4735 44.3809C46.4135 45.1575 46.2636 45.9266 46.1361 46.8344C46.0311 46.615 45.9468 46.5005 45.9206 46.3767C45.6656 45.2006 45.3769 44.0283 45.1839 42.8409C45.0189 41.828 44.9908 40.8094 45.2757 39.7909C45.7162 38.2115 46.7491 37.1142 48.0912 36.3057C48.6479 35.9699 49.3303 35.8218 49.9732 35.6623C50.5543 35.5179 51.1635 35.3828 51.754 35.4035C52.9199 35.4447 54.0633 35.6098 55.1487 36.1425C56.1815 36.649 56.9801 37.3655 57.4955 38.3616C57.9585 39.2582 58.0785 40.2336 58.0579 41.2578L58.056 41.254Z" fill="#A93F97"/>
<path d="M55.3931 43.8591C54.4521 43.8591 53.5111 43.8704 52.5701 43.8554C52.1802 43.8498 51.8428 43.8554 51.899 44.3578C51.5354 44.4646 51.3142 44.4121 51.1661 44.0728C51.1174 43.9604 50.8793 43.8741 50.7275 43.8704C49.7115 43.8516 48.6937 43.8573 47.6777 43.8573C47.2615 43.8573 47.1022 44.0316 47.1472 44.4496C47.1809 44.7645 47.2128 45.0832 47.2934 45.3868C47.4527 45.9886 47.6364 46.6278 48.3544 46.7608C48.8624 46.8546 49.4116 46.8958 49.9158 46.8077C50.4332 46.7159 50.8737 46.3991 50.9805 45.7917C51.0218 45.5574 51.1192 45.3344 51.1998 45.0776C52.0115 45.0813 51.9871 45.0888 52.2046 45.8199C52.2852 46.0935 52.4464 46.4159 52.6713 46.5603C53.3461 46.9952 54.1016 46.9708 54.8589 46.7608C55.2375 46.6559 55.5131 46.4309 55.618 46.0598C55.7624 45.5556 55.8842 45.0401 55.9704 44.5227C56.0529 44.0222 55.888 43.8554 55.3931 43.8554V43.8591ZM49.2766 46.1554C48.3731 46.1891 47.9045 45.6905 47.8857 44.6427H50.5138C50.5644 45.5556 50.0883 46.1254 49.2766 46.1554ZM54.8701 45.9398C54.3752 46.2941 53.6761 46.2697 53.11 45.9886C52.5963 45.7336 52.7857 45.1488 52.617 44.652H55.1606C55.3219 45.1188 55.2094 45.698 54.8701 45.9398Z" fill="#A93F97"/>
<path d="M57.9716 53.5855C57.6567 54.3578 57.3211 55.1207 56.9819 55.9061C56.8788 55.8049 56.7588 55.7205 56.6276 55.6568C56.5695 55.5781 56.5414 55.49 56.532 55.3887V55.1694C56.532 55.1694 56.5357 55.1582 56.5357 55.1525C56.5788 54.6914 56.5639 54.2265 56.5526 53.7598L56.5639 52.83C56.5657 52.8019 56.5676 52.7738 56.5695 52.7419C57.0381 52.9519 57.4336 53.1168 57.816 53.308C57.8985 53.3493 57.9978 53.5199 57.9716 53.5836V53.5855Z" fill="#A93F97"/>
<path d="M53.8779 61.278C53.8667 61.2949 53.8554 61.3118 53.8442 61.3268C52.1421 63.7653 50.1308 65.9318 47.827 67.8057C46.5318 68.8599 45.1615 69.8334 43.7519 70.73C42.3535 71.6173 40.8933 72.422 39.4049 73.1517C37.8941 73.8926 36.327 74.5285 34.7599 75.1419C34.4638 75.2563 34.0158 75.1231 33.6877 74.9843C32.2312 74.369 30.7823 73.7332 29.3502 73.0635C26.9096 71.9212 24.6152 70.52 22.467 68.8974C20.1689 67.1623 18.077 65.1965 16.2981 62.9156C16.0581 62.6079 15.8144 62.3003 15.5595 61.9833C15.7095 59.6592 17.1585 58.2955 17.1585 58.2955C17.1585 58.2955 17.747 57.5827 21.0068 56.2791C22.9075 55.5175 25.3819 54.4371 27.1308 53.6718C27.2226 53.6492 27.3145 53.6136 27.3951 53.5742C27.5 53.5236 27.6031 53.4729 27.7062 53.4204C28.1524 53.1934 28.591 52.9496 29.0484 52.7432C29.1758 52.6851 29.4289 52.7357 29.5376 52.8333C30.3886 53.593 31.3184 54.227 32.3812 54.649C33.5359 55.1067 34.7187 55.3018 35.969 55.1067C37.6898 54.8385 39.1069 54.0038 40.3666 52.8595C40.464 52.7714 40.5446 52.717 40.6252 52.6926L40.6815 52.5951C40.719 52.5875 41.8811 53.094 43.4257 53.7599C43.8381 53.9381 44.2767 54.1257 44.7304 54.3208C45.0322 54.4502 45.3415 54.5815 45.6507 54.7128C46.6892 55.1517 47.7464 55.5907 48.6631 55.9546C48.6649 55.9546 48.6668 55.9546 48.6687 55.9564C48.9311 56.0596 49.1767 56.1609 49.4054 56.2566C51.8947 57.3032 52.3708 57.8716 52.3708 57.8716C52.3708 57.8716 53.7148 59.104 53.876 61.2836L53.8779 61.278Z" fill="#814B99"/>
<path d="M44.505 40.3988C44.252 41.3986 43.8883 42.3702 43.5753 43.3569C43.549 43.4413 43.549 43.5332 43.5321 43.6214C43.5003 43.7996 43.5246 44.0265 43.4234 44.1484C42.7617 44.9494 42.6624 45.9942 42.2125 46.8871C41.3671 48.5659 40.3605 50.1153 38.9171 51.3402C37.6837 52.3869 36.3416 53.2103 34.6302 53.0528C33.588 52.9571 32.6451 52.5444 31.8053 51.9348C29.4585 50.2297 27.9607 47.9188 27.0422 45.1951C26.9185 44.8275 26.6148 44.5199 26.493 44.1503C26.1106 42.9986 25.7676 41.8356 25.432 40.6708C25.3721 40.4588 25.3871 40.215 25.4152 39.9917C25.4883 39.4384 25.8163 39.1889 26.4255 39.232C26.0375 38.4817 26.5024 38.1441 27.0366 37.7502C28.2719 36.8386 29.6422 36.2815 31.1174 35.9101C32.6376 35.5274 34.1803 35.3173 35.738 35.4055C37.0876 35.4824 38.426 35.6662 39.7232 36.1333C40.9247 36.5666 42.0494 37.1181 43.0785 37.8665C43.4515 38.1385 43.8921 38.388 43.7084 38.9732C44.3569 39.1476 44.7374 39.4815 44.505 40.4025V40.3988Z" fill="#814B99"/>
<path d="M43.8334 28.5007C43.8371 28.0393 43.6722 27.771 43.316 27.5366C41.2128 26.1523 38.9728 25.1149 36.446 24.8054C34.4403 24.5597 32.4627 24.6666 30.5414 25.3457C29.0942 25.8578 27.8008 26.6606 26.5599 27.5478C26.2619 27.7617 26.0876 28.043 26.0894 28.4688C26.1082 31.0949 26.0932 33.721 26.0894 36.3471C26.0894 36.5684 26.0894 36.7916 26.0894 37.1893C28.8187 35.186 31.801 34.4882 34.9783 34.4526C38.1705 34.415 41.1266 35.1822 43.8278 37.1668C43.8278 36.8123 43.8278 36.6172 43.8278 36.424C43.8259 33.7829 43.809 31.1418 43.8334 28.5007ZM37.402 30.4647C37.0046 30.4647 36.6166 30.4647 36.2286 30.4647C35.8149 30.4647 35.6081 30.6772 35.6081 31.1024C35.6081 31.4213 35.61 31.7402 35.6175 32.0591C35.6231 32.3029 35.5313 32.4192 35.2688 32.4061C34.0579 32.3404 34.2379 32.6237 34.221 31.38C34.206 30.3052 34.3466 30.489 33.3475 30.4759C32.4383 30.4647 32.3146 30.3427 32.4721 29.4367C32.4927 29.3223 32.667 29.1629 32.7832 29.1497C33.1282 29.1085 33.4843 29.0972 33.8273 29.1404C34.1535 29.1797 34.2322 29.0541 34.2266 28.769C34.2172 28.2719 34.2247 27.7729 34.2247 27.2196C34.6128 27.2196 34.9633 27.1839 35.2988 27.2383C35.4225 27.259 35.5837 27.4859 35.6025 27.6322C35.6437 27.9905 35.6344 28.3619 35.6025 28.7221C35.5762 29.0241 35.67 29.1347 35.9736 29.1235C36.4404 29.1066 36.9071 29.1197 37.4076 29.1197V30.4647H37.402Z" fill="#814B99"/>
<path d="M26.8365 53.6942C25.6837 53.576 24.9189 52.8932 24.5009 51.869C24.2778 51.3251 24.2085 50.7061 24.1466 50.1115C24.0473 49.1623 23.9292 48.2019 23.9667 47.2528C24.0473 45.1613 24.0904 43.0867 23.6724 41.0158C23.4362 39.851 23.0257 38.7686 22.3209 37.8439C20.5476 35.5104 18.1726 35.0696 15.5577 35.7543C13.94 36.1782 12.8003 37.2718 11.9999 38.7217C11.3795 39.8472 11.2014 41.0833 11.1939 42.3439C11.1901 43.0979 11.2632 43.8539 11.3063 44.6098C11.3682 45.6996 11.4751 46.7895 11.4844 47.8793C11.4919 48.9053 11.3888 49.9332 11.3476 50.9593C11.3232 51.5558 11.0795 52.0604 10.7646 52.5481C10.7065 52.6362 10.7028 52.8032 10.744 52.9064C11.1039 53.8142 11.4694 54.7221 11.8631 55.6168C11.9193 55.7444 12.1836 55.9695 12.2867 55.9357C12.4179 55.8945 12.5548 55.6056 12.5641 55.4555C12.5979 54.8647 12.5885 54.2719 12.5735 53.6792C12.566 53.4016 12.6522 53.2496 12.9971 53.2365C12.9971 53.9362 13.0196 54.6302 12.9878 55.3205C12.9709 55.6787 13.1377 55.8307 13.4339 55.8851C14.8548 56.1402 15.5258 57.3744 15.5577 58.65C15.5727 59.2427 15.539 59.8355 15.5671 60.4263C15.5858 60.8259 15.479 61.1072 14.9785 61.2554C15.179 61.5068 15.3702 61.7469 15.5558 61.9795C15.7058 59.6554 17.1548 58.2917 17.1548 58.2917C17.1548 58.2917 17.7434 57.5789 21.0031 56.2752C21.4605 56.0914 21.9497 55.8907 22.4558 55.6787V53.0808L22.8945 53.2552L22.932 55.4799C24.3922 54.8628 25.9311 54.1913 27.1289 53.6679C27.0296 53.6923 26.9302 53.7054 26.8365 53.6961V53.6942ZM14.0131 42.2595C14.0675 42.1657 14.2699 42.1188 14.4068 42.115C15.0591 42.1 15.7133 42.0738 16.3619 42.115C18.0939 42.2257 19.6328 41.738 21.0106 40.7007C21.0575 40.6651 21.1081 40.6313 21.2599 40.5244C21.7154 41.4379 22.1578 42.3251 22.6208 43.2555C21.7323 43.2199 20.9862 43.1842 20.2383 43.1636C19.5672 43.1448 18.9243 43.2386 18.3132 43.5631C18.122 43.6644 17.794 43.6775 17.6065 43.58C16.913 43.2161 16.1688 43.2292 15.434 43.2236C14.821 43.2199 14.2081 43.3287 13.4658 43.4018C13.6532 42.9966 13.8088 42.6121 14.0112 42.2557L14.0131 42.2595ZM21.5823 45.1782C21.4042 45.7184 20.8306 45.6752 20.4351 45.7334C19.7172 45.8384 18.8118 45.4051 18.7218 44.3941C18.6881 44.0058 18.8456 43.8276 19.1811 43.7601C19.5897 43.6794 20.0134 43.6719 20.4239 43.6044C20.4989 43.6044 20.5757 43.6119 20.6507 43.6044C21.7866 43.475 21.9066 44.1915 21.5823 45.18V45.1782ZM17.1304 44.7974C16.8099 45.4877 16.3187 45.8628 15.5933 45.769C14.478 45.8647 14.1031 45.12 14.2381 44.2815C14.268 44.094 14.4799 43.7995 14.6205 43.792C15.3234 43.7544 16.0376 43.7394 16.733 43.8257C17.2129 43.8839 17.3403 44.3472 17.1304 44.7974ZM20.6788 49.8432C20.2795 50.2484 20.2552 50.6292 20.4126 51.1056C20.5401 51.4901 20.6638 51.8766 20.7594 52.2705C20.7913 52.398 20.7669 52.565 20.7088 52.685C20.0509 54.0393 18.3357 54.5402 17.0892 54.2888C16.0657 54.0825 15.2672 53.5929 14.6992 52.7282C14.6242 52.6137 14.6036 52.4205 14.6392 52.2836C14.7892 51.719 14.9935 51.1694 15.1247 50.601C15.1641 50.4303 15.0835 50.1715 14.9654 50.0327C14.1275 49.0423 13.6064 47.8905 13.3139 46.6507C13.1359 45.8947 13.0515 45.0956 13.342 44.2459C13.4564 44.3416 13.5839 44.3978 13.627 44.4916C13.7019 44.6529 13.7376 44.8349 13.7676 45.0131C13.8613 45.5815 14.135 46.0204 14.7235 46.1367C15.5671 46.3036 16.435 46.3843 17.1042 45.694C17.3535 45.437 17.4547 45.0431 17.644 44.7223C17.7321 44.5723 17.8652 44.4485 17.9795 44.3134C18.0826 44.4279 18.2457 44.5254 18.2795 44.6567C18.6244 45.9716 19.3292 46.1592 20.6638 46.1273C20.9019 46.1217 21.1512 46.0804 21.3724 45.996C21.8672 45.8084 22.1278 45.4464 22.1559 44.8949C22.1709 44.5835 22.1822 44.2215 22.6527 44.0546C22.6995 44.2928 22.7764 44.5029 22.7782 44.7148C22.8026 46.7201 22.0659 48.4289 20.6751 49.8432H20.6788Z" fill="#33346A"/>
<path d="M15.0481 58.5673C15.0144 59.1712 15.0481 59.7788 15.0369 60.3846C15.035 60.4877 14.96 60.6715 14.9132 60.6734C14.7988 60.679 14.6245 60.6303 14.5739 60.5459C13.8147 59.2631 13.0687 57.9746 12.3301 56.6806C12.2776 56.5887 12.197 56.4443 12.1839 56.3355C13.7997 55.9285 15.1269 57.2095 15.05 58.5654L15.0481 58.5673Z" fill="#33346A"/>
</svg>
