<svg width="24" height="24" viewBox="0 0 24 24" fill="none" xmlns="http://www.w3.org/2000/svg">
<path d="M22.6762 7.14406C22.4759 7.02916 22.2294 7.03015 22.0301 7.14677L15.6523 10.8765V7.70312C15.6523 7.47221 15.5288 7.25896 15.3285 7.14406C15.1282 7.02916 14.8818 7.03015 14.6825 7.14677L8.30469 10.8765V1.64453C8.30469 1.28858 8.01611 1 7.66016 1H1.64453C1.28858 1 1 1.28858 1 1.64453V22.3555C1 22.7114 1.28858 23 1.64453 23H22.3555C22.7114 23 23 22.7114 23 22.3555V7.70312C23 7.47221 22.8765 7.25896 22.6762 7.14406ZM2.28906 2.28906H7.01562V3.14844H2.28906V2.28906ZM21.7109 21.7109H2.28906V4.4375H7.01562V12C7.01562 12.4974 7.55677 12.8071 7.98552 12.5564L14.3633 8.82667V12C14.3633 12.4974 14.9044 12.8071 15.3332 12.5564L21.7109 8.82667V21.7109Z" fill="#002A3A" stroke="#002A3A" stroke-width="0.3"/>
<path d="M10.2383 15.2441H7.66016C7.3042 15.2441 7.01562 15.5327 7.01562 15.8887V18.4668C7.01562 18.8228 7.3042 19.1113 7.66016 19.1113H10.2383C10.5942 19.1113 10.8828 18.8228 10.8828 18.4668V15.8887C10.8828 15.5327 10.5942 15.2441 10.2383 15.2441ZM9.59375 17.8223H8.30469V16.5332H9.59375V17.8223Z" fill="#002A3A" stroke="#002A3A" stroke-width="0.3"/>
<path d="M17.5859 15.2441H15.0078C14.6519 15.2441 14.3633 15.5327 14.3633 15.8887V18.4668C14.3633 18.8228 14.6519 19.1113 15.0078 19.1113H17.5859C17.9419 19.1113 18.2305 18.8228 18.2305 18.4668V15.8887C18.2305 15.5327 17.9419 15.2441 17.5859 15.2441ZM16.9414 17.8223H15.6523V16.5332H16.9414V17.8223Z" fill="#002A3A" stroke="#002A3A" stroke-width="0.3"/>
</svg>
