<svg width="24" height="24" viewBox="0 0 24 24" fill="none" xmlns="http://www.w3.org/2000/svg">
<g clip-path="url(#clip0_210_100)">
<path d="M18.7895 7.3916C19.0268 7.3916 19.2192 7.19923 19.2192 6.96191V2.28906C19.2192 1.57827 18.6409 1 17.9301 1H2.28949C1.5787 1 1.00043 1.57827 1.00043 2.28906V21.7109C1.00043 22.4217 1.5787 23 2.28949 23H17.9301C18.6409 23 19.2192 22.4217 19.2192 21.7109V18.5453C19.2192 18.308 19.0268 18.1157 18.7895 18.1157C18.5522 18.1157 18.3598 18.308 18.3598 18.5453V21.7109C18.3598 21.9479 18.167 22.1406 17.9301 22.1406H2.28949C2.05256 22.1406 1.8598 21.9479 1.8598 21.7109V2.28906C1.8598 2.05213 2.05256 1.85938 2.28949 1.85938H17.9301C18.167 1.85938 18.3598 2.05213 18.3598 2.28906V6.96191C18.3598 7.19923 18.5522 7.3916 18.7895 7.3916Z" fill="black"/>
<path d="M10.1097 3.32031C7.92992 3.32031 6.15656 5.09368 6.15656 7.27344C6.15656 8.40425 6.63394 9.42553 7.39758 10.1467C7.41189 10.162 7.4271 10.1765 7.44373 10.1897C8.14717 10.8333 9.08333 11.2265 10.1096 11.2265C11.1359 11.2265 12.0721 10.8333 12.7755 10.1897C12.7922 10.1765 12.8074 10.162 12.8217 10.1467C13.5854 9.42553 14.0628 8.40425 14.0628 7.27344C14.0628 5.09368 12.2894 3.32031 10.1097 3.32031ZM10.1097 10.3672C9.40804 10.3672 8.7605 10.1321 8.24093 9.73692C8.61858 9.06725 9.32331 8.64844 10.1097 8.64844C10.8961 8.64844 11.6008 9.06725 11.9784 9.73692C11.4588 10.1321 10.8113 10.3672 10.1097 10.3672ZM9.42218 7.10156V6.82227C9.42218 6.44319 9.73061 6.13477 10.1097 6.13477C10.4888 6.13477 10.7972 6.44319 10.7972 6.82227V7.10156C10.7972 7.48063 10.4888 7.78906 10.1097 7.78906C9.73061 7.78906 9.42218 7.48063 9.42218 7.10156ZM12.5993 9.10747C12.2824 8.63748 11.8432 8.27194 11.3333 8.04627C11.5357 7.78472 11.6566 7.45709 11.6566 7.10156V6.82227C11.6566 5.96929 10.9627 5.27539 10.1097 5.27539C9.25671 5.27539 8.5628 5.96929 8.5628 6.82227V7.10156C8.5628 7.45709 8.68368 7.78472 8.88606 8.04627C8.37615 8.27194 7.93697 8.63748 7.62007 9.10747C7.2407 8.59387 7.01593 7.95952 7.01593 7.27344C7.01593 5.56753 8.40378 4.17969 10.1097 4.17969C11.8156 4.17969 13.2034 5.56753 13.2034 7.27344C13.2034 7.95952 12.9787 8.59387 12.5993 9.10747Z" fill="black"/>
<path d="M12.43 19.8203H10.1097C9.87241 19.8203 9.67999 20.0127 9.67999 20.25C9.67999 20.4873 9.87241 20.6797 10.1097 20.6797H12.43C12.6673 20.6797 12.8597 20.4873 12.8597 20.25C12.8597 20.0127 12.6673 19.8203 12.43 19.8203Z" fill="black"/>
<path d="M12.43 17.4141H6.32843C6.09116 17.4141 5.89874 17.6064 5.89874 17.8438C5.89874 18.0811 6.09116 18.2734 6.32843 18.2734H12.43C12.6673 18.2734 12.8597 18.0811 12.8597 17.8438C12.8597 17.6064 12.6673 17.4141 12.43 17.4141Z" fill="black"/>
<path d="M12.43 15.0078H6.32843C6.09116 15.0078 5.89874 15.2002 5.89874 15.4375C5.89874 15.6748 6.09116 15.8672 6.32843 15.8672H12.43C12.6673 15.8672 12.8597 15.6748 12.8597 15.4375C12.8597 15.2002 12.6673 15.0078 12.43 15.0078Z" fill="black"/>
<path d="M4.79697 12.7275C4.71709 12.6475 4.60624 12.6016 4.4928 12.6016C4.37975 12.6016 4.26889 12.6475 4.18901 12.7275C4.10909 12.8074 4.06311 12.9182 4.06311 13.0312C4.06311 13.1443 4.10904 13.2551 4.18901 13.335C4.26936 13.415 4.37975 13.4609 4.4928 13.4609C4.60624 13.4609 4.71666 13.415 4.79697 13.335C4.8769 13.2551 4.92291 13.1443 4.92291 13.0312C4.92291 12.9182 4.87694 12.8074 4.79697 12.7275Z" fill="black"/>
<path d="M4.79697 15.1337C4.71666 15.0538 4.60624 15.0078 4.4928 15.0078C4.37975 15.0078 4.26936 15.0538 4.18901 15.1337C4.10909 15.2136 4.06311 15.3245 4.06311 15.4375C4.06311 15.5505 4.10904 15.6614 4.18901 15.7413C4.26936 15.8212 4.37975 15.8672 4.4928 15.8672C4.60624 15.8672 4.71666 15.8212 4.79697 15.7413C4.8769 15.6614 4.92291 15.5505 4.92291 15.4375C4.92291 15.3245 4.87694 15.2136 4.79697 15.1337Z" fill="black"/>
<path d="M4.79697 17.54C4.71666 17.46 4.60624 17.4141 4.4928 17.4141C4.37975 17.4141 4.26936 17.46 4.18901 17.54C4.10909 17.6199 4.06311 17.7307 4.06311 17.8438C4.06311 17.9568 4.10904 18.0676 4.18901 18.1475C4.26889 18.2275 4.37975 18.2734 4.4928 18.2734C4.60624 18.2734 4.71709 18.2275 4.79697 18.1475C4.8769 18.0676 4.92291 17.9568 4.92291 17.8438C4.92291 17.7307 4.87694 17.6199 4.79697 17.54Z" fill="black"/>
<path d="M12.43 12.6016H6.32843C6.09116 12.6016 5.89874 12.7939 5.89874 13.0312C5.89874 13.2686 6.09116 13.4609 6.32843 13.4609H12.43C12.6673 13.4609 12.8597 13.2686 12.8597 13.0312C12.8597 12.7939 12.6673 12.6016 12.43 12.6016Z" fill="black"/>
<path d="M22.0978 6.59997C21.6803 6.35896 21.194 6.29494 20.7283 6.41968C20.2627 6.54446 19.8735 6.84309 19.6325 7.26053L14.2252 16.6261C14.1956 16.6775 14.1769 16.7344 14.1703 16.7933L13.7897 20.2026C13.7708 20.3723 13.8541 20.5371 14.0019 20.6224C14.0686 20.6609 14.1427 20.68 14.2167 20.68C14.3066 20.68 14.3961 20.6519 14.4715 20.5963L17.2337 18.562C17.2815 18.5269 17.3214 18.4822 17.351 18.4309L22.7583 9.06526C23.2558 8.20348 22.9595 7.09755 22.0978 6.59997ZM14.7527 19.3219L14.9515 17.5416L16.1951 18.2596L14.7527 19.3219ZM16.8217 17.629L15.1843 16.6837L19.5235 9.16804L21.1609 10.1134L16.8217 17.629ZM22.014 8.63553L21.5905 9.36914L19.9532 8.42382L20.3767 7.69022C20.503 7.47155 20.7068 7.31514 20.9507 7.24979C21.1947 7.18439 21.4494 7.21799 21.668 7.34423C21.8867 7.47048 22.0431 7.67432 22.1085 7.91821C22.1738 8.1621 22.1403 8.41686 22.014 8.63553Z" fill="black"/>
</g>
<defs>
<clipPath id="clip0_210_100">
<rect width="22" height="22" fill="white" transform="translate(1 1)"/>
</clipPath>
</defs>
</svg>
