<svg width="24" height="24" viewBox="0 0 24 24" fill="none" xmlns="http://www.w3.org/2000/svg">
<g clip-path="url(#clip0_205_135)">
<path d="M2.72082 18.0428H13.3664V18.3956C13.3664 18.628 13.554 18.8156 13.7864 18.8156H14.4528C14.4696 18.8576 14.4864 18.8996 14.506 18.9444L14.0328 19.4148C13.9544 19.4932 13.9096 19.5996 13.9096 19.7116C13.9096 19.8236 13.9544 19.93 14.0328 20.0084L15.3712 21.344C15.5364 21.5092 15.8024 21.5064 15.9648 21.344L16.4352 20.8736C16.4772 20.8904 16.5164 20.91 16.5584 20.924V21.596C16.5584 21.8284 16.746 22.016 16.9784 22.016H18.8684C19.1008 22.016 19.2884 21.8284 19.2884 21.596V20.9268C19.3304 20.91 19.3752 20.8932 19.4172 20.8736L19.8904 21.3468C19.9688 21.4252 20.0752 21.47 20.1872 21.47C20.2992 21.47 20.4056 21.4252 20.484 21.3468L21.8168 20.0112C21.9792 19.8488 21.9792 19.5828 21.8168 19.4176L21.3464 18.9444C21.366 18.9024 21.3828 18.8604 21.3996 18.8184H22.0688C22.3012 18.8184 22.4888 18.6308 22.4888 18.3984V16.5084C22.4888 16.276 22.3012 16.0884 22.0688 16.0884H21.3996C21.3828 16.0464 21.366 16.0016 21.3464 15.9596L21.8168 15.4892C21.9792 15.3268 21.982 15.0608 21.8168 14.8956L20.484 13.5572C20.4056 13.4788 20.2992 13.434 20.1872 13.434C20.0752 13.434 19.9688 13.4788 19.8904 13.5572L19.42 14.0304C19.378 14.0108 19.3332 13.994 19.2912 13.9772V13.3052C19.2912 13.0896 19.1288 12.916 18.9216 12.8908V5.42879C18.9216 5.19639 18.734 5.00879 18.5016 5.00879H1.92562C1.69322 5.00879 1.50562 5.19639 1.50562 5.42879V16.8304C1.50562 17.4996 2.05162 18.0428 2.72082 18.0428ZM18.0844 5.84879V7.66599C18.0844 8.25679 17.6028 8.73559 17.0148 8.73559H3.41802C2.82722 8.73559 2.34842 8.25399 2.34842 7.66599V5.84879H18.0844ZM2.72082 17.2028C2.51362 17.2028 2.34282 17.0348 2.34282 16.8276V9.24799C2.64802 9.45519 3.01762 9.57839 3.41522 9.57839H17.012C17.4096 9.57839 17.7792 9.45519 18.0844 9.24799V12.8852H16.984C16.7516 12.8852 16.564 13.0728 16.564 13.3052V13.9772C16.522 13.994 16.48 14.0108 16.438 14.0304L15.9704 13.5572C15.892 13.4788 15.7856 13.434 15.6736 13.434C15.5616 13.434 15.4552 13.4788 15.3768 13.5572L14.0384 14.8956C13.96 14.974 13.9152 15.0832 13.9152 15.1924C13.9152 15.3044 13.96 15.4108 14.0384 15.4892L14.5116 15.9568C14.492 15.9988 14.4752 16.0436 14.4584 16.0856H13.792C13.5596 16.0856 13.372 16.2732 13.372 16.5056V17.2028H2.72082ZM19.3024 14.9068C19.4676 14.9992 19.672 14.9712 19.8036 14.8368L20.1928 14.4476L20.932 15.1896L20.5484 15.5732C20.4168 15.7048 20.3888 15.9036 20.4756 16.0688C20.5736 16.2508 20.6492 16.4356 20.6996 16.6204C20.75 16.8024 20.9152 16.9256 21.1028 16.9256H21.6544V17.9756H21.1028C20.9152 17.9756 20.75 18.1016 20.6996 18.2808C20.6492 18.4628 20.5736 18.642 20.4756 18.8296C20.3888 18.992 20.4168 19.1936 20.5484 19.3252L20.9348 19.7116L20.1928 20.4536L19.8036 20.0644C19.672 19.93 19.4648 19.902 19.3024 19.9944C19.126 20.0924 18.9496 20.168 18.762 20.2184C18.58 20.2688 18.4568 20.434 18.4568 20.6216V21.1732H17.404V20.6244C17.404 20.4368 17.2808 20.2744 17.1016 20.2212C16.9084 20.1652 16.7236 20.0868 16.564 19.9972C16.3988 19.902 16.1916 19.93 16.06 20.0644L15.6708 20.4536L14.9288 19.7116L15.318 19.3252C15.3964 19.2468 15.4412 19.1348 15.4412 19.0228C15.4412 18.95 15.4216 18.8772 15.3852 18.8156C15.29 18.6504 15.2116 18.4656 15.1584 18.2808C15.108 18.1016 14.9428 17.9756 14.7552 17.9756H14.2092V17.6228V16.9256H14.7552C14.9428 16.9256 15.108 16.8024 15.1584 16.6204C15.2116 16.4328 15.29 16.248 15.3852 16.0828C15.4216 16.0184 15.4412 15.9428 15.4412 15.87C15.4412 15.758 15.3964 15.6516 15.318 15.5704L14.9316 15.1868L15.6736 14.4448L16.0572 14.8312C16.1888 14.9628 16.4072 14.9936 16.5696 14.9012C16.7348 14.806 16.9196 14.7304 17.1016 14.6772C17.2836 14.6268 17.4096 14.4616 17.4096 14.274V13.7196H18.4596V14.274C18.4596 14.4644 18.5856 14.6296 18.7704 14.68C18.944 14.7332 19.1176 14.806 19.3024 14.9068Z" fill="black"/>
<path d="M15.8612 17.449C15.8612 18.5914 16.7908 19.521 17.9332 19.521C19.0756 19.521 20.0052 18.5914 20.0052 17.449C20.0052 16.3066 19.0756 15.377 17.9332 15.377C16.7908 15.3798 15.8612 16.3094 15.8612 17.449ZM19.1624 17.449C19.1624 18.1266 18.6108 18.681 17.9304 18.681C17.2528 18.681 16.6984 18.1294 16.6984 17.449C16.6984 16.7714 17.25 16.217 17.9304 16.217C18.6108 16.2198 19.1624 16.7714 19.1624 17.449Z" fill="black"/>
<path d="M12.9128 4.66958C13.1452 4.66958 13.3328 4.48198 13.3328 4.24958V3.48518C13.3328 2.65918 12.5628 1.98438 11.6164 1.98438H8.56442C7.61802 1.98438 6.84802 2.65638 6.84802 3.48518V4.24958C6.84802 4.48198 7.03562 4.66958 7.26802 4.66958C7.50042 4.66958 7.68802 4.48198 7.68802 4.24958V3.48518C7.68802 3.12678 8.09122 2.82438 8.56442 2.82438H11.6136C12.0896 2.82438 12.49 3.12678 12.49 3.48518V4.24958C12.4928 4.48198 12.6804 4.66958 12.9128 4.66958Z" fill="black"/>
</g>
<defs>
<clipPath id="clip0_205_135">
<rect width="24" height="24" fill="white"/>
</clipPath>
</defs>
</svg>
