<svg width="24" height="24" viewBox="0 0 24 24" fill="none" xmlns="http://www.w3.org/2000/svg">
<g clip-path="url(#clip0_217_120)">
<path d="M4.66665 20.7998H3.93332C3.83607 20.7998 3.74281 20.8384 3.67404 20.9072C3.60528 20.976 3.56665 21.0692 3.56665 21.1665C3.56665 21.2637 3.60528 21.357 3.67404 21.4257C3.74281 21.4945 3.83607 21.5331 3.93332 21.5331H4.66665C4.7639 21.5331 4.85716 21.4945 4.92592 21.4257C4.99469 21.357 5.03332 21.2637 5.03332 21.1665C5.03332 21.0692 4.99469 20.976 4.92592 20.9072C4.85716 20.8384 4.7639 20.7998 4.66665 20.7998Z" fill="black"/>
<path d="M17.8667 20.7998H17.1334C17.0361 20.7998 16.9429 20.8384 16.8741 20.9072C16.8054 20.976 16.7667 21.0692 16.7667 21.1665C16.7667 21.2637 16.8054 21.357 16.8741 21.4257C16.9429 21.4945 17.0361 21.5331 17.1334 21.5331H17.8667C17.964 21.5331 18.0572 21.4945 18.126 21.4257C18.1948 21.357 18.2334 21.2637 18.2334 21.1665C18.2334 21.0692 18.1948 20.976 18.126 20.9072C18.0572 20.8384 17.964 20.7998 17.8667 20.7998Z" fill="black"/>
<path d="M15.6667 20.7998H6.13339C6.03614 20.7998 5.94288 20.8384 5.87412 20.9072C5.80535 20.976 5.76672 21.0692 5.76672 21.1665C5.76672 21.2637 5.80535 21.357 5.87412 21.4257C5.94288 21.4945 6.03614 21.5331 6.13339 21.5331H15.6667C15.764 21.5331 15.8572 21.4945 15.926 21.4257C15.9948 21.357 16.0334 21.2637 16.0334 21.1665C16.0334 21.0692 15.9948 20.976 15.926 20.9072C15.8572 20.8384 15.764 20.7998 15.6667 20.7998Z" fill="black"/>
<path d="M17.8667 1C17.1084 0.999915 16.3595 1.1681 15.6741 1.49242C14.9887 1.81674 14.3838 2.28912 13.903 2.8755C13.7591 2.84872 13.6131 2.83461 13.4667 2.83334H8.33333C7.65285 2.83411 7.00046 3.10478 6.51928 3.58595C6.03811 4.06713 5.76744 4.71952 5.76667 5.4V6.2008C5.55293 6.27637 5.36777 6.41612 5.2365 6.60095C5.10523 6.78577 5.03427 7.00664 5.03333 7.23334V7.6H3.93333C3.15563 7.60088 2.41004 7.9102 1.86012 8.46012C1.3102 9.01004 1.00087 9.75564 1 10.5333L1 20.0667C1.00087 20.8444 1.3102 21.59 1.86012 22.1399C2.41004 22.6898 3.15563 22.9991 3.93333 23H17.8667C18.6444 22.9991 19.39 22.6898 19.9399 22.1399C20.4898 21.59 20.7991 20.8444 20.8 20.0667V10.5333C20.8 10.4662 20.7967 10.4054 20.7927 10.3452C21.6913 9.72247 22.3675 8.82884 22.7225 7.79472C23.0775 6.7606 23.0928 5.64009 22.7661 4.59668C22.4394 3.55327 21.7878 2.64155 20.9064 1.99453C20.0251 1.34751 18.96 0.999059 17.8667 1ZM7.96667 6.2008V5.4C7.96667 5.30276 8.0053 5.20949 8.07406 5.14073C8.14282 5.07197 8.23609 5.03334 8.33333 5.03334H12.8551C12.6653 5.88279 12.6979 6.76682 12.9497 7.6H8.7V7.23334C8.69906 7.00664 8.6281 6.78577 8.49683 6.60095C8.36557 6.41612 8.1804 6.27637 7.96667 6.2008ZM8.33333 3.56667H13.4278C13.2917 3.8014 13.1747 4.04663 13.0776 4.3H8.33333C8.0416 4.3 7.76181 4.41589 7.55552 4.62218C7.34923 4.82847 7.23333 5.10826 7.23333 5.4V6.13334H6.5V5.4C6.50058 4.91395 6.69392 4.44797 7.03761 4.10428C7.3813 3.76059 7.84728 3.56725 8.33333 3.56667ZM5.76667 7.23334C5.76667 7.13609 5.8053 7.04283 5.87406 6.97406C5.94282 6.9053 6.03609 6.86667 6.13333 6.86667H7.6C7.69725 6.86667 7.79051 6.9053 7.85927 6.97406C7.92804 7.04283 7.96667 7.13609 7.96667 7.23334V7.6H5.76667V7.23334ZM17.8667 22.2667H3.93333C3.35004 22.2661 2.7908 22.0341 2.37834 21.6217C1.96589 21.2092 1.73392 20.65 1.73333 20.0667V13.635C2.13532 13.9985 2.65799 14.1999 3.2 14.2H5.4V15.3C5.4 15.5917 5.51589 15.8715 5.72218 16.0778C5.92847 16.2841 6.20826 16.4 6.5 16.4H7.23333C7.52507 16.4 7.80486 16.2841 8.01115 16.0778C8.21744 15.8715 8.33333 15.5917 8.33333 15.3V14.2H13.4667V15.3C13.4667 15.5917 13.5826 15.8715 13.7889 16.0778C13.9951 16.2841 14.2749 16.4 14.5667 16.4H15.3C15.5917 16.4 15.8715 16.2841 16.0778 16.0778C16.2841 15.8715 16.4 15.5917 16.4 15.3V14.2H18.6C19.142 14.1999 19.6647 13.9985 20.0667 13.635V20.0667C20.0661 20.65 19.8341 21.2092 19.4217 21.6217C19.0092 22.0341 18.45 22.2661 17.8667 22.2667ZM7.6 15.3C7.6 15.3972 7.56137 15.4905 7.49261 15.5593C7.42384 15.628 7.33058 15.6667 7.23333 15.6667H6.5C6.40275 15.6667 6.30949 15.628 6.24073 15.5593C6.17196 15.4905 6.13333 15.3972 6.13333 15.3V13.1C6.13333 13.0028 6.17196 12.9095 6.24073 12.8407C6.30949 12.772 6.40275 12.7333 6.5 12.7333H7.23333C7.33058 12.7333 7.42384 12.772 7.49261 12.8407C7.56137 12.9095 7.6 13.0028 7.6 13.1V15.3ZM15.6667 15.3C15.6667 15.3972 15.628 15.4905 15.5593 15.5593C15.4905 15.628 15.3972 15.6667 15.3 15.6667H14.5667C14.4694 15.6667 14.3762 15.628 14.3074 15.5593C14.2386 15.4905 14.2 15.3972 14.2 15.3V13.1C14.2 13.0028 14.2386 12.9095 14.3074 12.8407C14.3762 12.772 14.4694 12.7333 14.5667 12.7333H15.3C15.3972 12.7333 15.4905 12.772 15.5593 12.8407C15.628 12.9095 15.6667 13.0028 15.6667 13.1V15.3ZM20.0667 11.6333V12C20.0667 12.389 19.9121 12.762 19.6371 13.0371C19.362 13.3121 18.989 13.4667 18.6 13.4667H16.4V13.1C16.4 12.8083 16.2841 12.5285 16.0778 12.3222C15.8715 12.1159 15.5917 12 15.3 12H14.5667C14.2749 12 13.9951 12.1159 13.7889 12.3222C13.5826 12.5285 13.4667 12.8083 13.4667 13.1V13.4667H8.33333V13.1C8.33333 12.8083 8.21744 12.5285 8.01115 12.3222C7.80486 12.1159 7.52507 12 7.23333 12H6.5C6.20826 12 5.92847 12.1159 5.72218 12.3222C5.51589 12.5285 5.4 12.8083 5.4 13.1V13.4667H3.2C2.81102 13.4667 2.43796 13.3121 2.16291 13.0371C1.88786 12.762 1.73333 12.389 1.73333 12V10.5333C1.73392 9.95004 1.96589 9.3908 2.37834 8.97834C2.7908 8.56589 3.35004 8.33392 3.93333 8.33334H13.2357C13.5226 8.9432 13.9274 9.49024 14.4267 9.94295C14.9261 10.3956 15.5101 10.7451 16.145 10.971C16.78 11.197 17.4534 11.2951 18.1265 11.2596C18.7996 11.2241 19.459 11.0558 20.0667 10.7643V11.6333ZM17.8667 10.5333C16.9964 10.5333 16.1457 10.2753 15.4222 9.7918C14.6986 9.30832 14.1346 8.62114 13.8016 7.81714C13.4686 7.01315 13.3814 6.12845 13.5512 5.27494C13.721 4.42142 14.14 3.63742 14.7554 3.02207C15.3707 2.40671 16.1548 1.98766 17.0083 1.81788C17.8618 1.64811 18.7465 1.73524 19.5505 2.06827C20.3545 2.40129 21.0417 2.96525 21.5251 3.68883C22.0086 4.4124 22.2667 5.2631 22.2667 6.13334C22.2654 7.2999 21.8014 8.41833 20.9765 9.24321C20.1517 10.0681 19.0332 10.5321 17.8667 10.5333Z" fill="black"/>
<path d="M17.8667 7.59961C17.6492 7.59961 17.4365 7.66412 17.2556 7.78499C17.0747 7.90586 16.9337 8.07766 16.8505 8.27866C16.7672 8.47966 16.7454 8.70083 16.7879 8.91421C16.8303 9.12759 16.9351 9.32359 17.0889 9.47743C17.2427 9.63126 17.4387 9.73603 17.6521 9.77847C17.8655 9.82092 18.0867 9.79913 18.2877 9.71588C18.4887 9.63262 18.6605 9.49163 18.7813 9.31074C18.9022 9.12984 18.9667 8.91717 18.9667 8.69961C18.9667 8.40787 18.8508 8.12808 18.6445 7.92179C18.4383 7.7155 18.1585 7.59961 17.8667 7.59961ZM17.8667 9.06628C17.7942 9.06628 17.7233 9.04477 17.663 9.00448C17.6027 8.96419 17.5557 8.90693 17.528 8.83993C17.5002 8.77293 17.493 8.6992 17.5071 8.62808C17.5213 8.55695 17.5562 8.49162 17.6075 8.44034C17.6587 8.38906 17.7241 8.35414 17.7952 8.33999C17.8663 8.32584 17.94 8.3331 18.007 8.36085C18.074 8.38861 18.1313 8.4356 18.1716 8.4959C18.2119 8.5562 18.2334 8.62709 18.2334 8.69961C18.2334 8.79686 18.1948 8.89012 18.126 8.95888C18.0572 9.02765 17.964 9.06628 17.8667 9.06628Z" fill="black"/>
<path d="M17.8667 2.4668C17.4777 2.4668 17.1047 2.62132 16.8296 2.89637C16.5545 3.17143 16.4 3.54448 16.4 3.93346C16.4 4.35183 16.8228 6.8668 17.8667 6.8668C18.9106 6.8668 19.3334 4.35183 19.3334 3.93346C19.3334 3.54448 19.1788 3.17143 18.9038 2.89637C18.6287 2.62132 18.2557 2.4668 17.8667 2.4668ZM17.8667 6.12576C17.577 5.94756 17.1334 4.53773 17.1334 3.93346C17.1334 3.73897 17.2106 3.55245 17.3481 3.41492C17.4857 3.27739 17.6722 3.20013 17.8667 3.20013C18.0612 3.20013 18.2477 3.27739 18.3852 3.41492C18.5228 3.55245 18.6 3.73897 18.6 3.93346C18.6 4.53773 18.1564 5.94756 17.8667 6.12576Z" fill="black"/>
</g>
<defs>
<clipPath id="clip0_217_120">
<rect width="22" height="22" fill="white" transform="translate(1 1)"/>
</clipPath>
</defs>
</svg>
