<svg width="22" height="25" viewBox="0 0 22 25" fill="none" xmlns="http://www.w3.org/2000/svg">
<path d="M13.4008 7.30957H3.70312C3.29863 7.30957 2.9707 7.6375 2.9707 8.04199C2.9707 8.44648 3.29863 8.77441 3.70312 8.77441H13.4008C13.8053 8.77441 14.1333 8.44648 14.1333 8.04199C14.1333 7.6375 13.8053 7.30957 13.4008 7.30957Z" fill="black"/>
<path d="M13.4008 10.0991H3.70312C3.29863 10.0991 2.9707 10.4271 2.9707 10.8315C2.9707 11.236 3.29863 11.564 3.70312 11.564H13.4008C13.8053 11.564 14.1333 11.236 14.1333 10.8315C14.1333 10.4271 13.8053 10.0991 13.4008 10.0991Z" fill="black"/>
<path d="M17.1033 13.203V3.7477C17.1033 2.53613 16.1176 1.55044 14.906 1.55044H13.4094C13.2118 0.664453 12.4199 0 11.4752 0H5.62803C4.6834 0 3.89145 0.664453 3.69385 1.55044H2.19727C0.985693 1.55044 0 2.53613 0 3.7477V21.5981C0 22.8097 0.985693 23.7954 2.19727 23.7954H12.4021C13.39 24.551 14.6195 25 15.951 25C19.2 25 21.8433 22.3282 21.8433 19.0441C21.8433 16.1585 19.8025 13.746 17.1033 13.203ZM5.11079 1.98213C5.11079 1.69688 5.34282 1.46484 5.62803 1.46484H11.4752C11.7604 1.46484 11.9925 1.69688 11.9925 1.98213V3.30781C11.9925 3.59302 11.7604 3.82505 11.4752 3.82505H5.62803C5.34282 3.82505 5.11079 3.59302 5.11079 3.30781V1.98213ZM3.70332 17.1429H10.3666C10.1671 17.7402 10.0588 18.3796 10.0588 19.0441C10.0588 20.258 10.4202 21.3879 11.0396 22.3305H2.19731C1.79346 22.3305 1.46489 22.002 1.46489 21.5981V3.7477C1.46489 3.34385 1.79346 3.01528 2.19731 3.01528H3.64595V3.30781C3.64595 4.40073 4.53511 5.28989 5.62803 5.28989H11.4752C12.5682 5.28989 13.4573 4.40073 13.4573 3.30781V3.01528H14.906C15.3098 3.01528 15.6384 3.34385 15.6384 3.7477V13.0967C15.1023 13.1251 14.5851 13.2266 14.096 13.3909C13.9995 13.0992 13.725 12.8885 13.401 12.8885H3.70332C3.29883 12.8885 2.9709 13.2165 2.9709 13.6209C2.9709 14.0254 3.29883 14.3534 3.70332 14.3534H12.3242C11.8502 14.7286 11.4345 15.1757 11.0928 15.678H3.70332C3.29883 15.678 2.9709 16.006 2.9709 16.4104C2.9709 16.8149 3.29883 17.1429 3.70332 17.1429ZM15.9511 23.5352C13.5098 23.5352 11.5236 21.5205 11.5236 19.0441C11.5236 16.5678 13.5098 14.5531 15.9511 14.5531C18.3924 14.5531 20.3785 16.5678 20.3785 19.0441C20.3785 21.5205 18.3924 23.5352 15.9511 23.5352Z" fill="black"/>
<path d="M18.1018 20.6797L16.6836 18.7989V17.54C16.6836 17.1355 16.3557 16.8076 15.9512 16.8076C15.5467 16.8076 15.2188 17.1355 15.2188 17.54V19.0441C15.2188 19.2032 15.2706 19.358 15.3664 19.4851L16.9321 21.5616C17.0761 21.7525 17.2955 21.8531 17.5175 21.8531C17.671 21.8531 17.8258 21.805 17.9579 21.7054C18.2809 21.4619 18.3453 21.0026 18.1018 20.6797Z" fill="black"/>
</svg>
