<svg width="15" height="15" viewBox="0 0 15 15" fill="none" xmlns="http://www.w3.org/2000/svg">
<path d="M13.8635 6.89039C13.7299 6.6074 13.5072 6.37891 13.2314 6.24188L2.95569 1.14013C2.27877 0.803644 1.4642 1.09392 1.13624 1.78845C0.96917 2.14232 0.955125 2.55206 1.0976 2.91709L2.88443 7.4995L1.0976 12.0824C0.819279 12.8013 1.16167 13.6156 1.86235 13.9011C2.02078 13.9657 2.18961 13.9992 2.36009 14C2.56634 14 2.76994 13.9522 2.95569 13.8603L13.2314 8.75712C13.9084 8.42072 14.1914 7.58495 13.8635 6.89039ZM2.56028 13.0205C2.3346 13.1325 2.0631 13.0357 1.95385 12.8042C1.89818 12.6862 1.89355 12.5496 1.94106 12.428L3.68067 7.96527H12.7425L2.56028 13.0205ZM3.6807 7.03371L1.94108 2.571C1.86868 2.39311 1.91363 2.18768 2.0532 2.05865C2.1883 1.92358 2.3923 1.89189 2.56028 1.97994L12.7425 7.03371H3.6807Z" fill="#666666" stroke="#666666" stroke-width="0.5"/>
</svg>
