<svg width="13" height="13" viewBox="0 0 13 13" fill="none" xmlns="http://www.w3.org/2000/svg">
<path fill-rule="evenodd" clip-rule="evenodd" d="M6.14024 0.498169C5.64109 0.498226 5.16034 0.685962 4.79408 1.02386C4.42782 1.36175 4.20303 1.82492 4.16463 2.32078H3.98415C3.43293 2.32078 2.98841 2.32078 2.62927 2.35298C2.25976 2.38639 1.93659 2.45748 1.64329 2.62637C1.29564 2.8262 1.00691 3.11367 0.806098 3.45991C0.637195 3.75214 0.565854 4.07413 0.532317 4.4423C0.5 4.80014 0.5 5.24303 0.5 5.79225V5.83599C0.5 6.3852 0.5 6.8281 0.532317 7.18594C0.565854 7.5541 0.637195 7.8761 0.806707 8.16832C0.960976 8.43564 1.16829 8.66772 1.41463 8.8518V8.88522C1.41463 9.71572 1.41463 10.3858 1.48598 10.9126C1.55915 11.4594 1.71768 11.9199 2.08415 12.2856C2.45122 12.6513 2.91341 12.8081 3.4622 12.8822C3.99085 12.9527 4.66341 12.9527 5.49695 12.9527H8.00305C8.83659 12.9527 9.50915 12.9527 10.0378 12.8822C10.5866 12.8081 11.0488 12.6513 11.4159 12.2856C11.7829 11.9199 11.9402 11.4594 12.0146 10.9126C12.0854 10.3858 12.0854 9.71572 12.0854 8.88522V8.8518C12.3325 8.66726 12.5395 8.43475 12.6939 8.16832C12.8628 7.8761 12.9341 7.5541 12.9677 7.18594C13 6.8281 13 6.3852 13 5.83599V5.79225C13 5.24303 13 4.80014 12.9677 4.4423C12.9341 4.07413 12.8628 3.75214 12.6933 3.45991C12.4927 3.11353 12.2042 2.82584 11.8567 2.62576C11.5634 2.45748 11.2402 2.38639 10.8707 2.35298C10.5116 2.32078 10.0671 2.32078 9.51585 2.32078H9.33537C9.29697 1.82492 9.07218 1.36175 8.70592 1.02386C8.33966 0.685962 7.85891 0.498226 7.35976 0.498169H6.14024ZM6.14024 1.40947C5.88366 1.40948 5.63566 1.50161 5.4417 1.66898C5.24774 1.83635 5.1208 2.06775 5.08415 2.32078H8.41585C8.3792 2.06775 8.25226 1.83635 8.0583 1.66898C7.86434 1.50161 7.61635 1.40948 7.35976 1.40947H6.14024ZM2.39207 10.7911C2.33963 10.4028 2.3311 9.9077 2.32927 9.23698C2.42622 9.25339 2.52622 9.26554 2.62927 9.27526C2.98841 9.30746 3.43293 9.30746 3.98415 9.30746H5.13659C5.23624 9.65735 5.44773 9.9653 5.73896 10.1846C6.03019 10.4039 6.38527 10.5225 6.7503 10.5225C7.11534 10.5225 7.47042 10.4039 7.76165 10.1846C8.05288 9.9653 8.26437 9.65735 8.36402 9.30746H9.51585C10.0671 9.30746 10.5116 9.30746 10.8707 9.27526C10.9744 9.26554 11.0738 9.25339 11.1707 9.23698C11.1689 9.9077 11.1604 10.4028 11.1079 10.7911C11.0476 11.237 10.9372 11.4727 10.7689 11.641C10.6 11.8093 10.3634 11.9186 9.91524 11.9788C9.45488 12.0402 8.84451 12.0414 7.96951 12.0414H5.53049C4.65549 12.0414 4.04451 12.0402 3.58415 11.9788C3.13659 11.9186 2.9 11.8087 2.7311 11.641C2.5622 11.4727 2.45244 11.237 2.39207 10.7905V10.7911ZM8.36402 8.39615H9.4939C10.072 8.39615 10.4756 8.39615 10.7878 8.3676C11.0945 8.33965 11.2683 8.28862 11.3994 8.21328C11.6079 8.09299 11.7811 7.92045 11.9018 7.71267C11.9774 7.58205 12.0287 7.4089 12.0567 7.10331C12.0848 6.79225 12.0854 6.39006 12.0854 5.81412C12.0854 5.23817 12.0854 4.83598 12.0567 4.52492C12.0287 4.21933 11.9774 4.04619 11.9018 3.91556C11.7814 3.70763 11.6081 3.53497 11.3994 3.41495C11.2683 3.33962 11.0945 3.28859 10.7878 3.26064C10.4756 3.23269 10.072 3.23209 9.4939 3.23209H4.0061C3.42805 3.23209 3.02439 3.23209 2.7122 3.26064C2.40549 3.28859 2.23171 3.33962 2.10061 3.41495C1.89191 3.53497 1.71862 3.70763 1.59817 3.91556C1.52256 4.04619 1.47134 4.21933 1.44329 4.52492C1.41524 4.83598 1.41463 5.23817 1.41463 5.81412C1.41463 6.39006 1.41463 6.79225 1.44329 7.10331C1.47134 7.4083 1.52256 7.58205 1.59817 7.71267C1.7189 7.92045 1.89207 8.09299 2.10061 8.21328C2.23171 8.28862 2.40549 8.33965 2.7122 8.3676C3.02439 8.39554 3.42805 8.39615 4.0061 8.39615H5.13659C5.23624 8.04626 5.44773 7.7383 5.73896 7.51902C6.03019 7.29974 6.38527 7.18109 6.7503 7.18109C7.11534 7.18109 7.47042 7.29974 7.76165 7.51902C8.05288 7.7383 8.26437 8.04626 8.36402 8.39615ZM5.9878 8.8518C5.9878 8.65039 6.06811 8.45723 6.21105 8.31481C6.35399 8.17239 6.54785 8.09238 6.75 8.09238C6.95215 8.09238 7.14601 8.17239 7.28895 8.31481C7.43189 8.45723 7.5122 8.65039 7.5122 8.8518C7.5122 9.05321 7.43189 9.24638 7.28895 9.3888C7.14601 9.53121 6.95215 9.61122 6.75 9.61122C6.54785 9.61122 6.35399 9.53121 6.21105 9.3888C6.06811 9.24638 5.9878 9.05321 5.9878 8.8518Z" fill="#666666"/>
</svg>
