<svg width="14" height="14" viewBox="0 0 14 14" fill="none" xmlns="http://www.w3.org/2000/svg">
<path d="M6.82022 11.9698H2.5336C1.69309 11.9698 1.01172 11.2909 1.01172 10.4534V4.565C1.01172 3.72755 1.69309 3.04866 2.5336 3.04866H11.4619C12.3024 3.04866 12.9838 3.72755 12.9838 4.565V7.64729" stroke="#666666" stroke-miterlimit="10" stroke-linecap="round"/>
<path d="M5.22363 3.04486V1.88394C5.22363 1.39585 5.62067 1.00014 6.11046 1.00014H7.8841C8.37387 1.00014 8.77093 1.39585 8.77093 1.88394V3.04486" stroke="#666666" stroke-miterlimit="10" stroke-linecap="round" stroke-linejoin="round"/>
<path d="M1.01172 6.10565H5.98318H8.08845H12.9838" stroke="#666666" stroke-miterlimit="10" stroke-linecap="round" stroke-linejoin="round"/>
<path d="M7.02344 6.10628V7.37018" stroke="#666666" stroke-miterlimit="10" stroke-linecap="round" stroke-linejoin="round"/>
<path d="M8.46973 10.1996C8.46973 9.2226 9.26465 8.43056 10.2453 8.43056C11.2258 8.43056 12.0208 9.2226 12.0208 10.1996C12.0208 11.1767 11.2258 11.9687 10.2453 11.9687C9.26465 11.9687 8.46973 11.1767 8.46973 10.1996Z" stroke="#666666" stroke-miterlimit="10" stroke-linecap="round"/>
<path d="M11.5254 11.4713L12.9881 12.929" stroke="#666666" stroke-miterlimit="10" stroke-linecap="round"/>
</svg>
