<svg width="11" height="15" viewBox="0 0 11 15" fill="none" xmlns="http://www.w3.org/2000/svg">
<path d="M5.49977 13.9057C5.60411 13.9051 5.70519 13.8694 5.78658 13.8043C5.96237 13.6476 10.5884 9.93262 10.5884 6.07011C10.5884 4.72544 10.0523 3.43583 9.09797 2.485C8.14367 1.53417 6.84936 1 5.49977 1C4.15018 1 2.85586 1.53417 1.90156 2.485C0.947255 3.43583 0.411133 4.72544 0.411133 6.07011C0.411133 9.93262 5.03716 13.6476 5.21295 13.8043C5.29434 13.8694 5.39542 13.9051 5.49977 13.9057ZM1.33634 6.07011C1.33634 4.96992 1.77498 3.91479 2.55578 3.13684C3.33657 2.35889 4.39556 1.92184 5.49977 1.92184C6.60398 1.92184 7.66296 2.35889 8.44375 3.13684C9.22455 3.91479 9.66319 4.96992 9.66319 6.07011C9.66319 8.97391 6.48511 11.9745 5.49977 12.841C4.51442 11.9745 1.33634 8.97391 1.33634 6.07011Z" fill="#666666" stroke="#666666" stroke-width="0.3"/>
<path d="M7.81256 6.0701C7.81256 5.6143 7.6769 5.16873 7.42274 4.78974C7.16858 4.41075 6.80734 4.11536 6.38469 3.94093C5.96204 3.7665 5.49697 3.72086 5.04829 3.80979C4.59961 3.89871 4.18747 4.1182 3.86399 4.44051C3.54051 4.76281 3.32022 5.17345 3.23097 5.6205C3.14172 6.06755 3.18753 6.53092 3.36259 6.95203C3.53766 7.37314 3.83412 7.73307 4.2145 7.98631C4.59487 8.23954 5.04207 8.3747 5.49954 8.3747C6.11299 8.3747 6.70131 8.13189 7.13509 7.6997C7.56886 7.2675 7.81256 6.68132 7.81256 6.0701ZM4.11173 6.0701C4.11173 5.79662 4.19312 5.52928 4.34562 5.30188C4.49811 5.07449 4.71486 4.89726 4.96845 4.7926C5.22204 4.68794 5.50108 4.66056 5.77029 4.71391C6.0395 4.76727 6.28678 4.89896 6.48087 5.09234C6.67496 5.28573 6.80713 5.53211 6.86068 5.80034C6.91423 6.06857 6.88675 6.34659 6.78171 6.59926C6.67667 6.85193 6.49879 7.06788 6.27057 7.21982C6.04234 7.37176 5.77402 7.45286 5.49954 7.45286C5.13147 7.45286 4.77848 7.30718 4.51821 7.04786C4.25795 6.78854 4.11173 6.43683 4.11173 6.0701Z" fill="#666666" stroke="#666666" stroke-width="0.3"/>
</svg>
