<svg width="544" height="369" viewBox="0 0 544 369" fill="none" xmlns="http://www.w3.org/2000/svg">
<path d="M384.445 6.35527C384.445 9.43253 381.928 11.9503 378.85 11.9503C375.773 11.9503 373.255 9.43253 373.255 6.35527C373.255 3.27801 375.773 0.760254 378.85 0.760254C381.928 0.760254 384.445 3.27801 384.445 6.35527Z" fill="#FFC557"/>
<path d="M405.333 37.0346C407.651 37.0346 409.53 35.1559 409.53 32.8384C409.53 30.5208 407.651 28.6421 405.333 28.6421C403.016 28.6421 401.137 30.5208 401.137 32.8384C401.137 35.1559 403.016 37.0346 405.333 37.0346Z" stroke="#FFC557" stroke-miterlimit="10"/>
<path d="M506.883 97.927C506.883 99.1392 505.95 100.072 504.738 100.072C503.526 100.072 502.593 99.1392 502.593 97.927C502.593 96.7147 503.526 95.7822 504.738 95.7822C505.95 95.7822 506.883 96.7147 506.883 97.927Z" stroke="#648AC9" stroke-width="0.8104" stroke-miterlimit="10"/>
<path d="M10.3257 252.442C14.6003 252.442 18.0655 248.977 18.0655 244.703C18.0655 240.428 14.6003 236.963 10.3257 236.963C6.05115 236.963 2.58594 240.428 2.58594 244.703C2.58594 248.977 6.05115 252.442 10.3257 252.442Z" fill="#FFC557"/>
<path d="M51.8213 21.2758C54.1388 21.2758 56.0175 19.3971 56.0175 17.0796C56.0175 14.762 54.1388 12.8833 51.8213 12.8833C49.5037 12.8833 47.625 14.762 47.625 17.0796C47.625 19.3971 49.5037 21.2758 51.8213 21.2758Z" fill="#FFC557"/>
<path d="M525.813 200.782C527.873 200.782 529.543 199.112 529.543 197.052C529.543 194.992 527.873 193.322 525.813 193.322C523.753 193.322 522.083 194.992 522.083 197.052C522.083 199.112 523.753 200.782 525.813 200.782Z" fill="#FFC557"/>
<path d="M0.73877 305.006H534.24" stroke="#95B1DB" stroke-miterlimit="10"/>
<path d="M36.5289 100.351C38.3314 100.351 39.7927 98.89 39.7927 97.0875C39.7927 95.285 38.3314 93.8237 36.5289 93.8237C34.7264 93.8237 33.2651 95.285 33.2651 97.0875C33.2651 98.89 34.7264 100.351 36.5289 100.351Z" stroke="#95B1DB" stroke-width="2" stroke-miterlimit="10"/>
<path d="M506.657 239.855C506.657 241.906 504.979 243.585 502.927 243.585C500.876 243.585 499.197 241.906 499.197 239.855C499.197 237.803 500.876 236.125 502.927 236.125C504.979 236.125 506.657 237.803 506.657 239.855Z" fill="#839DC9"/>
<path d="M524.469 163.669C524.469 164.788 523.63 165.627 522.511 165.627C521.392 165.627 520.553 164.788 520.553 163.669C520.553 162.55 521.392 161.71 522.511 161.71C523.537 161.71 524.469 162.55 524.469 163.669Z" fill="#839DC9"/>
<path d="M306.768 307.086H88.4692V45.4257C88.4692 31.9976 98.82 20.6211 112.155 20.6211L306.768 21.1806V307.086Z" fill="#95B1DB"/>
<path opacity="0.65" d="M92.48 307.087H306.769V47.1982L126.889 23.4194L92.48 307.087Z" fill="#849CC7"/>
<path d="M397.595 43.6558C397.595 30.7873 387.151 20.3433 374.282 20.3433H132.95V20.5298L109.917 20.4365C123.998 20.4365 132.857 30.321 132.857 42.3503L132.95 42.2571V315.294C132.95 333.291 147.591 347.931 165.588 347.931H342.577L398.527 347.185L397.595 43.6558Z" fill="#E0EBFB"/>
<mask id="mask0_206_7950" style="mask-type:alpha" maskUnits="userSpaceOnUse" x="151" y="44" width="69" height="68">
<path d="M209.777 101.975C222.996 88.7562 222.996 67.3239 209.777 54.1048C196.558 40.8858 175.125 40.8858 161.906 54.1048C148.687 67.3239 148.687 88.7562 161.906 101.975C175.125 115.194 196.558 115.194 209.777 101.975Z" fill="#CBD9EC"/>
</mask>
<g mask="url(#mask0_206_7950)">
<path d="M256.973 83.8462L252.031 96.9012C248.674 105.294 240.188 113.966 232.355 111.169L207.364 102.123C204.566 100.724 201.582 99.792 198.785 99.5122C198.598 99.419 198.505 99.419 198.505 99.419L191.698 96.062L176.778 98.8595L171.463 102.776C158.128 105.294 129.873 114.246 129.873 114.246C135.748 118.349 140.783 125.902 140.783 125.902C140.783 125.902 139.664 127.674 138.172 130.192C142.182 135.227 146.565 140.449 153.652 143.526C155.237 144.272 158.594 145.018 160.552 145.671L155.517 198.264L210.628 199.197C210.628 199.197 219.02 161.803 220.606 137.838L221.631 138.211C234.5 142.687 248.674 138.118 258.372 127.114C266.298 118.162 270.215 89.348 270.215 89.348L256.973 83.8462Z" fill="#FF768F"/>
<path d="M190.858 82.9141L193.096 99.2329C193.096 99.2329 171.555 116.577 172.861 102.59L175.565 83.4736L190.858 82.9141Z" fill="#F38C84"/>
<path d="M189.459 66.1288L191.324 84.1261C191.324 84.1261 173.42 106.32 175.005 84.5924L178.828 65.5693L189.459 66.1288Z" fill="#05093D"/>
<path d="M170.81 73.9608L173.888 73.1216L174.634 76.8516L171.556 77.6909C170.624 77.9706 169.691 77.3179 169.505 76.2921C169.225 75.2663 169.785 74.2406 170.81 73.9608Z" fill="#F38C84" stroke="#F38C84" stroke-width="1.1297" stroke-miterlimit="10"/>
<path d="M171.09 74.8945L172.395 74.5215L172.675 76.0135L171.369 76.3865C170.996 76.4797 170.623 76.2 170.53 75.827C170.437 75.454 170.623 74.9877 171.09 74.8945Z" fill="#CA5C3B"/>
<path d="M195.335 72.9356L192.165 73.4019L191.885 69.5786L195.056 69.1124C195.988 69.0191 196.921 69.7651 196.921 70.7909C197.014 71.9099 196.268 72.8424 195.335 72.9356Z" fill="#F38C84" stroke="#F38C84" stroke-width="1.1297" stroke-miterlimit="10"/>
<path d="M195.148 70.419L193.843 70.6055L193.936 72.1908L195.242 72.0043C195.615 71.911 195.988 71.538 195.894 71.165C195.894 70.6055 195.615 70.3258 195.148 70.419Z" fill="#CA5C3B"/>
<path d="M183.306 87.0164C175.752 87.3894 172.582 82.3539 172.489 75.9196V75.4534C172.395 69.1124 175.846 58.9481 181.72 58.4818V58.3886C187.595 57.9223 193.75 67.4339 193.843 73.7749V74.2411C193.936 80.5821 191.698 86.4569 183.306 87.0164Z" fill="#F38C84" stroke="#F38C84" stroke-width="1.1297" stroke-miterlimit="10"/>
<path d="M183.866 82.8207C181.255 83.1005 179.11 81.4219 179.017 79.1839V78.9042L188.435 78.0649V78.3447C188.528 80.5827 186.477 82.6342 183.866 82.8207Z" fill="white"/>
<path d="M181.067 73.4027C181.067 73.869 180.787 74.242 180.414 74.242C180.041 74.242 179.762 73.869 179.762 73.4027C179.762 72.9365 180.041 72.5635 180.414 72.5635C180.787 72.5635 181.067 72.9365 181.067 73.4027Z" fill="#05093D"/>
<path d="M186.57 72.7489C186.57 73.2152 186.29 73.5882 185.917 73.5882C185.544 73.5882 185.264 73.2152 185.264 72.7489C185.264 72.2827 185.544 71.9097 185.917 71.9097C186.29 71.9097 186.57 72.2827 186.57 72.7489Z" fill="#05093D"/>
<path d="M184.517 76.8523L182.372 76.9456C182.092 76.9456 181.906 76.6658 181.999 76.2928L182.838 73.5886C182.931 73.2156 183.304 73.2156 183.491 73.4953L184.796 76.1063C184.983 76.3861 184.796 76.7591 184.517 76.8523Z" fill="#CA5C3B"/>
<path d="M177.523 70.9781C176.964 71.5376 177.71 69.3929 178.549 69.0199C179.388 68.6469 180.321 69.0199 180.6 69.7659C180.694 69.8591 178.922 69.7659 177.523 70.9781Z" fill="#05093D"/>
<path d="M187.595 69.3923C188.341 69.7653 187.036 67.9003 186.103 67.7138C185.171 67.6205 184.332 68.18 184.238 68.926C184.332 68.926 185.917 68.4598 187.595 69.3923Z" fill="#05093D"/>
<path d="M192.164 61.8389C192.071 61.6524 191.978 61.5591 191.978 61.3726C192.724 60.9996 193.19 60.8131 193.19 60.8131C193.19 60.8131 192.257 48.1311 190.859 47.9446C190.299 47.8514 174.726 51.4881 170.81 61.8389C170.717 62.1187 170.717 62.3984 170.81 62.6781C170.717 62.8646 170.623 63.0511 170.53 63.3309C169.971 64.9161 169.877 66.6879 170.064 68.2732C170.157 69.0192 171.556 73.4952 172.302 73.5884C172.675 73.5884 174.447 67.8069 175.472 64.6364C177.244 64.8229 179.389 64.9162 181.44 64.6364C183.865 64.3567 186.196 63.6106 188.248 62.8646C189.74 64.9161 192.91 68.9259 193.47 68.9259C194.029 68.9259 192.63 62.9579 192.164 61.8389Z" fill="#05093D"/>
</g>
<path d="M237.017 53.2604L237.67 55.1255C237.763 55.4052 238.043 55.5917 238.229 55.5917H240.188C240.84 55.5917 241.027 56.3377 240.561 56.7107L238.975 57.8297C238.789 58.0162 238.696 58.296 238.789 58.5757L239.442 60.4407C239.628 61.0002 238.975 61.4665 238.509 61.1867L236.924 60.0677C236.737 59.8812 236.364 59.8812 236.178 60.0677L234.593 61.1867C234.126 61.5597 233.474 61.0935 233.66 60.4407L234.313 58.5757C234.406 58.296 234.313 58.0162 234.126 57.8297L232.541 56.7107C232.075 56.3377 232.261 55.5917 232.914 55.5917H234.872C235.152 55.5917 235.432 55.4052 235.432 55.1255L236.085 53.2604C235.991 52.7009 236.831 52.7009 237.017 53.2604Z" fill="#3A5785"/>
<path d="M249.886 53.2604L250.539 55.1255C250.632 55.4052 250.912 55.5917 251.098 55.5917H253.056C253.709 55.5917 253.896 56.3377 253.429 56.7107L251.844 57.8297C251.658 58.0162 251.564 58.296 251.658 58.5757L252.31 60.4407C252.497 61.0002 251.844 61.4665 251.378 61.1867L249.793 60.0677C249.606 59.8812 249.233 59.8812 249.047 60.0677L247.461 61.1867C246.995 61.5597 246.342 61.0935 246.529 60.4407L247.182 58.5757C247.275 58.296 247.182 58.0162 246.995 57.8297L245.41 56.7107C244.944 56.3377 245.13 55.5917 245.783 55.5917H247.741C248.021 55.5917 248.301 55.4052 248.301 55.1255L248.953 53.2604C248.86 52.7009 249.699 52.7009 249.886 53.2604Z" fill="#3A5785"/>
<path d="M262.755 53.2604L263.408 55.1255C263.501 55.4052 263.781 55.5917 263.967 55.5917H265.926C266.578 55.5917 266.765 56.3377 266.299 56.7107L264.713 57.8297C264.527 58.0162 264.434 58.296 264.527 58.5757L265.18 60.4407C265.366 61.0002 264.713 61.4665 264.247 61.1867L262.662 60.0677C262.475 59.8812 262.102 59.8812 261.916 60.0677L260.331 61.1867C259.864 61.5597 259.212 61.0935 259.398 60.4407L260.051 58.5757C260.144 58.296 260.051 58.0162 259.864 57.8297L258.279 56.7107C257.813 56.3377 257.999 55.5917 258.652 55.5917H260.61C260.89 55.5917 261.17 55.4052 261.17 55.1255L261.823 53.2604C261.729 52.7009 262.475 52.7009 262.755 53.2604Z" fill="#3A5785"/>
<path d="M275.531 53.2604L276.184 55.1255C276.277 55.4052 276.557 55.5917 276.743 55.5917H278.701C279.354 55.5917 279.541 56.3377 279.074 56.7107L277.489 57.8297C277.303 58.0162 277.209 58.296 277.303 58.5757L277.955 60.4407C278.142 61.0002 277.489 61.4665 277.023 61.1867L275.438 60.0677C275.251 59.8812 274.878 59.8812 274.692 60.0677L273.106 61.1867C272.64 61.5597 271.987 61.0935 272.174 60.4407L272.827 58.5757C272.92 58.296 272.827 58.0162 272.64 57.8297L271.055 56.7107C270.589 56.3377 270.775 55.5917 271.428 55.5917H273.386C273.666 55.5917 273.946 55.4052 273.946 55.1255L274.598 53.2604C274.598 52.7009 275.344 52.7009 275.531 53.2604Z" fill="#3A5785"/>
<path d="M288.399 53.2604L289.052 55.1255C289.145 55.4052 289.425 55.5917 289.611 55.5917H291.57C292.222 55.5917 292.409 56.3377 291.943 56.7107L290.357 57.8297C290.171 58.0162 290.078 58.296 290.171 58.5757L290.824 60.4407C291.01 61.0002 290.357 61.4665 289.891 61.1867L288.306 60.0677C288.119 59.8812 287.746 59.8812 287.56 60.0677L285.975 61.1867C285.508 61.5597 284.856 61.0935 285.042 60.4407L285.695 58.5757C285.788 58.296 285.695 58.0162 285.508 57.8297L283.923 56.7107C283.457 56.3377 283.643 55.5917 284.296 55.5917H286.254C286.534 55.5917 286.814 55.4052 286.814 55.1255L287.467 53.2604C287.467 52.7009 288.213 52.7009 288.399 53.2604Z" fill="#CBD9EC"/>
<path d="M299.216 74.3344H230.211C228.439 74.3344 226.947 72.8424 226.947 71.0707V69.4854C226.947 67.7137 228.439 66.2217 230.211 66.2217H299.216C300.988 66.2217 302.48 67.7137 302.48 69.4854V70.9774C302.48 72.8425 301.081 74.3344 299.216 74.3344Z" fill="white"/>
<path d="M371.299 82.6333H345.841V108.091H371.299V82.6333Z" stroke="white" stroke-width="3" stroke-miterlimit="10"/>
<path d="M146.098 124.783H369.432" stroke="white" stroke-miterlimit="10"/>
<path d="M227.414 84.4985H327.844" stroke="white" stroke-width="3" stroke-miterlimit="10"/>
<path d="M227.414 95.5952H327.844" stroke="white" stroke-width="3" stroke-miterlimit="10"/>
<path d="M227.414 106.785H327.844" stroke="white" stroke-width="3" stroke-miterlimit="10"/>
<mask id="mask1_206_7950" style="mask-type:alpha" maskUnits="userSpaceOnUse" x="151" y="140" width="69" height="69">
<path d="M209.741 198.689C222.96 185.47 222.96 164.038 209.741 150.819C196.522 137.6 175.09 137.6 161.871 150.819C148.652 164.038 148.652 185.47 161.871 198.689C175.09 211.908 196.522 211.908 209.741 198.689Z" fill="#CBD9EC"/>
</mask>
<g mask="url(#mask1_206_7950)">
<path d="M174.167 157.42C174.82 154.25 176.778 148.188 181.907 146.883C186.942 145.577 191.325 145.95 196.267 149.307C205.686 155.835 199.904 189.685 199.904 189.685C199.904 189.685 196.361 197.424 170.25 187.353C170.344 187.26 173.328 161.616 174.167 157.42Z" fill="#05093D"/>
<path d="M178.456 169.543C178.456 169.543 175.938 188.939 175.752 190.524C175.752 190.524 184.144 200.595 192.724 191.923C192.724 191.923 191.232 187.261 188.621 175.138L178.456 169.543Z" fill="#FBB78B" stroke="#FBB78B" stroke-width="1.2036" stroke-miterlimit="10" stroke-linecap="round" stroke-linejoin="round"/>
<path d="M185.264 196.398C185.264 196.398 184.424 200.501 193.003 191.922C193.003 191.922 192.257 188.006 191.698 185.861L185.264 196.398Z" fill="#05093D"/>
<path d="M189.274 175.23C188.528 177.748 184.238 179.893 181.814 179.333C178.923 178.681 177.618 173.552 177.897 171.314C178.084 169.542 183.119 168.516 185.451 169.169C187.875 170.008 190.02 172.713 189.274 175.23Z" fill="#05093D"/>
<path d="M174.726 159.844L178.083 160.404L177.43 164.134L174.073 163.667C173.048 163.481 172.302 162.455 172.488 161.429C172.675 160.404 173.7 159.658 174.726 159.844Z" fill="#FBB78B" stroke="#FBB78B" stroke-width="1.1709" stroke-miterlimit="10"/>
<path d="M174.353 160.871L175.752 161.151L175.472 162.736L174.073 162.456C173.607 162.363 173.327 161.99 173.421 161.524C173.514 161.057 173.98 160.778 174.353 160.871Z" fill="#E6795C" stroke="#E6795C" stroke-width="1.1586" stroke-miterlimit="10"/>
<path d="M196.64 167.771L193.376 166.745L194.495 163.108L197.759 164.134C198.785 164.414 199.344 165.533 198.971 166.559C198.692 167.491 197.666 168.051 196.64 167.771Z" fill="#FBB78B" stroke="#FBB78B" stroke-width="1.1709" stroke-miterlimit="10"/>
<path d="M197.479 165.161L196.174 164.694L195.708 166.186L197.013 166.653C197.386 166.746 197.852 166.559 198.039 166.186C198.132 165.72 197.946 165.254 197.479 165.161Z" fill="#E6795C" stroke="#E6795C" stroke-width="1.1586" stroke-miterlimit="10"/>
<path d="M189.832 152.291C195.894 154.25 198.225 160.497 196.36 166.559L196.173 167.025C194.215 173.086 187.781 177.003 182.652 175.231C178.736 173.739 173.42 166.279 175.379 160.218L175.565 159.751C177.43 153.783 183.771 150.426 189.832 152.291Z" fill="#FBB78B" stroke="#FBB78B" stroke-width="1.1709" stroke-miterlimit="10"/>
<path d="M183.866 170.941L184.332 171.035C185.917 171.408 187.503 170.475 187.876 168.89L181.721 167.398C181.348 168.983 182.281 170.568 183.866 170.941Z" fill="white"/>
<path d="M187.502 164.88C187.409 165.346 187.595 165.719 187.875 165.813C188.155 165.906 188.528 165.626 188.714 165.16C188.807 164.694 188.621 164.321 188.341 164.227C187.968 164.134 187.595 164.414 187.502 164.88Z" fill="#05093D"/>
<path d="M182.747 163.761C182.653 164.227 182.747 164.6 183.12 164.693C183.493 164.787 183.866 164.507 183.959 164.134C184.052 163.668 183.959 163.295 183.586 163.201C183.306 163.015 182.933 163.295 182.747 163.761Z" fill="#05093D"/>
<path d="M184.237 166.745L185.823 167.211C186.009 167.305 186.196 167.025 186.196 166.838L186.009 164.6C186.009 164.321 185.729 164.227 185.543 164.414L184.144 166.186C183.958 166.372 184.051 166.745 184.237 166.745Z" fill="#EB8383"/>
<path d="M181.72 161.524C181.254 161.71 182.28 160.591 182.932 160.591C183.585 160.591 184.051 161.058 184.051 161.617C184.051 161.617 183.026 161.151 181.72 161.524Z" fill="#05093D"/>
<path d="M190.579 163.575C190.952 163.948 190.486 162.456 189.927 162.176C189.367 161.897 188.714 162.083 188.528 162.549C188.528 162.643 189.647 162.643 190.579 163.575Z" fill="#05093D"/>
<path d="M182.746 151.638C178.177 159.192 197.759 163.854 197.759 163.854C197.759 163.854 200.837 149.121 184.518 148.654C174.074 148.375 183.212 150.892 182.746 151.638Z" fill="#05093D"/>
<path d="M184.145 151.452C184.145 151.452 179.389 158.166 178.177 159.285C176.778 160.591 174.633 159.099 174.633 159.099C174.633 159.099 175.379 148.655 184.145 151.452Z" fill="#05093D"/>
<path d="M201.956 172.899C201.956 175.137 200.184 176.909 197.946 176.909C195.708 176.909 193.937 175.137 193.937 172.899C193.937 170.661 195.708 168.89 197.946 168.89C200.184 168.89 201.956 170.661 201.956 172.899Z" fill="#FCCC4F"/>
<path d="M198.226 168.424C198.226 168.89 197.853 169.263 197.387 169.263C196.92 169.263 196.547 168.89 196.547 168.424C196.547 167.957 196.92 167.584 197.387 167.584C197.853 167.584 198.226 167.957 198.226 168.424Z" fill="#FCCC4F"/>
<path d="M175.379 170.009C174.354 171.967 171.929 172.62 169.971 171.594C168.013 170.569 167.36 168.144 168.386 166.186C169.411 164.227 171.836 163.575 173.794 164.601C175.659 165.626 176.405 168.051 175.379 170.009Z" fill="#FCCC4F"/>
<path d="M174.167 164.227C173.981 164.6 173.514 164.787 173.048 164.507C172.675 164.321 172.489 163.854 172.768 163.388C172.955 163.015 173.421 162.829 173.887 163.108C174.26 163.295 174.354 163.854 174.167 164.227Z" fill="#FCCC4F"/>
<path d="M219.113 212.531L210.534 191.456C207.55 186.887 204.846 185.581 201.209 186.048C199.997 186.234 199.064 186.514 198.225 186.98L192.35 188.099C183.771 193.881 176.218 185.395 176.218 185.395C169.691 180.266 155.703 190.057 155.703 190.057L157.288 199.103C157.288 199.103 163.35 221.669 163.35 222.415C163.723 229.502 163.256 241.811 163.35 241.625C163.443 241.438 201.396 246.474 201.676 245.914C201.955 245.355 202.049 241.065 202.701 225.586C202.795 223.534 202.794 221.576 202.794 219.525L219.113 212.531Z" fill="#FCCC4F"/>
<path d="M182.466 243.21C175.939 237.895 169.318 232.3 164.655 225.213C162.417 221.949 160.646 218.312 159.527 214.489C159.34 213.743 157.848 209.36 158.408 208.708C159.433 207.589 162.417 209.733 163.536 210.2C171.369 213.836 177.99 218.592 183.119 225.772C188.154 232.86 192.63 240.599 194.589 249.178C194.682 249.738 195.614 249.551 195.428 248.899C193.283 239.294 188.061 230.342 182 222.695C175.752 214.862 167.173 210.666 158.128 206.749C157.848 206.656 157.382 206.749 157.475 207.122C158.594 223.068 170.25 234.258 181.907 243.677C182.28 244.236 182.932 243.583 182.466 243.21Z" fill="white"/>
<path d="M152.999 178.868C165.121 198.916 179.482 220.364 203.541 226.519C203.914 226.612 204.193 226.239 204.1 225.866C198.971 214.769 192.537 204.418 184.611 195.093C177.151 186.234 167.919 176.163 157.195 171.314C156.636 171.035 156.169 171.874 156.729 172.06C166.986 176.63 175.752 186.141 183.025 194.534C186.849 199.01 190.392 203.765 193.656 208.614C196.64 213.184 200.277 218.313 202.049 223.441C202.515 224.933 203.168 224.747 201.769 225.027C200.836 225.213 199.251 224.187 198.225 223.908C195.241 222.789 192.444 221.39 189.739 219.805C184.89 216.914 180.414 213.37 176.405 209.36C167.266 200.315 160.459 189.312 153.838 178.401C153.465 177.935 152.719 178.401 152.999 178.868Z" fill="white"/>
<path d="M195.335 187.633C198.506 202.087 210.442 213.836 226.014 211.971C226.574 211.878 226.574 210.946 226.014 211.039C210.815 212.904 199.345 201.434 196.268 187.353C196.081 186.794 195.149 187.074 195.335 187.633Z" fill="white"/>
</g>
<path d="M237.017 150.053L237.67 151.918C237.763 152.198 238.043 152.385 238.229 152.385H240.188C240.84 152.385 241.027 153.131 240.561 153.504L238.975 154.623C238.789 154.809 238.696 155.089 238.789 155.369L239.442 157.234C239.628 157.793 238.975 158.259 238.509 157.98L236.924 156.861C236.737 156.674 236.364 156.674 236.178 156.861L234.593 157.98C234.126 158.353 233.474 157.886 233.66 157.234L234.313 155.369C234.406 155.089 234.313 154.809 234.126 154.623L232.541 153.504C232.075 153.131 232.261 152.385 232.914 152.385H234.872C235.152 152.385 235.432 152.198 235.432 151.918L236.085 150.053C235.991 149.494 236.831 149.494 237.017 150.053Z" fill="#3A5785"/>
<path d="M249.886 150.053L250.539 151.918C250.632 152.198 250.912 152.385 251.098 152.385H253.056C253.709 152.385 253.896 153.131 253.429 153.504L251.844 154.623C251.658 154.809 251.564 155.089 251.658 155.369L252.31 157.234C252.497 157.793 251.844 158.259 251.378 157.98L249.793 156.861C249.606 156.674 249.233 156.674 249.047 156.861L247.461 157.98C246.995 158.353 246.342 157.886 246.529 157.234L247.182 155.369C247.275 155.089 247.182 154.809 246.995 154.623L245.41 153.504C244.944 153.131 245.13 152.385 245.783 152.385H247.741C248.021 152.385 248.301 152.198 248.301 151.918L248.953 150.053C248.86 149.494 249.699 149.494 249.886 150.053Z" fill="#3A5785"/>
<path d="M262.755 150.053L263.408 151.918C263.501 152.198 263.781 152.385 263.967 152.385H265.926C266.578 152.385 266.765 153.131 266.299 153.504L264.713 154.623C264.527 154.809 264.434 155.089 264.527 155.369L265.18 157.234C265.366 157.793 264.713 158.259 264.247 157.98L262.662 156.861C262.475 156.674 262.102 156.674 261.916 156.861L260.331 157.98C259.864 158.353 259.212 157.886 259.398 157.234L260.051 155.369C260.144 155.089 260.051 154.809 259.864 154.623L258.279 153.504C257.813 153.131 257.999 152.385 258.652 152.385H260.61C260.89 152.385 261.17 152.198 261.17 151.918L261.823 150.053C261.729 149.494 262.475 149.494 262.755 150.053Z" fill="#3A5785"/>
<path d="M275.531 150.053L276.184 151.918C276.277 152.198 276.557 152.385 276.743 152.385H278.701C279.354 152.385 279.541 153.131 279.074 153.504L277.489 154.623C277.303 154.809 277.209 155.089 277.303 155.369L277.955 157.234C278.142 157.793 277.489 158.259 277.023 157.98L275.438 156.861C275.251 156.674 274.878 156.674 274.692 156.861L273.106 157.98C272.64 158.353 271.987 157.886 272.174 157.234L272.827 155.369C272.92 155.089 272.827 154.809 272.64 154.623L271.055 153.504C270.589 153.131 270.775 152.385 271.428 152.385H273.386C273.666 152.385 273.946 152.198 273.946 151.918L274.598 150.053C274.598 149.494 275.344 149.494 275.531 150.053Z" fill="#3A5785"/>
<path d="M288.399 150.053L289.052 151.918C289.145 152.198 289.425 152.385 289.611 152.385H291.57C292.222 152.385 292.409 153.131 291.943 153.504L290.357 154.623C290.171 154.809 290.078 155.089 290.171 155.369L290.824 157.234C291.01 157.793 290.357 158.259 289.891 157.98L288.306 156.861C288.119 156.674 287.746 156.674 287.56 156.861L285.975 157.98C285.508 158.353 284.856 157.886 285.042 157.234L285.695 155.369C285.788 155.089 285.695 154.809 285.508 154.623L283.923 153.504C283.457 153.131 283.643 152.385 284.296 152.385H286.254C286.534 152.385 286.814 152.198 286.814 151.918L287.467 150.053C287.467 149.494 288.213 149.494 288.399 150.053Z" fill="#3A5785"/>
<path d="M299.216 171.035H230.211C228.439 171.035 226.947 169.543 226.947 167.771V166.279C226.947 164.508 228.439 163.016 230.211 163.016H299.216C300.988 163.016 302.48 164.508 302.48 166.279V167.771C302.48 169.543 301.081 171.035 299.216 171.035Z" fill="white"/>
<path d="M371.299 179.333H345.842V204.791H371.299V179.333Z" stroke="white" stroke-width="3" stroke-miterlimit="10"/>
<path d="M146.099 221.576H369.433" stroke="white" stroke-miterlimit="10"/>
<path d="M227.414 181.199H327.844" stroke="white" stroke-width="3" stroke-miterlimit="10"/>
<path d="M227.414 192.389H327.844" stroke="white" stroke-width="3" stroke-miterlimit="10"/>
<path d="M227.414 203.579H327.844" stroke="white" stroke-width="3" stroke-miterlimit="10"/>
<mask id="mask2_206_7950" style="mask-type:alpha" maskUnits="userSpaceOnUse" x="151" y="238" width="69" height="68">
<path d="M209.729 296.046C222.948 282.827 222.948 261.395 209.729 248.176C196.51 234.957 175.078 234.957 161.859 248.176C148.64 261.395 148.639 282.827 161.859 296.046C175.078 309.265 196.51 309.265 209.729 296.046Z" fill="#FCFCFC"/>
</mask>
<g mask="url(#mask2_206_7950)">
<path d="M180.975 247.407C180.975 247.407 167.454 252.722 163.351 267.269C159.155 281.91 153.373 295.151 142.743 295.99C132.019 296.736 120.829 304.383 120.176 306.621C119.523 308.952 154.679 359.401 183.959 346.998L187.689 320.422L188.155 341.124C188.155 341.124 189.088 345.04 199.439 338.233C209.789 331.332 212.96 238.362 180.975 247.407Z" fill="#A34E65"/>
<path d="M188.435 247.126C181.534 245.634 174.354 247.126 168.852 251.696C162.325 257.104 160.739 265.59 159.434 273.609C158.688 277.899 158.035 282.282 156.45 286.385C153.746 293.192 148.43 295.71 141.343 295.896C132.298 296.083 124.185 295.337 117.844 302.89C117.098 303.823 118.404 305.128 119.15 304.196C126.33 295.617 135.655 298.88 145.26 297.482C152.347 296.456 156.45 292.073 158.688 285.546C161.392 277.806 161.112 269.32 164.19 261.673C168.013 252.069 177.804 246.753 187.875 248.991C189.088 249.271 189.554 247.406 188.435 247.126Z" fill="#A34E65"/>
<path d="M192.072 269.227C192.072 269.227 194.403 289.462 194.776 291.048C194.776 291.048 188.621 297.948 179.763 293.006C179.763 293.006 180.695 287.038 182.28 274.636L192.072 269.227Z" fill="#FFBBAA" stroke="#FFBBAA" stroke-width="1.2122" stroke-miterlimit="10" stroke-linecap="round" stroke-linejoin="round"/>
<path d="M183.492 256.265C179.576 257.104 178.177 263.072 179.669 269.6L179.762 270.066C181.161 276.5 185.264 279.857 188.528 280.044C191.232 280.23 194.123 273.889 192.724 267.455L193.097 266.429C191.605 259.902 187.409 255.332 183.492 256.265Z" fill="#05093D"/>
<path d="M175.566 267.548L178.83 266.429L177.617 262.792L174.354 263.911C173.328 264.284 172.768 265.31 173.141 266.336C173.514 267.361 174.633 267.921 175.566 267.548Z" fill="#FFBBAA" stroke="#FFBBAA" stroke-width="1.1792" stroke-miterlimit="10"/>
<path d="M197.946 258.503L194.589 259.436L195.615 263.166L198.972 262.233C199.997 261.954 200.557 260.835 200.277 259.902C199.997 258.783 198.972 258.224 197.946 258.503Z" fill="#FFBBAA" stroke="#FFBBAA" stroke-width="1.1792" stroke-miterlimit="10"/>
<path d="M198.32 259.436L196.921 259.809L197.387 261.301L198.786 260.928C199.252 260.834 199.439 260.368 199.345 259.995C199.252 259.622 198.786 259.342 198.32 259.436Z" fill="#F08992" stroke="#F08992" stroke-width="1.1746" stroke-miterlimit="10" stroke-linecap="round" stroke-linejoin="round"/>
<path d="M174.634 264.937L175.94 264.471L176.499 265.963L175.194 266.429C174.821 266.616 174.354 266.336 174.168 265.963C174.075 265.59 174.261 265.124 174.634 264.937Z" fill="#F08992" stroke="#F08992" stroke-width="1.1746" stroke-miterlimit="10" stroke-linecap="round" stroke-linejoin="round"/>
<path d="M183.586 252.349C177.338 253.841 174.447 259.809 175.846 265.87L175.939 266.336C177.338 272.398 184.985 277.153 188.995 276.128C193.098 275.009 198.786 267.175 197.387 261.114L197.294 260.648C195.895 254.587 189.741 250.857 183.586 252.349Z" fill="#FFBBAA" stroke="#FFBBAA" stroke-width="1.1626" stroke-miterlimit="10"/>
<path d="M187.875 270.905L188.341 270.812C189.926 270.345 190.952 268.76 190.486 267.082L184.145 268.76C184.611 270.439 186.289 271.371 187.875 270.905Z" fill="white"/>
<path d="M188.155 263.632C188.248 264.098 188.621 264.378 188.994 264.285C189.367 264.191 189.554 263.725 189.367 263.259C189.274 262.793 188.901 262.513 188.528 262.606C188.248 262.793 188.062 263.166 188.155 263.632Z" fill="#05093D"/>
<path d="M183.306 264.937C183.399 265.404 183.772 265.683 184.145 265.683C184.518 265.59 184.704 265.217 184.611 264.751C184.518 264.285 184.145 264.005 183.772 264.005C183.399 264.005 183.212 264.471 183.306 264.937Z" fill="#05093D"/>
<path d="M186.197 266.988L187.876 266.615C188.062 266.522 188.155 266.242 188.062 266.056L186.85 264.098C186.663 263.818 186.384 263.911 186.384 264.191L185.917 266.522C185.731 266.802 185.917 267.082 186.197 266.988Z" fill="#F08992"/>
<path d="M181.348 263.445C180.975 263.818 181.348 262.326 182.001 262.046C182.56 261.767 183.213 261.953 183.493 262.419C183.399 262.419 182.28 262.513 181.348 263.445Z" fill="#05093D"/>
<path d="M190.393 261.02C190.952 261.207 189.833 260.088 189.181 260.088C188.528 260.088 188.062 260.647 188.062 261.207C188.062 261.114 189.087 260.647 190.393 261.02Z" fill="#05093D"/>
<path d="M194.961 289.834C192.91 293.098 186.289 295.802 179.948 286.104C179.948 286.104 169.597 279.484 162.044 291.793C155.237 302.889 155.237 303.262 155.237 303.262L169.318 315.292L170.25 341.402L210.534 342.707C210.534 342.707 206.245 324.057 206.991 321.073C207.084 320.607 219.393 300.465 219.393 300.465C219.393 300.465 203.261 276.5 194.961 289.834Z" fill="#FF768F"/>
<path d="M174.727 262.886C174.727 262.886 181.814 260.648 183.492 252.348C183.492 252.348 191.045 259.529 197.107 258.223C197.107 258.223 191.139 247.22 182.933 250.577C174.727 253.934 174.82 258.969 174.727 262.886Z" fill="#A34E65"/>
</g>
<path d="M237.018 247.406L237.67 249.271C237.764 249.551 238.043 249.738 238.23 249.738H240.188C240.841 249.738 241.027 250.484 240.561 250.857L238.976 251.976C238.789 252.162 238.696 252.442 238.789 252.722L239.442 254.587C239.629 255.146 238.976 255.612 238.51 255.333L236.924 254.214C236.738 254.027 236.365 254.027 236.178 254.214L234.593 255.333C234.127 255.706 233.474 255.239 233.661 254.587L234.313 252.722C234.407 252.442 234.313 252.162 234.127 251.976L232.542 250.857C232.075 250.484 232.262 249.738 232.915 249.738H234.873C235.153 249.738 235.432 249.551 235.432 249.271L236.085 247.406C235.992 246.847 236.831 246.847 237.018 247.406Z" fill="#3A5785"/>
<path d="M249.887 247.406L250.54 249.271C250.633 249.551 250.913 249.737 251.1 249.737H253.058C253.711 249.737 253.897 250.483 253.431 250.856L251.846 251.975C251.659 252.162 251.566 252.442 251.659 252.721L252.312 254.586C252.498 255.146 251.846 255.612 251.379 255.332L249.608 254.12C249.421 253.934 249.048 253.934 248.862 254.12L247.276 255.239C246.81 255.612 246.157 255.146 246.344 254.493L246.997 252.628C247.09 252.348 246.997 252.069 246.81 251.882L245.225 250.763C244.759 250.39 244.945 249.644 245.598 249.644H247.556C247.836 249.644 248.116 249.458 248.116 249.178L248.768 247.313C248.862 246.847 249.701 246.847 249.887 247.406Z" fill="#3A5785"/>
<path d="M262.756 247.406L263.408 249.271C263.502 249.551 263.781 249.738 263.968 249.738H265.926C266.579 249.738 266.765 250.484 266.299 250.857L264.714 251.976C264.527 252.162 264.434 252.442 264.527 252.722L265.18 254.587C265.367 255.146 264.714 255.612 264.248 255.333L262.662 254.214C262.476 254.027 262.103 254.027 261.916 254.214L260.331 255.333C259.865 255.706 259.212 255.239 259.399 254.587L260.051 252.722C260.145 252.442 260.051 252.162 259.865 251.976L258.279 250.857C257.813 250.484 258 249.738 258.653 249.738H260.611C260.891 249.738 261.17 249.551 261.17 249.271L261.823 247.406C261.73 246.847 262.476 246.847 262.756 247.406Z" fill="#3A5785"/>
<path d="M275.531 247.406L276.184 249.271C276.277 249.551 276.557 249.738 276.744 249.738H278.702C279.355 249.738 279.541 250.484 279.075 250.857L277.49 251.976C277.303 252.162 277.21 252.442 277.303 252.722L277.956 254.587C278.142 255.146 277.49 255.612 277.023 255.333L275.438 254.214C275.252 254.027 274.879 254.027 274.692 254.214L273.107 255.333C272.641 255.706 271.988 255.239 272.174 254.587L272.827 252.722C272.92 252.442 272.827 252.162 272.641 251.976L271.055 250.857C270.589 250.484 270.776 249.738 271.428 249.738H273.387C273.666 249.738 273.946 249.551 273.946 249.271L274.599 247.406C274.599 246.847 275.345 246.847 275.531 247.406Z" fill="#CBD9EC"/>
<path d="M288.4 247.406L289.052 249.271C289.146 249.551 289.425 249.738 289.612 249.738H291.57C292.223 249.738 292.409 250.484 291.943 250.857L290.358 251.976C290.171 252.162 290.078 252.442 290.171 252.722L290.824 254.587C291.011 255.146 290.358 255.612 289.892 255.333L288.306 254.214C288.12 254.027 287.747 254.027 287.56 254.214L285.975 255.333C285.509 255.706 284.856 255.239 285.043 254.587L285.695 252.722C285.789 252.442 285.695 252.162 285.509 251.976L283.924 250.857C283.457 250.484 283.644 249.738 284.297 249.738H286.255C286.535 249.738 286.814 249.551 286.814 249.271L287.467 247.406C287.467 246.847 288.213 246.847 288.4 247.406Z" fill="#CBD9EC"/>
<path d="M299.216 268.388H230.211C228.439 268.388 226.947 266.896 226.947 265.124V263.632C226.947 261.861 228.439 260.369 230.211 260.369H299.216C300.988 260.369 302.48 261.861 302.48 263.632V265.124C302.48 266.989 301.081 268.388 299.216 268.388Z" fill="white"/>
<path d="M371.299 276.781H345.841V302.238H371.299V276.781Z" stroke="white" stroke-width="3" stroke-miterlimit="10"/>
<path d="M146.099 318.93H369.433" stroke="white" stroke-miterlimit="10"/>
<path d="M227.414 278.552H327.844" stroke="white" stroke-width="3" stroke-miterlimit="10"/>
<path d="M227.414 289.742H327.844" stroke="white" stroke-width="3" stroke-miterlimit="10"/>
<path d="M227.414 300.932H327.844" stroke="white" stroke-width="3" stroke-miterlimit="10"/>
<path d="M161.299 348.024C170.064 348.024 182.653 336.275 182.653 327.603H423.612C423.612 327.603 422.679 348.024 399.46 348.024H161.299Z" fill="#CEDDF4"/>
<path d="M430.136 179.242L412.884 104.922C412.605 102.964 416.148 98.3011 417.827 97.3686C422.489 94.6643 428.271 94.2913 433.493 95.4103C450.651 98.9538 465.198 167.4 462.307 165.814C462.307 165.814 436.57 179.242 428.271 173.741" fill="#020F2B"/>
<path d="M431.535 111.356C431.535 111.636 431.722 111.823 432.001 111.823C433.12 111.823 435.545 111.543 435.918 114.434C436.291 117.324 433.587 118.91 431.908 119.003C431.442 119.003 430.323 119.096 430.043 119.469C429.017 120.495 428.551 122.919 427.805 125.81C426.127 132.244 431.162 135.229 431.162 135.229C431.162 135.229 414.284 143.528 414.47 135.229C414.47 135.229 415.776 119.935 415.683 119.842C414.377 118.537 409.248 117.977 412.419 107.067C415.403 96.9959 422.77 97.6487 424.728 98.0217C426.313 98.2082 431.908 98.5812 431.535 111.356Z" fill="#F1ABA5"/>
<path d="M419.506 96.9954C419.506 96.9954 429.857 110.703 431.629 111.822C431.722 111.822 438.809 95.0371 419.506 96.9954Z" fill="#020F2B"/>
<path d="M434.612 115.272C434.612 115.272 432.934 111.729 430.789 116.485L434.612 115.272Z" fill="#EC7165"/>
<path d="M422.117 111.449C420.719 111.449 419.6 112.568 419.506 113.967C419.506 115.366 420.625 116.485 422.024 116.578C423.423 116.578 424.542 115.459 424.635 114.06C424.635 112.568 423.516 111.449 422.117 111.449Z" fill="#F79288"/>
<path d="M411.58 112.382C412.699 112.195 413.631 111.169 413.631 109.957C413.631 109.025 413.165 108.185 412.419 107.719C412.419 107.719 411.3 110.517 411.58 112.382Z" fill="#F79288"/>
<path d="M413.725 111.076L417.548 113.034C417.548 113.034 415.683 114.433 414.657 113.687C413.632 112.848 413.725 111.076 413.725 111.076Z" fill="white"/>
<path d="M416.616 108.278L415.963 111.076L414.657 110.516C414.378 110.423 414.378 110.05 414.564 109.864L416.616 108.278Z" fill="#EC7165"/>
<path d="M421.557 107.16C421.93 107.626 421.744 105.947 421.184 105.574C420.625 105.201 419.879 105.295 419.599 105.761C419.599 105.854 420.811 106.041 421.557 107.16Z" fill="black"/>
<path d="M414.283 104.456C413.724 104.642 414.936 103.43 415.589 103.523C416.241 103.616 416.801 104.083 416.708 104.642C416.708 104.642 415.682 104.083 414.283 104.456Z" fill="black"/>
<path d="M419.412 109.211C419.226 109.677 418.853 109.957 418.666 109.863C418.48 109.77 418.386 109.304 418.573 108.838C418.759 108.371 419.132 108.092 419.319 108.185C419.505 108.278 419.599 108.744 419.412 109.211Z" fill="black"/>
<path d="M415.776 107.532C415.589 107.999 415.31 108.278 415.03 108.185C414.843 108.092 414.75 107.626 414.937 107.253C415.123 106.786 415.403 106.507 415.683 106.6C415.962 106.693 415.962 107.066 415.776 107.532Z" fill="black"/>
<path d="M415.683 119.749C415.683 119.749 420.532 120.681 422.957 120.495C425.381 120.401 413.165 134.389 415.683 119.749Z" fill="black"/>
<path d="M418.386 342.524L416.614 354.926C416.614 354.926 413.816 363.225 411.205 359.962C408.594 356.791 405.983 355.113 405.983 355.113L405.144 342.151L418.386 342.524Z" fill="#F1A9A5"/>
<path d="M411.485 342.989L411.019 359.961C411.019 359.961 419.318 361.173 416.241 355.671L418.013 343.922L411.485 342.989Z" fill="#F79288"/>
<path d="M459.976 341.591L463.892 353.994C463.892 353.994 466.876 356.605 467.902 356.511C469.86 356.418 470.886 353.061 470.886 353.061L471.166 341.591H459.976Z" fill="#F1A9A5"/>
<path d="M465.57 338.234L468.275 358.749C468.275 358.749 473.87 360.241 470.792 354.646L471.445 338.98L465.57 338.234Z" fill="#F79288"/>
<path d="M405.145 355.112L394.701 363.598C394.142 363.971 394.515 364.623 395.354 364.623L410.74 364.717C411.113 364.717 411.486 364.53 411.579 364.344L412.698 361.919C413.071 361.266 413.724 361.173 413.631 361.919L414.19 364.25C414.19 364.623 417.827 364.53 417.827 364.157C418.014 362.106 417.641 355.392 417.268 353.527C417.174 353.247 416.988 353.06 416.615 352.967C416.242 352.874 415.962 352.967 415.776 353.247C414.75 354.273 411.393 357.257 409.621 356.697C408.409 356.324 406.917 355.578 406.451 355.112C406.078 354.832 405.518 354.832 405.145 355.112Z" fill="#FF6E95"/>
<path d="M470.979 352.594L476.854 362.479C477.507 363.411 477.134 364.624 476.015 365.276C474.15 366.395 472.658 368.54 471.446 368.633C469.301 368.727 466.037 366.489 464.172 365.649C462.867 365.09 461.934 364.251 462.027 363.225L463.519 353.247C463.519 353.154 463.799 353.061 463.892 353.154L466.13 355.205C466.876 355.858 468.928 355.765 469.394 355.019C469.767 354.459 470.606 352.594 470.606 352.594C470.7 352.501 470.886 352.501 470.979 352.594Z" fill="#FF6E95"/>
<path d="M439.554 178.031C444.31 186.516 446.828 192.671 449.625 203.395C452.796 215.89 487.298 321.263 488.79 343.923C484.874 344.855 458.764 344.762 456.339 344.576C448.413 321.916 428.457 248.528 425.1 234.261C424.541 232.116 421.184 232.582 421.464 234.82C423.422 251.046 433.773 319.584 438.902 344.669C436.85 345.695 406.917 345.508 404.585 345.228C401.974 317.346 388.267 211.694 408.968 177.378C418.386 175.979 429.949 177.751 439.554 178.031Z" fill="#2D4773"/>
<path d="M410.088 181.016C410.088 181.016 401.602 201.904 401.602 231.371C401.602 260.838 411.3 335.531 411.3 335.531" stroke="white" stroke-width="0.3961" stroke-miterlimit="10"/>
<path d="M468.555 335.53L434.892 180.082" stroke="white" stroke-width="0.3961" stroke-miterlimit="10"/>
<path d="M428.924 180.921C428.924 180.921 429.204 207.964 441.326 205.819" stroke="white" stroke-width="0.3961" stroke-miterlimit="10"/>
<path opacity="0.21" d="M409.062 181.574L448.041 210.948C448.041 210.948 449.626 195.096 442.725 182.04L409.062 181.574Z" fill="black"/>
<path d="M403.84 207.031C415.962 209.176 414.004 182.32 414.004 182.32" stroke="white" stroke-width="0.3961" stroke-miterlimit="10"/>
<path d="M427.152 131.871C427.152 131.871 429.67 131.125 429.203 131.685C428.83 132.244 427.898 132.804 427.059 133.363L427.152 131.871Z" fill="#C20034"/>
<path d="M437.036 335.717H403.373" stroke="white" stroke-width="0.3961" stroke-miterlimit="10"/>
<path d="M487.671 335.437L452.888 335.716" stroke="white" stroke-width="0.3961" stroke-miterlimit="10"/>
<path d="M451.118 228.665C451.118 228.478 451.304 226.24 451.304 226.24L450.278 229.411L451.118 228.665Z" fill="#D15449"/>
<path d="M444.87 231.742L444.217 232.302C444.217 232.302 444.963 233.607 445.243 233.514C445.243 233.514 444.684 232.954 444.87 231.742Z" fill="#D15449"/>
<path d="M371.482 154.624C371.482 154.624 396.939 189.965 403.001 185.769C403.001 185.769 409.901 180.92 406.451 161.151C406.451 159.193 406.451 157.887 406.544 157.608C406.544 157.608 408.036 138.118 411.207 134.109C411.58 133.642 412.605 132.803 412.512 132.803C402.721 130.379 398.991 154.997 396.287 166.373C396.193 166.839 377.45 148.656 377.45 148.656C377.45 148.656 367.659 135.694 367.006 136.44C365.98 137.466 369.803 143.247 369.803 143.247C369.803 143.247 369.524 143.9 368.778 144.273C368.032 144.646 367.659 145.112 367.379 146.045C367.099 147.07 366.167 147.63 365.98 148.189C365.7 148.842 369.43 153.132 371.482 154.624Z" fill="#F1ABA5"/>
<path d="M376.984 148.562C376.984 148.562 375.026 142.967 374.186 143.154C373.347 143.34 369.71 144.926 369.804 146.324C369.897 147.723 372.974 146.604 372.974 146.604C372.974 146.604 372.415 149.775 374 150.148C375.585 150.427 376.984 148.562 376.984 148.562Z" fill="#F1ABA5"/>
<path d="M372.135 146.231C372.135 146.231 372.229 147.63 371.11 147.909C371.11 147.909 370.83 149.401 369.338 149.028C369.338 149.028 369.711 149.681 368.872 149.868C368.872 149.868 372.695 154.064 372.135 146.231Z" fill="#F79288"/>
<path d="M372.881 143.527C372.228 143.993 371.482 144.459 370.829 144.832C370.456 145.019 370.083 145.205 369.804 145.485C369.71 145.578 369.524 145.765 369.524 145.765C369.524 145.858 369.524 145.951 369.617 146.045C369.804 146.231 370.177 146.418 370.55 146.511C370.923 146.604 371.296 146.604 371.762 146.604C371.948 146.604 372.135 146.511 372.508 146.791C372.694 146.977 372.601 147.164 372.601 147.257L372.508 147.537C372.415 147.91 372.228 148.376 372.135 148.749L372.321 147.537C372.321 147.35 372.508 147.07 372.321 146.977C372.135 146.884 371.948 146.884 371.762 146.884C370.923 146.884 370.083 146.791 369.431 146.231C369.244 146.045 369.151 145.858 369.244 145.672C369.337 145.485 369.431 145.299 369.617 145.205C369.99 144.926 370.363 144.832 370.736 144.646L372.881 143.527Z" fill="#EC7165"/>
<path d="M369.618 143.06C369.804 143.06 369.991 143.153 370.084 143.247C370.27 143.34 370.364 143.433 370.457 143.526C370.55 143.62 370.643 143.713 370.737 143.899C370.83 144.086 370.83 144.179 370.83 144.366C370.457 143.993 369.991 143.526 369.618 143.06Z" fill="#EC7165"/>
<path d="M367.938 145.205C368.311 145.485 368.684 145.671 368.964 145.951C369.337 146.231 369.617 146.511 369.99 146.697C370.269 146.977 370.642 147.257 371.015 147.443C371.202 147.536 371.295 147.63 371.481 147.723C371.668 147.816 371.855 147.723 372.041 147.63C371.761 148.003 371.202 147.909 370.829 147.723C370.456 147.536 370.083 147.257 369.71 146.977C369.057 146.511 368.497 145.858 367.938 145.205Z" fill="#EC7165"/>
<path d="M371.203 147.909C371.203 148.375 371.203 149.028 370.644 149.401C370.364 149.588 369.991 149.588 369.711 149.494C369.431 149.401 369.152 149.308 368.965 149.121C368.499 148.748 368.219 148.375 367.846 148.002C367.566 147.629 367.287 147.163 367.007 146.697C367.287 147.07 367.66 147.443 368.033 147.816C368.406 148.189 368.685 148.562 369.152 148.842C369.525 149.121 370.084 149.401 370.55 149.121C370.923 148.935 371.017 148.375 371.203 147.909Z" fill="#EC7165"/>
<path d="M369.431 148.842C369.524 149.122 369.524 149.495 369.431 149.774C369.338 149.961 369.338 150.147 369.151 150.241C369.058 150.334 368.871 150.427 368.871 150.427C368.778 150.427 368.685 150.52 368.592 150.52C368.219 150.614 367.846 150.427 367.566 150.334C367.473 150.241 367.286 150.241 367.1 150.054C366.913 149.961 366.913 149.774 366.82 149.588C367.006 149.868 367.286 149.961 367.566 150.054C367.846 150.147 368.125 150.241 368.405 150.241C368.592 150.241 368.685 150.241 368.778 150.147C368.871 150.054 368.965 149.868 369.058 149.774C369.338 149.401 369.431 149.122 369.431 148.842Z" fill="#EC7165"/>
<path d="M412.419 132.803C412.419 132.803 406.078 131.871 403.56 137.093C401.043 142.222 395.448 165.348 395.448 165.348L379.875 150.428L373.813 161.431C373.813 161.431 396.007 189.5 402.441 187.448C408.689 185.49 412.419 139.89 412.419 132.803Z" fill="#FF6B82"/>
<path d="M411.393 133.922C411.673 134.575 403.56 153.971 403.84 160.499C404.213 167.119 408.689 178.216 408.316 179.242C408.316 179.242 413.444 183.252 441.699 178.869C450.371 171.222 442.725 145.392 439.834 137.186C439.834 137.186 434.239 134.389 431.908 134.202C431.908 134.202 422.49 137.186 411.393 133.922Z" fill="#FF6B82"/>
<path d="M432.001 134.202L427.991 128.98C427.991 128.98 423.235 132.337 416.055 134.855L416.148 136.72C416.428 140.45 420.438 142.595 423.608 140.73C426.965 138.771 430.509 136.347 432.001 134.202Z" fill="#FFEBF1"/>
<path d="M415.123 128.7C415.123 128.7 413.911 133.269 416.149 134.948L415.496 136.533C414.75 138.678 411.58 138.305 411.393 136.067C411.3 135.134 411.3 134.388 411.487 133.736L415.123 128.7Z" fill="#FFEBF1"/>
<path d="M435.265 237.99L471.819 214.584L456.619 190.899L425.007 211.134C422.303 212.906 421.464 216.543 423.235 219.34L435.265 237.99Z" fill="#FFC557"/>
<path opacity="0.6" d="M448.226 195.561C448.226 195.561 454.101 198.265 449.532 214.957C449.252 215.796 449.066 216.822 449.252 217.754L450.278 224.934C450.464 225.68 450.558 226.706 449.905 227.172C449.066 227.732 444.403 232.021 443.844 232.208C442.725 232.581 443.937 226.893 443.75 223.909C443.75 223.349 443.564 225.774 443.564 226.893L443.377 229.224C441.979 228.571 441.979 225.867 441.792 225.028C441.512 223.815 441.699 223.069 441.885 222.79C442.538 221.484 443.75 218.873 443.937 216.449C444.03 215.05 443.098 209.921 442.258 200.316L448.226 195.561Z" fill="#4E7A8F"/>
<path d="M448.973 154.904C459.884 215.89 452.796 227.546 452.05 228.012C451.118 228.572 446.082 233.327 445.43 233.514C444.124 233.98 445.523 227.732 445.336 224.469C445.336 223.909 445.15 226.52 445.057 227.732L444.87 230.25C443.378 229.597 443.378 226.613 443.098 225.588C442.819 224.282 443.005 223.443 443.192 223.07C443.844 221.578 445.243 218.78 445.43 216.169C445.523 214.677 435.172 165.068 433.4 157.795C430.883 147.91 434.053 136.534 437.503 136.161C441.979 135.694 448.041 149.868 448.973 154.904Z" fill="#F1ABA5"/>
<path d="M456.62 212.626C456.154 210.761 458.485 175.139 450.559 151.92C447.015 141.476 441.887 135.694 437.597 136.16C434.147 136.533 430.976 147.91 433.494 157.795C435.359 165.068 439.182 197.612 442.353 214.211L456.62 212.626Z" fill="#FF6B82"/>
<path d="M442.166 87.4832L449.439 80.2097H476.855C482.45 80.2097 486.926 75.7336 486.926 70.1386V67.9939C486.926 62.3989 482.45 57.9229 476.855 57.9229H452.237C446.642 57.9229 442.166 62.3989 442.166 67.9939V87.4832Z" fill="#FFC557"/>
<path d="M472.377 68.7404C472.377 70.1392 473.496 71.2582 474.895 71.2582C476.294 71.2582 477.413 70.1392 477.413 68.7404C477.413 67.3417 476.294 66.2227 474.895 66.2227C473.496 66.2227 472.377 67.3417 472.377 68.7404Z" fill="#FAFAFA"/>
<path d="M463.146 68.7404C463.146 70.1392 464.265 71.2582 465.664 71.2582C467.063 71.2582 468.182 70.1392 468.182 68.7404C468.182 67.3417 467.063 66.2227 465.664 66.2227C464.265 66.2227 463.146 67.3417 463.146 68.7404Z" fill="#FAFAFA"/>
<path d="M453.914 68.7404C453.914 70.1392 455.033 71.2582 456.431 71.2582C457.83 71.2582 458.949 70.1392 458.949 68.7404C458.949 67.3417 457.83 66.2227 456.431 66.2227C455.033 66.2227 453.914 67.3417 453.914 68.7404Z" fill="#FAFAFA"/>
<path d="M99.287 337.86L97.5153 334.317L86.7915 334.69L86.605 337.86L91.6405 346.533L100.686 339.539L99.287 337.86Z" fill="#F0A5A9"/>
<path d="M92.7595 334.597L92.2932 342.803C92.2932 342.803 89.4957 341.217 86.2319 338.327L86.6982 333.664L92.7595 334.597Z" fill="#E6777D"/>
<path d="M99.9395 337.674C99.9395 337.674 96.769 337.58 93.1323 340.378C90.9875 342.056 87.6305 338.606 86.698 337.767C86.5115 337.58 86.2318 337.767 86.1385 338.047L84.833 349.61H116.631C117.004 349.61 117.284 349.237 117.284 348.77V346.346C117.284 345.973 117.098 345.6 116.818 345.507L99.9395 337.674Z" fill="#2D4773"/>
<path d="M101.711 338.327L96.6758 341.311" stroke="white" stroke-width="0.4846" stroke-miterlimit="10"/>
<path d="M103.949 339.446L98.8203 342.43" stroke="white" stroke-width="0.4846" stroke-miterlimit="10"/>
<path d="M47.4394 337.861L45.6676 334.317L35.8763 332.825L34.7573 337.861L39.6996 346.533L48.8381 339.539L47.4394 337.861Z" fill="#F0A5A9"/>
<path d="M39.8861 334.41L40.8186 342.15C40.8186 342.15 38.0211 340.565 34.7573 337.674L35.6898 333.664L39.8861 334.41Z" fill="#E6777D"/>
<path d="M48.0929 337.674C48.0929 337.674 44.9224 337.58 41.2856 340.378C39.1408 342.056 35.7838 338.606 34.8513 337.767C34.6648 337.58 34.3851 337.767 34.2918 338.047L32.9863 349.61H64.7847C65.1577 349.61 65.4374 349.237 65.4374 348.77V346.346C65.4374 345.973 65.2509 345.6 64.9712 345.507L48.0929 337.674Z" fill="#2D4773"/>
<path d="M50.6102 338.514L45.4814 341.498" stroke="white" stroke-width="0.4846" stroke-miterlimit="10"/>
<path d="M52.8475 339.726L47.7188 342.617" stroke="white" stroke-width="0.4846" stroke-miterlimit="10"/>
<path d="M86.1385 77.9721C88.3765 74.4286 89.1225 69.2066 85.206 66.8753C83.1545 65.6631 80.5435 65.9428 78.7717 67.4348C77.9325 68.0876 77.2797 69.0201 76.8135 69.9526C76.0675 68.8336 74.8552 68.0876 73.4565 68.0876C72.2442 68.0876 70.7522 69.0201 69.913 70.3256C68.7007 69.9526 67.302 69.8593 66.183 70.1391C63.4787 70.7918 62.9192 74.4286 64.5044 76.4801C62.5462 79.0911 61.9867 82.7279 64.7842 91.8664V91.9597L68.5142 94.0112L68.6075 93.8247L68.7007 93.6381L68.421 93.4517L72.151 81.3291C72.6172 80.9561 75.7877 78.9046 77.373 80.2101C79.0515 81.5156 80.9165 82.7279 82.4085 82.1684C83.0612 81.8886 83.6207 81.2359 84.087 80.6764C85.1128 80.0236 85.7655 79.0911 86.1385 77.9721ZM84.5532 68.0876C85.952 68.9268 86.6048 70.3256 86.6048 71.9109C85.952 68.9268 83.0612 67.4348 80.2637 68.1808C81.476 67.4348 83.1545 67.3416 84.5532 68.0876ZM65.9965 91.9597C66.4627 92.0529 67.0222 92.4259 67.6749 92.9854L66.8357 92.5191L65.9965 91.9597Z" fill="#020F2B"/>
<path d="M97.3287 198.451C97.3287 198.451 101.432 247.408 101.805 260.929C102.178 274.45 99.4734 334.783 99.4734 334.783L82.4086 335.063C82.4086 335.063 70.4726 233.886 53.9673 201.249L97.3287 198.451Z" fill="#D15868"/>
<path d="M76.7207 200.969C76.7207 200.969 88.377 257.572 88.377 266.244C88.377 274.916 90.0555 334.596 90.0555 334.596" stroke="white" stroke-width="0.4846" stroke-miterlimit="10"/>
<path d="M81.5703 328.536H99.6609" stroke="white" stroke-width="0.4846" stroke-miterlimit="10"/>
<path d="M97.3286 198.451C97.3286 198.451 87.8171 239.295 78.2123 268.202C70.4726 291.515 53.2213 336.275 53.2213 336.275L34.105 335.809L50.7035 268.948C51.5428 265.498 52.1023 261.861 52.382 258.318C53.2213 244.797 50.4238 217.381 49.3048 199.757L97.3286 198.451Z" fill="#FF6B82"/>
<path d="M64.2247 199.198C64.2247 199.198 68.7007 252.071 64.6909 260.37C60.6812 268.576 41.0986 335.623 41.0986 335.623" stroke="#020F2B" stroke-width="0.4846" stroke-miterlimit="10"/>
<path d="M36.1567 329.654H55.273" stroke="#020F2B" stroke-width="0.4846" stroke-miterlimit="10"/>
<path d="M80.2648 198.731L65.9976 217.475" stroke="#020F2B" stroke-width="0.4846" stroke-miterlimit="10"/>
<path d="M74.4837 121.333C74.4837 121.333 73.9242 116.95 78.0273 116.297C82.1303 115.645 93.0405 112.754 120.922 122.265C120.922 122.265 125.771 95.3161 125.771 93.1714C125.865 87.4831 127.73 80.1163 132.112 76.1998C132.485 75.9201 132.765 90.2806 132.858 97.9271C132.858 97.9271 136.588 136.626 132.019 140.449C127.45 144.459 70.0077 134.668 74.4837 121.333Z" fill="#F0A5A9"/>
<path d="M82.6884 114.712C82.6884 114.712 66.9291 112.101 67.3954 124.316C67.8617 136.532 98.4477 144.925 106.84 142.873L104.229 115.644L82.6884 114.712Z" fill="#2D4773"/>
<path d="M106.747 142.5C104.322 145.391 80.3568 139.237 77.7458 135.32C77.7458 135.32 77.3728 121.892 78.3986 121.706C88.7493 118.815 106.747 142.5 106.747 142.5Z" fill="#020F2B" stroke="#020F2B" stroke-width="0.5144" stroke-miterlimit="10"/>
<path d="M60.4017 113.314C60.4017 113.314 39.0474 115.459 37.6486 133.176C36.3431 150.894 47.3467 199.944 47.3467 199.944L100.872 198.265L97.9815 137.373C97.795 132.897 96.3963 128.514 93.9718 124.691C91.7338 121.24 89.1228 117.231 87.6308 117.044L63.6655 110.89L60.4017 113.314Z" fill="#2D4773"/>
<path d="M55.9257 119.935C42.9639 114.713 38.3014 124.318 37.6486 133.177C36.3431 150.894 47.3467 199.944 47.3467 199.944L100.872 198.265" fill="#263C61"/>
<path d="M84.2747 175.045C84.368 175.977 84.2747 176.723 83.9017 176.817C83.622 176.817 83.249 176.164 83.1557 175.231C83.0625 174.299 83.1557 173.553 83.5287 173.46C83.8085 173.366 84.0882 174.112 84.2747 175.045Z" fill="white"/>
<path d="M67.1161 97.2746L65.9038 109.304L78.3061 119.655L80.1711 114.246L79.2386 104.268L69.2608 95.2231C69.2608 95.2231 67.6756 96.3421 67.4891 96.7151C67.3026 97.0881 67.1161 97.2746 67.1161 97.2746Z" fill="#F0A5A9"/>
<path d="M69.0742 95.3164L79.052 104.362L79.798 110.236C79.798 110.236 70.7527 107.719 70.3797 100.259" fill="#020F2B"/>
<path d="M80.0779 127.488C80.1712 128.421 80.0779 129.167 79.7049 129.26C79.4252 129.26 79.0522 128.607 78.9589 127.675C78.8657 126.742 78.9589 125.996 79.3319 125.903C79.6117 125.81 79.9847 126.556 80.0779 127.488Z" fill="white"/>
<path d="M80.9168 137C81.0101 137.932 80.9168 138.678 80.5438 138.772C80.1708 138.865 79.891 138.119 79.7978 137.186C79.7045 136.254 79.7978 135.508 80.1708 135.415C80.5438 135.321 80.8236 136.067 80.9168 137Z" fill="white"/>
<path d="M81.7557 146.51C81.8489 147.442 81.7557 148.188 81.3827 148.281C81.1029 148.281 80.7299 147.629 80.6367 146.696C80.5434 145.764 80.6367 145.018 81.0097 144.924C81.2894 144.831 81.6624 145.577 81.7557 146.51Z" fill="white"/>
<path d="M82.596 156.023C82.6892 156.955 82.596 157.701 82.223 157.795C81.9432 157.795 81.5702 157.142 81.477 156.209C81.3837 155.277 81.477 154.531 81.85 154.438C82.223 154.344 82.5027 155.09 82.596 156.023Z" fill="white"/>
<path d="M83.4339 165.534C83.5271 166.466 83.4339 167.212 83.0609 167.305C82.7811 167.305 82.4081 166.653 82.3149 165.72C82.2216 164.788 82.3149 164.042 82.6879 163.948C82.9676 163.855 83.3406 164.601 83.4339 165.534Z" fill="white"/>
<path d="M85.1131 184.557C85.2063 185.49 85.1131 186.236 84.7401 186.329C84.4603 186.329 84.0873 185.676 83.9941 184.744C83.9008 183.811 83.9941 183.065 84.3671 182.972C84.6468 182.879 84.9266 183.625 85.1131 184.557Z" fill="white"/>
<path d="M85.9515 194.069C86.0447 195.001 85.9515 195.747 85.5785 195.84C85.2987 195.84 84.9257 195.188 84.8325 194.255C84.7392 193.323 84.8325 192.577 85.2055 192.483C85.4852 192.39 85.765 193.136 85.9515 194.069Z" fill="white"/>
<path d="M65.4362 108.465L58.8154 111.543L75.3207 125.53L78.2115 119.655L65.4362 108.465Z" fill="white"/>
<path d="M80.0774 113.033C80.3572 113.126 82.9682 114.898 82.9682 114.898L83.0614 123.756L78.2124 119.653L80.0774 113.033Z" fill="white"/>
<path d="M94.6243 174.393L106.56 137C107.213 134.948 108.705 133.27 110.663 132.431L135.095 121.893C135.841 121.614 136.587 122.266 136.307 123.106L124.278 159.753C123.625 161.711 122.226 163.296 120.361 164.229L95.9298 175.699C95.0905 175.885 94.3445 175.232 94.6243 174.393Z" fill="#2D4773"/>
<path d="M96.676 176.631L108.612 139.237C109.265 137.186 110.757 135.507 112.715 134.668L137.147 124.131C137.893 123.851 138.639 124.504 138.359 125.343L126.33 161.99C125.677 163.949 124.278 165.534 122.413 166.466L97.9815 177.936C97.1423 178.123 96.3963 177.377 96.676 176.631Z" fill="white"/>
<path d="M102.738 149.215L111.69 151.92L100.406 156.489L102.738 149.215Z" fill="#020F2B"/>
<path d="M113.275 141.289L134.443 132.244" stroke="#1D254A" stroke-width="0.5144" stroke-miterlimit="10"/>
<path d="M113.275 145.206L130.806 138.025" stroke="#1D254A" stroke-width="0.5144" stroke-miterlimit="10"/>
<path d="M103.857 167.678L126.424 157.794L125.025 162.55L101.992 172.9L103.857 167.678Z" fill="#FFC557"/>
<path d="M111.876 155.835C110.57 157.048 86.8845 181.293 75.508 192.296C72.4308 195.28 67.4885 194.534 65.3437 190.804L45.3882 157.327L64.318 142.687C64.4112 142.874 74.2958 159.659 76.627 168.144C77.373 170.942 78.6785 170.662 80.9165 169.357L98.1678 158.726C98.1678 158.726 98.1678 155.742 98.5408 154.53C99.2868 152.385 102.737 149.494 102.737 149.494L101.245 154.064C100.965 154.81 100.126 155.369 101.525 155.556L112.435 147.443C112.435 147.443 113.461 147.35 112.528 148.469C111.596 149.588 110.57 150.707 110.663 150.8C110.757 150.893 113.834 148.748 113.927 149.588C114.02 150.427 111.503 152.292 111.596 152.385C111.689 152.478 114.487 150.147 114.673 150.893C114.86 151.639 112.715 153.131 112.622 153.411C112.528 153.691 114.953 151.826 115.046 152.292C115.046 152.572 112.622 155.183 111.876 155.835Z" fill="#F0A5A9"/>
<path d="M59.2821 127.767C59.2821 127.767 53.8736 112.66 43.5228 119.001C33.172 125.342 40.8186 156.395 46.6001 162.736L68.8869 147.256L59.2821 127.767Z" fill="#2D4773"/>
<path d="M68.1409 91.9598C68.0476 92.2396 67.5814 92.3328 67.3949 92.1463C66.5556 91.3071 64.9704 90.2813 64.4108 93.4518C63.6648 97.7413 68.1409 96.9953 68.5139 97.6481C69.2599 98.8603 71.5911 102.777 75.0414 104.362C77.1861 105.295 80.3566 105.481 82.5946 103.243C84.9259 101.005 85.9517 102.497 85.0192 78.7183C85.0192 78.7183 83.9934 80.7698 82.4081 81.3293C80.9161 81.8888 78.3984 79.744 76.7199 79.2778C75.3211 78.9048 72.5236 77.879 70.8451 82.728C70.0991 84.8728 68.8869 90.0948 68.1409 91.9598Z" fill="#F0A5A9"/>
<path d="M84.18 90.4679C84.18 90.4679 83.807 88.5096 82.9678 90.5611" stroke="#1D254A" stroke-width="0.328" stroke-miterlimit="10"/>
<path d="M77.3724 90.6543L66.5553 90.9341C66.5553 90.9341 64.5038 90.7475 63.9443 92.5193" stroke="#1D254A" stroke-width="0.328" stroke-miterlimit="10"/>
<path d="M85.7654 93.3589C86.6924 93.3589 87.4439 91.6472 87.4439 89.5357C87.4439 87.4241 86.6924 85.7124 85.7654 85.7124C84.8384 85.7124 84.0869 87.4241 84.0869 89.5357C84.0869 91.6472 84.8384 93.3589 85.7654 93.3589Z" stroke="#1D254A" stroke-width="0.3361" stroke-miterlimit="10"/>
<path d="M80.0763 94.5711C81.6213 94.5711 82.8738 92.5254 82.8738 90.0019C82.8738 87.4783 81.6213 85.4326 80.0763 85.4326C78.5313 85.4326 77.2788 87.4783 77.2788 90.0019C77.2788 92.5254 78.5313 94.5711 80.0763 94.5711Z" stroke="#1D254A" stroke-width="0.328" stroke-miterlimit="10"/>
<path d="M84.9262 95.6909C84.9262 95.6909 83.5274 96.3437 80.0771 96.0639C80.0771 96.0639 81.9422 98.5817 83.2477 98.1154C84.6464 97.6492 84.9262 95.6909 84.9262 95.6909Z" fill="white"/>
<path d="M65.0635 93.0782L67.488 94.85C67.3947 94.85 66.5555 90.5605 65.0635 93.0782Z" fill="#E6777D"/>
<path d="M82.1293 90.6547C82.1293 91.2142 81.9428 91.5872 81.663 91.5872C81.3833 91.5872 81.1968 91.1209 81.1968 90.6547C81.1968 90.0952 81.3833 89.7222 81.663 89.7222C81.9428 89.7222 82.1293 90.1884 82.1293 90.6547Z" fill="#020F2B"/>
<path d="M85.1127 90.1889C85.1127 90.7484 84.9262 91.1214 84.6464 91.1214C84.3667 91.1214 84.1802 90.6551 84.1802 90.1889C84.1802 89.6293 84.3667 89.2563 84.6464 89.2563C84.9262 89.2563 85.1127 89.7226 85.1127 90.1889Z" fill="#020F2B"/>
<path d="M78.2123 86.6455C77.5596 87.1118 78.5853 84.967 79.5178 84.6873C80.4503 84.4075 81.3828 84.8738 81.5693 85.713C81.5693 85.713 79.8908 85.4333 78.2123 86.6455Z" fill="#020F2B"/>
<path d="M85.2054 86.3651C84.2729 86.2718 83.5269 86.3651 83.5269 86.3651C83.6201 85.6191 84.3661 85.0596 85.2054 85.0596" fill="#020F2B"/>
<path d="M83.7133 90.1877L85.1121 94.1975C85.1121 94.2907 85.1121 94.2907 85.0188 94.384L83.3403 94.4772C83.2471 94.4772 83.2471 94.384 83.2471 94.384L83.5268 90.281C83.5268 90.0945 83.6201 90.0945 83.7133 90.1877Z" fill="#E6777D"/>
<path d="M54.9935 64.5437L47.72 57.2702H20.2112C14.6162 57.2702 10.1401 52.7009 10.1401 47.1992V44.9612C10.1401 39.3661 14.7094 34.8901 20.2112 34.8901H44.8292C50.4242 34.8901 54.9002 39.4594 54.9002 44.9612V64.5437H54.9935Z" fill="#FF6B82"/>
<path d="M22.1696 48.2245C23.5601 48.2245 24.6874 47.0972 24.6874 45.7067C24.6874 44.3162 23.5601 43.189 22.1696 43.189C20.7791 43.189 19.6519 44.3162 19.6519 45.7067C19.6519 47.0972 20.7791 48.2245 22.1696 48.2245Z" fill="#FAFAFA"/>
<path d="M33.9188 45.7067C33.9188 47.1055 32.7998 48.2245 31.4011 48.2245C30.0023 48.2245 28.8833 47.1055 28.8833 45.7067C28.8833 44.308 30.0023 43.189 31.4011 43.189C32.7998 43.189 33.9188 44.308 33.9188 45.7067Z" fill="#FAFAFA"/>
<path d="M40.633 48.2245C42.0235 48.2245 43.1507 47.0972 43.1507 45.7067C43.1507 44.3162 42.0235 43.189 40.633 43.189C39.2425 43.189 38.1152 44.3162 38.1152 45.7067C38.1152 47.0972 39.2425 48.2245 40.633 48.2245Z" fill="#FAFAFA"/>
<path d="M532.318 203.595C538.77 193.539 535.848 180.156 525.791 173.704C515.735 167.252 502.352 170.174 495.9 180.231C489.448 190.287 492.37 203.67 502.427 210.122C512.483 216.574 525.866 213.652 532.318 203.595Z" fill="#DAE5F7"/>
<path d="M521.43 213.464H492.243C490.284 213.464 488.792 211.878 488.792 210.013V172.247C488.792 170.289 490.378 168.797 492.243 168.797H521.43C523.388 168.797 524.88 170.382 524.88 172.247V210.013C524.974 211.878 523.388 213.464 521.43 213.464Z" fill="#839DC9"/>
<path d="M516.488 209.734H494.761C493.921 209.734 493.362 209.081 493.362 208.335V173.553C493.362 172.807 494.015 172.154 494.761 172.154H519.658C520.498 172.154 521.057 172.807 521.057 173.553V205.258C520.498 205.911 517.047 209.268 516.488 209.734Z" fill="white" stroke="white" stroke-width="0.161" stroke-miterlimit="10"/>
<path d="M520.592 205.166L516.116 209.642L516.022 206.751C516.022 205.818 516.768 204.979 517.794 204.979L520.592 205.166Z" fill="#D8CFCE"/>
<path d="M497.091 173.274C496.345 173.274 495.692 172.621 495.692 171.875V167.585C495.692 166.839 496.345 166.187 497.091 166.187C497.837 166.187 498.49 166.839 498.49 167.585V171.875C498.49 172.621 497.837 173.274 497.091 173.274Z" fill="#839DC9"/>
<path opacity="0.37" d="M497.091 175.139C496.345 175.139 495.692 174.486 495.692 173.74V169.451C495.692 168.705 496.345 168.052 497.091 168.052C497.837 168.052 498.49 168.705 498.49 169.451V173.74C498.49 174.486 497.837 175.139 497.091 175.139Z" fill="#839DC9"/>
<path d="M506.137 173.274C505.391 173.274 504.738 172.621 504.738 171.875V167.585C504.738 166.839 505.391 166.187 506.137 166.187C506.883 166.187 507.535 166.839 507.535 167.585V171.875C507.535 172.621 506.883 173.274 506.137 173.274Z" fill="#839DC9"/>
<path opacity="0.37" d="M506.137 175.139C505.391 175.139 504.738 174.486 504.738 173.74V169.451C504.738 168.705 505.391 168.052 506.137 168.052C506.883 168.052 507.535 168.705 507.535 169.451V173.74C507.535 174.486 506.883 175.139 506.137 175.139Z" fill="#839DC9"/>
<path d="M515.088 173.274C514.342 173.274 513.689 172.621 513.689 171.875V167.585C513.689 166.839 514.342 166.187 515.088 166.187C515.834 166.187 516.487 166.839 516.487 167.585V171.875C516.487 172.621 515.927 173.274 515.088 173.274Z" fill="#839DC9"/>
<path opacity="0.37" d="M515.088 175.139C514.342 175.139 513.689 174.486 513.689 173.74V169.451C513.689 168.705 514.342 168.052 515.088 168.052C515.834 168.052 516.487 168.705 516.487 169.451V173.74C516.487 174.486 515.927 175.139 515.088 175.139Z" fill="#839DC9"/>
<path d="M499.05 190.805C499.05 191.644 498.397 192.297 497.558 192.297C496.719 192.297 496.066 191.644 496.066 190.805C496.066 189.965 496.719 189.312 497.558 189.312C498.397 189.406 499.05 190.059 499.05 190.805Z" stroke="#7289B5" stroke-width="1.03" stroke-miterlimit="10"/>
<path d="M499.05 197.238C499.05 198.077 498.397 198.73 497.558 198.73C496.719 198.73 496.066 198.077 496.066 197.238C496.066 196.399 496.719 195.746 497.558 195.746C498.397 195.746 499.05 196.399 499.05 197.238Z" stroke="#7289B5" stroke-width="1.03" stroke-miterlimit="10"/>
<path d="M499.05 203.58C499.05 204.419 498.397 205.072 497.558 205.072C496.719 205.072 496.066 204.419 496.066 203.58C496.066 202.741 496.719 202.088 497.558 202.088C498.397 202.181 499.05 202.834 499.05 203.58Z" stroke="#7289B5" stroke-width="1.03" stroke-miterlimit="10"/>
<path d="M514.809 191.364H502.78C502.407 191.364 502.127 191.084 502.127 190.711C502.127 190.338 502.407 190.059 502.78 190.059H514.809C515.182 190.059 515.462 190.338 515.462 190.711C515.369 191.084 515.089 191.364 514.809 191.364Z" fill="#7289B5"/>
<path d="M514.809 197.892H502.78C502.407 197.892 502.127 197.613 502.127 197.24C502.127 196.867 502.407 196.587 502.78 196.587H514.809C515.182 196.587 515.462 196.867 515.462 197.24C515.369 197.613 515.089 197.892 514.809 197.892Z" fill="#7289B5"/>
<path d="M514.809 204.419H502.78C502.407 204.419 502.127 204.14 502.127 203.767C502.127 203.394 502.407 203.114 502.78 203.114H514.809C515.182 203.114 515.462 203.394 515.462 203.767C515.369 204.14 515.089 204.419 514.809 204.419Z" fill="#7289B5"/>
<path d="M497.651 191.458C497.558 191.458 497.465 191.458 497.372 191.365L495.786 189.593C495.6 189.406 495.6 189.127 495.786 189.033C495.973 188.847 496.159 188.847 496.253 189.033L497.558 190.525L499.796 187.914C499.983 187.728 500.169 187.728 500.262 187.914C500.449 188.101 500.449 188.381 500.262 188.474L497.745 191.365C497.838 191.458 497.745 191.458 497.651 191.458Z" fill="#1B1A4D" stroke="#1B1A4D" stroke-width="0.7725" stroke-miterlimit="10" stroke-linecap="round" stroke-linejoin="round"/>
<path d="M497.651 197.891C497.558 197.891 497.465 197.891 497.372 197.798L495.786 196.026C495.6 195.84 495.6 195.56 495.786 195.467C495.973 195.28 496.159 195.28 496.253 195.467L497.558 196.959L499.796 194.348C499.983 194.161 500.169 194.161 500.262 194.348C500.449 194.534 500.449 194.814 500.262 194.907L497.745 197.798C497.838 197.798 497.745 197.891 497.651 197.891Z" fill="#1B1A4D" stroke="#1B1A4D" stroke-width="0.7725" stroke-miterlimit="10" stroke-linecap="round" stroke-linejoin="round"/>
<path opacity="0.74" d="M520.594 201.419C526.206 200.087 529.676 194.458 528.344 188.845C527.013 183.233 521.383 179.763 515.771 181.095C510.159 182.427 506.689 188.056 508.02 193.668C509.352 199.281 514.982 202.751 520.594 201.419Z" fill="white"/>
<path d="M520.594 201.419C526.206 200.087 529.676 194.458 528.344 188.845C527.013 183.233 521.383 179.763 515.771 181.095C510.159 182.427 506.689 188.056 508.02 193.668C509.352 199.281 514.982 202.751 520.594 201.419Z" stroke="#FFD375" stroke-width="2.7834" stroke-miterlimit="10"/>
<path d="M525.812 199.105L533.925 206.472" stroke="#FFD375" stroke-width="3.7378" stroke-miterlimit="10" stroke-linecap="round"/>
<path d="M481.239 126.835C490.2 126.835 497.464 119.57 497.464 110.609C497.464 101.648 490.2 94.3838 481.239 94.3838C472.278 94.3838 465.013 101.648 465.013 110.609C465.013 119.57 472.278 126.835 481.239 126.835Z" fill="#B4CEF7"/>
<path d="M479.561 113.687H473.686V119.561H479.561V113.687Z" stroke="white" stroke-width="0.7004" stroke-miterlimit="10"/>
<path d="M474.898 115.925L475.924 117.79L481.612 111.449" stroke="white" stroke-width="0.7004" stroke-miterlimit="10" stroke-linecap="round"/>
<path d="M479.56 102.03H473.686V107.905H479.56V102.03Z" stroke="white" stroke-width="0.7004" stroke-miterlimit="10"/>
<path d="M474.898 104.176L475.924 106.041L481.612 99.793" stroke="white" stroke-width="0.7004" stroke-miterlimit="10" stroke-linecap="round"/>
<g opacity="0.57">
<path d="M498.117 105.76H484.41C483.85 105.76 483.291 105.294 483.291 104.641C483.291 104.082 483.757 103.522 484.41 103.522H498.117C498.677 103.522 499.236 103.989 499.236 104.641C499.236 105.294 498.677 105.76 498.117 105.76Z" fill="white" stroke="white" stroke-width="0.6619" stroke-miterlimit="10"/>
<path d="M499.143 117.416H484.41C483.757 117.416 483.291 116.95 483.291 116.297C483.291 115.644 483.757 115.178 484.41 115.178H499.143C499.796 115.178 500.262 115.644 500.262 116.297C500.262 116.95 499.796 117.416 499.143 117.416Z" fill="white" stroke="white" stroke-width="0.6619" stroke-miterlimit="10"/>
</g>
</svg>
