<svg width="247" height="60" viewBox="0 0 247 60" fill="none" xmlns="http://www.w3.org/2000/svg">
<path d="M5.7693 31.4325H0.239136V1.22583H19.4595V5.85321H5.7693V13.6671H17.4786V18.2944H5.7693V31.4325Z" fill="black"/>
<path d="M47.5684 10.3047C47.5684 12.4087 46.9869 14.2015 45.8174 15.6695C44.6545 17.1376 42.8495 18.2268 40.4157 18.9304V19.0183L49.3937 31.4325H42.7616L34.5475 19.7422H30.7548V31.4325H25.2246V1.22583H34.4055C35.9266 1.22583 37.3396 1.31378 38.6444 1.48291C39.9559 1.65881 41.0714 1.91586 42.0044 2.26089C43.7757 2.93741 45.1481 3.94543 46.1081 5.27141C47.0681 6.60416 47.5548 8.27515 47.5548 10.2912L47.5684 10.3047ZM33.4928 15.1148C34.757 15.1148 35.8252 15.0607 36.7108 14.9457C37.5897 14.8306 38.3334 14.6615 38.9351 14.4383C40.0506 14.0188 40.8213 13.4438 41.2472 12.7131C41.6731 11.9825 41.8895 11.1436 41.8895 10.1965C41.8895 9.38468 41.7204 8.66757 41.3824 8.0384C41.0444 7.416 40.4697 6.92214 39.6585 6.55682C39.1311 6.31327 38.4686 6.13736 37.6708 6.02911C36.8731 5.9141 35.8861 5.85998 34.7165 5.85998H30.7683V15.1148H33.4996H33.4928Z" fill="black"/>
<path d="M83.2319 16.3326C83.2319 18.6328 82.9074 20.7435 82.2516 22.6648C81.5958 24.5862 80.6426 26.2369 79.3851 27.617C78.1276 29.0039 76.5862 30.0795 74.7609 30.844C72.9355 31.6084 70.8533 31.9941 68.5209 31.9941C66.1885 31.9941 64.113 31.6084 62.2808 30.844C60.4487 30.0795 58.9141 29.0039 57.6566 27.617C56.3991 26.2301 55.4459 24.5794 54.7901 22.6648C54.1343 20.7435 53.8098 18.6328 53.8098 16.3326C53.8098 14.0324 54.1343 11.9217 54.7901 10.0004C55.4459 8.07903 56.3991 6.42832 57.6566 5.04821C58.9141 3.66135 60.4555 2.58571 62.2808 1.82124C64.1062 1.05677 66.1885 0.671143 68.5209 0.671143C70.8533 0.671143 72.9288 1.05677 74.7609 1.82124C76.593 2.58571 78.1276 3.66811 79.3851 5.04821C80.6426 6.43508 81.5958 8.0858 82.2516 10.0004C82.9074 11.9217 83.2319 14.0324 83.2319 16.3326ZM77.526 16.3326C77.526 14.4992 77.3029 12.8891 76.8499 11.5158C76.3969 10.1424 75.775 8.99235 74.9772 8.07228C74.1795 7.15222 73.233 6.46894 72.1378 6.01567C71.0426 5.56241 69.8392 5.33915 68.5276 5.33915C67.2161 5.33915 66.0127 5.56241 64.9175 6.01567C63.8222 6.46894 62.869 7.15222 62.078 8.07228C61.2803 8.99235 60.6583 10.1356 60.2053 11.5158C59.7524 12.8959 59.5293 14.4992 59.5293 16.3326C59.5293 18.166 59.7524 19.7761 60.2053 21.1494C60.6583 22.5228 61.2803 23.6729 62.078 24.5794C62.8758 25.4927 63.8222 26.176 64.9175 26.636C66.0127 27.0961 67.2161 27.3261 68.5276 27.3261C69.8392 27.3261 71.0358 27.0961 72.1378 26.636C73.233 26.176 74.1862 25.4927 74.9772 24.5794C75.775 23.6661 76.3969 22.5228 76.8499 21.1494C77.3029 19.7761 77.526 18.166 77.526 16.3326Z" fill="black"/>
<path d="M105.744 15.2704C107.907 18.3553 109.671 21.0952 111.024 23.4901H111.159C110.976 19.5595 110.888 16.7046 110.888 14.9118V1.2326H116.419V31.4392H110.618L100.781 17.53C99.0506 15.1216 97.259 12.3275 95.4134 9.15464H95.2782C95.4607 12.8552 95.5486 15.7237 95.5486 17.7532V31.4325H90.0184V1.22583H95.819L105.744 15.2704Z" fill="black"/>
<path d="M136.902 31.4325H131.372V5.85321H121.623V1.22583H146.617V5.85321H136.895V31.4325H136.902Z" fill="black"/>
<path d="M157.361 1.22583V26.8051H171.484V31.4325H151.838V1.22583H157.368H157.361Z" fill="black"/>
<path d="M177.596 31.4325V1.22583H183.126V31.4325H177.596Z" fill="black"/>
<path d="M206.993 15.2704C209.156 18.3553 210.921 21.0952 212.273 23.4901H212.408C212.225 19.5595 212.138 16.7046 212.138 14.9118V1.2326H217.668V31.4392H211.867L202.03 17.53C200.3 15.1216 198.508 12.3275 196.663 9.15464H196.527C196.71 12.8552 196.798 15.7237 196.798 17.7532V31.4325H191.268V1.22583H197.068L206.993 15.2704Z" fill="black"/>
<path d="M231.329 26.8051H246.175V31.4325H225.805V1.22583H245.364V5.85321H231.329V13.6671H243.376V18.2944H231.329V26.8051Z" fill="black"/>
<path d="M0.239136 44.5906H1.19238V51.1799H9.59579V44.5906H10.549V59.0749H9.59579V52.0458H1.19238V59.0749H0.239136V44.5906Z" fill="black"/>
<path d="M14.8548 44.5906H23.1027V45.4565H15.808V51.2205H22.4875V52.0864H15.808V58.2089H23.5286V59.0749H14.8548V44.5906Z" fill="black"/>
<path d="M25.6861 59.0749L31.6084 44.5906H32.5413L38.4839 59.0749H37.436L35.3605 53.9266H28.8027L26.734 59.0749H25.6929H25.6861ZM34.9954 53.0606L34.4411 51.6602C33.2377 48.6632 32.4602 46.681 32.1154 45.7136H32.0749C31.7774 46.539 31.2906 47.7635 30.6146 49.3871C30.405 49.8878 29.9047 51.1123 29.1205 53.0606H35.0022H34.9954Z" fill="black"/>
<path d="M41.2756 44.5906H42.2289V58.2089H49.5709V59.0749H41.2756V44.5906Z" fill="black"/>
<path d="M53.8035 45.4768H48.8142V44.5906H59.7731V45.4768H54.7635V59.0749H53.8103V45.4768H53.8035Z" fill="black"/>
<path d="M62.6651 44.5906H63.6183V51.1799H72.0218V44.5906H72.975V59.0749H72.0218V52.0458H63.6183V59.0749H62.6651V44.5906Z" fill="black"/>
<path d="M89.2022 44.5906C90.8179 44.5906 92.0822 44.9221 92.9881 45.5851C93.894 46.2481 94.347 47.2087 94.347 48.4738C94.347 49.9824 93.7994 51.1055 92.7041 51.8361C91.6089 52.5668 90.0202 52.9389 87.9379 52.9389C87.5053 52.9389 86.9509 52.8983 86.2681 52.8171V59.0817H85.3148V44.5973H89.2022V44.5906ZM93.3464 48.5144C93.3464 47.432 92.9543 46.654 92.1633 46.1737C91.3791 45.7001 90.2703 45.4565 88.8371 45.4565H86.2613V51.9579C86.9847 52.0323 87.539 52.0661 87.9312 52.0661C89.8376 52.0661 91.2168 51.7617 92.0687 51.1528C92.9205 50.544 93.3464 49.6645 93.3464 48.5077V48.5144Z" fill="black"/>
<path d="M100.953 44.5908C101.852 44.5908 102.562 44.6246 103.062 44.699C105.408 45.1523 106.578 46.3971 106.578 48.4267C106.578 49.6106 106.192 50.5847 105.422 51.3492C104.651 52.1137 103.63 52.5331 102.366 52.594V52.6346L107.423 59.0683H106.253L101.196 52.6955H98.7287V59.0683H97.7755V44.584H100.946L100.953 44.5908ZM105.584 48.4063C105.584 47.3239 105.172 46.5594 104.347 46.1197C103.522 45.68 102.352 45.4567 100.838 45.4567H98.7287V51.8363H100.885C102.461 51.8363 103.637 51.5725 104.414 51.0312C105.192 50.4968 105.584 49.6173 105.584 48.3996V48.4063Z" fill="black"/>
<path d="M110.172 51.837C110.172 50.4028 110.449 49.1039 111.01 47.9605C111.572 46.8105 112.349 45.9174 113.343 45.268C114.337 44.6185 115.466 44.3005 116.73 44.3005C117.994 44.3005 119.204 44.6253 120.198 45.268C121.192 45.9174 121.956 46.8104 122.497 47.947C123.038 49.0903 123.301 50.3825 123.301 51.837C123.301 53.2915 123.024 54.5498 122.47 55.6932C121.915 56.8365 121.138 57.7295 120.144 58.3722C119.15 59.0216 118.028 59.3396 116.784 59.3396C115.445 59.3396 114.283 59.0216 113.282 58.3722C112.281 57.7295 111.511 56.8365 110.977 55.6999C110.436 54.5634 110.172 53.2712 110.172 51.8234V51.837ZM122.274 51.837C122.274 50.4501 122.03 49.2527 121.537 48.2447C121.043 47.2366 120.381 46.4722 119.542 45.9445C118.704 45.4236 117.764 45.1597 116.73 45.1597C115.696 45.1597 114.783 45.4236 113.938 45.9445C113.093 46.4654 112.423 47.2366 111.93 48.2447C111.436 49.2527 111.186 50.4501 111.186 51.837C111.186 53.2239 111.436 54.4416 111.93 55.4361C112.43 56.4373 113.1 57.195 113.951 57.7092C114.796 58.2233 115.743 58.4804 116.784 58.4804C117.825 58.4804 118.724 58.2233 119.556 57.7092C120.387 57.195 121.043 56.4373 121.537 55.4361C122.03 54.4348 122.274 53.2374 122.274 51.837Z" fill="black"/>
<path d="M127.161 44.5906H135.281V45.4565H128.115V51.1799H134.652V52.0458H128.115V59.0749H127.161V44.5906Z" fill="black"/>
<path d="M138.439 44.5906H146.687V45.4565H139.392V51.2205H146.072V52.0864H139.392V58.2089H147.113V59.0749H138.439V44.5906Z" fill="black"/>
<path d="M150.329 58.5684V57.5265C150.68 57.743 151.262 57.9527 152.059 58.1557C152.864 58.3586 153.527 58.4601 154.054 58.4601C155.352 58.4601 156.359 58.2166 157.083 57.7362C157.799 57.2491 158.158 56.4306 158.158 55.267C158.158 54.6851 158.036 54.198 157.792 53.8124C157.549 53.4268 157.218 53.1224 156.799 52.8924C156.379 52.6623 155.629 52.3985 154.547 52.1008C153.608 51.8641 152.857 51.6272 152.283 51.3905C151.715 51.1537 151.235 50.7884 150.843 50.2945C150.45 49.8006 150.261 49.1309 150.261 48.2988C150.261 47.0946 150.694 46.1271 151.566 45.3965C152.438 44.6659 153.574 44.3005 154.98 44.3005C155.906 44.3005 156.805 44.4359 157.684 44.6997C158.036 44.8282 158.354 44.9635 158.638 45.0988V46.1407C158.198 45.9377 157.82 45.7753 157.509 45.6468C157.198 45.5183 156.819 45.41 156.373 45.3153C155.927 45.2206 155.447 45.1733 154.919 45.1665C153.668 45.1665 152.742 45.4574 152.141 46.0324C151.539 46.6075 151.235 47.3787 151.235 48.3394C151.235 48.9483 151.363 49.4218 151.627 49.7668C151.89 50.1119 152.249 50.3825 152.695 50.5719C153.141 50.7613 153.81 50.9778 154.696 51.2213C155.69 51.4987 156.474 51.749 157.035 51.9858C157.596 52.2226 158.09 52.5947 158.502 53.1156C158.915 53.6298 159.124 54.3334 159.124 55.2196C159.124 56.5185 158.678 57.5333 157.786 58.2572C156.893 58.981 155.629 59.3464 153.979 59.3464C153.303 59.3464 152.594 59.2584 151.857 59.0758C151.12 58.8931 150.606 58.724 150.322 58.5684H150.329Z" fill="black"/>
<path d="M162.473 58.5684V57.5265C162.825 57.743 163.406 57.9527 164.204 58.1557C165.008 58.3586 165.671 58.4601 166.198 58.4601C167.496 58.4601 168.503 58.2166 169.227 57.7362C169.943 57.2491 170.302 56.4306 170.302 55.267C170.302 54.6851 170.18 54.198 169.937 53.8124C169.693 53.4268 169.362 53.1224 168.943 52.8924C168.524 52.6623 167.773 52.3985 166.692 52.1008C165.752 51.8641 165.001 51.6272 164.427 51.3905C163.859 51.1537 163.379 50.7884 162.987 50.2945C162.595 49.8006 162.405 49.1309 162.405 48.2988C162.405 47.0946 162.838 46.1271 163.71 45.3965C164.582 44.6659 165.718 44.3005 167.124 44.3005C168.051 44.3005 168.95 44.4359 169.829 44.6997C170.18 44.8282 170.498 44.9635 170.782 45.0988V46.1407C170.342 45.9377 169.964 45.7753 169.653 45.6468C169.342 45.5183 168.963 45.41 168.517 45.3153C168.071 45.2206 167.591 45.1733 167.063 45.1665C165.813 45.1665 164.887 45.4574 164.285 46.0324C163.683 46.6075 163.379 47.3787 163.379 48.3394C163.379 48.9483 163.507 49.4218 163.771 49.7668C164.035 50.1119 164.393 50.3825 164.839 50.5719C165.285 50.7613 165.955 50.9778 166.84 51.2213C167.834 51.4987 168.618 51.749 169.18 51.9858C169.741 52.2226 170.234 52.5947 170.647 53.1156C171.059 53.6298 171.269 54.3334 171.269 55.2196C171.269 56.5185 170.822 57.5333 169.93 58.2572C169.038 58.981 167.773 59.3464 166.124 59.3464C165.448 59.3464 164.738 59.2584 164.001 59.0758C163.264 58.8931 162.75 58.724 162.466 58.5684H162.473Z" fill="black"/>
<path d="M175.068 44.5906H176.021V59.0749H175.068V44.5906Z" fill="black"/>
<path d="M179.875 51.837C179.875 50.4028 180.152 49.1039 180.713 47.9605C181.274 46.8105 182.052 45.9174 183.046 45.268C184.039 44.6185 185.168 44.3005 186.433 44.3005C187.697 44.3005 188.907 44.6253 189.901 45.268C190.895 45.9174 191.659 46.8104 192.199 47.947C192.74 49.0903 193.004 50.3825 193.004 51.837C193.004 53.2915 192.727 54.5498 192.172 55.6932C191.618 56.8365 190.841 57.7295 189.847 58.3722C188.853 59.0216 187.731 59.3396 186.487 59.3396C185.148 59.3396 183.985 59.0216 182.985 58.3722C181.984 57.7295 181.214 56.8365 180.679 55.6999C180.139 54.5634 179.875 53.2712 179.875 51.8234V51.837ZM191.976 51.837C191.976 50.4501 191.733 49.2527 191.239 48.2447C190.746 47.2366 190.083 46.4722 189.245 45.9445C188.407 45.4236 187.467 45.1597 186.433 45.1597C185.398 45.1597 184.486 45.4236 183.641 45.9445C182.795 46.4654 182.126 47.2366 181.633 48.2447C181.139 49.2527 180.889 50.4501 180.889 51.837C180.889 53.2239 181.139 54.4416 181.633 55.4361C182.133 56.4373 182.802 57.195 183.654 57.7092C184.499 58.2233 185.446 58.4804 186.487 58.4804C187.528 58.4804 188.427 58.2233 189.259 57.7092C190.09 57.195 190.746 56.4373 191.239 55.4361C191.733 54.4348 191.976 53.2374 191.976 51.837Z" fill="black"/>
<path d="M197.683 44.5906L204.2 53.7033L206.931 57.6136H206.999C206.898 56.7003 206.85 55.2052 206.85 53.1283V44.5906H207.803V59.0749H206.979L200.441 49.8674L197.737 46.0316H197.696C197.784 46.9449 197.825 48.6362 197.825 51.1122V59.0749H196.872V44.5906H197.696H197.683Z" fill="black"/>
<path d="M210.587 59.0749L216.509 44.5906H217.442L223.385 59.0749H222.337L220.261 53.9266H213.703L211.635 59.0749H210.594H210.587ZM219.896 53.0606L219.342 51.6602C218.138 48.6632 217.361 46.681 217.016 45.7136H216.976C216.678 46.539 216.191 47.7635 215.515 49.3871C215.306 49.8878 214.805 51.1123 214.021 53.0606H219.903H219.896Z" fill="black"/>
<path d="M226.176 44.5906H227.13V58.2089H234.472V59.0749H226.176V44.5906Z" fill="black"/>
<path d="M237.373 58.5684V57.5265C237.724 57.743 238.306 57.9527 239.104 58.1557C239.908 58.3586 240.571 58.4601 241.098 58.4601C242.396 58.4601 243.403 58.2166 244.127 57.7362C244.843 57.2491 245.202 56.4306 245.202 55.267C245.202 54.6851 245.08 54.198 244.837 53.8124C244.593 53.4268 244.262 53.1224 243.843 52.8924C243.424 52.6623 242.673 52.3985 241.592 52.1008C240.652 51.8641 239.901 51.6272 239.327 51.3905C238.759 51.1537 238.279 50.7884 237.887 50.2945C237.495 49.8006 237.305 49.1309 237.305 48.2988C237.305 47.0946 237.738 46.1271 238.61 45.3965C239.482 44.6659 240.618 44.3005 242.024 44.3005C242.95 44.3005 243.85 44.4359 244.728 44.6997C245.08 44.8282 245.398 44.9635 245.682 45.0988V46.1407C245.242 45.9377 244.864 45.7753 244.553 45.6468C244.242 45.5183 243.863 45.41 243.417 45.3153C242.971 45.2206 242.491 45.1733 241.963 45.1665C240.713 45.1665 239.786 45.4574 239.185 46.0324C238.583 46.6075 238.279 47.3787 238.279 48.3394C238.279 48.9483 238.407 49.4218 238.671 49.7668C238.935 50.1119 239.293 50.3825 239.739 50.5719C240.185 50.7613 240.855 50.9778 241.74 51.2213C242.734 51.4987 243.518 51.749 244.079 51.9858C244.641 52.2226 245.134 52.5947 245.546 53.1156C245.959 53.6298 246.168 54.3334 246.168 55.2196C246.168 56.5185 245.722 57.5333 244.83 58.2572C243.937 58.981 242.673 59.3464 241.024 59.3464C240.348 59.3464 239.638 59.2584 238.901 59.0758C238.164 58.8931 237.65 58.724 237.366 58.5684H237.373Z" fill="black"/>
</svg>
