<svg width="15" height="15" viewBox="0 0 15 15" fill="none" xmlns="http://www.w3.org/2000/svg">
<path d="M13.8928 13.5206V6.28776C13.8928 5.74291 13.4498 5.29991 12.905 5.29991H10.2392V1.98242C10.2392 1.94315 10.2305 1.44945 9.80122 1.16173C9.37192 0.874461 8.91202 1.0544 8.87548 1.06902L2.17337 3.82887C1.80207 3.98187 1.56184 4.33992 1.56184 4.74228V13.5206H1.10514C0.85304 13.5206 0.648438 13.7252 0.648438 13.9773C0.648438 14.2294 0.85304 14.434 1.10514 14.434H2.01855H9.78249H13.4361H13.8928C14.1449 14.434 14.3495 14.2294 14.3495 13.9773C14.3495 13.7252 14.1449 13.5206 13.8928 13.5206ZM2.47525 4.74228C2.47525 4.71213 2.49352 4.68519 2.52138 4.67377L9.22349 1.91437C9.24861 1.90433 9.27144 1.90661 9.29291 1.92122C9.31483 1.93538 9.32579 1.95593 9.32579 1.98242V5.75661V13.5206H2.47525V4.74228ZM10.2392 13.5206V6.21332H12.905C12.9461 6.21332 12.9794 6.24665 12.9794 6.28776V13.5206H10.2392Z" fill="#666666" stroke="#666666" stroke-width="0.2"/>
<path d="M7.04197 11.2371H4.75846C4.50636 11.2371 4.30176 11.4417 4.30176 11.6938C4.30176 11.9459 4.50636 12.1505 4.75846 12.1505H7.04197C7.29407 12.1505 7.49868 11.9459 7.49868 11.6938C7.49868 11.4417 7.29407 11.2371 7.04197 11.2371Z" fill="#666666" stroke="#666666" stroke-width="0.2"/>
<path d="M7.04197 9.41022H4.75846C4.50636 9.41022 4.30176 9.61482 4.30176 9.86692C4.30176 10.119 4.50636 10.3236 4.75846 10.3236H7.04197C7.29407 10.3236 7.49868 10.119 7.49868 9.86692C7.49868 9.61482 7.29407 9.41022 7.04197 9.41022Z" fill="#666666" stroke="#666666" stroke-width="0.2"/>
<path d="M7.04197 7.58344H4.75846C4.50636 7.58344 4.30176 7.78804 4.30176 8.04014C4.30176 8.29224 4.50636 8.49684 4.75846 8.49684H7.04197C7.29407 8.49684 7.49868 8.29224 7.49868 8.04014C7.49868 7.78804 7.29407 7.58344 7.04197 7.58344Z" fill="#666666" stroke="#666666" stroke-width="0.2"/>
<path d="M7.04197 5.75659H4.75846C4.50636 5.75659 4.30176 5.96119 4.30176 6.21329C4.30176 6.46539 4.50636 6.67 4.75846 6.67H7.04197C7.29407 6.67 7.49868 6.46539 7.49868 6.21329C7.49868 5.96119 7.29407 5.75659 7.04197 5.75659Z" fill="#666666" stroke="#666666" stroke-width="0.2"/>
</svg>
