<svg width="24" height="23" viewBox="0 0 24 23" fill="none" xmlns="http://www.w3.org/2000/svg">
<path fill-rule="evenodd" clip-rule="evenodd" d="M23.286 2.3851C23.7044 2.80353 23.7044 3.48192 23.286 3.90034L12.5717 14.6147C12.1533 15.0331 11.4748 15.0331 11.0564 14.6147L7.84213 11.4004C7.42372 10.982 7.42372 10.3035 7.84213 9.88515C8.26056 9.46672 8.93895 9.46672 9.35738 9.88515L11.8141 12.3418L21.7708 2.3851C22.1892 1.96668 22.8676 1.96668 23.286 2.3851Z" fill="white" stroke="#F1F4F1" stroke-width="0.5"/>
<path fill-rule="evenodd" clip-rule="evenodd" d="M4.3144 3.14287C4.03023 3.14287 3.75771 3.25575 3.55678 3.45668C3.35585 3.65762 3.24297 3.93014 3.24297 4.2143V19.2144C3.24297 19.4985 3.35585 19.7711 3.55678 19.972C3.75771 20.1729 4.03023 20.2858 4.3144 20.2858H19.3145C19.5986 20.2858 19.8712 20.1729 20.0721 19.972C20.273 19.7711 20.3859 19.4985 20.3859 19.2144V11.7143C20.3859 11.1226 20.8656 10.6429 21.4573 10.6429C22.0491 10.6429 22.5288 11.1226 22.5288 11.7143V19.2144C22.5288 20.0669 22.1901 20.8844 21.5873 21.4872C20.9845 22.09 20.167 22.4287 19.3145 22.4287H4.3144C3.46191 22.4287 2.64434 22.09 2.04155 21.4872C1.43875 20.8844 1.1001 20.0669 1.1001 19.2144V4.2143C1.1001 3.36182 1.43875 2.54425 2.04155 1.94145C2.64434 1.33865 3.46191 1 4.3144 1H16.1002C16.6919 1 17.1716 1.4797 17.1716 2.07143C17.1716 2.66317 16.6919 3.14287 16.1002 3.14287H4.3144Z" fill="white" stroke="#F1F4F1" stroke-width="0.5"/>
</svg>
