<svg width="159" height="200" viewBox="0 0 159 200" fill="none" xmlns="http://www.w3.org/2000/svg">
<path d="M141.016 10.959H119.014C113.208 4.25352 104.652 0 95.1172 0H63.4766C53.9422 0 45.3859 4.25352 39.5801 10.959H17.5781C7.88555 10.959 0 18.8602 0 28.5715V182.387C0 192.099 7.88555 200 17.5781 200H141.016C150.708 200 158.594 192.099 158.594 182.387V28.5715C158.594 18.8598 150.708 10.959 141.016 10.959ZM63.4766 11.7418H95.1172C104.171 11.7418 111.689 17.8023 114.16 25.8316H44.4336C46.9 17.8164 54.409 11.7418 63.4766 11.7418ZM146.875 182.387C146.875 185.625 144.246 188.258 141.016 188.258H17.5781C14.3473 188.258 11.7188 185.625 11.7188 182.387V28.5715C11.7188 25.3344 14.3473 22.7008 17.5781 22.7008H33.143C32.2973 25.5562 31.8359 28.5758 31.8359 31.7027C31.8359 34.9449 34.4594 37.5734 37.6953 37.5734H120.898C124.134 37.5734 126.758 34.9449 126.758 31.7027C126.758 28.5758 126.296 25.5562 125.451 22.7008H141.016C144.246 22.7008 146.875 25.3344 146.875 28.5715V182.387Z" fill="black"/>
<path d="M50.414 116.658L41.7968 125.291L39.6898 123.181C37.4019 120.888 33.6917 120.888 31.4035 123.181C29.1152 125.473 29.1152 129.19 31.4035 131.483L37.6535 137.745C39.9414 140.038 43.6515 140.038 45.9398 137.745L58.7 124.96C60.9882 122.667 60.9882 118.95 58.7 116.657C56.4121 114.365 52.7019 114.365 50.414 116.658Z" fill="black"/>
<path d="M122.656 121.331H75.3906C72.1547 121.331 69.5312 123.959 69.5312 127.202C69.5312 130.444 72.1547 133.072 75.3906 133.072H122.656C125.892 133.072 128.516 130.444 128.516 127.202C128.516 123.959 125.892 121.331 122.656 121.331Z" fill="black"/>
<path d="M50.414 150.317L41.7968 158.951L39.6898 156.84C37.4019 154.547 33.6917 154.547 31.4035 156.84C29.1152 159.132 29.1152 162.85 31.4035 165.142L37.6535 171.404C39.9414 173.697 43.6515 173.697 45.9398 171.404L58.7 158.619C60.9882 156.327 60.9882 152.609 58.7 150.317C56.4121 148.024 52.7019 148.024 50.414 150.317Z" fill="black"/>
<path d="M122.656 154.99H75.3906C72.1547 154.99 69.5312 157.619 69.5312 160.861C69.5312 164.103 72.1547 166.732 75.3906 166.732H122.656C125.892 166.732 128.516 164.103 128.516 160.861C128.516 157.619 125.892 154.99 122.656 154.99Z" fill="black"/>
<path d="M90.471 94.1707L108.594 76.0129V76.7125C108.594 79.9547 111.217 82.5832 114.453 82.5832C117.689 82.5832 120.312 79.9547 120.312 76.7125C120.312 60.1059 120.34 61.652 120.245 60.9961C119.831 58.1238 117.373 55.968 114.451 55.9688H99.6093C96.3734 55.9688 93.7499 58.5973 93.7499 61.8395C93.7499 65.0816 96.3734 67.7102 99.6093 67.7102H100.307L86.3281 81.7168L68.596 63.9504C66.3082 61.6574 62.598 61.6574 60.3097 63.9504L39.216 85.0855C36.9277 87.3781 36.9277 91.0953 39.216 93.3879C41.5039 95.6809 45.214 95.6809 47.5023 93.3879L64.4531 76.4043L82.1851 94.1707C84.4726 96.4633 88.1831 96.4637 90.471 94.1707Z" fill="black"/>
</svg>
