<svg width="19" height="18" viewBox="0 0 19 18" fill="none" xmlns="http://www.w3.org/2000/svg">
<path d="M17.71 16.2307L14.31 12.8531C15.407 11.4606 16.0022 9.74108 16 7.97089C16 6.3944 15.5308 4.85331 14.6518 3.5425C13.7727 2.2317 12.5233 1.21005 11.0615 0.606751C9.59966 0.00345363 7.99113 -0.154396 6.43928 0.153162C4.88743 0.46072 3.46197 1.21987 2.34315 2.33462C1.22433 3.44937 0.462403 4.86965 0.153721 6.41585C-0.15496 7.96205 0.00346625 9.56473 0.608967 11.0212C1.21447 12.4777 2.23985 13.7226 3.55544 14.5984C4.87103 15.4743 6.41775 15.9418 8 15.9418C9.77666 15.944 11.5025 15.3509 12.9 14.2579L16.29 17.6456C16.383 17.7389 16.4936 17.8131 16.6154 17.8636C16.7373 17.9142 16.868 17.9403 17 17.9403C17.132 17.9403 17.2627 17.9142 17.3846 17.8636C17.5064 17.8131 17.617 17.7389 17.71 17.6456C17.8037 17.5529 17.8781 17.4427 17.9289 17.3213C17.9797 17.1999 18.0058 17.0697 18.0058 16.9381C18.0058 16.8066 17.9797 16.6764 17.9289 16.555C17.8781 16.4335 17.8037 16.3233 17.71 16.2307ZM2 7.97089C2 6.78852 2.3519 5.6327 3.01119 4.6496C3.67047 3.6665 4.60755 2.90026 5.7039 2.44779C6.80026 1.99531 8.00666 1.87692 9.17055 2.10759C10.3344 2.33826 11.4035 2.90763 12.2426 3.74369C13.0818 4.57975 13.6532 5.64496 13.8847 6.80461C14.1162 7.96426 13.9974 9.16627 13.5433 10.2586C13.0892 11.351 12.3201 12.2847 11.3334 12.9416C10.3467 13.5984 9.18669 13.9491 8 13.9491C6.4087 13.9491 4.88258 13.3192 3.75736 12.1981C2.63214 11.077 2 9.5564 2 7.97089Z" fill="black"/>
</svg>
