<svg width="24" height="25" viewBox="0 0 24 25" fill="none" xmlns="http://www.w3.org/2000/svg">
<path d="M11.9994 12.385C14.054 12.385 15.7254 10.7135 15.7254 8.65903C15.7254 6.60455 14.054 4.93298 11.9994 4.93298C9.94491 4.93298 8.27344 6.6045 8.27344 8.65898C8.27344 10.7135 9.94491 12.385 11.9994 12.385ZM11.9994 6.77297C13.0394 6.77297 13.8855 7.61906 13.8855 8.65898C13.8855 9.69891 13.0394 10.545 11.9994 10.545C10.9595 10.545 10.1134 9.69891 10.1134 8.65898C10.1134 7.61906 10.9595 6.77297 11.9994 6.77297Z" fill="#002A3A"/>
<path d="M20.4161 16.295H16.6085C18.8312 13.6139 19.9581 11.1964 19.9581 9.10322V8.65937C19.9581 4.27112 16.3881 0.700928 12 0.700928C7.61189 0.700928 4.04194 4.27107 4.04194 8.65941V9.10327C4.04194 11.1964 5.16881 13.6139 7.39153 16.295H3.58388L0 24.299H24L20.4161 16.295ZM5.88202 9.10327V8.65941C5.88202 5.28568 8.62655 2.54091 12 2.54091C15.3735 2.54091 18.118 5.28568 18.118 8.65941V9.10327C18.118 10.8317 16.985 13.0558 14.8415 15.535C13.7514 16.7959 12.6485 17.8295 11.9998 18.407C11.3556 17.8338 10.2634 16.8104 9.17634 15.5557C7.02117 13.0681 5.88202 10.8368 5.88202 9.10327ZM4.776 18.135H9.05217C10.33 19.4438 11.3627 20.2888 11.4192 20.3348L12 20.8075L12.5808 20.3348C12.6373 20.2888 13.67 19.4438 14.9478 18.135H19.224L21.1601 22.459H2.83987L4.776 18.135Z" fill="#002A3A"/>
</svg>
