<svg width="11" height="15" viewBox="0 0 11 15" fill="none" xmlns="http://www.w3.org/2000/svg">
<path d="M10.2359 5.35796L10.0048 12.6704C9.98515 13.2967 9.73287 13.8903 9.30152 14.3252C8.87017 14.7602 8.29372 15.0022 7.69451 15H3.30491C2.70609 15.0022 2.12997 14.7605 1.69869 14.3261C1.2674 13.8917 1.01486 13.2987 0.994592 12.6728L0.76356 5.35796C0.758505 5.19777 0.814509 5.04205 0.919252 4.92504C1.02399 4.80803 1.1689 4.73933 1.32208 4.73404C1.47526 4.72876 1.62418 4.78732 1.73607 4.89685C1.84796 5.00638 1.91366 5.15791 1.91872 5.3181L2.14975 12.6324C2.16125 12.9446 2.28802 13.24 2.50342 13.4566C2.71882 13.6732 3.00609 13.7941 3.30491 13.7938H7.69451C7.99371 13.794 8.28132 13.6728 8.49678 13.4557C8.71224 13.2387 8.83875 12.9426 8.84967 12.6299L9.0807 5.3181C9.08576 5.15791 9.15146 5.00638 9.26335 4.89685C9.37524 4.78732 9.52416 4.72876 9.67734 4.73404C9.83053 4.73933 9.97543 4.80803 10.0802 4.92504C10.1849 5.04205 10.2409 5.19777 10.2359 5.35796ZM11 2.9245C11 3.08469 10.9391 3.23832 10.8308 3.35159C10.7225 3.46486 10.5756 3.52849 10.4224 3.52849H0.577579C0.424396 3.52849 0.277486 3.46486 0.169169 3.35159C0.0608518 3.23832 0 3.08469 0 2.9245C0 2.76432 0.0608518 2.61069 0.169169 2.49742C0.277486 2.38415 0.424396 2.32052 0.577579 2.32052H2.36808C2.55108 2.32103 2.72772 2.25033 2.86363 2.12217C2.99953 1.994 3.08498 1.81755 3.10333 1.62714C3.14596 1.18049 3.34607 0.766422 3.66468 0.465623C3.98329 0.164824 4.39758 -0.00116165 4.82683 6.12011e-06H6.17259C6.60184 -0.00116165 7.01613 0.164824 7.33474 0.465623C7.65335 0.766422 7.85347 1.18049 7.89609 1.62714C7.91445 1.81755 7.99989 1.994 8.1358 2.12217C8.2717 2.25033 8.44834 2.32103 8.63135 2.32052H10.4218C10.575 2.32052 10.7219 2.38415 10.8303 2.49742C10.9386 2.61069 10.9994 2.76432 10.9994 2.9245H11ZM4.10601 2.32052H6.89457C6.81867 2.13917 6.76903 1.947 6.74728 1.75036C6.73297 1.60148 6.66633 1.46345 6.56026 1.36303C6.45419 1.2626 6.31625 1.20692 6.17317 1.20677H4.82741C4.68432 1.20692 4.54638 1.2626 4.44032 1.36303C4.33425 1.46345 4.2676 1.60148 4.25329 1.75036C4.23137 1.94704 4.18153 2.1392 4.10543 2.32052H4.10601ZM4.68763 11.4715V6.32857C4.68763 6.16838 4.62678 6.01475 4.51847 5.90148C4.41015 5.78821 4.26324 5.72458 4.11005 5.72458C3.95687 5.72458 3.80996 5.78821 3.70164 5.90148C3.59333 6.01475 3.53248 6.16838 3.53248 6.32857V11.4739C3.53248 11.6341 3.59333 11.7877 3.70164 11.901C3.80996 12.0143 3.95687 12.0779 4.11005 12.0779C4.26324 12.0779 4.41015 12.0143 4.51847 11.901C4.62678 11.7877 4.68763 11.6341 4.68763 11.4739V11.4715ZM7.4681 11.4715V6.32857C7.4681 6.16838 7.40725 6.01475 7.29893 5.90148C7.19062 5.78821 7.04371 5.72458 6.89052 5.72458C6.73734 5.72458 6.59043 5.78821 6.48211 5.90148C6.3738 6.01475 6.31294 6.16838 6.31294 6.32857V11.4739C6.31294 11.6341 6.3738 11.7877 6.48211 11.901C6.59043 12.0143 6.73734 12.0779 6.89052 12.0779C7.04371 12.0779 7.19062 12.0143 7.29893 11.901C7.40725 11.7877 7.4681 11.6341 7.4681 11.4739V11.4715Z" fill="#002A3A"/>
</svg>
