<svg width="13" height="13" viewBox="0 0 13 13" fill="none" xmlns="http://www.w3.org/2000/svg">
<path d="M7.53445 2.03345L0.825059 8.74332C0.791304 8.77717 0.76693 8.81992 0.755324 8.86587L0.0116524 11.8508C-0.010593 11.9407 0.0158113 12.0362 0.0813867 12.1018C0.131004 12.1514 0.19861 12.1789 0.267764 12.1789C0.288946 12.1789 0.310611 12.1763 0.331695 12.1709L3.31663 11.4272C3.36316 11.4156 3.40542 11.3913 3.43918 11.3575L10.1491 4.64815L7.53445 2.03345Z" fill="#002A3A"/>
<path d="M11.8107 1.12106L11.0639 0.374193C10.5647 -0.124973 9.6947 -0.124489 9.19611 0.374193L8.28125 1.28906L10.8959 3.90366L11.8107 2.9888C12.0601 2.73955 12.1974 2.40781 12.1974 2.05497C12.1974 1.70214 12.0601 1.3704 11.8107 1.12106Z" fill="#002A3A"/>
</svg>
