<svg width="26" height="26" viewBox="0 0 26 26" fill="none" xmlns="http://www.w3.org/2000/svg">
<path d="M13.0036 24.3751C11.0934 24.3751 9.21443 23.8905 7.5425 22.9667C7.47866 22.9297 7.40805 22.9058 7.33483 22.8965C7.26162 22.8872 7.18728 22.8927 7.11621 22.9126L3.28608 24.0631C3.09875 24.1192 2.89971 24.1236 2.71008 24.0758C2.52045 24.0279 2.34731 23.9297 2.20902 23.7914C2.07074 23.6531 1.97246 23.4799 1.92463 23.2903C1.87679 23.1007 1.88118 22.9017 1.93733 22.7143L3.08783 18.8847C3.10775 18.8136 3.11321 18.7392 3.10391 18.6658C3.09461 18.5925 3.07072 18.5218 3.03366 18.4579C2.12717 16.8088 1.64459 14.9604 1.62928 13.0786C1.61398 11.1969 2.06643 9.3408 2.94597 7.6772C3.82552 6.01359 5.10461 4.59456 6.66831 3.54764C8.232 2.50071 10.0313 1.85868 11.9045 1.67924C14.9032 1.34782 17.9107 2.22118 20.2654 4.10721C22.6202 5.99324 24.1292 8.73743 24.4606 11.7361C24.7921 14.7348 23.9187 17.7423 22.0327 20.097C20.1466 22.4517 17.4025 23.9608 14.4038 24.2922C13.9392 24.348 13.4716 24.3757 13.0036 24.3751ZM7.26191 21.8092C7.54253 21.8104 7.81829 21.8825 8.06358 22.0188C9.47607 22.7917 11.0502 23.2222 12.6594 23.2757C14.2686 23.3292 15.8679 23.0043 17.3286 22.327C18.7894 21.6497 20.0707 20.6391 21.0696 19.3763C22.0685 18.1135 22.7571 16.6339 23.0799 15.0565C23.4027 13.4791 23.3507 11.848 22.9282 10.2943C22.5057 8.74068 21.7244 7.30789 20.6471 6.11125C19.5699 4.91461 18.2268 3.98753 16.726 3.4046C15.2251 2.82167 13.6084 2.59916 12.0058 2.75499C10.311 2.91736 8.68313 3.49829 7.26844 4.44557C5.85374 5.39285 4.69658 6.67679 3.90095 8.18201C3.10532 9.68723 2.69616 11.3666 2.71023 13.0691C2.72431 14.7716 3.16118 16.4439 3.98158 17.9357C4.08826 18.1256 4.15584 18.3349 4.1803 18.5513C4.20477 18.7677 4.18564 18.9868 4.12404 19.1957L2.97516 23.0252L6.80475 21.8764C6.95323 21.8318 7.10689 21.8091 7.26191 21.8092Z" fill="white"/>
<path d="M10.709 18.4167H9.08398C8.65301 18.4167 8.23968 18.2455 7.93494 17.9407C7.63019 17.636 7.45898 17.2226 7.45898 16.7917V13C7.45898 12.569 7.63019 12.1557 7.93494 11.851C8.23968 11.5462 8.65301 11.375 9.08398 11.375H10.709C10.8526 11.375 10.9904 11.4321 11.092 11.5337C11.1936 11.6352 11.2507 11.773 11.2507 11.9167V17.875C11.2507 18.0187 11.1936 18.1564 11.092 18.258C10.9904 18.3596 10.8526 18.4167 10.709 18.4167ZM9.08398 12.4583C8.94033 12.4583 8.80255 12.5154 8.70097 12.617C8.59939 12.7186 8.54232 12.8563 8.54232 13V16.7917C8.54232 16.9353 8.59939 17.0731 8.70097 17.1747C8.80255 17.2763 8.94033 17.3333 9.08398 17.3333H10.1673V12.4583H9.08398Z" fill="white"/>
<path d="M15.8327 18.4166H10.7096C10.566 18.4166 10.4282 18.3595 10.3266 18.2579C10.225 18.1563 10.168 18.0186 10.168 17.8749V11.9166C10.168 11.8245 10.1913 11.734 10.2357 11.6533L12.6391 7.32702C12.8357 6.97133 13.1598 6.70331 13.5461 6.57687C13.9324 6.45043 14.3522 6.47494 14.7212 6.64548C15.0901 6.81602 15.3808 7.11994 15.5348 7.49611C15.6887 7.87227 15.6946 8.29278 15.5511 8.67306L14.7413 10.8332H16.3744C16.6891 10.8332 17 10.9017 17.2856 11.034C17.5711 11.1663 17.8244 11.3593 18.0278 11.5994C18.2313 11.8395 18.3799 12.1211 18.4635 12.4245C18.5471 12.7279 18.5636 13.0459 18.5118 13.3563L17.9701 16.6063C17.8869 17.1127 17.6261 17.573 17.2345 17.9047C16.8428 18.2364 16.3459 18.4178 15.8327 18.4166ZM11.2513 17.3332H15.8327C16.0892 17.3337 16.3374 17.2428 16.533 17.077C16.7286 16.9112 16.8588 16.6812 16.9003 16.4281L17.442 13.1781C17.4679 13.023 17.4597 12.8641 17.4179 12.7125C17.3762 12.5608 17.302 12.4201 17.2004 12.3001C17.0988 12.18 16.9723 12.0835 16.8296 12.0173C16.687 11.9511 16.5317 11.9167 16.3744 11.9166H13.9596C13.8721 11.9166 13.7858 11.8955 13.7083 11.8549C13.6307 11.8143 13.5641 11.7555 13.5142 11.6836C13.4643 11.6117 13.4326 11.5287 13.4218 11.4418C13.411 11.355 13.4214 11.2667 13.4521 11.1848L14.5354 8.29281C14.5658 8.21345 14.5762 8.12787 14.5658 8.04355C14.5554 7.95922 14.5245 7.87873 14.4758 7.80911C14.4225 7.73939 14.353 7.68367 14.2734 7.64676C14.1937 7.60985 14.1063 7.59285 14.0187 7.59722C13.931 7.60159 13.8457 7.6272 13.7701 7.67185C13.6945 7.7165 13.6309 7.77884 13.5848 7.85352L11.2502 12.0569L11.2513 17.3332Z" fill="white"/>
</svg>
