<svg width="17" height="11" viewBox="0 0 17 11" fill="none" xmlns="http://www.w3.org/2000/svg">
<path d="M8.02366 0C4.59296 0 1.60493 2.15475 0 5.34917C1.60493 8.54418 4.59296 10.6983 8.02366 10.6983C11.4544 10.6983 14.4424 8.54418 16.0473 5.34917C14.4424 2.15475 11.4544 0 8.02366 0ZM8.02366 8.69243C6.177 8.69243 4.6804 7.19583 4.6804 5.34917C4.6804 3.50252 6.177 2.00591 8.02366 2.00591C9.87032 2.00591 11.3669 3.50252 11.3669 5.34917C11.3669 7.19583 9.87032 8.69243 8.02366 8.69243Z" fill="#002A3A"/>
<path d="M8.02935 7.35997C9.13719 7.35997 10.0353 6.4619 10.0353 5.35406C10.0353 4.24622 9.13719 3.34814 8.02935 3.34814C6.92152 3.34814 6.02344 4.24622 6.02344 5.35406C6.02344 6.4619 6.92152 7.35997 8.02935 7.35997Z" fill="#002A3A"/>
</svg>
