<svg width="23" height="23" viewBox="0 0 23 23" fill="none" xmlns="http://www.w3.org/2000/svg">
<path d="M11.7695 21.2031H2.72639C2.3428 21.2031 2.11152 20.989 2.00764 20.8615C1.82848 20.6411 1.75917 20.3543 1.81743 20.0745C2.75043 15.5928 6.70548 12.3202 11.2714 12.214C11.3472 12.2168 11.4233 12.2188 11.5 12.2188C14.8686 12.2188 17.6094 9.47816 17.6094 6.10938C17.6094 2.74059 14.8686 0 11.5 0C8.13122 0 5.39064 2.74059 5.39064 6.10938C5.39064 8.10875 6.35611 9.88702 7.84537 11.0022C6.48105 11.4512 5.2006 12.1498 4.08019 13.0714C2.02589 14.7612 0.597517 17.1182 0.0582798 19.7082C-0.110703 20.5198 0.0917958 21.3533 0.613661 21.9952C1.13289 22.6338 1.90306 23 2.72639 23H11.7695C12.2656 23 12.668 22.5978 12.668 22.1016C12.668 21.6053 12.2656 21.2031 11.7695 21.2031ZM7.18752 6.10938C7.18752 3.7315 9.12196 1.79688 11.5 1.79688C13.8779 1.79688 15.8125 3.7315 15.8125 6.10938C15.8125 8.45321 13.933 10.3662 11.602 10.4206C11.5684 10.4168 11.5346 10.4143 11.5 10.4143C11.4298 10.4143 11.3598 10.4154 11.2898 10.4166C9.00913 10.3068 7.18752 8.41689 7.18752 6.10938V6.10938ZM23 18.5069C23 19.0032 22.5976 19.4054 22.1016 19.4054H15.3633C14.867 19.4054 14.4649 19.0032 14.4649 18.5069C14.4649 18.0109 14.867 17.6085 15.3633 17.6085H22.1016C22.5976 17.6085 23 18.0109 23 18.5069ZM15.3633 14.0156H22.1016C22.5976 14.0156 23 14.4178 23 14.9141C23 15.4103 22.5976 15.8125 22.1016 15.8125H15.3633C14.867 15.8125 14.4649 15.4103 14.4649 14.9141C14.4649 14.4178 14.867 14.0156 15.3633 14.0156ZM23 22.1016C23 22.5978 22.5976 23 22.1016 23H15.3633C14.867 23 14.4649 22.5978 14.4649 22.1016C14.4649 21.6053 14.867 21.2031 15.3633 21.2031H22.1016C22.5976 21.2031 23 21.6053 23 22.1016Z" fill="#49B8FF"/>
</svg>
