<svg width="50" height="50" viewBox="0 0 50 50" fill="none" xmlns="http://www.w3.org/2000/svg">
<path d="M18.9244 20.7317C20.9746 20.7317 22.9787 20.1238 24.6833 18.9847C26.388 17.8457 27.7166 16.2268 28.5012 14.3327C29.2858 12.4386 29.491 10.3544 29.0911 8.34358C28.6911 6.3328 27.7038 4.48578 26.2542 3.03609C24.8045 1.5864 22.9574 0.59915 20.9467 0.199182C18.9359 -0.200787 16.8517 0.00449133 14.9575 0.789058C13.0634 1.57362 11.4445 2.90224 10.3055 4.6069C9.16648 6.31155 8.55853 8.31568 8.55853 10.3659C8.56176 13.1141 9.65491 15.7488 11.5982 17.6921C13.5415 19.6353 16.1762 20.7285 18.9244 20.7317ZM18.9244 3.65854C20.251 3.65854 21.5478 4.05192 22.6508 4.78893C23.7538 5.52594 24.6135 6.57348 25.1211 7.79908C25.6288 9.02468 25.7616 10.3733 25.5028 11.6744C25.244 12.9755 24.6052 14.1706 23.6672 15.1086C22.7291 16.0467 21.534 16.6855 20.2329 16.9443C18.9318 17.2031 17.5832 17.0703 16.3576 16.5626C15.132 16.0549 14.0845 15.1953 13.3475 14.0922C12.6104 12.9892 12.2171 11.6924 12.2171 10.3659C12.219 8.58756 12.9263 6.88265 14.1837 5.62521C15.4412 4.36776 17.1461 3.66048 18.9244 3.65854ZM25.9293 28.1951C25.2179 28.0902 24.4995 28.0413 23.7805 28.0488H14.0244C12.6315 27.9414 11.232 28.1376 9.92234 28.6237C8.61268 29.1099 7.42409 29.8744 6.4386 30.8645C5.45311 31.8546 4.6942 33.0468 4.21423 34.3587C3.73426 35.6706 3.54467 37.0711 3.65854 38.4634C3.65854 42.2756 5.3 43.9024 9.14634 43.9024H21.3415C21.8266 43.9024 22.2919 44.0952 22.6349 44.4382C22.978 44.7813 23.1707 45.2466 23.1707 45.7317C23.1707 46.2169 22.978 46.6821 22.6349 47.0252C22.2919 47.3682 21.8266 47.561 21.3415 47.561H9.14634C3.24878 47.561 0 44.3293 0 38.4634C0 31.9707 3.67317 24.3902 14.0244 24.3902H23.7805C24.694 24.3817 25.6067 24.447 26.5098 24.5854C26.747 24.623 26.9744 24.7072 27.1791 24.8329C27.3837 24.9587 27.5615 25.1237 27.7022 25.3183C27.8429 25.513 27.9438 25.7335 27.9991 25.9673C28.0544 26.201 28.063 26.4434 28.0244 26.6805C27.9435 27.1573 27.6786 27.5832 27.2867 27.8665C26.8948 28.1498 26.4073 28.2678 25.9293 28.1951Z" fill="#28C76F"/>
<path d="M50 38.375C50 44.7953 44.7953 50 38.375 50C31.9547 50 26.75 44.7953 26.75 38.375C26.75 31.9547 31.9547 26.75 38.375 26.75C44.7953 26.75 50 31.9547 50 38.375ZM29.9983 38.375C29.9983 43.0013 33.7487 46.7517 38.375 46.7517C43.0013 46.7517 46.7517 43.0013 46.7517 38.375C46.7517 33.7487 43.0013 29.9983 38.375 29.9983C33.7487 29.9983 29.9983 33.7487 29.9983 38.375Z" fill="#28C76F"/>
<path d="M34.25 37.6196L36.9049 40.4406C37.1935 40.7474 37.6781 40.7563 37.9779 40.4604L42.75 35.75" stroke="#28C76F" stroke-width="2.5" stroke-linecap="round"/>
</svg>
