<svg width="50" height="50" viewBox="0 0 50 50" fill="none" xmlns="http://www.w3.org/2000/svg">
<rect width="50" height="50" fill="#F5F5F5"/>
<path d="M32.985 42.4665H18.164C15.5415 42.4665 13.408 40.333 13.408 37.7105V13.483C13.408 10.8605 15.5415 8.72701 18.164 8.72701H32.9855C35.608 8.72701 37.7415 10.8605 37.7415 13.483V37.7105C37.7415 40.333 35.6075 42.4665 32.985 42.4665ZM18.164 10.463C16.499 10.463 15.144 11.818 15.144 13.483V37.7105C15.144 39.3755 16.499 40.7305 18.164 40.7305H32.985C34.65 40.7305 36.005 39.3755 36.005 37.7105L36.0055 13.483C36.0055 11.818 34.6505 10.463 32.9855 10.463H18.164Z" fill="#A30DC9" fill-opacity="0.4"/>
<path d="M32.7195 22.091H18.0995C17.823 22.091 17.5995 21.867 17.5995 21.591C17.5995 21.315 17.823 21.091 18.0995 21.091H32.7195C32.996 21.091 33.2195 21.315 33.2195 21.591C33.2195 21.867 32.996 22.091 32.7195 22.091Z" fill="#A30DC9" fill-opacity="0.4"/>
<path d="M32.7195 25.091H18.0995C17.823 25.091 17.5995 24.867 17.5995 24.591C17.5995 24.315 17.823 24.091 18.0995 24.091H32.7195C32.996 24.091 33.2195 24.315 33.2195 24.591C33.2195 24.867 32.996 25.091 32.7195 25.091Z" fill="#A30DC9" fill-opacity="0.4"/>
<path d="M32.7195 16.091H18.0995C17.823 16.091 17.5995 15.867 17.5995 15.591C17.5995 15.315 17.823 15.091 18.0995 15.091H32.7195C32.996 15.091 33.2195 15.315 33.2195 15.591C33.2195 15.867 32.996 16.091 32.7195 16.091Z" fill="#A30DC9" fill-opacity="0.4"/>
<path d="M32.7195 19.091H18.0995C17.823 19.091 17.5995 18.867 17.5995 18.591C17.5995 18.315 17.823 18.091 18.0995 18.091H32.7195C32.996 18.091 33.2195 18.315 33.2195 18.591C33.2195 18.867 32.996 19.091 32.7195 19.091Z" fill="#A30DC9" fill-opacity="0.4"/>
<path d="M25.7195 28.091H18.0995C17.823 28.091 17.5995 27.867 17.5995 27.591C17.5995 27.315 17.823 27.091 18.0995 27.091H25.7195C25.996 27.091 26.2195 27.315 26.2195 27.591C26.2195 27.867 25.996 28.091 25.7195 28.091Z" fill="#A30DC9" fill-opacity="0.4"/>
<path d="M25.2645 36.6355C25.492 36.411 25.604 36.118 25.604 35.7415C25.604 35.3655 25.492 35.0725 25.262 34.8455C25.0255 34.6185 24.714 34.507 24.313 34.507H23.7535V36.976H24.313C24.7145 36.9765 25.026 36.865 25.2645 36.6355Z" fill="#A30DC9" fill-opacity="0.4"/>
<path d="M21.3795 35.3645C21.465 35.2835 21.5045 35.177 21.5045 35.028C21.5045 34.788 21.399 34.65 21.1525 34.568C21.0435 34.532 20.896 34.5135 20.7145 34.5135H19.9915V35.5435H20.7145C21.032 35.5425 21.256 35.483 21.3795 35.3645Z" fill="#A30DC9" fill-opacity="0.4"/>
<path d="M17.9815 36.808H17.925C17.773 36.808 17.6355 36.8655 17.5255 36.9745C17.417 37.0835 17.36 37.221 17.36 37.4065C17.36 37.5585 17.417 37.6965 17.5265 37.806C17.6355 37.914 17.773 37.9715 17.925 37.9715H17.9815C18.134 37.9715 18.272 37.914 18.3795 37.8055C18.4885 37.697 18.546 37.559 18.546 37.3725C18.546 37.22 18.4885 37.082 18.3805 36.974C18.272 36.8655 18.134 36.808 17.9815 36.808Z" fill="#A30DC9" fill-opacity="0.4"/>
<path d="M20.7645 33.5295H19.483C19.3435 33.5295 19.2195 33.582 19.1225 33.682C19.0285 33.7795 18.9795 33.9025 18.9795 34.038V37.4795C18.9795 37.617 19.0305 37.7405 19.1265 37.8365C19.222 37.932 19.3455 37.9825 19.483 37.9825C19.6185 37.9825 19.7415 37.933 19.839 37.8395C19.9385 37.7435 19.9915 37.619 19.9915 37.4795V36.526H20.765C21.3545 36.526 21.81 36.3645 22.117 36.048C22.382 35.7835 22.5165 35.44 22.5165 35.0275C22.5165 34.615 22.382 34.272 22.1195 34.01C21.8095 33.691 21.354 33.5295 20.7645 33.5295ZM19.991 34.513H20.714C20.8955 34.513 21.043 34.5315 21.152 34.5675C21.3985 34.65 21.504 34.7875 21.504 35.0275C21.504 35.1765 21.4645 35.2835 21.379 35.364C21.2555 35.4825 21.032 35.542 20.714 35.542H19.991V34.513Z" fill="#A30DC9" fill-opacity="0.4"/>
<path d="M26.058 34.2435C25.639 33.7695 25.0725 33.5295 24.375 33.5295H23.2445C23.1045 33.5295 22.98 33.5825 22.8845 33.682C22.7905 33.7795 22.7415 33.9025 22.7415 34.038V37.4515C22.7415 37.589 22.7925 37.7125 22.8875 37.808C22.983 37.904 23.1065 37.9545 23.2445 37.9545H24.375C25.073 37.9545 25.639 37.7145 26.0565 37.242C26.2435 37.0335 26.3845 36.794 26.4755 36.529C26.565 36.27 26.61 36.005 26.61 35.742C26.61 35.4785 26.565 35.214 26.4755 34.955C26.385 34.6905 26.2435 34.4505 26.058 34.2435ZM23.7535 34.5075H24.313C24.7145 34.5075 25.026 34.619 25.262 34.846C25.492 35.073 25.604 35.366 25.604 35.742C25.604 36.118 25.492 36.4115 25.2645 36.636C25.0255 36.865 24.714 36.977 24.313 36.977H23.7535V34.5075Z" fill="#A30DC9" fill-opacity="0.4"/>
<path d="M29.65 34.5075C29.782 34.5075 29.901 34.46 29.994 34.3705C30.0905 34.278 30.1415 34.1575 30.1415 34.0215C30.1415 33.888 30.092 33.7675 29.9975 33.6725C29.9035 33.579 29.783 33.5295 29.65 33.5295H27.4625C27.323 33.5295 27.199 33.582 27.102 33.682C27.008 33.7795 26.959 33.9025 26.959 34.038V37.4795C26.959 37.617 27.01 37.7405 27.106 37.8365C27.2015 37.932 27.325 37.9825 27.4625 37.9825C27.598 37.9825 27.721 37.933 27.8185 37.8395C27.918 37.7435 27.971 37.619 27.971 37.4795V36.228H29.4535C29.586 36.228 29.705 36.1805 29.7975 36.091C29.894 35.9985 29.945 35.878 29.945 35.742C29.945 35.608 29.895 35.488 29.8015 35.394C29.708 35.3 29.587 35.25 29.453 35.25H27.9705V34.507L29.65 34.5075Z" fill="#A30DC9" fill-opacity="0.4"/>
</svg>
