<svg width="200" height="200" viewBox="0 0 200 200" fill="none" xmlns="http://www.w3.org/2000/svg">
<path d="M143.362 59.1849L76.8824 125.663L56.6372 105.419C53.8475 102.629 49.3253 102.629 46.5356 105.419C43.7459 108.209 43.7459 112.731 46.5356 115.521L71.8317 140.817C73.2261 142.212 75.0539 142.909 76.8824 142.909C78.7102 142.909 80.5388 142.211 81.9332 140.817L153.463 69.2857C156.253 66.496 156.253 61.9738 153.463 59.1841C150.675 56.3952 146.151 56.3952 143.362 59.1849Z" fill="#1DB958"/>
<path d="M100 0C44.8595 0 0 44.8595 0 100C0 155.14 44.8595 200 100 200C155.14 200 200 155.14 200 100C200 44.8595 155.14 0 100 0ZM100 185.714C52.7373 185.714 14.2857 147.263 14.2857 100C14.2857 52.7373 52.7373 14.2857 100 14.2857C147.263 14.2857 185.714 52.7373 185.714 100C185.714 147.263 147.263 185.714 100 185.714Z" fill="#1DB958"/>
</svg>
